<svg width="48" height="42" viewBox="0 0 48 42" fill="none" xmlns="http://www.w3.org/2000/svg">
<path fill-rule="evenodd" clip-rule="evenodd" d="M10.9605 41.2794H4.40863C3.79 41.2794 3.28385 40.7733 3.28385 40.1547V32.5343H1.11865C0.696853 32.5343 0.30318 32.3093 0.106343 31.9156C-0.0623737 31.522 -0.0342542 31.0721 0.218821 30.7346L6.79879 21.9895C6.99562 21.7083 7.33306 21.5395 7.69861 21.5395C8.03604 21.5395 8.37348 21.7083 8.59843 21.9895L15.0659 30.6503C15.2628 30.8471 15.3752 31.1283 15.3752 31.4095C15.3752 32.0281 14.8691 32.5343 14.2505 32.5343H12.0853V40.1547C12.0853 40.7733 11.5791 41.2794 10.9605 41.2794ZM27.2698 41.2794H20.6898C20.0712 41.2794 19.5932 40.7733 19.5932 40.1547V29.2443H17.428C17.0062 29.2443 16.6125 28.9912 16.4157 28.6257C16.2188 28.232 16.2751 27.7821 16.5281 27.4446L23.08 18.6995C23.3049 18.4183 23.6424 18.2496 23.9798 18.2496C24.3454 18.2496 24.6828 18.4183 24.8796 18.6995L31.3752 27.3603C31.5721 27.5571 31.6846 27.8102 31.6846 28.1195C31.6846 28.7381 31.1784 29.2443 30.5598 29.2443H28.3946V40.1547C28.3946 40.7733 27.8884 41.2794 27.2698 41.2794ZM43.5791 41.2794H36.9991C36.3805 41.2794 35.8744 40.7733 35.8744 40.1547V25.9543H33.7092C33.2874 25.9543 32.8937 25.7012 32.725 25.3357C32.5281 24.942 32.5563 24.4921 32.8093 24.1547L39.3893 15.4095C39.5861 15.1283 39.9236 14.9596 40.2891 14.9596C40.6266 14.9596 40.964 15.1283 41.1889 15.4095L47.6846 24.0703C47.8533 24.2671 47.9939 24.5202 47.9939 24.8295C47.9939 25.4482 47.4877 25.9543 46.8691 25.9543H44.7039V40.1547C44.7039 40.7733 44.1977 41.2794 43.5791 41.2794ZM4.26803 20.7241C4.01496 20.7241 3.79 20.6397 3.59316 20.4991C3.25573 20.246 3.05889 19.7961 3.14325 19.3743L3.76188 16.1406L1.37172 13.891C1.06241 13.5817 0.921809 13.1318 1.06241 12.71C1.203 12.3163 1.56856 12.007 1.99035 11.9508L5.28033 11.529L6.65819 8.54833C6.85503 8.15466 7.2487 7.90158 7.69861 7.90158C8.1204 7.90158 8.51408 8.15466 8.71091 8.54833L10.1169 11.529L13.3788 11.9508C13.8005 12.007 14.1661 12.3163 14.3067 12.71C14.4473 13.1318 14.3067 13.5817 13.9974 13.891L11.6072 16.1406L12.2259 19.3743C12.3102 19.7961 12.1134 20.246 11.7759 20.4991C11.4104 20.7522 10.9605 20.7803 10.5668 20.5835L7.69861 18.9807L4.8023 20.5835C4.63358 20.6678 4.43675 20.7241 4.26803 20.7241ZM20.5492 17.0404C20.3243 17.0404 20.0993 16.9561 19.9025 16.8155C19.5369 16.5624 19.3682 16.1125 19.4526 15.6907L20.0712 12.4569L17.681 10.2074C17.3436 9.89807 17.2311 9.44815 17.3717 9.02636C17.5123 8.63269 17.8779 8.32337 18.2997 8.26714L21.5615 7.87346L22.9675 4.86468C23.1643 4.471 23.558 4.21793 23.9798 4.21793C24.4297 4.21793 24.8234 4.471 24.9921 4.86468L26.3981 7.87346L29.6599 8.26714C30.1099 8.32337 30.4754 8.63269 30.616 9.02636C30.7285 9.44815 30.616 9.89807 30.3067 10.2074L27.8884 12.4569L28.507 15.6907C28.5914 16.1125 28.4227 16.5624 28.0853 16.8155C27.7197 17.0685 27.2417 17.0967 26.8761 16.8998L23.9798 15.297L21.1116 16.8998C20.9429 16.9842 20.7461 17.0404 20.5492 17.0404ZM43.7197 12.8225C43.5229 12.8225 43.3541 12.7663 43.1854 12.6819L40.2891 11.0791L37.3928 12.6819C37.0273 12.8787 36.5492 12.8506 36.1837 12.5975C35.8462 12.3445 35.6775 11.8946 35.7619 11.4728L36.3805 8.23902L33.9622 5.98946C33.6529 5.68014 33.5404 5.23023 33.681 4.80844C33.7935 4.41476 34.1591 4.10545 34.609 4.04921L37.8708 3.62742L39.2768 0.646749C39.4455 0.253076 39.8392 0 40.2891 0C40.7109 0 41.1046 0.253076 41.3014 0.646749L42.7074 3.62742L45.9693 4.04921C46.4192 4.10545 46.7566 4.41476 46.8972 4.80844C47.0378 5.23023 46.9253 5.68014 46.616 5.98946L44.1977 8.23902L44.8164 11.4728C44.9007 11.8946 44.732 12.3445 44.3665 12.5975C44.1696 12.7381 43.9447 12.8225 43.7197 12.8225Z" fill="#4160FF"/>
</svg>
