<svg width="45" height="39" viewBox="0 0 45 39" fill="none" xmlns="http://www.w3.org/2000/svg">
<path d="M34.5 24H40.5V25.5C40.5 27.975 38.475 30 36 30H26.67C26.88 29.04 26.985 28.035 27 27V26.85C27 18.585 20.265 11.85 12 11.85C10.965 11.85 9.96 11.955 9 12.15C7.95 12.36 6.945 12.69 6 13.11V4.5C6 2.01 8.025 0 10.5 0H36C38.475 0 40.5 2.01 40.5 4.5V6H34.5C30.36 6 27 9.36 27 13.5V16.5C27 20.64 30.36 24 34.5 24ZM45 13.5V16.5C45 18.975 42.975 21 40.5 21H34.5C32.025 21 30 18.975 30 16.5V13.5C30 11.01 32.025 9 34.5 9H40.5C42.975 9 45 11.01 45 13.5ZM37.5 15C37.5 14.175 36.825 13.5 36 13.5C35.175 13.5 34.5 14.175 34.5 15C34.5 15.825 35.175 16.5 36 16.5C36.825 16.5 37.5 15.825 37.5 15ZM24 26.85V27C23.9834 28.0134 23.8423 29.021 23.58 30C22.185 35.1 17.52 38.85 12 38.85C5.385 38.85 0 33.465 0 26.85C0 22.425 2.415 18.54 6 16.47C6.93 15.93 7.935 15.51 9 15.225C9.96 14.985 10.965 14.85 12 14.85C18.615 14.85 24 20.235 24 26.85ZM18 28.35C18 27.75 17.655 27.24 17.145 27C16.95 26.91 16.725 26.85 16.5 26.85H13.5V23.85C13.5 23.025 12.825 22.35 12 22.35C11.175 22.35 10.5 23.025 10.5 23.85V28.35C10.5 29.175 11.175 29.85 12 29.85H16.5C17.325 29.85 18 29.175 18 28.35Z" fill="#4160FF"/>
</svg>
