<svg width="40" height="35" viewBox="0 0 40 35" fill="none" xmlns="http://www.w3.org/2000/svg">
<path fill-rule="evenodd" clip-rule="evenodd" d="M0.000495045 3.26598C0.000495045 2.39979 0.344588 1.56907 0.957078 0.956584C1.56957 0.344094 2.40028 0 3.26647 0H11.1325C11.9987 0 12.8294 0.344094 13.4419 0.956584C14.0544 1.56907 14.3985 2.39979 14.3985 3.26598V11.132C14.3985 11.5609 14.314 11.9856 14.1499 12.3819C13.9858 12.7781 13.7452 13.1382 13.4419 13.4414C13.1387 13.7447 12.7786 13.9853 12.3824 14.1494C11.9861 14.3135 11.5614 14.398 11.1325 14.398H3.26598C2.83709 14.398 2.41239 14.3135 2.01614 14.1494C1.6199 13.9853 1.25986 13.7447 0.956583 13.4414C0.653309 13.1382 0.412739 12.7781 0.248608 12.3819C0.0844773 11.9856 0 11.5609 0 11.132L0.000495045 3.26598ZM25.4504 3.26598C25.4504 2.39979 25.7945 1.56907 26.407 0.956584C27.0195 0.344094 27.8502 0 28.7164 0H36.5819C37.4481 0 38.2788 0.344094 38.8913 0.956584C39.5038 1.56907 39.8479 2.39979 39.8479 3.26598V11.132C39.8479 11.5609 39.7634 11.9856 39.5993 12.3819C39.4352 12.7781 39.1946 13.1382 38.8913 13.4414C38.5881 13.7447 38.228 13.9853 37.8318 14.1494C37.4355 14.3135 37.0108 14.398 36.5819 14.398H28.7164C28.2875 14.398 27.8628 14.3135 27.4665 14.1494C27.0703 13.9853 26.7102 13.7447 26.407 13.4414C26.1037 13.1382 25.8631 12.7781 25.699 12.3819C25.5349 11.9856 25.4504 11.5609 25.4504 11.132V3.26598ZM23.1939 19.3024H38.5618C38.903 19.3024 39.2303 19.1669 39.4716 18.9256C39.7129 18.6843 39.8484 18.3571 39.8484 18.0158C39.8484 17.6746 39.7129 17.3474 39.4716 17.1061C39.2303 16.8648 38.903 16.7292 38.5618 16.7292H1.28709C0.945866 16.7292 0.618615 16.8648 0.377331 17.1061C0.136047 17.3474 0.000495045 17.6746 0.000495045 18.0158C0.000495045 18.3571 0.136047 18.6843 0.377331 18.9256C0.618615 19.1669 0.945866 19.3024 1.28709 19.3024H16.5818L10.6664 29.5482C9.40948 31.7255 10.9806 34.4472 13.4949 34.4472H26.2807C28.7946 34.4472 30.3662 31.7255 29.1093 29.5482L23.1939 19.3024Z" fill="#4160FF"/>
</svg>
