<svg width="42" height="42" viewBox="0 0 42 42" fill="none" xmlns="http://www.w3.org/2000/svg">
<path d="M37.5 27H34.395C33.375 28.155 32.205 29.16 30.93 30C28.08 31.905 24.675 33 21 33C17.325 33 13.92 31.905 11.07 30C9.795 29.16 8.625 28.155 7.605 27H4.5C2.025 27 0 29.025 0 31.5V37.5C0 39.975 2.025 42 4.5 42H37.5C39.975 42 42 39.975 42 37.5V31.5C42 29.025 39.975 27 37.5 27ZM33 37.5H9C8.175 37.5 7.5 36.825 7.5 36C7.5 35.175 8.175 34.5 9 34.5H33C33.825 34.5 34.5 35.175 34.5 36C34.5 36.825 33.825 37.5 33 37.5ZM21 0C12.735 0 6 6.735 6 15C6 19.905 8.37 24.27 12.015 27C14.52 28.89 17.625 30 21 30C24.375 30 27.48 28.89 29.985 27C31.852 25.6056 33.3679 23.7948 34.4121 21.7116C35.4563 19.6284 36 17.3303 36 15C36 6.735 29.265 0 21 0ZM20.25 13.5H21.66C22.6546 13.5 23.6084 13.8951 24.3117 14.5983C25.0149 15.3016 25.41 16.2554 25.41 17.25C25.41 19.08 24.165 20.58 22.5 20.97V22.5C22.5 23.325 21.825 24 21 24C20.175 24 19.5 23.325 19.5 22.5V21.06H18C17.175 21.06 16.5 20.4 16.5 19.56C16.5 18.735 17.175 18.06 18 18.06H21.66C22.08 18.06 22.41 17.73 22.41 17.31C22.41 16.83 22.08 16.5 21.66 16.5H20.25C19.32 16.5009 18.4229 16.1563 17.7327 15.533C17.0426 14.9097 16.6087 14.0521 16.5152 13.1269C16.4218 12.2016 16.6754 11.2746 17.227 10.5259C17.7785 9.77715 18.5886 9.26006 19.5 9.075V7.5C19.5 6.675 20.175 6 21 6C21.825 6 22.5 6.675 22.5 7.5V9H23.91C24.735 9 25.41 9.675 25.41 10.5C25.41 11.325 24.735 12 23.91 12H20.25C19.83 12 19.5 12.33 19.5 12.75C19.5 13.17 19.83 13.5 20.25 13.5Z" fill="#4160FF"/>
</svg>
