<svg width="48" height="48" viewBox="0 0 48 48" fill="none" xmlns="http://www.w3.org/2000/svg">
<path d="M37.2383 22.5542H48.0005C47.6588 16.6736 45.2074 11.1925 41.0077 6.99281C36.8079 2.79309 31.3269 0.341719 25.4463 0V10.7625C31.6404 11.4254 36.5751 16.3601 37.2383 22.5542Z" fill="#4160FF"/>
<path d="M24.0216 37.2715C16.6919 37.2715 10.7288 31.3085 10.7288 23.9787C10.7288 17.1303 15.935 11.4756 22.5974 10.7626V0C16.7166 0.341719 11.2354 2.79309 7.03566 6.99281C2.49862 11.5297 0 17.562 0 23.9784C0 30.3947 2.49862 36.4274 7.03566 40.9643C11.5727 45.5013 17.6052 48 24.0216 48C30.4376 48 36.4702 45.5014 41.0072 40.9643C45.2069 36.7646 47.6583 31.2833 48 25.4026H37.2378C36.5252 32.065 30.8701 37.2715 24.0216 37.2715Z" fill="#4160FF"/>
<path d="M34.4659 23.9787C34.4659 18.2196 29.7805 13.5344 24.0215 13.5344C18.2624 13.5344 13.5771 18.22 13.5771 23.9787C13.5771 29.7378 18.2625 34.4231 24.0215 34.4231C29.7805 34.4231 34.4659 29.7378 34.4659 23.9787ZM25.4457 29.4196V30.1923C25.4457 30.9788 24.8082 31.6164 24.0215 31.6164C23.2347 31.6164 22.5974 30.9789 22.5974 30.1923V29.7155H21.8652C21.0786 29.7155 20.4411 29.078 20.4411 28.2912C20.4411 27.505 21.0786 26.8674 21.8652 26.8674H24.0215C24.4251 26.8674 24.7536 26.5389 24.7536 26.1353C24.7536 25.7315 24.4251 25.403 24.0215 25.403C22.0473 25.403 20.4411 23.7967 20.4411 21.8228C20.4411 20.3543 21.3299 19.0902 22.5974 18.5383V17.7652C22.5974 16.979 23.2349 16.3411 24.0215 16.3411C24.808 16.3411 25.4457 16.979 25.4457 17.7652V18.242H26.1777C26.9644 18.242 27.602 18.88 27.602 19.6662C27.602 20.4529 26.9645 21.0905 26.1777 21.0905H24.0215C23.618 21.0905 23.2895 21.419 23.2895 21.8228C23.2895 22.2264 23.618 22.5545 24.0215 22.5545C25.9958 22.5545 27.602 24.1608 27.602 26.1353C27.602 27.6035 26.7132 28.8677 25.4457 29.4196Z" fill="#4160FF"/>
</svg>
