<svg width="39" height="37" viewBox="0 0 39 37" fill="none" xmlns="http://www.w3.org/2000/svg">
<path d="M4.89326 9.375H37.2933C37.8183 9.375 38.3433 9.525 38.8683 9.75V6.3C38.8683 2.925 36.1683 0.15 32.7933 0V3.45C32.7933 4.275 32.1183 4.95 31.2933 4.95C30.4683 4.95 29.7933 4.2 29.7933 3.45V0H11.2683V3.3C11.2683 4.125 10.5933 4.8 9.76826 4.8C8.94326 4.8 8.26826 4.05 8.26826 3.3V0C4.81826 0 1.96826 2.85 1.96826 6.3V11.325C2.41826 10.125 3.54326 9.375 4.89326 9.375ZM35.8683 29.325C34.8183 31.425 32.7183 32.7 30.4683 32.7H2.34326C3.24326 35.175 5.56826 36.9 8.26826 36.9H32.5683C36.0183 36.9 38.8683 34.05 38.8683 30.6V21.525C38.6433 22.35 38.3433 23.25 38.0433 24.075C37.4433 25.8 36.6933 27.6 35.8683 29.325Z" fill="#4160FF"/>
<path d="M37.2933 12.375H4.89325C4.74325 12.375 4.66825 12.45 4.66825 12.6C4.21825 16.275 3.31825 19.875 2.11825 23.325C1.51825 24.9 0.843251 26.55 0.0932505 28.125C-0.20675 28.8 0.243251 29.7 1.06825 29.7H30.5433C31.6683 29.7 32.7183 29.025 33.2433 28.05C33.9933 26.475 34.6683 24.75 35.2683 23.1C36.4683 19.725 37.2183 16.2 37.5933 12.675C37.5933 12.6 37.5933 12.525 37.5183 12.45C37.4433 12.375 37.3683 12.375 37.2933 12.375ZM25.8933 18.45L19.7433 24.6C19.1433 25.2 18.1683 25.2 17.6433 24.6L13.3683 20.325C12.0183 18.975 14.1183 16.8 15.4683 18.225L18.6933 21.45L23.7933 16.35C25.1433 15 27.2433 17.1 25.8933 18.45Z" fill="#4160FF"/>
</svg>
