<svg width="24" height="24" viewBox="0 0 24 24" fill="none" xmlns="http://www.w3.org/2000/svg">
<path d="M0.125786 23.6978C0.19052 23.791 0.27685 23.8672 0.377405 23.9198C0.47796 23.9724 0.589753 23.9999 0.703238 23.9999H23.2968C23.5275 23.9999 23.7431 23.8866 23.8742 23.6978C23.9391 23.6045 23.9804 23.4969 23.9945 23.3841C24.0087 23.2713 23.9952 23.1568 23.9553 23.0503C23.6813 22.3177 23.1691 21.675 22.961 21.4333C22.8951 21.3562 22.8133 21.2943 22.7212 21.2519C22.6291 21.2095 22.5289 21.1875 22.4275 21.1875H1.57253C1.36722 21.1875 1.17222 21.2774 1.039 21.4333C0.830972 21.675 0.318723 22.3177 0.0447393 23.0503C0.00480499 23.1568 -0.00868329 23.2713 0.00543437 23.3841C0.019552 23.4969 0.0608531 23.6045 0.125786 23.6978ZM2.81252 11.2968H7.07813V19.7812H2.81252V11.2968ZM9.89063 11.2968H14.1094V19.7812H9.89063V11.2968ZM16.9219 11.2968H21.1875V19.7812H16.9219V11.2968ZM1.52191 9.68359C1.65391 9.81611 1.83761 9.89064 2.0193 9.89064L2.01963 9.89055C2.01972 9.89055 2.01986 9.89064 2.01995 9.89017H21.98C21.9801 9.89064 21.9803 9.89055 21.9804 9.89055L21.9807 9.89064C22.1624 9.89064 22.3461 9.81616 22.4781 9.68359C22.6211 9.54053 23.6904 8.42702 23.9999 7.07815H2.06339e-05C0.309629 8.42702 1.3788 9.54053 1.52191 9.68359ZM23.5525 5.67185L12.3145 0.0741444C12.2168 0.0253832 12.1092 0 12 0C11.8908 0 11.7832 0.0253832 11.6855 0.0741444L0.447535 5.67185H23.5525Z" fill="#747474"/>
</svg>
