<svg width="40" height="40" viewBox="0 0 40 40" fill="none" xmlns="http://www.w3.org/2000/svg">
<path d="M0.209643 39.4964C0.317534 39.6517 0.461417 39.7787 0.629009 39.8664C0.7966 39.954 0.982921 39.9999 1.17206 39.9999H38.8279C39.2125 39.9999 39.5718 39.8111 39.7903 39.4964C39.8986 39.3409 39.9674 39.1614 39.9909 38.9735C40.0144 38.7855 39.992 38.5946 39.9254 38.4172C39.4688 37.1962 38.6151 36.125 38.2683 35.7222C38.1585 35.5937 38.0221 35.4906 37.8686 35.4199C37.7151 35.3491 37.5481 35.3125 37.3791 35.3125H2.62089C2.2787 35.3125 1.9537 35.4624 1.73167 35.7222C1.38495 36.125 0.531205 37.1962 0.0745655 38.4172C0.00800832 38.5946 -0.0144721 38.7855 0.00905728 38.9735C0.0325867 39.1614 0.101422 39.3409 0.209643 39.4964ZM4.68753 18.8281H11.7969V32.9687H4.68753V18.8281ZM16.4844 18.8281H23.5156V32.9687H16.4844V18.8281ZM28.2031 18.8281H35.3125V32.9687H28.2031V18.8281ZM2.53651 16.1393C2.75651 16.3602 3.06268 16.4844 3.3655 16.4844L3.36604 16.4842C3.3662 16.4842 3.36643 16.4844 3.36659 16.4836H36.6334C36.6336 16.4844 36.6338 16.4842 36.6339 16.4842L36.6345 16.4844C36.9373 16.4844 37.2435 16.3603 37.4635 16.1393C37.7019 15.9009 39.4839 14.045 39.9999 11.7969H3.43899e-05C0.516049 14.045 2.298 15.9009 2.53651 16.1393ZM39.2541 9.45309L20.5241 0.123574C20.3614 0.0423054 20.1819 0 20 0C19.8181 0 19.6386 0.0423054 19.4759 0.123574L0.745892 9.45309H39.2541Z" fill="#4160FF"/>
</svg>
