<svg width="24" height="24" viewBox="0 0 24 24" fill="none" xmlns="http://www.w3.org/2000/svg">
<path fill-rule="evenodd" clip-rule="evenodd" d="M4.65783 19.1643V20.4665C4.65783 21.5401 3.77822 22.4197 2.70323 22.4197C1.62825 22.4197 0.75 21.5401 0.75 20.4665V19.1643C0.75 18.0893 1.62961 17.2097 2.70323 17.2097C3.77686 17.2097 4.65783 18.0893 4.65783 19.1643ZM8.90184 12.001C7.82691 12.001 6.94725 12.8793 6.94725 13.9543V20.4664C6.94725 21.5401 7.82686 22.4197 8.90184 22.4197C9.97683 22.4197 10.8551 21.5401 10.8551 20.4664V13.9543C10.8551 12.8793 9.97547 12.001 8.90184 12.001ZM15.0991 6.79107C14.0242 6.79107 13.1459 7.66937 13.1459 8.74431V20.4664C13.1459 21.5401 14.0242 22.4197 15.0991 22.4197C16.174 22.4197 17.0523 21.5401 17.0523 20.4664V8.74431C17.0523 7.66937 16.174 6.79107 15.0991 6.79107ZM21.2963 1.58105C20.2214 1.58105 19.3431 2.46066 19.3431 3.53429V20.4664C19.3431 21.5401 20.2214 22.4197 21.2963 22.4197C22.3712 22.4197 23.2495 21.5401 23.2495 20.4664V3.53434C23.2495 2.46071 22.3712 1.58105 21.2963 1.58105Z" fill="#4160FF"/>
</svg>
