<svg width="24" height="23" viewBox="0 0 24 23" fill="none" xmlns="http://www.w3.org/2000/svg">
<g filter="url(#filter0_d_325_3944)">
<path d="M20.8933 0H18.7757V2.11765C18.7757 2.54118 18.4227 2.82353 18.0698 2.82353C17.7168 2.82353 17.3639 2.54118 17.3639 2.11765V0H6.06978V2.11765C6.06978 2.54118 5.71684 2.82353 5.3639 2.82353C5.01096 2.82353 4.65802 2.54118 4.65802 2.11765V0H2.54037C1.48155 0 0.705078 0.917647 0.705078 2.11765V4.65882H23.2933V2.11765C23.2933 0.917647 22.0227 0 20.8933 0ZM0.705078 6.14118V19.0588C0.705078 20.3294 1.48155 21.1765 2.61096 21.1765H20.9639C22.0933 21.1765 23.3639 20.2588 23.3639 19.0588V6.14118H0.705078ZM6.98743 18H5.29331C5.01096 18 4.72861 17.7882 4.72861 17.4353V15.6706C4.72861 15.3882 4.94037 15.1059 5.29331 15.1059H7.05802C7.34037 15.1059 7.62273 15.3176 7.62273 15.6706V17.4353C7.55214 17.7882 7.34037 18 6.98743 18ZM6.98743 11.6471H5.29331C5.01096 11.6471 4.72861 11.4353 4.72861 11.0824V9.31765C4.72861 9.03529 4.94037 8.75294 5.29331 8.75294H7.05802C7.34037 8.75294 7.62273 8.96471 7.62273 9.31765V11.0824C7.55214 11.4353 7.34037 11.6471 6.98743 11.6471ZM12.6345 18H10.8698C10.5874 18 10.3051 17.7882 10.3051 17.4353V15.6706C10.3051 15.3882 10.5168 15.1059 10.8698 15.1059H12.6345C12.9168 15.1059 13.1992 15.3176 13.1992 15.6706V17.4353C13.1992 17.7882 12.9874 18 12.6345 18ZM12.6345 11.6471H10.8698C10.5874 11.6471 10.3051 11.4353 10.3051 11.0824V9.31765C10.3051 9.03529 10.5168 8.75294 10.8698 8.75294H12.6345C12.9168 8.75294 13.1992 8.96471 13.1992 9.31765V11.0824C13.1992 11.4353 12.9874 11.6471 12.6345 11.6471ZM18.2815 18H16.5168C16.2345 18 15.9521 17.7882 15.9521 17.4353V15.6706C15.9521 15.3882 16.1639 15.1059 16.5168 15.1059H18.2815C18.5639 15.1059 18.8463 15.3176 18.8463 15.6706V17.4353C18.8463 17.7882 18.6345 18 18.2815 18ZM18.2815 11.6471H16.5168C16.2345 11.6471 15.9521 11.4353 15.9521 11.0824V9.31765C15.9521 9.03529 16.1639 8.75294 16.5168 8.75294H18.2815C18.5639 8.75294 18.8463 8.96471 18.8463 9.31765V11.0824C18.8463 11.4353 18.6345 11.6471 18.2815 11.6471Z" fill="white"/>
</g>
<defs>
<filter id="filter0_d_325_3944" x="-3.29492" y="0" width="30.6582" height="29.1765" filterUnits="userSpaceOnUse" color-interpolation-filters="sRGB">
<feFlood flood-opacity="0" result="BackgroundImageFix"/>
<feColorMatrix in="SourceAlpha" type="matrix" values="0 0 0 0 0 0 0 0 0 0 0 0 0 0 0 0 0 0 127 0" result="hardAlpha"/>
<feOffset dy="4"/>
<feGaussianBlur stdDeviation="2"/>
<feComposite in2="hardAlpha" operator="out"/>
<feColorMatrix type="matrix" values="0 0 0 0 0 0 0 0 0 0 0 0 0 0 0 0 0 0 0.25 0"/>
<feBlend mode="normal" in2="BackgroundImageFix" result="effect1_dropShadow_325_3944"/>
<feBlend mode="normal" in="SourceGraphic" in2="effect1_dropShadow_325_3944" result="shape"/>
</filter>
</defs>
</svg>
