<svg width="20" height="20" viewBox="0 0 20 20" fill="none" xmlns="http://www.w3.org/2000/svg">
<path fill-rule="evenodd" clip-rule="evenodd" d="M9.38347 0.212254C9.55935 0.0747189 9.7762 0 9.99947 0C10.2227 0 10.4396 0.0747189 10.6155 0.212254L12.2755 1.50925L14.3605 1.21625C14.5813 1.18524 14.8061 1.22892 14.9993 1.34035C15.1924 1.45178 15.3428 1.62457 15.4265 1.83125L16.2155 3.78425L18.1685 4.57325C18.3753 4.65676 18.5484 4.80705 18.66 5.00022C18.7716 5.19338 18.8154 5.41832 18.7845 5.63925L18.4905 7.72525L19.7875 9.38525C19.9245 9.56097 19.9989 9.77742 19.9989 10.0003C19.9989 10.2231 19.9245 10.4395 19.7875 10.6153L18.4905 12.2753L18.7845 14.3613C18.8154 14.5822 18.7716 14.8071 18.66 15.0003C18.5484 15.1935 18.3753 15.3437 18.1685 15.4273L16.2155 16.2163L15.4265 18.1693C15.343 18.3761 15.1927 18.5491 14.9995 18.6608C14.8063 18.7724 14.5814 18.8162 14.3605 18.7853L12.2745 18.4913L10.6145 19.7883C10.4388 19.9253 10.2223 19.9997 9.99947 19.9997C9.77664 19.9997 9.56019 19.9253 9.38447 19.7883L7.72447 18.4913L5.63847 18.7853C5.41754 18.8162 5.1926 18.7724 4.99944 18.6608C4.80627 18.5491 4.65598 18.3761 4.57247 18.1693L3.78347 16.2163L1.83047 15.4273C1.62379 15.3436 1.451 15.1932 1.33957 15.0001C1.22814 14.8069 1.18446 14.5821 1.21547 14.3613L1.50847 12.2753L0.211473 10.6153C0.0744286 10.4395 0 10.2231 0 10.0003C0 9.77742 0.0744286 9.56097 0.211473 9.38525L1.50847 7.72525L1.21547 5.63925C1.18446 5.41844 1.22814 5.19359 1.33957 5.00044C1.451 4.8073 1.62379 4.65694 1.83047 4.57325L3.78347 3.78425L4.57247 1.83125C4.65615 1.62457 4.80652 1.45178 4.99966 1.34035C5.19281 1.22892 5.41766 1.18524 5.63847 1.21625L7.72447 1.50925L9.38347 0.212254ZM13.7065 8.70725C13.8886 8.51865 13.9894 8.26605 13.9871 8.00385C13.9849 7.74166 13.8797 7.49084 13.6943 7.30544C13.5089 7.12003 13.2581 7.01486 12.9959 7.01258C12.7337 7.0103 12.4811 7.1111 12.2925 7.29325L8.99947 10.5863L7.70647 9.29325C7.51787 9.1111 7.26527 9.0103 7.00307 9.01258C6.74088 9.01486 6.49006 9.12003 6.30465 9.30544C6.11925 9.49084 6.01408 9.74166 6.0118 10.0039C6.00952 10.266 6.11031 10.5187 6.29247 10.7073L8.29247 12.7073C8.48 12.8947 8.73431 13 8.99947 13C9.26464 13 9.51894 12.8947 9.70647 12.7073L13.7065 8.70725Z" fill="white"/>
</svg>
