<svg width="40" height="31" viewBox="0 0 40 31" fill="none" xmlns="http://www.w3.org/2000/svg">
<path d="M20.2282 11.1044C20.8885 11.1044 21.5176 11.2424 22.0897 11.4907C22.1325 10.5573 22.4543 9.69416 22.9704 8.97965C22.6014 8.90234 22.2254 8.86335 21.8484 8.86328H18.2121C17.8291 8.86328 17.4543 8.90329 17.0938 8.97842C17.6635 9.76494 17.9726 10.7102 17.9777 11.6813C18.6671 11.302 19.4414 11.1035 20.2282 11.1044Z" fill="url(#paint0_linear_723_3751)"/>
<path d="M20.0277 8.57096C22.3945 8.57096 24.3131 6.65229 24.3131 4.28548C24.3131 1.91868 22.3945 0 20.0277 0C17.6609 0 15.7422 1.91868 15.7422 4.28548C15.7422 6.65229 17.6609 8.57096 20.0277 8.57096Z" fill="url(#paint1_linear_723_3751)"/>
<path d="M26.759 15.8848C27.8061 15.8848 28.8104 15.4688 29.5508 14.7284C30.2912 13.988 30.7072 12.9837 30.7072 11.9366C30.7073 11.4181 30.6053 10.9046 30.4069 10.4255C30.2085 9.94646 29.9177 9.51117 29.551 9.14452C29.1844 8.77787 28.7491 8.48705 28.27 8.28867C27.7909 8.09029 27.2775 7.98824 26.759 7.98835C24.5983 7.98835 22.8463 9.72402 22.8136 11.877C24.0585 12.6576 24.9314 13.9781 25.0907 15.5108C25.6125 15.7567 26.1821 15.8844 26.759 15.8848ZM13.2982 7.98794C11.1167 7.98794 9.34961 9.75546 9.34961 11.9362C9.34961 14.1169 11.1167 15.884 13.2982 15.884C14.0417 15.8837 14.7699 15.6725 15.3981 15.2748C15.5895 14.0392 16.2468 12.9238 17.235 12.1579C17.2391 12.084 17.2461 12.0109 17.2461 11.9362C17.2461 9.75546 15.4781 7.98794 13.2982 7.98794ZM29.3235 7.90383C30.5684 8.6845 31.4413 10.0049 31.6001 11.5381C32.122 11.7839 32.6916 11.9116 33.2684 11.9121C33.7869 11.9121 34.3004 11.81 34.7794 11.6116C35.2585 11.4133 35.6937 11.1224 36.0604 10.7558C36.427 10.3892 36.7178 9.95388 36.9162 9.47484C37.1146 8.99579 37.2167 8.48236 37.2167 7.96385C37.2167 7.44535 37.1146 6.93191 36.9162 6.45287C36.7178 5.97382 36.427 5.53855 36.0604 5.17191C35.6937 4.80528 35.2585 4.51445 34.7794 4.31606C34.3004 4.11766 33.7869 4.01557 33.2684 4.01563C31.1081 4.01522 29.3561 5.75129 29.3235 7.90383Z" fill="url(#paint2_linear_723_3751)"/>
<path d="M20.226 19.9598C22.4068 19.9598 24.1746 18.1919 24.1746 16.0111C24.1746 13.8304 22.4068 12.0625 20.226 12.0625C18.0452 12.0625 16.2773 13.8304 16.2773 16.0111C16.2773 18.1919 18.0452 19.9598 20.226 19.9598Z" fill="url(#paint3_linear_723_3751)"/>
<path d="M28.4347 16.1523H25.1095C25.0757 17.436 24.5357 18.6543 23.6074 19.5416C26.085 20.279 27.8982 22.5769 27.8982 25.2912V26.5537C31.1809 26.4324 33.073 25.5032 33.1975 25.4395L33.4613 25.3055H33.4886V21.2079C33.4894 18.42 31.2217 16.1523 28.4347 16.1523Z" fill="url(#paint4_linear_723_3751)"/>
<path d="M34.945 12.1797H31.6206C31.5869 13.4633 31.0471 14.6816 30.1189 15.569C32.5965 16.3063 34.4093 18.6038 34.4093 21.3182V22.5806C37.6916 22.4598 39.584 21.5305 39.7086 21.4664L39.9723 21.3329H40.0005V17.2352C40.0005 14.4478 37.7328 12.1797 34.945 12.1797ZM16.8456 19.5413C15.9226 18.6583 15.3834 17.448 15.3443 16.1712C15.2214 16.1622 15.0993 16.152 14.9736 16.152H11.6243C8.83645 16.152 6.56836 18.4201 6.56836 21.2079V25.306L6.57857 25.3693L6.8607 25.4583C8.99487 26.1251 10.9 26.4313 12.554 26.5285V25.2909C12.5548 22.577 14.3672 20.2791 16.8456 19.5413Z" fill="url(#paint5_linear_723_3751)"/>
<path d="M21.9023 20.23H18.5518C15.7639 20.23 13.4958 22.4989 13.4958 25.2855V29.3836L13.5065 29.4477L13.7882 29.5359C16.4486 30.3667 18.76 30.6444 20.6618 30.6444C24.3778 30.6444 26.5311 29.5849 26.6642 29.5175L26.928 29.3836H26.9557V25.2855C26.957 22.498 24.6893 20.23 21.9023 20.23ZM6.73118 12.0375C7.308 12.0369 7.87762 11.9092 8.39948 11.6635C8.55871 10.1303 9.43124 8.8095 10.6761 8.02883C10.6435 5.8767 8.89147 4.14063 6.73118 4.14063C6.21262 4.14057 5.69913 4.24267 5.22004 4.44109C4.74094 4.63951 4.30563 4.93036 3.93895 5.29703C3.57227 5.66371 3.28142 6.09903 3.083 6.57812C2.88459 7.05721 2.78249 7.5707 2.78254 8.08926C2.78254 8.60778 2.88468 9.12123 3.08312 9.60028C3.28156 10.0793 3.57242 10.5146 3.93909 10.8812C4.30576 11.2479 4.74106 11.5387 5.22013 11.7371C5.6992 11.9355 6.21265 12.0375 6.73118 12.0375ZM9.88159 15.6962C8.95358 14.8085 8.41396 13.59 8.38029 12.3061H5.05553C2.26768 12.3066 0 14.5746 0 17.3621V21.4602H0.0281725L0.291932 21.5937C0.416871 21.6565 2.30851 22.5871 5.59121 22.7075V21.445C5.59121 18.7311 7.40364 16.4332 9.88159 15.6962Z" fill="url(#paint6_linear_723_3751)"/>
<path d="M11.348 7.59816C11.8217 7.40626 12.5444 7.17067 13.2344 7.17067C14.0375 7.17067 14.8231 7.37727 15.5237 7.77046C15.6801 7.61655 15.8235 7.44994 15.9524 7.27234C15.2854 6.39634 14.924 5.32584 14.9235 4.22481C14.9235 3.48253 15.0893 2.74596 15.4053 2.07676C14.6903 1.42754 13.7584 1.06913 12.7926 1.07195C11.9331 1.07277 11.0978 1.35668 10.4158 1.87977C9.73382 2.40287 9.24311 3.13604 9.01953 3.96595C10.3457 4.73763 11.2096 6.08665 11.348 7.59816ZM24.1363 7.049C24.2753 7.26931 24.436 7.47517 24.6161 7.66349C25.2616 7.34043 25.9733 7.1716 26.6951 7.17026C27.401 7.17026 28.0776 7.35073 28.521 7.5018C28.5908 6.69428 28.8681 5.9185 29.3259 5.24965C29.7837 4.5808 30.4066 4.04157 31.1341 3.68423C30.8664 2.92078 30.3683 2.25927 29.7085 1.79105C29.0487 1.32283 28.2599 1.07099 27.4509 1.07031C26.9199 1.06999 26.3945 1.17819 25.9069 1.38826C25.4193 1.59834 24.9797 1.90585 24.6152 2.29194C24.8741 2.90928 25.0052 3.55806 25.0052 4.22318C25.0074 5.23123 24.7045 6.21636 24.1363 7.049Z" fill="url(#paint7_linear_723_3751)"/>
<defs>
<linearGradient id="paint0_linear_723_3751" x1="22.6101" y1="8.76131" x2="23.0057" y2="12.4937" gradientUnits="userSpaceOnUse">
<stop stop-color="#4160FF"/>
<stop offset="1" stop-color="#213269"/>
</linearGradient>
<linearGradient id="paint1_linear_723_3751" x1="23.7877" y1="-0.310136" x2="26.2068" y2="10.6347" gradientUnits="userSpaceOnUse">
<stop stop-color="#4160FF"/>
<stop offset="1" stop-color="#213269"/>
</linearGradient>
<linearGradient id="paint2_linear_723_3751" x1="35.5083" y1="3.58614" x2="36.9917" y2="19.3435" gradientUnits="userSpaceOnUse">
<stop stop-color="#4160FF"/>
<stop offset="1" stop-color="#213269"/>
</linearGradient>
<linearGradient id="paint3_linear_723_3751" x1="23.6905" y1="11.7767" x2="25.9194" y2="21.8613" gradientUnits="userSpaceOnUse">
<stop stop-color="#4160FF"/>
<stop offset="1" stop-color="#213269"/>
</linearGradient>
<linearGradient id="paint4_linear_723_3751" x1="32.8829" y1="15.776" x2="35.9576" y2="28.9916" gradientUnits="userSpaceOnUse">
<stop stop-color="#4160FF"/>
<stop offset="1" stop-color="#213269"/>
</linearGradient>
<linearGradient id="paint5_linear_723_3751" x1="37.951" y1="11.6605" x2="39.7578" y2="30.7071" gradientUnits="userSpaceOnUse">
<stop stop-color="#4160FF"/>
<stop offset="1" stop-color="#213269"/>
</linearGradient>
<linearGradient id="paint6_linear_723_3751" x1="25.3032" y1="3.1816" x2="32.6697" y2="37.0785" gradientUnits="userSpaceOnUse">
<stop stop-color="#4160FF"/>
<stop offset="1" stop-color="#213269"/>
</linearGradient>
<linearGradient id="paint7_linear_723_3751" x1="29.7784" y1="0.827871" x2="30.3766" y2="9.76164" gradientUnits="userSpaceOnUse">
<stop stop-color="#4160FF"/>
<stop offset="1" stop-color="#213269"/>
</linearGradient>
</defs>
</svg>
