<svg width="23" height="23" viewBox="0 0 23 23" fill="none" xmlns="http://www.w3.org/2000/svg">
<path d="M21.2 10.7578H22.4V16.7578H21.2V10.7578ZM0 10.7578H1.2V16.7578H0V10.7578ZM9.8372 22.229C9.96298 22.3272 10.1224 22.3717 10.2809 22.3529C10.4393 22.3341 10.5839 22.2535 10.6832 22.1286L11.3416 21.2942C11.3906 21.2324 11.4269 21.1615 11.4484 21.0856C11.47 21.0097 11.4763 20.9303 11.4672 20.8519C11.458 20.7736 11.4334 20.6978 11.3949 20.6289C11.3564 20.5601 11.3047 20.4995 11.2428 20.4506C11.117 20.3541 10.9584 20.3107 10.801 20.3294C10.6435 20.3482 10.4997 20.4277 10.4 20.551L9.738 21.385C9.63982 21.5103 9.59516 21.6694 9.61374 21.8274C9.63232 21.9855 9.71265 22.1299 9.8372 22.229Z" fill="#4160FF"/>
<path d="M10.2024 10.0272C9.86112 9.9219 9.49255 9.9505 9.1716 10.1072L6.5356 11.4332C6.36948 11.5166 6.1859 11.5594 6 11.558H2V15.9736C2.95743 16.0676 3.89432 16.3105 4.7768 16.6936L5.3108 16.0176C5.54251 15.7274 5.87947 15.5404 6.24835 15.4974C6.61722 15.4544 6.98814 15.5589 7.2804 15.788C7.50857 15.9703 7.67356 16.2199 7.752 16.5012C7.85388 16.4633 7.95977 16.4373 8.0676 16.4236C8.4364 16.3809 8.80706 16.4865 9.09803 16.7171C9.389 16.9477 9.57647 17.2844 9.6192 17.6532C9.63025 17.7596 9.62931 17.867 9.6164 17.9732C9.90732 17.9844 10.1873 18.0872 10.4164 18.2668C10.6032 18.4155 10.749 18.6094 10.84 18.8302C10.931 19.0509 10.9642 19.2912 10.9364 19.5284C11.2303 19.5386 11.5131 19.6426 11.7436 19.8252C11.9862 20.019 12.1576 20.2879 12.2306 20.5898C12.3037 20.8916 12.2744 21.2091 12.1472 21.4924C12.4081 21.7145 12.6651 21.9412 12.918 22.1724C13.0313 22.2879 13.1857 22.3537 13.3475 22.3554C13.5092 22.3571 13.6651 22.2946 13.7808 22.1816C13.8933 22.0691 13.9565 21.9165 13.9565 21.7574C13.9565 21.5983 13.8933 21.4457 13.7808 21.3332C13.7057 21.2582 13.6636 21.1565 13.6635 21.0503C13.6635 20.9442 13.7056 20.8425 13.7806 20.7674C13.8556 20.6923 13.9573 20.6502 14.0635 20.6501C14.1696 20.6501 14.2713 20.6922 14.3464 20.7672C14.402 20.8233 14.4682 20.8678 14.5411 20.8982C14.614 20.9285 14.6922 20.9441 14.7712 20.944C14.8891 20.943 15.0041 20.9072 15.1018 20.8412C15.1995 20.7752 15.2756 20.6819 15.3205 20.5729C15.3655 20.4639 15.3774 20.3441 15.3547 20.2284C15.3319 20.1127 15.2756 20.0063 15.1928 19.9224C15.1194 19.8474 15.0784 19.7465 15.0787 19.6416C15.0789 19.5367 15.1204 19.436 15.1942 19.3614C15.268 19.2868 15.3682 19.2441 15.4731 19.2427C15.5781 19.2412 15.6794 19.281 15.7552 19.3536C15.869 19.4656 16.0223 19.5284 16.182 19.5284C16.3417 19.5284 16.495 19.4656 16.6088 19.3536C16.6646 19.2979 16.7088 19.2317 16.739 19.1589C16.7691 19.0861 16.7847 19.008 16.7847 18.9292C16.7847 18.8504 16.7691 18.7723 16.739 18.6995C16.7088 18.6267 16.6646 18.5605 16.6088 18.5048C16.5338 18.4298 16.4917 18.3281 16.4917 18.222C16.4917 18.1159 16.5338 18.0142 16.6088 17.9392C16.6838 17.8642 16.7855 17.8221 16.8916 17.8221C16.9977 17.8221 17.0994 17.8642 17.1744 17.9392C17.2873 18.0518 17.4402 18.115 17.5996 18.115C17.759 18.115 17.9119 18.0518 18.0248 17.9392C18.0849 17.8779 18.1321 17.8051 18.1635 17.7252C18.1949 17.6453 18.2099 17.5598 18.2076 17.474C18.2065 17.4052 18.1913 17.3374 18.163 17.2747C18.1346 17.212 18.0937 17.1558 18.0428 17.1096C16.6368 15.8716 12.0724 12.498 12.0264 12.464L10.012 14.3508C9.74783 14.6059 9.39515 14.7487 9.02794 14.7494C8.66073 14.75 8.30754 14.6084 8.04246 14.3543C7.77738 14.1002 7.62101 13.7533 7.60615 13.3864C7.5913 13.0195 7.71912 12.6611 7.9628 12.3864L10.2024 10.0272ZM3.2204 7.558H6.4108C6.43236 6.34218 6.60078 5.13341 6.9124 3.958H4.2824C3.64546 5.05575 3.28127 6.29031 3.2204 7.558ZM10.8 0C9.6844 0.2336 8.6908 1.4348 8.0308 3.16H10.8V0ZM8.7756 0.336C7.19522 0.844116 5.81146 1.83012 4.8152 3.158H7.16C7.49597 2.11502 8.04627 1.15379 8.7756 0.336Z" fill="#4160FF"/>
<path d="M3.71275 10.7579H5.99955C6.05922 10.7582 6.11813 10.7445 6.17155 10.7179L6.60395 10.5007C6.49085 9.79166 6.42551 9.07578 6.40835 8.35794H3.21875C3.25808 9.1787 3.42474 9.98836 3.71275 10.7579ZM8.26555 20.9887C8.39119 21.0854 8.54959 21.1292 8.70705 21.1109C8.86451 21.0926 9.00862 21.0136 9.10875 20.8907L10.0184 19.7379C10.108 19.6131 10.1463 19.4586 10.1253 19.3063C10.1044 19.1541 10.0258 19.0157 9.90583 18.9196C9.78584 18.8236 9.63357 18.7773 9.48042 18.7902C9.32728 18.8031 9.18494 18.8743 9.08275 18.9891L8.16595 20.1459C8.06839 20.2713 8.02415 20.43 8.04279 20.5878C8.06143 20.7455 8.14146 20.8896 8.26555 20.9887ZM8.59955 17.3435C8.47447 17.2459 8.31598 17.2014 8.15834 17.2196C8.00071 17.2379 7.85659 17.3175 7.75715 17.4411L6.59955 18.9059C6.55038 18.9672 6.51397 19.0377 6.49247 19.1133C6.47097 19.1888 6.46481 19.268 6.47435 19.3459C6.48813 19.4637 6.53647 19.5747 6.61327 19.6649C6.69007 19.7552 6.79189 19.8207 6.90588 19.8532C7.01986 19.8857 7.14092 19.8837 7.25376 19.8474C7.36661 19.8112 7.46619 19.7423 7.53995 19.6495L8.69995 18.1851C8.79664 18.0596 8.84028 17.9012 8.82151 17.7438C8.80274 17.5865 8.72306 17.4428 8.59955 17.3435ZM5.97155 18.4083L6.88195 17.2579C6.97982 17.1327 7.02434 16.9739 7.00584 16.816C6.98734 16.6582 6.90732 16.514 6.78315 16.4147C6.67743 16.3313 6.54662 16.2861 6.41195 16.2863C6.32073 16.2862 6.23066 16.3067 6.14845 16.3463C6.06624 16.3858 5.99401 16.4434 5.93715 16.5147L5.02995 17.6615C4.98091 17.7234 4.94454 17.7942 4.92289 17.8701C4.90125 17.946 4.89477 18.0254 4.90381 18.1038C4.91285 18.1822 4.93725 18.258 4.97561 18.327C5.01396 18.396 5.06552 18.4567 5.12735 18.5057C5.18918 18.5548 5.26006 18.5912 5.33594 18.6128C5.41183 18.6344 5.49123 18.6409 5.56962 18.6319C5.64801 18.6228 5.72386 18.5984 5.79282 18.5601C5.86178 18.5217 5.92251 18.4702 5.97155 18.4083ZM10.7996 3.95794H7.75955C7.42089 5.12899 7.23627 6.33918 7.21035 7.55794H10.7996V3.95794ZM10.7996 8.35794H7.20835C7.2228 8.94893 7.27154 9.53859 7.35435 10.1239L8.80795 9.39274C9.11902 9.24259 9.4605 9.16615 9.8059 9.16934C10.1513 9.17253 10.4913 9.25527 10.7996 9.41114V8.35794ZM15.4872 3.95794C15.7988 5.13335 15.9672 6.34211 15.9887 7.55794H19.1792C19.1183 6.29025 18.7541 5.05568 18.1171 3.95794H15.4872ZM15.7675 10.7579H18.6876C18.9756 9.98836 19.1422 9.1787 19.1816 8.35794H15.99C15.9717 9.16163 15.8921 9.96276 15.752 10.7543C15.7596 10.7543 15.7619 10.7579 15.7675 10.7579ZM13.624 0.335938C14.3533 1.15373 14.9036 2.11495 15.2395 3.15794H17.5831C16.5872 1.83026 15.2039 0.844274 13.624 0.335938Z" fill="#4160FF"/>
<path d="M8.54958 12.9296C8.49574 12.9949 8.45548 13.0703 8.43115 13.1513C8.40682 13.2324 8.39891 13.3175 8.40789 13.4017C8.41686 13.4858 8.44255 13.5673 8.48343 13.6414C8.52432 13.7155 8.57958 13.7807 8.64598 13.8332C8.76517 13.9223 8.91241 13.9656 9.06086 13.9553C9.20931 13.9449 9.34911 13.8816 9.45478 13.7768L11.4908 11.8848C11.6247 11.7597 11.7977 11.6846 11.9806 11.6721C12.1634 11.6595 12.345 11.7104 12.4948 11.816C12.682 11.954 16.7884 14.9896 18.3808 16.348C19.032 16.1258 19.7117 15.9982 20.3992 15.9692V11.558H15.7672C15.5795 11.5588 15.3943 11.5146 15.2272 11.4292L12.5996 10.1092C12.3301 9.97934 12.0268 9.93717 11.7321 9.98861C11.4374 10.0401 11.1663 10.1825 10.9568 10.396L8.54958 12.9296ZM11.5992 9.1932C11.7233 9.17064 11.8491 9.15886 11.9752 9.158C12.3185 9.15732 12.6571 9.2385 12.9628 9.3948L14.9992 10.4184C15.1096 9.73675 15.1732 9.04834 15.1896 8.358H11.5992V9.1932ZM11.5992 7.558H15.1888C15.1627 6.33922 14.978 5.12903 14.6392 3.958H11.5992V7.558ZM11.5992 0V3.158H14.3684C13.7084 1.4348 12.7148 0.2336 11.5992 0Z" fill="#4160FF"/>
</svg>
