<svg width="40" height="40" viewBox="0 0 40 40" fill="none" xmlns="http://www.w3.org/2000/svg">
<g clip-path="url(#clip0_875_16676)">
<path d="M19.982 18.6453H18.2523V14.5531H20.1641C21.1141 14.5531 21.8227 14.7219 22.2891 15.0586C22.7555 15.3953 22.9891 15.9336 22.9891 16.6727C22.9891 17.3469 22.7391 17.8438 22.2398 18.1648C21.7406 18.4859 20.9875 18.6461 19.9805 18.6461L19.982 18.6453ZM22.6125 21.7203C22.2719 21.5539 21.825 21.4703 21.2727 21.4703H18.2523V25.7695H21.0656C21.9102 25.7695 22.5453 25.6031 22.9719 25.2703C23.3984 24.9375 23.6109 24.4297 23.6109 23.7477C23.6109 23.2359 23.5297 22.8117 23.3672 22.475C23.2047 22.1383 22.9531 21.8867 22.6117 21.7195L22.6125 21.7203ZM40 20C40 31.0461 31.0461 40 20 40C8.95391 40 0 31.0461 0 20C0 8.95391 8.95391 0 20 0C31.0453 0 40 8.95391 40 20ZM27.8617 23.7602C27.8617 23.1516 27.7562 22.5852 27.5453 22.0609C27.3344 21.5375 27.0055 21.0906 26.5586 20.7211C26.1117 20.3516 25.5359 20.0898 24.8289 19.9359C25.657 19.5953 26.2703 19.0938 26.668 18.432C27.0656 17.7703 27.2648 17.0211 27.2648 16.1852C27.2648 14.5617 26.6398 13.3398 25.3891 12.5195C24.5992 12.0016 23.6141 11.6477 22.4328 11.457H22.5594V8.28125H20.6063V11.2953C20.4609 11.2914 20.3141 11.2898 20.1648 11.2898H19.0961V8.28203H17.143V11.2898H12.1391V13.7984L13.9781 14.1883V26.1359L12.1391 26.5258V29.0227H17.143V31.7195H19.0961V29.0227H20.6063V31.7195H22.5594V28.9461C24.0492 28.7852 25.2367 28.3687 26.1203 27.6953C27.2812 26.8102 27.8617 25.4992 27.8617 23.7617V23.7602Z" fill="#4160FF"/>
</g>
<defs>
<clipPath id="clip0_875_16676">
<rect width="40" height="40" fill="white"/>
</clipPath>
</defs>
</svg>
