<svg width="23" height="19" viewBox="0 0 23 19" fill="none" xmlns="http://www.w3.org/2000/svg">
<path d="M19.2825 9.22641C20.2261 9.22641 20.9939 9.99469 20.9939 10.9392C20.9939 11.7656 20.4061 12.457 19.627 12.6173C19.5159 12.6398 19.4006 12.652 19.2825 12.652C19.1644 12.652 19.0491 12.6398 18.938 12.6173C18.1584 12.457 17.5697 11.7656 17.5697 10.9392C17.5697 9.99469 18.3384 9.22641 19.2825 9.22641ZM10.5187 17.768C8.68594 17.6034 6.94125 16.8206 5.60531 15.563C5.57213 15.5316 5.54583 15.4937 5.52808 15.4517C5.51033 15.4097 5.50151 15.3644 5.50219 15.3187C5.50406 15.2264 5.54437 15.1387 5.61375 15.0778L7.02141 13.8389C6.24895 13.7897 5.47594 13.7405 4.70484 13.6917L3.62766 13.6228L3.52688 16.9158L4.39125 16.1541C4.45335 16.0995 4.53372 16.0704 4.61634 16.0725C4.69896 16.0746 4.77776 16.1077 4.83703 16.1653C7.60172 18.8541 11.7506 19.53 15.2208 17.8748V16.7887C13.7962 17.5678 12.1481 17.9142 10.5187 17.768ZM21.0511 13.2741H17.5139C16.6116 13.2741 15.877 14.0081 15.877 14.9109V17.8247H22.687V14.9109C22.687 14.0081 21.953 13.2741 21.0511 13.2741ZM5.99016 3.19636C7.70438 1.77605 9.93937 1.1048 12.1617 1.35136C14.4703 1.6073 16.5764 2.8298 17.9391 4.70573C18.0384 4.84308 18.0173 5.03339 17.8903 5.14495L16.4963 6.37214L19.7752 6.68948C19.8459 5.56777 19.9177 4.43527 19.9903 3.29573L19.1128 4.0687C19.0789 4.09859 19.0391 4.12114 18.996 4.13493C18.953 4.14872 18.9075 4.15345 18.8625 4.14883C18.8175 4.14421 18.774 4.13033 18.7346 4.10807C18.6952 4.08581 18.6609 4.05565 18.6337 4.01948C17.1197 2.00386 14.8959 0.722766 12.3731 0.412922C9.93328 0.113859 7.54594 0.765422 5.62547 2.25042C5.63203 2.29167 5.63531 2.33386 5.63531 2.37698C5.63531 2.53495 5.59031 2.68214 5.51203 2.8073C5.67516 2.92402 5.835 3.05391 5.99016 3.19636ZM4.81547 2.21344H2.53266C2.44313 2.21344 2.37047 2.28656 2.37047 2.37703C2.37047 2.46469 2.44453 2.53875 2.53266 2.53875H4.81547C4.90547 2.53875 4.97859 2.46609 4.97859 2.37703C4.97859 2.34844 4.97156 2.32219 4.95891 2.29875C4.95797 2.29734 4.95703 2.29547 4.95609 2.29406C4.94172 2.26953 4.92118 2.24918 4.89651 2.23504C4.87184 2.2209 4.8439 2.21345 4.81547 2.21344ZM4.54547 1.55719L5.06719 0.504375C4.725 0.546094 4.49672 0.408281 4.26188 0.229219C4.09359 0.100781 3.96094 0 3.67406 0C3.38672 0 3.25406 0.100781 3.08625 0.229219C2.85141 0.408281 2.62359 0.546094 2.28234 0.504375L2.80406 1.55719H4.54547ZM3.67406 11.0615C1.64813 11.0615 0 9.41292 0 7.38605C0 5.87808 1.0875 4.02417 2.44406 3.19073C2.47312 3.19402 2.50266 3.19542 2.53266 3.19542H4.81547C4.84594 3.19542 4.87547 3.19355 4.90453 3.19027H4.905C6.26156 4.02417 7.34906 5.87808 7.34906 7.38605C7.34906 9.41297 5.70047 11.0615 3.67406 11.0615ZM3.67406 9.45C3.855 9.45 4.00219 9.30281 4.00219 9.12141V8.67797H4.13906C4.79859 8.67797 5.14406 8.1675 5.14406 7.66312C5.14406 7.15922 4.79859 6.64875 4.13906 6.64875H3.21C2.87766 6.64875 2.86078 6.35016 2.86078 6.29016C2.86078 6.23016 2.87766 5.93109 3.21 5.93109H4.81641C4.99781 5.93109 5.145 5.78437 5.145 5.60297C5.145 5.42156 4.99781 5.27484 4.81641 5.27484H4.00219V4.83094C4.00219 4.65 3.855 4.50281 3.67406 4.50281C3.49266 4.50281 3.34547 4.65 3.34547 4.83094V5.27484H3.21C2.55 5.27484 2.20453 5.78578 2.20453 6.29016C2.20453 6.79453 2.55 7.305 3.21 7.305H4.13906C4.47047 7.305 4.48734 7.60359 4.48734 7.66312C4.48734 7.72312 4.47047 8.02125 4.13906 8.02125H2.53266C2.35125 8.02125 2.20453 8.16844 2.20453 8.34937C2.20453 8.53078 2.35125 8.67797 2.53266 8.67797H3.34547V9.12141C3.34547 9.30276 3.49266 9.45 3.67406 9.45Z" fill="white"/>
</svg>
