<svg width="24" height="24" viewBox="0 0 24 24" fill="none" xmlns="http://www.w3.org/2000/svg">
<path d="M21.1913 7.37897H5.03551C4.8366 7.37897 4.64583 7.29995 4.50518 7.1593C4.36453 7.01865 4.28551 6.82788 4.28551 6.62897C4.28551 6.43006 4.36453 6.23929 4.50518 6.09864C4.64583 5.95799 4.8366 5.87897 5.03551 5.87897H18.2145V3.06647C18.2145 2.66672 18.0353 2.29397 17.7233 2.04422C17.57 1.92119 17.3908 1.83436 17.1993 1.7902C17.0078 1.74605 16.8087 1.74571 16.617 1.78922L2.52151 4.95422C2.23098 5.01845 1.9712 5.1802 1.78536 5.41257C1.59952 5.64494 1.49882 5.93393 1.50001 6.23147V20.9337C1.50001 21.6552 2.08726 22.2432 2.80876 22.2432H21.1913C21.9128 22.2432 22.5 21.656 22.5 20.9337V8.68772C22.5 7.96622 21.9128 7.37897 21.1913 7.37897ZM18.8295 16.148C18.1283 16.148 17.5583 15.5772 17.5583 14.876C17.5583 14.1747 18.129 13.604 18.8295 13.604C19.5315 13.604 20.1015 14.1747 20.1015 14.876C20.1015 15.5772 19.5315 16.148 18.8295 16.148Z" fill="white"/>
</svg>
