<svg width="24" height="17" viewBox="0 0 24 17" fill="none" xmlns="http://www.w3.org/2000/svg">
<path d="M15.5512 9.43365L13.5412 11.4505C12.7261 12.2685 11.2919 12.2861 10.4591 11.4505L8.44899 9.43365L1.22949 16.6766C1.49823 16.8009 1.79452 16.875 2.10952 16.875H21.8908C22.2058 16.875 22.502 16.801 22.7706 16.6766L15.5512 9.43365Z" fill="#747474"/>
<path d="M21.8906 0H2.10938C1.79438 0 1.49808 0.0741563 1.22944 0.198422L8.94398 7.93856C8.9445 7.93908 8.94511 7.93917 8.94563 7.93969C8.94594 7.94002 8.94616 7.94045 8.94623 7.94091L11.4547 10.4576C11.7211 10.7241 12.279 10.7241 12.5454 10.4576L15.0533 7.94133C15.0533 7.94133 15.054 7.9402 15.0545 7.93969C15.0545 7.93969 15.0556 7.93908 15.0561 7.93856L22.7705 0.198375C22.5018 0.0740626 22.2056 0 21.8906 0ZM0.224344 1.18181C0.0853125 1.46297 0 1.77506 0 2.10938V14.7656C0 15.0999 0.0852187 15.412 0.224297 15.6932L7.45631 8.43773L0.224344 1.18181ZM23.7757 1.18172L16.5437 8.43773L23.7757 15.6933C23.9147 15.4121 24 15.1 24 14.7656V2.10938C24 1.77497 23.9147 1.46288 23.7757 1.18172Z" fill="#747474"/>
</svg>
