<svg width="23" height="23" viewBox="0 0 23 23" fill="none" xmlns="http://www.w3.org/2000/svg">
<path d="M9.03581 5.4668C6.84051 5.4668 4.64169 6.65621 2.96875 9.03503C6.31816 13.7962 11.7535 13.7962 15.1029 9.03503C13.4299 6.65621 11.2311 5.4668 9.03581 5.4668ZM9.03581 12.0477C7.37416 12.0477 6.02663 10.7002 6.02663 9.03503C6.02663 8.23686 6.34371 7.47137 6.9081 6.90697C7.4725 6.34258 8.23798 6.0255 9.03616 6.0255C10.695 6.0255 12.0485 7.37303 12.0485 9.03503C12.0485 10.7002 10.6946 12.0477 9.03581 12.0477Z" fill="#4160FF"/>
<path d="M15.4244 2.64706C11.895 -0.882353 6.17382 -0.882353 2.64441 2.64706C-0.881471 6.17647 -0.881471 11.8976 2.64441 15.4271C6.17382 18.9565 11.8985 18.9565 15.4244 15.4271C18.9538 11.8976 18.9538 6.17647 15.4244 2.64706ZM14.1432 14.1424C11.3268 16.9588 6.74559 16.9588 3.92912 14.1459C1.11265 11.3294 1.11265 6.74823 3.92912 3.93176C6.74559 1.11529 11.3268 1.11529 14.1432 3.93176C16.9597 6.74823 16.9597 11.3294 14.1432 14.1424ZM22.7938 21.3071L21.3044 22.7965C21.0926 23.0047 20.7503 23.0047 20.5385 22.7965L15.8021 18.0565C15.5155 18.3395 15.1286 18.4976 14.7259 18.4963C14.3232 18.4949 13.9373 18.3343 13.6526 18.0494L13.2397 17.6329C14.1785 17.1776 15.0432 16.56 15.7985 15.8012C16.5574 15.0424 17.175 14.1776 17.6338 13.2388L18.0468 13.6553C18.6397 14.2482 18.6432 15.2082 18.0538 15.8047L22.7938 20.5412C23.0021 20.7529 23.0021 21.0953 22.7938 21.3071Z" fill="#4160FF"/>
<path d="M9.0365 7.29297C8.07297 7.29297 7.29297 8.07297 7.29297 9.0365C7.29297 10.0036 8.07297 10.78 9.0365 10.78C9.9965 10.78 10.78 10.0036 10.78 9.0365C10.78 8.07297 9.9965 7.29297 9.0365 7.29297ZM8.62356 9.04003C8.35532 9.04003 8.14003 8.8212 8.14003 8.5565C8.13755 8.49168 8.14817 8.42703 8.17126 8.36641C8.19436 8.3058 8.22944 8.25047 8.27442 8.20373C8.3194 8.15699 8.37335 8.11982 8.43304 8.09442C8.49273 8.06903 8.55693 8.05594 8.62179 8.05594C8.68666 8.05594 8.75086 8.06903 8.81054 8.09442C8.87023 8.11982 8.92418 8.15699 8.96916 8.20373C9.01414 8.25047 9.04923 8.3058 9.07232 8.36641C9.09541 8.42703 9.10604 8.49168 9.10356 8.5565C9.10356 8.8212 8.88826 9.04003 8.62356 9.04003Z" fill="#4160FF"/>
</svg>
