<svg width="24" height="24" viewBox="0 0 24 24" fill="none" xmlns="http://www.w3.org/2000/svg">
<path d="M20.655 2.45822C19.2271 0.971563 17.2804 0.093474 15.2208 0.00704197C13.1613 -0.07939 11.1478 0.632507 9.60035 1.9943C8.05286 3.35609 7.09075 5.26266 6.91462 7.31648C6.7385 9.3703 7.36196 11.4128 8.655 13.0182L7.2 14.4782L6.5 13.7682L0.625 19.6632L0.55 19.7382C0.207977 20.0979 0.0119393 20.572 0 21.0682V21.1132C0 21.6437 0.210714 22.1524 0.585786 22.5274C0.960859 22.9025 1.46957 23.1132 2 23.1132H2.045C2.54122 23.1013 3.01528 22.9052 3.375 22.5632L3.45 22.4882L9.345 16.6132L8.64 15.9082L10.095 14.4482C11.7018 15.718 13.7344 16.3232 15.7741 16.1392C17.8137 15.9552 19.7052 14.996 21.0587 13.4591C22.4123 11.9222 23.125 9.92476 23.0498 7.87817C22.9747 5.83159 22.1176 3.89174 20.655 2.45822ZM19.245 12.3582C18.4051 13.1953 17.3359 13.7646 16.1726 13.9945C15.0093 14.2243 13.804 14.1042 12.7088 13.6495C11.6137 13.1948 10.6778 12.4257 10.0195 11.4395C9.3611 10.4532 9.00973 9.29402 9.00973 8.10822C9.00973 6.92242 9.3611 5.76321 10.0195 4.77697C10.6778 3.79072 11.6137 3.02168 12.7088 2.56694C13.804 2.1122 15.0093 1.99217 16.1726 2.22199C17.3359 2.45182 18.4051 3.02119 19.245 3.85822C19.8044 4.41564 20.2482 5.078 20.551 5.80731C20.8538 6.53662 21.0097 7.31854 21.0097 8.10822C21.0097 8.89791 20.8538 9.67982 20.551 10.4091C20.2482 11.1384 19.8044 11.8008 19.245 12.3582Z" fill="white"/>
<path d="M15 5.61328C15.2967 5.61328 15.5867 5.70125 15.8334 5.86608C16.08 6.0309 16.2723 6.26517 16.3858 6.53926C16.4994 6.81335 16.5291 7.11495 16.4712 7.40592C16.4133 7.69689 16.2704 7.96416 16.0607 8.17394C15.8509 8.38372 15.5836 8.52658 15.2926 8.58446C15.0017 8.64234 14.7001 8.61263 14.426 8.4991C14.1519 8.38557 13.9176 8.19331 13.7528 7.94664C13.588 7.69996 13.5 7.40995 13.5 7.11328C13.5 6.71546 13.658 6.33393 13.9393 6.05262C14.2206 5.77132 14.6022 5.61328 15 5.61328C14.1661 5.61387 13.3491 5.84849 12.642 6.29045C11.9348 6.73241 11.3659 7.36397 11 8.11328C11.3655 8.86296 11.9343 9.49484 12.6415 9.93687C13.3487 10.3789 14.166 10.6133 15 10.6133C15.834 10.6133 16.6512 10.3789 17.3585 9.93687C18.0657 9.49484 18.6345 8.86296 19 8.11328C18.6341 7.36397 18.0652 6.73241 17.358 6.29045C16.6509 5.84849 15.8339 5.61387 15 5.61328Z" fill="white"/>
</svg>
