<svg width="48" height="27" viewBox="0 0 48 27" fill="none" xmlns="http://www.w3.org/2000/svg">
<g clip-path="url(#clip0_668_2789)">
<path d="M24 -1.57154H20.2125L16.9688 -10.1047V-1.57154H14.1562V-15.4414H17.9437L21.1875 -6.9082V-15.4414H24V-1.57154ZM29.625 -1.57154C27.2987 -1.57154 25.4062 -3.43806 25.4062 -5.7325V-11.2804C25.4062 -13.5749 27.2987 -15.4414 29.625 -15.4414C31.9513 -15.4414 33.8438 -13.5749 33.8438 -11.2804V-5.7325C33.8438 -3.43806 31.9513 -1.57154 29.625 -1.57154ZM29.625 -12.6674C28.8491 -12.6674 28.2188 -12.0457 28.2188 -11.2804V-5.7325C28.2188 -4.96726 28.8491 -4.34552 29.625 -4.34552C30.4009 -4.34552 31.0312 -4.96726 31.0312 -5.7325V-11.2804C31.0312 -12.0457 30.4009 -12.6674 29.625 -12.6674ZM43.7812 1.20243H4.21875C1.89244 1.20243 0 3.06894 0 5.36339V22.0072C0 24.3017 1.89244 26.1682 4.21875 26.1682H43.7812C46.1076 26.1682 48 24.3017 48 22.0072V5.36339C48 3.06894 46.1076 1.20243 43.7812 1.20243ZM15.5625 9.52435H9.9375V12.2983H12.75V15.0723H9.9375V20.6202H7.125V6.75037H15.5625V9.52435ZM24 9.52435H19.7812V12.2983H22.5938V15.0723H19.7812V17.8463H24V20.6202H16.9688V6.75037H24V9.52435ZM32.4375 9.52435H28.2188V12.2983H31.0312V15.0723H28.2188V17.8463H32.4375V20.6202H25.4062V6.75037H32.4375V9.52435ZM38.0625 20.6202C36.9337 20.6202 35.8734 20.1868 35.0783 19.3999L34.0854 18.4179L36.0767 16.4593L37.0696 17.4413C37.8771 18.2445 39.4688 17.5957 39.4688 16.4593C39.4688 15.694 38.8384 15.0723 38.0625 15.0723C35.7362 15.0723 33.8438 13.2058 33.8438 10.9113C33.8438 8.61689 35.7362 6.75037 38.0625 6.75037C39.1913 6.75037 40.2516 7.18385 41.0467 7.97074L42.0396 8.95272L40.0483 10.9113L39.0554 9.92935C38.2507 9.13155 36.659 9.77632 36.6562 10.9113C36.6562 11.6766 37.2866 12.2983 38.0625 12.2983C40.3888 12.2983 42.2812 14.1648 42.2812 16.4593C42.2812 18.7537 40.3888 20.6202 38.0625 20.6202Z" fill="white"/>
</g>
<defs>
<clipPath id="clip0_668_2789">
<rect width="48" height="27" fill="white"/>
</clipPath>
</defs>
</svg>
