<svg width="24" height="24" viewBox="0 0 24 24" fill="none" xmlns="http://www.w3.org/2000/svg">
<path d="M2.54058 11.7047C2.54058 11.7047 3.48877 13.0977 5.47608 14.2768C5.47608 14.2768 4.03678 2.11261 13.4147 0C11.0121 8.81817 16.471 11.305 18.4609 6.64622C21.784 11.083 19.2608 14.9538 19.2608 14.9538C20.6235 15.1501 21.768 13.6615 21.768 13.6615C21.7783 13.8449 21.784 14.0295 21.784 14.2155C21.784 19.6193 17.4033 24 11.9994 24C6.59555 24 2.21484 19.6193 2.21484 14.2154C2.21484 13.3474 2.32847 12.506 2.54058 11.7047Z" fill="#FF6536"/>
<path d="M21.7687 13.6615C21.7687 13.6615 20.6241 15.1501 19.2615 14.9538C19.2615 14.9538 21.7846 11.083 18.4615 6.64622C16.4716 11.305 11.0127 8.81817 13.4153 0C12.9131 0.113156 12.4421 0.255328 12 0.422719V24C17.4039 24 21.7846 19.6193 21.7846 14.2154C21.7846 14.0295 21.7789 13.8449 21.7687 13.6615Z" fill="#FF421D"/>
<path d="M7.70898 19.709C7.70898 22.0789 9.6302 24.0001 12.0001 24.0001C14.37 24.0001 16.2912 22.0789 16.2912 19.709C16.2912 18.4405 15.7409 17.3006 14.8659 16.515C13.2068 18.769 10.8425 15.3499 12.685 12.853C12.685 12.853 7.70898 13.4766 7.70898 19.709Z" fill="#FBBF00"/>
<path d="M16.2911 19.709C16.2911 18.4405 15.7408 17.3006 14.8657 16.515C13.2067 18.769 10.8424 15.3499 12.6849 12.853C12.6849 12.853 12.4146 12.887 12 13.0178V24.0001C14.3699 24.0001 16.2911 22.0789 16.2911 19.709Z" fill="#FFA900"/>
</svg>
