<svg id="Layer_2" data-name="Layer 2" xmlns="http://www.w3.org/2000/svg" viewBox="0 0 248.24 512"><defs><style>.cls-1{fill:#fff;}</style></defs><path class="cls-1" d="M749.23,880.75c0,14.88,0,28.68,0,42.49,0,20.41.15,40.82.11,61.23,0,13.29-7.76,21.46-20.12,21.53s-20.32-8-20.33-21.24q-.07-61.23,0-122.48c0-14.65,7.48-22.11,22.26-22.21,19.73-.13,39.47,0,59.2-.14,25.11-.13,42.88-17.49,43-41.95.15-24-18-42.31-42.66-42.59-20.41-.24-40.83,0-61.25-.14-15.6-.13-25.13-13.73-19.76-28,3.16-8.37,9.63-12.63,18.34-12.71,22.91-.19,45.86-.85,68.72.19,45.24,2.07,78.54,40.37,77.31,87.7C873,845.2,836.64,880.3,793,880.73,778.7,880.87,764.44,880.75,749.23,880.75Z" transform="translate(-625.88 -494)"/><path class="cls-1" d="M626,817.27c0-25.86-.24-51.73.06-77.59.51-45.64,33.73-83.49,78.85-88.7,15.69-1.81,31.72-.65,47.59-.81,5.22,0,10.44-.07,15.66,0,12.65.19,21.68,9.41,21.76,22.13.07,12.23-8.76,21.63-21.26,21.88-16.1.33-32.21.2-48.32.19S690,699,679.76,712.52c-7.19,9.49-9.55,20.29-9.53,32q.12,77.92.06,155.85c0,14.34-8.77,23.86-22.1,23.84s-22.09-9.49-22.12-23.87q-.06-41.52,0-83Z" transform="translate(-625.88 -494)"/><path class="cls-1" d="M706.86,592.57c-4.34-17-8.53-33.24-12.52-49.49-.36-1.47.56-3.24.88-4.88,1.71.69,4,.9,5.06,2.13,6.17,6.94,12,14.24,18.11,21.21,5.11,5.78,7.75,5.57,12.21-.65,4-5.53,8-11,11.49-16.85a17.28,17.28,0,0,0,2.36-8.22c.3-11.33.13-22.68.26-34,0-3.3-.55-7.62,4.35-7.78s5.36,3.81,5.35,7.7c0,10-.62,20,.21,29.93.46,5.55,2.76,11.16,5.24,16.24s6.22,9.44,9.34,14.17c3,4.48,6.25,5,9.85.82,6.26-7.18,12.35-14.51,18.76-21.54,1.44-1.57,3.94-2.18,6-3.23.25,2.2,1.17,4.58.65,6.58-3.67,14.26-7.66,28.44-11.48,42.67-.79,2.94-1.34,5.34-5.51,5.31C760.89,592.48,734.35,592.57,706.86,592.57Z" transform="translate(-625.88 -494)"/><path class="cls-1" d="M739.25,820.6c-5.9,0-11.8.15-17.69,0-11.6-.35-20.53-8.85-21.09-19.85-.63-12.62,7.06-23.21,19-24a338.49,338.49,0,0,1,40.79-.29c11.43.62,19.24,11.39,18.63,23.57a21.65,21.65,0,0,1-20.55,20.6c-6.35.23-12.71,0-19.06,0Z" transform="translate(-625.88 -494)"/><path class="cls-1" d="M706.78,612v-9.24h77.88c7.66,0,8.14.72,5.93,9.23Z" transform="translate(-625.88 -494)"/></svg>