<?xml version="1.0" encoding="UTF-8"?>
<svg xmlns="http://www.w3.org/2000/svg" xmlns:xlink="http://www.w3.org/1999/xlink" width="150px" height="150px" viewBox="0 0 150 150" version="1.1">
<g id="surface1">
<path style=" stroke:none;fill-rule:nonzero;fill:rgb(0%,0%,0%);fill-opacity:1;" d="M 74.535156 113.269531 C 74.535156 117.625 74.535156 121.664062 74.535156 125.703125 C 74.535156 131.679688 74.625 137.652344 74.601562 143.625 C 74.601562 147.515625 69.914062 149.90625 62.445312 149.925781 C 54.976562 149.949219 50.164062 147.585938 50.160156 143.710938 C 50.132812 131.761719 50.132812 119.8125 50.160156 107.863281 C 50.160156 103.574219 54.679688 101.390625 63.609375 101.363281 C 75.53125 101.324219 87.460938 101.363281 99.382812 101.320312 C 114.554688 101.28125 125.292969 96.203125 125.363281 89.042969 C 125.457031 82.019531 114.488281 76.660156 99.585938 76.578125 C 87.253906 76.507812 74.914062 76.578125 62.578125 76.535156 C 53.148438 76.5 47.390625 72.519531 50.636719 68.339844 C 52.546875 65.890625 56.457031 64.644531 61.71875 64.621094 C 75.5625 64.566406 89.429688 64.371094 103.242188 64.675781 C 130.578125 65.28125 150.699219 76.492188 149.957031 90.34375 C 149.324219 102.863281 127.351562 113.136719 100.984375 113.261719 C 92.34375 113.304688 83.726562 113.269531 74.535156 113.269531 Z M 74.535156 113.269531 "/>
<path style=" stroke:none;fill-rule:nonzero;fill:rgb(0%,0%,0%);fill-opacity:1;" d="M 0.0742188 94.6875 C 0.0742188 87.121094 -0.0742188 79.546875 0.109375 71.980469 C 0.417969 58.621094 20.492188 47.542969 47.753906 46.019531 C 57.234375 45.488281 66.921875 45.828125 76.511719 45.78125 C 79.664062 45.78125 82.820312 45.761719 85.972656 45.78125 C 93.617188 45.835938 99.074219 48.535156 99.121094 52.257812 C 99.164062 55.835938 93.828125 58.589844 86.273438 58.664062 C 76.546875 58.757812 66.8125 58.722656 57.078125 58.71875 C 47.34375 58.714844 38.746094 60.074219 32.558594 64.03125 C 28.210938 66.808594 26.785156 69.96875 26.796875 73.394531 C 26.847656 88.601562 26.859375 103.804688 26.835938 119.011719 C 26.835938 123.207031 21.535156 125.996094 13.480469 125.988281 C 5.425781 125.984375 0.132812 123.210938 0.113281 119.003906 C 0.0898438 110.902344 0.0898438 102.804688 0.113281 94.710938 Z M 0.0742188 94.6875 "/>
<path style=" stroke:none;fill-rule:nonzero;fill:rgb(0%,0%,0%);fill-opacity:1;" d="M 48.933594 28.921875 C 46.308594 23.945312 43.777344 19.195312 41.367188 14.4375 C 41.148438 14.007812 41.707031 13.488281 41.898438 13.007812 C 42.933594 13.210938 44.316406 13.273438 44.957031 13.632812 C 48.683594 15.664062 52.207031 17.800781 55.898438 19.839844 C 58.988281 21.53125 60.582031 21.472656 63.277344 19.648438 C 65.695312 18.03125 68.113281 16.429688 70.21875 14.71875 C 71.105469 13.988281 71.59375 13.160156 71.644531 12.3125 C 71.828125 8.996094 71.726562 5.675781 71.804688 2.359375 C 71.804688 1.394531 71.472656 0.132812 74.433594 0.0859375 C 77.394531 0.0390625 77.671875 1.199219 77.664062 2.339844 C 77.664062 5.265625 77.289062 8.191406 77.792969 11.097656 C 78.070312 12.722656 79.460938 14.363281 80.957031 15.851562 C 82.457031 17.339844 84.714844 18.613281 86.601562 20 C 88.414062 21.308594 90.378906 21.460938 92.554688 20.238281 C 96.335938 18.136719 100.015625 15.992188 103.890625 13.933594 C 104.757812 13.472656 106.269531 13.296875 107.515625 12.988281 C 107.664062 13.632812 108.222656 14.328125 107.90625 14.914062 C 105.691406 19.089844 103.277344 23.238281 100.972656 27.402344 C 100.492188 28.265625 100.160156 28.964844 97.640625 28.957031 C 81.582031 28.894531 65.542969 28.921875 48.933594 28.921875 Z M 48.933594 28.921875 "/>
<path style=" stroke:none;fill-rule:nonzero;fill:rgb(0%,0%,0%);fill-opacity:1;" d="M 68.503906 95.664062 C 64.9375 95.664062 61.375 95.707031 57.816406 95.664062 C 50.804688 95.5625 45.410156 93.074219 45.070312 89.855469 C 44.691406 86.160156 49.335938 83.0625 56.550781 82.828125 C 64.757812 82.5625 72.988281 82.53125 81.199219 82.746094 C 88.105469 82.925781 92.824219 86.078125 92.457031 89.644531 C 92.136719 92.902344 86.765625 95.511719 80.039062 95.671875 C 76.203125 95.738281 72.359375 95.671875 68.523438 95.671875 Z M 68.503906 95.664062 "/>
<path style=" stroke:none;fill-rule:nonzero;fill:rgb(0%,0%,0%);fill-opacity:1;" d="M 48.882812 34.609375 L 48.882812 31.90625 L 95.945312 31.90625 C 100.570312 31.90625 100.863281 32.117188 99.527344 34.605469 Z M 48.882812 34.609375 "/>
</g>
</svg>
