<?xml version="1.0" encoding="UTF-8"?>
<!DOCTYPE svg PUBLIC "-//W3C//DTD SVG 1.1//EN" "http://www.w3.org/Graphics/SVG/1.1/DTD/svg11.dtd">
<!-- Creator: CorelDRAW 2020 (64-Bit) -->
<svg xmlns="http://www.w3.org/2000/svg" xml:space="preserve" width="47.7805mm" height="42.8555mm" version="1.1" style="shape-rendering:geometricPrecision; text-rendering:geometricPrecision; image-rendering:optimizeQuality; fill-rule:evenodd; clip-rule:evenodd"
viewBox="0 0 4778.04 4285.54"
 xmlns:xlink="http://www.w3.org/1999/xlink"
 xmlns:xodm="http://www.corel.com/coreldraw/odm/2003">
 <defs>
  <style type="text/css">
   <![CDATA[
    .fil0 {fill:black;fill-rule:nonzero}
   ]]>
  </style>
 </defs>
 <g id="Layer_x0020_1">
  <metadata id="CorelCorpID_0Corel-Layer"/>
  <path class="fil0" d="M3401.87 1895.3c0,-190.12 -61.76,-349.51 -196.42,-484.18 -133.34,-133.33 -290.15,-196.43 -478.57,-196.43l-511.22 0c-48.71,0 -87.25,12.96 -121.84,47.55 -34.59,34.6 -47.55,73.13 -47.55,121.84 0,47.13 14.2,82.88 47.55,116.21 34.59,34.6 73.13,47.56 121.84,47.56l511.22 0c92.42,0 175.39,36.2 240.51,101.32 66.59,66.59 101.32,152.01 101.32,246.13 0,92.42 -36.2,175.39 -101.32,240.51 -65.12,65.12 -148.09,101.32 -240.51,101.32l-511.22 0c-48.71,0 -87.25,12.97 -121.84,47.56 -33.35,33.34 -47.55,69.09 -47.55,116.21l0 1022.45c0,48.72 12.96,87.24 47.55,121.84 34.59,34.59 73.13,47.55 121.84,47.55 47.12,0 82.87,-14.21 116.21,-47.55 34.59,-34.59 47.56,-73.12 47.56,-121.84l0 -853.05 347.45 0c188.42,0 345.23,-63.1 478.57,-196.43 133.33,-133.33 196.42,-290.15 196.42,-478.57z"/>
  <path class="fil0" d="M2161.57 1716.24c-51.61,0 -95,17.41 -129.81,52.22 -34.82,34.82 -52.22,78.09 -52.22,129.82 0,49.73 17.41,92.01 52.22,126.83 34.81,34.81 78.09,52.22 129.81,52.22 191.99,0 85.64,0.01 277.64,0.01 51.61,0 94.99,-17.42 129.81,-52.23 34.82,-34.82 52.22,-78.08 52.22,-129.81 0,-49.74 -17.41,-92.02 -52.22,-126.83 -34.82,-34.81 -78.09,-52.22 -129.81,-52.22 -191.99,0 -85.65,-0.01 -277.64,-0.01z"/>
  <path class="fil0" d="M838.4 4285.54c-161.81,0 -308.88,-66.14 -415.41,-172.67 -106.53,-106.53 -172.67,-253.6 -172.67,-415.41l0 -1269.91 -172.76 116.7c-18.54,12.53 -42.19,11.38 -59.43,-2.88 -17.24,-14.25 -22.81,-37.27 -13.99,-57.83l319.79 -745.54c8.01,-18.67 25.38,-30.1 45.69,-30.08 20.31,0.02 37.65,11.5 45.61,30.18l317.54 745.06c8.79,20.62 3.13,43.68 -14.21,57.88 -17.34,14.2 -41.05,15.21 -59.54,2.54l-169.92 -116.52 0 1270.4c0,95.89 39.35,183.2 102.72,246.58 63.38,63.37 150.69,102.72 246.58,102.72l1056.24 0c639.9,0 1278.86,9.92 1922.3,15.65 529.58,0 526.71,-391.75 585.29,-962.53 86.62,789.77 -24.79,1179.38 -585.29,1179.38 -994.22,3.37 -1983.72,6.28 -2978.53,6.28z"/>
  <path class="fil0" d="M3939.64 0c161.81,0 308.88,66.14 415.41,172.67 106.53,106.53 172.67,253.6 172.67,415.41l0 1269.91 172.76 -116.7c18.54,-12.53 42.19,-11.38 59.43,2.88 17.24,14.25 22.81,37.27 13.99,57.83l-319.79 745.54c-8.01,18.67 -25.38,30.1 -45.69,30.08 -20.31,-0.02 -37.65,-11.5 -45.61,-30.18l-317.54 -745.06c-8.79,-20.62 -3.13,-43.68 14.21,-57.88 17.34,-14.2 41.05,-15.21 59.54,-2.54l169.92 116.52 0 -1270.4c0,-95.89 -39.35,-183.2 -102.72,-246.58 -63.38,-63.37 -150.69,-102.72 -246.58,-102.72l-1056.24 0c-639.9,0 -1278.86,-9.92 -1922.3,-15.65 -529.58,0 -526.71,391.75 -585.29,962.53 -86.62,-789.77 24.79,-1179.38 585.29,-1179.38 994.22,-3.37 1983.72,-6.28 2978.53,-6.28z"/>
  <path class="fil0" d="M2101.33 1056.88c11.87,0 23.32,-0.99 34.35,-2.98l386.45 0c51.73,0 95,-17.41 129.81,-52.22 34.82,-34.82 52.23,-77.1 52.23,-126.83 0,-51.73 -17.41,-95 -52.23,-129.82 -34.81,-34.81 -78.3,-52.22 -129.81,-52.22l-423.78 0c-198.73,0 -369.06,70.63 -510.31,211.88 -134.68,134.69 -205.16,296.53 -211.4,485.51l-0.26 9.02 0 0.19 -0.16 9.16 0 0.1 -0.05 9.3 0 1318.78c0,51.61 17.41,95 52.22,129.81 34.82,34.82 78.09,52.23 129.81,52.23 49.74,0 92.02,-17.42 126.83,-52.23 34.81,-34.81 52.23,-78.08 52.23,-129.81l0 -1318.78 0.03 -4.65 0 -0.1 0.07 -4.53 0 -0.19 0.13 -4.42 0.01 -0.28 0.17 -4.31 0.01 -0.37 0.22 -4.19 0.02 -0.47c5.11,-89.35 39.7,-166.07 103.79,-230.15 71.61,-71.62 158.16,-107.43 259.62,-107.43z"/>
 </g>
</svg>
