<svg width="33" height="33" viewBox="0 0 33 33" fill="none" xmlns="http://www.w3.org/2000/svg">
<path d="M27.7393 23.4893C26.9826 23.4959 26.2415 23.705 25.593 24.0949L23.5318 22.023C24.8829 20.3275 25.6177 18.2232 25.6158 16.0552C25.6138 13.8873 24.8753 11.7843 23.5212 10.0912L25.593 8.00867C26.4953 8.5457 27.5625 8.73471 28.5943 8.54017C29.6261 8.34563 30.5512 7.78094 31.1959 6.95224C31.8406 6.12353 32.1605 5.08789 32.0953 4.03997C32.0301 2.99206 31.5844 2.00403 30.842 1.26161C30.0996 0.519184 29.1115 0.0734951 28.0636 0.0083135C27.0157 -0.0568681 25.9801 0.262946 25.1514 0.907643C24.3227 1.55234 23.758 2.47752 23.5634 3.50928C23.3689 4.54105 23.5579 5.60834 24.0949 6.51054L22.0124 8.58242C20.3212 7.22759 18.2188 6.48934 16.0518 6.48934C13.8848 6.48934 11.7824 7.22759 10.0912 8.58242L8.00867 6.51054C8.5457 5.60834 8.73471 4.54105 8.54017 3.50928C8.34563 2.47752 7.78094 1.55234 6.95224 0.907643C6.12353 0.262946 5.08789 -0.0568681 4.03997 0.0083135C2.99206 0.0734951 2.00403 0.519184 1.26161 1.26161C0.519184 2.00403 0.0734951 2.99206 0.0083135 4.03997C-0.0568681 5.08789 0.262946 6.12353 0.907643 6.95224C1.55234 7.78094 2.47752 8.34563 3.50928 8.54017C4.54105 8.73471 5.60834 8.5457 6.51054 8.00867L8.58242 10.0912C7.22833 11.7843 6.48976 13.8873 6.48782 16.0552C6.48589 18.2232 7.22072 20.3275 8.57179 22.023L6.51054 24.0949C5.60834 23.5579 4.54105 23.3689 3.50928 23.5634C2.47752 23.758 1.55234 24.3227 0.907643 25.1514C0.262946 25.9801 -0.0568681 27.0157 0.0083135 28.0636C0.0734951 29.1115 0.519184 30.0996 1.26161 30.842C2.00403 31.5844 2.99206 32.0301 4.03997 32.0953C5.08789 32.1605 6.12353 31.8406 6.95224 31.1959C7.78094 30.5512 8.34563 29.6261 8.54017 28.5943C8.73471 27.5625 8.5457 26.4953 8.00867 25.593L10.0805 23.5212C10.1018 23.5424 10.123 23.553 10.1443 23.5743C11.8298 24.8961 13.9098 25.6144 16.0518 25.6144C18.1937 25.6144 20.2738 24.8961 21.9593 23.5743C21.9805 23.553 22.0018 23.5424 22.023 23.5212L24.0949 25.593C23.6251 26.3998 23.435 27.3393 23.5542 28.2653C23.6734 29.1913 24.0953 30.0519 24.7542 30.7133C25.4131 31.3748 26.2722 31.8 27.1977 31.9227C28.1232 32.0455 29.0634 31.859 29.872 31.3923C30.6805 30.9255 31.3122 30.2046 31.6688 29.3418C32.0253 28.4789 32.0868 27.5224 31.8435 26.621C31.6003 25.7196 31.066 24.9238 30.3237 24.3575C29.5815 23.7911 28.6729 23.4859 27.7393 23.4893ZM21.8105 20.7693C21.2485 19.5877 20.3358 18.6082 19.1968 17.9643C19.1732 17.9539 19.1517 17.9395 19.133 17.9218C19.7056 17.3191 20.0888 16.5617 20.2353 15.7435C20.3818 14.9252 20.2851 14.0819 19.9571 13.318C19.6292 12.5541 19.0844 11.9032 18.3903 11.4458C17.6961 10.9884 16.8831 10.7446 16.0518 10.7446C15.2205 10.7446 14.4075 10.9884 13.7133 11.4458C13.0192 11.9032 12.4744 12.5541 12.1465 13.318C11.8185 14.0819 11.7218 14.9252 11.8683 15.7435C12.0148 16.5617 12.398 17.3191 12.9705 17.9218C12.9519 17.9395 12.9303 17.9539 12.9068 17.9643C11.7678 18.6082 10.8551 19.5877 10.293 20.7693C9.40227 19.6794 8.83906 18.3591 8.66886 16.9619C8.49867 15.5646 8.72847 14.1477 9.33158 12.8759C9.93468 11.604 10.8863 10.5294 12.0759 9.77698C13.2655 9.02451 14.6442 8.62508 16.0518 8.62508C17.4594 8.62508 18.8381 9.02451 20.0277 9.77698C21.2173 10.5294 22.1689 11.604 22.772 12.8759C23.3751 14.1477 23.6049 15.5646 23.4347 16.9619C23.2645 18.3591 22.7013 19.6794 21.8105 20.7693Z" fill="white"/>
</svg>
