<svg width="32" height="18" viewBox="0 0 32 18" fill="none" xmlns="http://www.w3.org/2000/svg">
<path fill-rule="evenodd" clip-rule="evenodd" d="M17.0471 4.40044L15.7244 5.72444L14.7067 6.74222C14.5842 6.86578 14.4385 6.96379 14.2778 7.03053C14.1172 7.09728 13.9449 7.13143 13.7709 7.13102C13.597 7.13061 13.4249 7.09563 13.2646 7.02812C13.1042 6.96062 12.9589 6.86192 12.8371 6.73778C12.7152 6.61364 12.6193 6.46652 12.5548 6.30497C12.4903 6.14342 12.4585 5.97067 12.4614 5.79674C12.4642 5.62281 12.5016 5.45119 12.5713 5.29183C12.641 5.13247 12.7417 4.98855 12.8676 4.86844L15.8924 1.95511C15.9413 1.9083 15.9917 1.864 16.0436 1.82222C16.3748 2.16308 16.6344 2.56691 16.807 3.00982C16.9795 3.45274 17.0614 3.92575 17.048 4.40089M23.8791 13.9644L23.2747 14.7889C22.9485 15.2332 22.5224 15.5944 22.0307 15.8434C21.539 16.0924 20.9956 16.2222 20.4444 16.2222L19.9498 16.7169C19.4447 17.2221 18.769 17.5203 18.0553 17.5527C17.3416 17.5851 16.6417 17.3494 16.0929 16.892L15.5556 16.4444L15.2436 16.7564C14.9197 17.0803 14.5353 17.3371 14.1122 17.5124C13.6892 17.6876 13.2357 17.7778 12.7778 17.7778C12.3198 17.7778 11.8664 17.6876 11.4433 17.5124C11.0202 17.3371 10.6358 17.0803 10.312 16.7564L6.96533 13.4098C6.80024 13.2446 6.60422 13.1136 6.38849 13.0243C6.17275 12.9349 5.94152 12.8889 5.708 12.8889H0V3.11111H5.48578C5.7193 3.11112 5.95053 3.06512 6.16626 2.97575C6.382 2.88637 6.57801 2.75537 6.74311 2.59022L8.292 1.04133C8.62218 0.711174 9.01415 0.44928 9.44554 0.270608C9.87693 0.0919354 10.3393 -1.70113e-05 10.8062 2.36056e-09H12.7493C13.1391 2.36056e-09 13.5222 0.0640003 13.8844 0.186223L11.0178 2.94711C10.632 3.31004 10.3226 3.74633 10.1076 4.23039C9.89265 4.71446 9.77648 5.23656 9.76591 5.76611C9.75534 6.29566 9.85058 6.82198 10.0461 7.31424C10.2415 7.8065 10.5333 8.25479 10.9043 8.63283C11.2752 9.01087 11.7179 9.31105 12.2064 9.51578C12.6949 9.72051 13.2193 9.82567 13.749 9.8251C14.2786 9.82452 14.8028 9.71823 15.2909 9.51244C15.7789 9.30665 16.221 9.00551 16.5911 8.62667L16.7769 8.44133L23.848 13.9409L23.8778 13.9636" fill="#4160FF"/>
<path d="M26.5144 3.11111H32.0002V12.8889H24.6668L16.6668 6.66667L15.6491 7.68444C15.4023 7.93362 15.1085 8.13127 14.7847 8.2659C14.4609 8.40053 14.1135 8.46945 13.7628 8.46866C13.4121 8.46787 13.0651 8.39738 12.7419 8.2613C12.4187 8.12522 12.1258 7.92625 11.8801 7.67596C11.6345 7.42568 11.4411 7.12907 11.3111 6.80337C11.1811 6.47766 11.1171 6.12937 11.1229 5.77874C11.1287 5.4281 11.2041 5.08211 11.3448 4.76089C11.4855 4.43966 11.6886 4.14959 11.9424 3.90756L14.9673 0.994222C15.6299 0.35621 16.5141 -0.000151912 17.4339 4.85795e-08H21.1939C21.6609 -1.69651e-05 22.1232 0.0919355 22.5546 0.270608C22.986 0.44928 23.378 0.711174 23.7082 1.04133L25.2571 2.59022C25.4222 2.75537 25.6182 2.88637 25.8339 2.97575C26.0496 3.06512 26.2809 3.11112 26.5144 3.11111Z" fill="#4160FF"/>
</svg>
