<svg width="23" height="23" viewBox="0 0 23 23" fill="none" xmlns="http://www.w3.org/2000/svg">
<path d="M15.7482 0.000263084C15.2507 0.000263084 15.2464 0.733033 15.7524 0.750042C17.1634 0.749833 18.5292 1.24713 19.6097 2.15446C20.6902 3.06179 21.4162 4.32105 21.66 5.71077C21.906 7.10003 21.6543 8.53155 20.9492 9.75359C20.2441 10.9756 19.1307 11.9099 17.8048 12.3922C16.5044 12.8646 15.0807 12.8736 13.7745 12.4175C12.4682 11.9614 11.3595 11.0683 10.6358 9.88912L11.2949 10.0663C11.7839 10.2052 11.9809 9.46533 11.489 9.3406L9.95122 8.92957C9.85518 8.90401 9.75293 8.91755 9.66686 8.96723C9.58078 9.01691 9.51791 9.09867 9.492 9.19462L9.08097 10.7296C8.94207 11.2186 9.68192 11.417 9.80523 10.9238L9.98382 10.2576C10.8016 11.6011 12.063 12.6169 13.5501 13.1293C15.0371 13.6418 16.6564 13.6188 18.1283 13.0644C19.6002 12.5099 20.8322 11.4588 21.6116 10.0926C22.391 8.72647 22.6688 7.13099 22.397 5.58179C21.8187 2.23684 18.8593 -0.0280839 15.7482 0.000263084ZM15.8261 2.9115C14.7323 2.9115 13.6832 3.34605 12.9097 4.11954C12.1362 4.89303 11.7016 5.94211 11.7016 7.03599C11.7016 8.12988 12.1362 9.17896 12.9097 9.95245C13.6832 10.7259 14.7323 11.1605 15.8261 11.1605C16.92 11.1605 17.9691 10.7259 18.7426 9.95245C19.5161 9.17896 19.9506 8.12988 19.9506 7.03599C19.9506 5.94211 19.5161 4.89303 18.7426 4.11954C17.9691 3.34605 16.92 2.9115 15.8261 2.9115ZM16.2032 4.23956V4.56555C16.8353 4.71437 17.252 5.19911 17.4363 5.78447C17.5865 6.26212 16.8693 6.48748 16.7205 6.00841C16.5702 5.53502 16.2613 5.2884 15.8134 5.27139C15.6959 5.26876 15.5791 5.28948 15.4697 5.33236C15.3603 5.37524 15.2605 5.43941 15.1762 5.52116C15.0918 5.60291 15.0245 5.70061 14.9781 5.80859C14.9318 5.91656 14.9074 6.03266 14.9063 6.15015C14.9063 6.34149 14.9531 6.43362 15.1019 6.50732C15.2521 6.58102 15.5413 6.62071 15.8644 6.65473C16.1876 6.68874 16.5476 6.71567 16.8849 6.88008C17.2194 7.04308 17.4944 7.3719 17.4944 7.9105C17.4944 8.68721 16.9359 9.34627 16.2032 9.50643V9.8225C16.2145 10.3328 15.4406 10.3328 15.452 9.8225V9.49935C14.7206 9.31509 14.396 8.79067 14.2203 8.29318C14.0403 7.80136 14.7986 7.56041 14.9346 8.06641C15.0806 8.51571 15.3853 8.77083 15.8403 8.78926C16.3506 8.78359 16.7474 8.39523 16.7474 7.91333C16.7474 7.7149 16.6978 7.62845 16.549 7.55474C16.3987 7.48246 16.1096 7.44135 15.7879 7.40592C15.4633 7.37332 15.1075 7.34781 14.773 7.18481C14.4357 7.0204 14.1565 6.69583 14.1565 6.15015C14.1565 5.37344 14.7164 4.72004 15.452 4.55563V4.23956C15.4675 3.99011 15.6461 3.86538 15.8247 3.86538C16.0033 3.86538 16.1847 3.99011 16.2032 4.23956ZM8.22347 13.5005C7.64236 13.5005 6.60627 13.8917 5.78421 14.2857C5.62263 14.3623 5.52909 14.4161 5.38877 14.4842C5.53476 14.752 5.62547 15.0525 5.62547 15.3771V20.4314C6.12105 20.3369 6.62257 20.2768 7.12644 20.2514C7.58991 20.2514 8.45592 20.909 9.02002 21.3059C9.82224 21.8728 10.6868 22.4993 11.6237 22.4993C11.9072 22.4993 12.1906 22.4057 12.5634 22.2668C14.6143 21.5001 18.9415 19.0523 21.4629 17.5768C21.6133 17.4917 21.7452 17.3776 21.8511 17.2411C21.9571 17.1046 22.0349 16.9485 22.0801 16.7818C22.1253 16.615 22.137 16.441 22.1145 16.2697C22.092 16.0984 22.0358 15.9333 21.9491 15.7839C21.6033 15.1843 20.9017 15.0384 20.2199 15.2722L15.5115 16.8554C15.5441 17.1615 15.4902 17.479 15.3244 17.7653C14.9134 18.4797 13.9907 18.7717 13.2763 18.3606L11.0015 17.0482C10.5309 16.8072 10.9363 16.1099 11.3771 16.4004L13.6505 17.7115C13.7354 17.7622 13.8296 17.7953 13.9275 17.809C14.0254 17.8227 14.1251 17.8166 14.2206 17.7911C14.3162 17.7656 14.4056 17.7212 14.4837 17.6605C14.5618 17.5999 14.6269 17.5242 14.6753 17.4379C14.7257 17.353 14.7586 17.2589 14.772 17.161C14.7855 17.0632 14.7792 16.9637 14.7536 16.8683C14.7279 16.7729 14.6835 16.6836 14.6228 16.6057C14.5621 16.5278 14.4865 16.4628 14.4003 16.4146C12.7278 15.448 9.75563 13.5005 8.22347 13.5005ZM1.12679 14.2503C0.97877 14.2501 0.832162 14.2791 0.695369 14.3357C0.558576 14.3923 0.434285 14.4753 0.329615 14.5799C0.224946 14.6846 0.141954 14.8089 0.085393 14.9457C0.0288324 15.0825 -0.000185654 15.2291 8.93745e-07 15.3771V20.6256C8.93745e-07 21.2393 0.496074 21.7509 1.11971 21.7509H3.75173C4.43631 21.7509 4.87569 21.1698 4.87569 20.6241V15.3785C4.87606 15.2307 4.84726 15.0842 4.79095 14.9475C4.73463 14.8108 4.6519 14.6866 4.54749 14.5819C4.44309 14.4773 4.31906 14.3942 4.1825 14.3376C4.04595 14.2809 3.89957 14.2517 3.75173 14.2517L1.12679 14.2503ZM1.87657 19.5002C1.9259 19.5002 1.97474 19.5099 2.02031 19.5288C2.06588 19.5476 2.10728 19.5753 2.14216 19.6102C2.17704 19.6451 2.20471 19.6865 2.22358 19.732C2.24246 19.7776 2.25217 19.8264 2.25217 19.8758C2.25217 19.9251 2.24246 19.9739 2.22358 20.0195C2.20471 20.0651 2.17704 20.1065 2.14216 20.1414C2.10728 20.1762 2.06588 20.2039 2.02031 20.2228C1.97474 20.2417 1.9259 20.2514 1.87657 20.2514C1.77696 20.2514 1.68142 20.2118 1.61099 20.1414C1.54055 20.0709 1.50098 19.9754 1.50098 19.8758C1.50098 19.7762 1.54055 19.6806 1.61099 19.6102C1.68142 19.5397 1.77696 19.5002 1.87657 19.5002Z" fill="white"/>
</svg>
