<svg width="19" height="24" viewBox="0 0 19 24" fill="none" xmlns="http://www.w3.org/2000/svg">
<path d="M16.0146 0H2.10938C0.946266 0 0 0.946266 0 2.10938V21.8906C0 23.0537 0.946266 24 2.10938 24H16.0146C17.1777 24 18.124 23.0537 18.124 21.8906V2.10938C18.124 0.946266 17.1777 0 16.0146 0ZM2.86373 4.14141C2.86373 3.83203 3.11686 3.57891 3.42623 3.57891H14.8859C15.1953 3.57891 15.4484 3.83203 15.4484 4.14141V6.28589C15.4485 6.59527 15.1953 6.84839 14.886 6.84839H3.42623C3.11686 6.84839 2.86373 6.59527 2.86373 6.28589V4.14141ZM9.71953 11.831H8.40455C8.01619 11.831 7.70142 11.5162 7.70142 11.1279V10.1724C7.70142 9.78412 8.01623 9.46931 8.40455 9.46931H9.71953C10.1078 9.46931 10.4227 9.78412 10.4227 10.1724V11.1279C10.4227 11.5162 10.1078 11.831 9.71953 11.831ZM10.4227 14.7016V15.657C10.4227 16.0454 10.1078 16.3602 9.71953 16.3602H8.40455C8.01623 16.3602 7.70142 16.0454 7.70142 15.657V14.7016C7.70142 14.3132 8.01619 13.9985 8.40455 13.9985H9.71953C10.1078 13.9985 10.4227 14.3133 10.4227 14.7016ZM5.39672 20.1862C5.39672 20.5745 5.08191 20.8893 4.69359 20.8893H3.37861C2.9903 20.8893 2.67548 20.5745 2.67548 20.1862V19.2308C2.67548 18.8424 2.9903 18.5276 3.37861 18.5276H4.69359C5.08191 18.5276 5.39672 18.8424 5.39672 19.2308V20.1862ZM5.39672 15.657C5.39672 16.0454 5.08191 16.3602 4.69359 16.3602H3.37861C2.9903 16.3602 2.67548 16.0454 2.67548 15.657V14.7016C2.67548 14.3133 2.9903 13.9985 3.37861 13.9985H4.69359C5.08191 13.9985 5.39672 14.3133 5.39672 14.7016V15.657ZM5.39672 11.1279C5.39672 11.5162 5.08191 11.831 4.69359 11.831H3.37861C2.9903 11.831 2.67548 11.5162 2.67548 11.1279V10.1724C2.67548 9.78412 2.9903 9.46931 3.37861 9.46931H4.69359C5.08191 9.46931 5.39672 9.78412 5.39672 10.1724V11.1279ZM15.4485 20.1862C15.4485 20.5745 15.1336 20.8893 14.7453 20.8893H8.4045C8.01619 20.8893 7.70138 20.5745 7.70138 20.1862V19.2308C7.70138 18.8424 8.01614 18.5276 8.4045 18.5276H14.7453C15.1336 18.5276 15.4485 18.8424 15.4485 19.2308V20.1862ZM15.4485 15.657C15.4485 16.0454 15.1336 16.3602 14.7453 16.3602H13.4303C13.042 16.3602 12.7272 16.0454 12.7272 15.657V14.7016C12.7272 14.3133 13.042 13.9985 13.4303 13.9985H14.7453C15.1336 13.9985 15.4485 14.3133 15.4485 14.7016V15.657ZM15.4485 11.1279C15.4485 11.5162 15.1336 11.831 14.7453 11.831H13.4303C13.042 11.831 12.7272 11.5162 12.7272 11.1279V10.1724C12.7272 9.78412 13.042 9.46931 13.4303 9.46931H14.7453C15.1336 9.46931 15.4485 9.78412 15.4485 10.1724V11.1279Z" fill="white"/>
</svg>
