<svg width="21" height="18" viewBox="0 0 21 18" fill="none" xmlns="http://www.w3.org/2000/svg">
<path d="M20.9152 8.66925L17.925 2.66475C17.8572 2.52763 17.7489 2.4147 17.6147 2.3413C17.4805 2.2679 17.327 2.23759 17.175 2.2545L12.525 2.772C12.2654 2.24126 11.8074 1.83393 11.25 1.638V0.75C11.25 0.551088 11.171 0.360322 11.0303 0.21967C10.8897 0.0790178 10.6989 0 10.5 0C10.3011 0 10.1103 0.0790178 9.96967 0.21967C9.82902 0.360322 9.75 0.551088 9.75 0.75V1.638C9.39626 1.76372 9.0796 1.97596 8.82887 2.25538C8.57815 2.5348 8.40132 2.87251 8.3145 3.23775L3.6645 3.7545C3.5399 3.76823 3.42073 3.81298 3.31788 3.88464C3.21503 3.95631 3.13178 4.05261 3.07575 4.16475L0.08325 10.1647C0.029207 10.2683 0.000665517 10.3832 0 10.5C0 11.2956 0.316071 12.0587 0.87868 12.6213C1.44129 13.1839 2.20435 13.5 3 13.5H4.5C5.29565 13.5 6.05871 13.1839 6.62132 12.6213C7.18393 12.0587 7.5 11.2956 7.5 10.5C7.49957 10.3889 7.47392 10.2794 7.425 10.1798C7.425 10.1737 4.905 5.12625 4.905 5.12625L8.48625 4.728C8.74323 5.25654 9.19682 5.66355 9.75 5.862V15.75H5.25C4.84798 15.7501 4.45333 15.8579 4.1071 16.0622C3.76086 16.2665 3.47569 16.5599 3.28125 16.9118C3.22334 17.0263 3.19582 17.1539 3.20133 17.2822C3.20684 17.4104 3.24518 17.5352 3.3127 17.6444C3.38021 17.7536 3.47463 17.8436 3.58692 17.9059C3.69921 17.9682 3.8256 18.0006 3.954 18H17.046C17.1746 18.001 17.3013 17.9688 17.4139 17.9067C17.5265 17.8446 17.6212 17.7546 17.689 17.6453C17.7568 17.5361 17.7953 17.4112 17.8009 17.2827C17.8065 17.1543 17.779 17.0265 17.721 16.9118C17.5264 16.5595 17.2408 16.266 16.8942 16.0617C16.5475 15.8573 16.1524 15.7497 15.75 15.75H11.25V5.862C11.6037 5.73628 11.9204 5.52404 12.1711 5.24462C12.4219 4.9652 12.5987 4.62749 12.6855 4.26225L15.9623 3.9L13.5758 8.68575C13.5275 8.7836 13.5017 8.89093 13.5 9C13.5 9.79565 13.8161 10.5587 14.3787 11.1213C14.9413 11.6839 15.7044 12 16.5 12H18C18.7956 12 19.5587 11.6839 20.1213 11.1213C20.6839 10.5587 21 9.79565 21 9C20.9982 8.88462 20.9691 8.7713 20.9152 8.66925ZM5.5365 9.75H1.9635L3.75 6.177L5.5365 9.75ZM10.5 4.5C10.3517 4.5 10.2067 4.45601 10.0833 4.3736C9.95998 4.29119 9.86386 4.17406 9.80709 4.03701C9.75032 3.89997 9.73547 3.74917 9.76441 3.60368C9.79335 3.4582 9.86478 3.32456 9.96967 3.21967C10.0746 3.11478 10.2082 3.04335 10.3537 3.01441C10.4992 2.98547 10.65 3.00032 10.787 3.05709C10.9241 3.11386 11.0412 3.20999 11.1236 3.33332C11.206 3.45666 11.25 3.60166 11.25 3.75C11.25 3.94891 11.171 4.13968 11.0303 4.28033C10.8897 4.42098 10.6989 4.5 10.5 4.5ZM17.25 4.67775L19.0365 8.25H15.4635L17.25 4.67775Z" fill="white"/>
</svg>
