<svg width="22" height="24" viewBox="0 0 22 24" fill="none" xmlns="http://www.w3.org/2000/svg">
<path d="M10.5469 0C6.32977 0 2.8125 3.39703 2.8125 7.73438C2.8125 9.38447 3.30834 10.8559 4.25995 12.2347L9.95498 21.1212C10.2313 21.5532 10.863 21.5524 11.1388 21.1212L16.8585 12.2044C17.7896 10.8881 18.2812 9.34252 18.2812 7.73438C18.2812 3.46964 14.8116 0 10.5469 0ZM10.5469 11.25C8.60845 11.25 7.03125 9.6728 7.03125 7.73438C7.03125 5.79595 8.60845 4.21875 10.5469 4.21875C12.4853 4.21875 14.0625 5.79595 14.0625 7.73438C14.0625 9.6728 12.4853 11.25 10.5469 11.25Z" fill="#747474"/>
<path d="M16.0436 16.1577L12.5031 21.693C11.5867 23.1219 9.50198 23.1172 8.58994 21.6944L5.04366 16.1592C1.92347 16.8806 0 18.2021 0 19.7814C0 22.5218 5.43412 24.0001 10.5469 24.0001C15.6596 24.0001 21.0938 22.5218 21.0938 19.7814C21.0938 18.201 19.1676 16.8787 16.0436 16.1577Z" fill="#747474"/>
</svg>
