<svg width="52" height="55" viewBox="0 0 52 55" fill="none" xmlns="http://www.w3.org/2000/svg">
<path fill-rule="evenodd" clip-rule="evenodd" d="M0.056072 9.59347L15.4687 18.4919C15.4856 18.502 15.505 18.5074 15.5247 18.5074C15.5445 18.5074 15.5639 18.502 15.5808 18.4919C15.598 18.4823 15.6123 18.4682 15.6222 18.4511C15.632 18.434 15.6371 18.4146 15.6369 18.3949V13.6104C15.6369 13.5487 15.6872 13.4982 15.749 13.4982H18.1171C22.3055 13.4982 26.5649 14.3685 30.1609 16.5908C35.5102 19.8967 38.3107 25.6093 37.4485 31.8395C37.23 33.4179 36.7873 34.9459 36.1651 36.4003C36.1577 36.4171 36.1547 36.4355 36.1564 36.4538C36.1989 36.9572 36.222 37.4662 36.222 37.9808C36.222 43.585 33.6478 48.5879 29.6178 51.873C29.5972 51.8896 29.5832 51.913 29.5783 51.939C29.5733 51.965 29.5778 51.9919 29.5909 52.0149C29.6037 52.0379 29.6243 52.0556 29.649 52.0649C29.6737 52.0743 29.7009 52.0745 29.7257 52.0657C35.9482 49.886 40.6648 45.9644 43.3532 39.7315C47.3654 30.4297 45.4285 19.8596 38.2543 12.6853C33.6698 8.10061 27.507 5.51565 21.0172 5.51565H15.7489C15.7192 5.51558 15.6907 5.50375 15.6697 5.48273C15.6486 5.46172 15.6368 5.43324 15.6367 5.40352V0.598016C15.6371 0.578285 15.632 0.558839 15.6221 0.541752C15.6123 0.524666 15.5979 0.510579 15.5807 0.500992C15.5637 0.49088 15.5444 0.485541 15.5246 0.485541C15.5049 0.485541 15.4855 0.49088 15.4686 0.500992L0.056072 9.3993C0.038869 9.40894 0.0245827 9.42304 0.0147165 9.44011C0.00485039 9.45718 -0.000230727 9.4766 8.04354e-06 9.49632C8.04354e-06 9.53754 0.02036 9.57286 0.056072 9.59347ZM30.5848 0.840832C30.5848 0.61783 30.6734 0.403961 30.8311 0.246274C30.9888 0.0885873 31.2027 0 31.4257 0C31.6487 0 31.8625 0.0885873 32.0202 0.246274C32.1779 0.403961 32.2665 0.61783 32.2665 0.840832V3.68128C32.2665 3.90428 32.1779 4.11815 32.0202 4.27584C31.8625 4.43352 31.6487 4.52211 31.4257 4.52211C31.2027 4.52211 30.9888 4.43352 30.8311 4.27584C30.6734 4.11815 30.5848 3.90428 30.5848 3.68128V0.840832ZM50.8603 20.9501C51.0768 20.9064 51.3018 20.9496 51.4867 21.0705C51.6715 21.1915 51.8013 21.3803 51.8479 21.5962C51.8945 21.8121 51.8543 22.0377 51.7358 22.2241C51.6174 22.4105 51.4302 22.5428 51.215 22.5923L48.4561 23.1976C48.2396 23.2413 48.0146 23.1981 47.8297 23.0772C47.6449 22.9563 47.5151 22.7674 47.4685 22.5515C47.4218 22.3356 47.4621 22.1101 47.5806 21.9236C47.699 21.7372 47.8861 21.6049 48.1014 21.5555L50.8603 20.9501ZM47.9602 12.3533C48.0621 12.3107 48.1715 12.2887 48.2819 12.2885C48.3924 12.2883 48.5018 12.31 48.6039 12.3522C48.7059 12.3945 48.7986 12.4565 48.8767 12.5347C48.9547 12.6129 49.0164 12.7058 49.0584 12.808C49.1004 12.9101 49.1218 13.0196 49.1213 13.1301C49.1208 13.2405 49.0985 13.3498 49.0557 13.4516C49.0128 13.5535 48.9503 13.6458 48.8716 13.7233C48.7929 13.8009 48.6997 13.8621 48.5973 13.9035L45.7322 15.0857C45.6303 15.1283 45.521 15.1503 45.4105 15.1505C45.3 15.1507 45.1906 15.129 45.0886 15.0868C44.9865 15.0445 44.8938 14.9825 44.8158 14.9043C44.7378 14.826 44.676 14.7332 44.634 14.631C44.592 14.5288 44.5706 14.4194 44.5711 14.3089C44.5716 14.1984 44.5939 14.0892 44.6368 13.9873C44.6796 13.8855 44.7422 13.7932 44.8209 13.7156C44.8995 13.6381 44.9928 13.5769 45.0952 13.5355L47.9602 12.3533ZM40.6085 4.40333C40.7491 4.23387 40.9508 4.12651 41.1699 4.10442C41.389 4.08233 41.6079 4.14729 41.7796 4.28526C41.9512 4.42324 42.0617 4.62317 42.0871 4.8419C42.1126 5.06062 42.0511 5.2806 41.9158 5.45434L40.0919 7.72365C39.951 7.89223 39.7496 7.9988 39.531 8.02045C39.3123 8.0421 39.0939 7.97711 38.9227 7.83943C38.7515 7.70176 38.6411 7.50241 38.6153 7.28422C38.5895 7.06604 38.6504 6.84644 38.7848 6.67264L40.6085 4.40333ZM18.3063 26.423C24.6894 26.423 29.8639 31.5976 29.8639 37.9807C29.8639 44.3638 24.6894 49.5383 18.3063 49.5383C11.9232 49.5383 6.74868 44.3638 6.74868 37.9807C6.74868 31.5976 11.9232 26.423 18.3063 26.423ZM22.4311 33.1905C22.6306 33.2865 22.7841 33.4575 22.8581 33.6662C22.9321 33.8748 22.9206 34.1043 22.8261 34.3046C22.7316 34.5048 22.5618 34.6595 22.3537 34.7351C22.1456 34.8106 21.916 34.8008 21.7151 34.7078C20.6459 34.2017 19.5004 33.9811 18.2485 33.9552C17.722 33.9443 17.0445 34.0996 16.5674 34.299L16.5678 34.2999C16.1655 34.4664 15.8684 34.666 15.6767 34.8982C15.354 35.2888 15.3278 35.7482 15.6629 36.1537C15.8572 36.3889 16.1609 36.6035 16.5741 36.7974L16.5743 36.7967C17.9269 37.3646 19.0339 36.9043 20.7418 37.614C21.366 37.8734 21.9405 38.3058 22.2837 38.7232C22.6774 39.2022 22.8911 39.7495 22.9294 40.3633C22.9316 40.3999 22.9313 40.436 22.9289 40.4716H22.9294C22.8365 41.7674 21.9686 42.6961 20.7448 43.2074L20.745 43.2078C20.2651 43.411 19.7603 43.5494 19.2439 43.6193C19.217 43.6229 19.1924 43.6361 19.1746 43.6566C19.1567 43.677 19.1469 43.7032 19.147 43.7303V44.3359C19.147 44.5589 19.0584 44.7727 18.9007 44.9304C18.7431 45.0881 18.5292 45.1767 18.3062 45.1767C18.0832 45.1767 17.8693 45.0881 17.7116 44.9304C17.5539 44.7727 17.4654 44.5589 17.4654 44.3359V43.7432C17.4654 43.7154 17.4551 43.6885 17.4364 43.6679C17.4177 43.6473 17.3919 43.6344 17.3642 43.6317C16.2566 43.5236 15.2038 43.242 14.1759 42.777C14.0743 42.7324 13.9825 42.6682 13.9058 42.5879C13.8292 42.5077 13.7692 42.413 13.7294 42.3095C13.6896 42.2059 13.6707 42.0954 13.6738 41.9845C13.6769 41.8736 13.702 41.7644 13.7476 41.6632C13.7932 41.5621 13.8584 41.471 13.9394 41.3952C14.0205 41.3193 14.1157 41.2604 14.2197 41.2216C14.3237 41.1828 14.4343 41.1651 14.5452 41.1694C14.6561 41.1736 14.765 41.1998 14.8657 41.2465C16.35 41.918 18.5038 42.3359 20.0947 41.6643L20.0949 41.6646C20.9146 41.3071 21.6448 40.5844 20.9896 39.7873C20.8181 39.5786 20.4726 39.317 20.0981 39.164C18.6901 38.5892 17.6095 39.0545 15.9241 38.3468L15.9246 38.3453C14.694 37.8066 13.8264 36.9185 13.7414 35.6192L13.7413 35.6174C13.7383 35.5801 13.7377 35.5427 13.7395 35.5053C13.8081 34.16 14.6746 33.2692 15.9305 32.7493L15.9308 32.7501C16.3923 32.5514 16.8707 32.4202 17.3692 32.3483C17.3959 32.3446 17.4204 32.3313 17.4381 32.3109C17.4558 32.2905 17.4655 32.2644 17.4654 32.2374V31.6246C17.4654 31.4016 17.5539 31.1877 17.7116 31.03C17.8693 30.8723 18.0832 30.7837 18.3062 30.7837C18.5292 30.7837 18.7431 30.8723 18.9007 31.03C19.0584 31.1877 19.147 31.4016 19.147 31.6246V32.2227C19.147 32.2806 19.1904 32.3284 19.248 32.3342C20.3863 32.4477 21.4441 32.7218 22.4311 33.1905ZM18.3063 21.7467C27.2721 21.7467 34.5403 29.0149 34.5403 37.9807C34.5403 46.9464 27.2721 54.2147 18.3063 54.2147C9.34055 54.2147 2.07233 46.9464 2.07233 37.9807C2.07233 29.0149 9.34055 21.7467 18.3063 21.7467ZM18.3063 24.6972C25.642 24.6972 31.5898 30.645 31.5898 37.9807C31.5898 45.3164 25.642 51.2641 18.3063 51.2641C10.9706 51.2641 5.02286 45.3164 5.02286 37.9807C5.02286 30.645 10.9706 24.6972 18.3063 24.6972Z" fill="white"/>
</svg>
