<svg width="27" height="36" viewBox="0 0 27 36" fill="none" xmlns="http://www.w3.org/2000/svg">
<path d="M14.6891 26.3889C13.9291 26.3889 13.2491 27.3489 13.2491 28.4689C13.2491 29.5889 13.8891 30.5489 14.6891 30.5489C15.4891 30.5489 16.1291 29.5889 16.1291 28.4689C16.1291 27.3489 15.4491 26.3889 14.6891 26.3889ZM7.52912 21.8289C6.76912 21.8289 6.08912 22.7889 6.08912 23.9089C6.08912 25.0289 6.72912 25.9889 7.52912 25.9889C8.28912 25.9889 8.96912 25.0289 8.96912 23.9089C8.96912 22.7889 8.28912 21.8289 7.52912 21.8289ZM3.56912 6.62885C3.32912 6.82885 3.24912 7.10885 3.28912 7.50885C3.36912 8.58885 4.56912 10.2289 4.56912 10.2289C4.56912 10.2289 4.56912 10.2689 4.60912 10.2689C4.80912 10.6689 5.12912 10.9889 5.48912 11.1889C6.84912 12.0289 7.96912 12.5089 8.60912 12.5089C8.92912 12.5089 9.16912 12.3489 9.24912 12.0689C9.32912 11.7889 9.24912 11.2689 8.76912 10.6289C8.48912 10.5889 8.24912 10.5889 8.00912 10.5489C6.20912 10.2689 5.80912 8.22885 5.88912 7.06885C5.88912 6.98885 5.88912 6.94885 5.92912 6.86885C6.00912 6.62885 6.24912 6.42885 6.52912 6.42885C6.52912 6.42885 7.72912 6.38885 9.16912 6.38885L8.08912 0.748854L8.04912 0.548854C5.64912 0.748854 3.28912 2.26885 3.28912 2.26885C3.84912 3.94885 4.60912 5.30885 5.32912 6.22885C4.96912 6.18885 4.04912 6.18885 3.56912 6.62885ZM9.76912 6.38885H10.8891C12.0891 6.38885 12.9691 6.42885 13.4891 6.46885H13.5291L15.9691 1.98885L16.4091 1.10885C16.5291 0.828854 16.4491 0.508854 16.1691 0.348854C15.6091 0.0288544 15.0091 -0.0511456 14.4091 0.0288544C13.9291 0.108854 13.6091 0.228854 13.2091 0.428854C12.3691 0.788854 11.3691 1.18885 8.68912 0.988854L9.60912 5.82885L9.76912 6.38885ZM14.2091 6.54885C14.7691 6.66885 15.4891 6.82885 16.2491 6.98885L17.9291 3.98885C17.3291 3.82885 16.4891 3.58885 16.0091 3.22885L14.2091 6.54885ZM26.4891 8.70885H23.9291C23.7291 8.70885 23.6091 8.86885 23.6091 9.02885V18.3089C23.6091 18.5089 23.7691 18.6289 23.9291 18.6289H26.4891C26.6891 18.6289 26.8091 18.4689 26.8091 18.3089V9.02885C26.8491 8.86885 26.6891 8.70885 26.4891 8.70885Z" fill="url(#paint0_linear_325_4070)"/>
<path d="M21.0101 9.06885C21.0101 9.06885 15.1301 7.26885 13.4101 7.14885C12.8501 7.10885 11.8901 7.06885 10.8501 7.06885C8.81012 7.06885 6.49012 7.14885 6.49012 7.14885C6.49012 7.14885 6.41012 9.66885 8.09012 9.94885C8.81012 10.0688 9.65012 10.0688 10.4501 10.0688H11.0901C11.8901 10.0688 12.5301 10.0688 12.8901 10.2288C13.6501 10.5488 13.5301 12.4288 17.1701 14.5888C17.2901 14.6688 17.4501 14.7488 17.6501 14.7888C18.5701 15.7488 19.4901 16.8288 20.2101 17.8688C20.6501 17.5888 21.1701 17.2688 21.6101 16.7888H22.8501V9.66885L21.0101 9.06885ZM4.93012 14.5088C5.73012 15.0688 7.17012 15.7088 7.97012 15.7088C8.41012 15.7088 8.77012 15.4288 8.85012 15.0688C8.97012 14.5488 8.65012 13.7488 7.49012 12.9488C6.69012 12.6688 5.85012 12.1888 5.13012 11.7488C4.69012 11.4688 4.29012 11.0688 4.01012 10.5888C3.97012 10.5088 3.81012 10.3488 3.65012 10.0688C3.45012 10.1088 3.25012 10.2288 3.05012 10.3488C2.85012 10.5488 2.73012 10.7888 2.73012 11.1488V11.2688C2.77012 11.2688 2.37012 12.6688 4.93012 14.5088Z" fill="url(#paint1_linear_325_4070)"/>
<path d="M20.9293 20.5489C20.4893 19.1089 18.8093 16.9889 17.2493 15.3489C17.1293 15.3089 16.9693 15.2289 16.8493 15.1489C14.2493 13.5889 13.4493 12.1489 12.9693 11.3089C12.8493 11.1089 12.7293 10.8689 12.6493 10.8289C12.3693 10.7089 11.5293 10.7089 11.1293 10.7089H9.60931C9.92931 11.3089 10.0093 11.8689 9.88931 12.2689C9.72931 12.7889 9.32931 13.1489 8.76931 13.1889C9.64931 14.1489 9.56931 14.9489 9.48931 15.2289C9.32931 15.9089 8.68931 16.3889 7.96931 16.3889C7.68931 16.3889 7.40931 16.3489 7.08931 16.2689C7.00931 16.5889 6.8493 16.9489 6.5293 17.3089C6.2093 17.7089 5.76931 17.9089 5.28931 17.9089C5.16931 17.9089 5.00931 17.9089 4.88931 17.8689C4.36931 17.7489 3.88931 17.4689 3.48931 17.0289C2.44931 18.2689 1.6093 19.6289 1.3293 20.9889C0.729305 23.7089 0.249305 28.7889 0.00930492 31.5889C-0.0706951 32.5489 0.369305 33.5089 1.1693 34.0689C1.8493 34.5489 2.6093 34.9089 3.3693 35.1089C5.7293 35.7489 15.7293 37.1089 21.0493 34.2289C22.0093 33.7089 22.5293 32.6689 22.4493 31.5889C22.1693 28.9489 21.5693 22.6289 20.9293 20.5489ZM5.2093 23.9089C5.2093 22.2689 6.2493 20.9489 7.5293 20.9489C8.8093 20.9489 9.8493 22.2689 9.8493 23.9089C9.8493 25.5489 8.8093 26.8689 7.5293 26.8689C6.2493 26.8689 5.2093 25.5489 5.2093 23.9089ZM8.48931 31.1889L7.7293 30.7489L13.1293 21.6689L13.8893 22.1089L8.48931 31.1889ZM14.6893 31.4289C13.4093 31.4289 12.3693 30.1089 12.3693 28.4689C12.3693 26.8289 13.4093 25.5089 14.6893 25.5089C15.9693 25.5089 17.0093 26.8289 17.0093 28.4689C17.0093 30.1089 15.9693 31.4289 14.6893 31.4289Z" fill="url(#paint2_linear_325_4070)"/>
<path d="M3.48888 14.1489C3.44888 14.1889 3.40888 14.2689 3.36888 14.3089C3.20888 14.5889 3.20888 14.9089 3.28888 15.2689C3.56888 16.1889 4.28888 16.9489 5.04888 17.1489C5.44888 17.2289 5.80888 17.1089 6.04888 16.8289C6.28888 16.5489 6.40888 16.2689 6.48888 16.0289C5.72888 15.7489 5.00888 15.3489 4.56888 15.0289C4.12888 14.7489 3.76888 14.4689 3.48888 14.1489Z" fill="url(#paint3_linear_325_4070)"/>
<defs>
<linearGradient id="paint0_linear_325_4070" x1="25.3724" y1="-1.10539" x2="36.2178" y2="36.6988" gradientUnits="userSpaceOnUse">
<stop stop-color="#4160FF"/>
<stop offset="1" stop-color="#213269"/>
</linearGradient>
<linearGradient id="paint1_linear_325_4070" x1="21.6166" y1="6.67806" x2="23.3088" y2="20.9423" gradientUnits="userSpaceOnUse">
<stop stop-color="#4160FF"/>
<stop offset="1" stop-color="#213269"/>
</linearGradient>
<linearGradient id="paint2_linear_325_4070" x1="21.0806" y1="9.7939" x2="29.0173" y2="41.6854" gradientUnits="userSpaceOnUse">
<stop stop-color="#4160FF"/>
<stop offset="1" stop-color="#213269"/>
</linearGradient>
<linearGradient id="paint3_linear_325_4070" x1="6.28948" y1="14.0394" x2="7.08822" y2="17.9259" gradientUnits="userSpaceOnUse">
<stop stop-color="#4160FF"/>
<stop offset="1" stop-color="#213269"/>
</linearGradient>
</defs>
</svg>
