<svg width="47" height="41" viewBox="0 0 47 41" fill="none" xmlns="http://www.w3.org/2000/svg">
<path fill-rule="evenodd" clip-rule="evenodd" d="M15.6824 19.5451C17.9065 22.0244 19.5715 24.1838 20.677 26.1248C24.8251 33.4082 18.9241 40.8057 11.0212 40.6726C3.11841 40.8058 -2.7825 33.4082 1.36547 26.1248C2.47097 24.1838 4.13597 22.0244 6.36009 19.5451C6.69311 19.6628 7.04377 19.7228 7.39697 19.7226H14.6455C15.0088 19.7226 15.3577 19.6598 15.6824 19.5451ZM7.39706 18.2226H14.6456C15.5393 18.2226 16.2704 17.4914 16.2704 16.5979C16.2704 15.7042 15.5393 14.9731 14.6456 14.9731H7.39706C6.50334 14.9731 5.77228 15.7042 5.77228 16.5978C5.77228 17.4915 6.50334 18.2226 7.39706 18.2226ZM19.7819 16.5953C19.331 16.5953 18.9631 16.963 18.9631 17.4141V21.0651C20.0787 22.4405 21.1281 23.886 21.9803 25.3825C23.7114 28.4221 24.0903 31.9478 22.6553 35.1817C22.5485 35.4217 22.4331 35.6579 22.3094 35.8897H24.3438V17.4141C24.3438 16.963 23.9759 16.5953 23.525 16.5953H19.7819ZM37.8592 17.0949L37.7057 19.3772C37.6991 19.4743 37.7458 19.5609 37.8306 19.6089C37.9153 19.6569 38.0137 19.6523 38.0935 19.5968L43.977 15.5059C44.008 15.485 44.0336 15.4572 44.052 15.4247C44.0703 15.3922 44.0808 15.3559 44.0827 15.3186C44.0856 15.2813 44.0798 15.2439 44.0657 15.2094C44.0516 15.1748 44.0297 15.1439 44.0016 15.1193L38.7143 10.3463C38.6423 10.2812 38.5457 10.2641 38.4558 10.3006C38.3659 10.3371 38.3084 10.4164 38.3018 10.5132L38.1428 12.8787C33.861 12.7624 27.9946 11.016 24.2452 8.77697C20.1106 6.30797 17.3979 3.36984 15.4893 0C16.7604 5.12006 20.5364 10.1863 26.1755 13.5538C29.9708 15.8202 34.0436 16.9787 37.8592 17.0949ZM46.1048 37.3897H21.3455C20.7635 38.1514 20.0893 38.8294 19.3447 39.418H46.1048C46.555 39.418 46.9222 39.0508 46.9222 38.6006V38.2071C46.9222 37.7568 46.555 37.3897 46.1048 37.3897ZM43.5076 27.6512H39.7644C39.3135 27.6512 38.9456 28.019 38.9456 28.47V35.8897H44.3263V28.47C44.3263 28.019 43.9585 27.6512 43.5076 27.6512ZM29.7731 22.2428H33.5164C33.9674 22.2428 34.3352 22.6106 34.3352 23.0617V35.8897H28.9544V23.0616C28.9543 22.6106 29.3221 22.2428 29.7731 22.2428ZM10.9379 33.032C10.4497 33.0193 9.97566 32.887 9.59775 32.6353C9.25575 32.4076 8.99447 32.0744 8.88544 31.6368C8.83677 31.4492 8.71618 31.2884 8.54978 31.1891C8.38338 31.0899 8.18458 31.0602 7.99643 31.1064C7.80828 31.1527 7.64593 31.2712 7.54456 31.4364C7.44318 31.6015 7.41094 31.7999 7.45481 31.9886C7.66087 32.8152 8.14828 33.4403 8.78447 33.864C9.219 34.1534 9.72365 34.3447 10.2521 34.4379V35.0111C10.2521 35.1081 10.2712 35.2041 10.3083 35.2937C10.3455 35.3833 10.3999 35.4647 10.4684 35.5332C10.537 35.6018 10.6184 35.6562 10.708 35.6933C10.7976 35.7304 10.8936 35.7495 10.9905 35.7495C11.0875 35.7494 11.1835 35.7303 11.2731 35.6932C11.3627 35.6561 11.4441 35.6017 11.5126 35.5332C11.5812 35.4646 11.6356 35.3832 11.6727 35.2936C11.7098 35.204 11.7289 35.108 11.7289 35.011V34.4519C12.3711 34.354 13.0253 34.1197 13.5391 33.7298C14.1564 33.2614 14.5671 32.5906 14.5457 31.6905C14.5441 31.5999 14.5382 31.5094 14.528 31.4193C14.4082 30.4329 13.8745 29.7908 13.167 29.3636C12.5454 28.9883 11.8001 28.8015 11.1168 28.6893C10.6239 28.6084 10.1047 28.4714 9.72459 28.2232C9.43003 28.0309 9.21872 27.7524 9.19894 27.3453C9.17756 26.9048 9.36984 26.5493 9.67284 26.3031C9.91022 26.11 10.213 25.976 10.5412 25.9099C10.6748 25.8831 10.8104 25.8679 10.9465 25.8643C10.9788 25.8662 11.0111 25.866 11.0433 25.8638C11.2248 25.8664 11.4076 25.8897 11.5861 25.9349C12.135 26.074 12.6348 26.4358 12.8979 27.0626C12.9354 27.152 12.9902 27.2332 13.059 27.3014C13.1279 27.3696 13.2095 27.4236 13.2992 27.4603C13.389 27.497 13.485 27.5157 13.582 27.5152C13.6789 27.5148 13.7748 27.4953 13.8642 27.4578C13.9536 27.4203 14.0347 27.3655 14.103 27.2967C14.1712 27.2278 14.2252 27.1462 14.2619 27.0565C14.2986 26.9668 14.3173 26.8707 14.3168 26.7737C14.3164 26.6768 14.2969 26.5809 14.2594 26.4915C13.796 25.3878 12.9137 24.75 11.9437 24.5042C11.8726 24.4861 11.801 24.4703 11.7289 24.4567V23.8845C11.7289 23.4767 11.3983 23.1461 10.9905 23.1461C10.5827 23.1461 10.2521 23.4767 10.2521 23.8845V24.4677C9.69272 24.5805 9.16734 24.8167 8.74415 25.1607C8.09381 25.6895 7.68141 26.4572 7.72791 27.4145C7.77459 28.3763 8.2545 29.0214 8.92266 29.4576C9.50512 29.8378 10.2205 30.0346 10.8802 30.1429C11.4101 30.2299 11.9758 30.3673 12.4056 30.6268C12.7493 30.8344 13.0075 31.1377 13.0627 31.5922C13.07 31.6527 13.0739 31.6968 13.0747 31.7249C13.0832 32.0862 12.9104 32.3617 12.6507 32.5586C12.3257 32.8053 11.8693 32.9506 11.4128 33.006C11.305 33.0198 11.1966 33.0284 11.088 33.0318L11.0528 33.0324C11.0321 33.0307 11.0112 33.0298 10.9904 33.0298C10.9728 33.0301 10.9552 33.0308 10.9379 33.032ZM7.17178 13.4813L6.00337 12.313C5.35406 11.6637 5.35406 10.6012 6.00337 9.95185C6.55566 9.39956 7.42997 9.30619 8.08716 9.72806C8.33128 9.88472 8.61159 9.90975 8.87953 9.79885C9.14737 9.68785 9.32794 9.47203 9.38981 9.18863C9.55341 8.43909 10.2245 7.87341 11.0213 7.87331C11.8038 7.87331 12.4862 8.42484 12.653 9.18863C12.7148 9.47203 12.8953 9.68785 13.1632 9.79885C13.4312 9.90985 13.7114 9.88472 13.9554 9.72806C14.601 9.31369 15.4757 9.38841 16.0391 9.95175V9.95185C16.6884 10.6012 16.6884 11.6637 16.0391 12.313L14.8707 13.4813C14.7957 13.4759 14.7206 13.4732 14.6454 13.4731H7.39706C7.32131 13.4731 7.24622 13.476 7.17178 13.4813Z" fill="#FF4141"/>
</svg>
