<svg width="40" height="40" viewBox="0 0 40 40" fill="none" xmlns="http://www.w3.org/2000/svg">
<path d="M20 0C8.9543 0 0 8.9543 0 20C0 31.0457 8.9543 40 20 40C31.0457 40 40 31.0457 40 20C40 8.9543 31.0457 0 20 0ZM34.9377 20C34.9377 23.2261 33.9149 26.2133 32.176 28.6552L11.3448 7.82391C13.7867 6.08508 16.7739 5.06227 20 5.06227C28.2499 5.06227 34.9377 11.7501 34.9377 20ZM5.06227 20C5.06227 16.7739 6.08508 13.7867 7.82398 11.3448L28.6552 32.1761C26.2134 33.915 23.2262 34.9378 20.0001 34.9378C11.7501 34.9377 5.06227 28.2499 5.06227 20Z" fill="#4160FF"/>
</svg>
