<svg width="19" height="21" viewBox="0 0 19 21" fill="none" xmlns="http://www.w3.org/2000/svg">
<path d="M2.77125 8.79H2.13563V7.5285C2.13563 7.42904 2.09612 7.33366 2.02579 7.26333C1.95546 7.19301 1.86008 7.1535 1.76063 7.1535C1.66117 7.1535 1.56579 7.19301 1.49546 7.26333C1.42513 7.33366 1.38563 7.42904 1.38563 7.5285V8.79H0.75C0.55127 8.79059 0.360849 8.8698 0.220326 9.01033C0.0798018 9.15085 0.000593523 9.34127 0 9.54V18.6112C0 18.8102 0.0790178 19.0009 0.21967 19.1416C0.360322 19.2822 0.551088 19.3612 0.75 19.3612H1.38563V20.625C1.38563 20.7245 1.42513 20.8198 1.49546 20.8902C1.56579 20.9605 1.66117 21 1.76063 21C1.86008 21 1.95546 20.9605 2.02579 20.8902C2.09612 20.8198 2.13563 20.7245 2.13563 20.625V19.3612H2.77125C2.97016 19.3612 3.16093 19.2822 3.30158 19.1416C3.44223 19.0009 3.52125 18.8102 3.52125 18.6112V9.54C3.52066 9.34127 3.44145 9.15085 3.30092 9.01033C3.1604 8.8698 2.96998 8.79059 2.77125 8.79ZM7.68 4.14H7.047V2.8785C7.047 2.77904 7.00749 2.68366 6.93717 2.61333C6.86684 2.54301 6.77146 2.5035 6.672 2.5035C6.57254 2.5035 6.47716 2.54301 6.40684 2.61333C6.33651 2.68366 6.297 2.77904 6.297 2.8785V4.14H5.6625C5.46377 4.14059 5.27335 4.2198 5.13283 4.36033C4.9923 4.50085 4.91309 4.69127 4.9125 4.89V13.9613C4.9125 14.1602 4.99152 14.3509 5.13217 14.4916C5.27282 14.6322 5.46359 14.7113 5.6625 14.7113H6.297V15.975C6.297 16.0745 6.33651 16.1698 6.40684 16.2402C6.47716 16.3105 6.57254 16.35 6.672 16.35C6.77146 16.35 6.86684 16.3105 6.93717 16.2402C7.00749 16.1698 7.047 16.0745 7.047 15.975V14.7113H7.68C7.77859 14.7116 7.87627 14.6924 7.96742 14.6549C8.05857 14.6173 8.14139 14.5621 8.2111 14.4924C8.28082 14.4226 8.33605 14.3398 8.37362 14.2487C8.41119 14.1575 8.43035 14.0598 8.43 13.9613V4.89C8.43 4.69109 8.35098 4.50032 8.21033 4.35967C8.06968 4.21902 7.87891 4.14 7.68 4.14ZM12.5925 6.75375H11.958V5.49113C11.958 5.39167 11.9185 5.29629 11.8482 5.22596C11.7778 5.15563 11.6825 5.11613 11.583 5.11613C11.4835 5.11613 11.3882 5.15563 11.3178 5.22596C11.2475 5.29629 11.208 5.39167 11.208 5.49113V6.75375H10.575C10.3761 6.75375 10.1853 6.83277 10.0447 6.97342C9.90402 7.11407 9.825 7.30484 9.825 7.50375V16.575C9.825 16.7739 9.90402 16.9647 10.0447 17.1053C10.1853 17.246 10.3761 17.325 10.575 17.325H11.208V18.5872C11.208 18.6867 11.2475 18.7821 11.3178 18.8524C11.3882 18.9227 11.4835 18.9622 11.583 18.9622C11.6825 18.9622 11.7778 18.9227 11.8482 18.8524C11.9185 18.7821 11.958 18.6867 11.958 18.5872V17.325H12.5925C12.7912 17.3244 12.9817 17.2452 13.1222 17.1047C13.2627 16.9642 13.3419 16.7737 13.3425 16.575V7.50375C13.3419 7.30502 13.2627 7.1146 13.1222 6.97408C12.9817 6.83355 12.7912 6.75434 12.5925 6.75375ZM17.505 1.63875H16.8694V0.375C16.8694 0.275544 16.8299 0.180161 16.7595 0.109835C16.6892 0.0395089 16.5938 0 16.4944 0C16.3949 0 16.2995 0.0395089 16.2292 0.109835C16.1589 0.180161 16.1194 0.275544 16.1194 0.375V1.63875H15.4838C15.2848 1.63875 15.0941 1.71777 14.9534 1.85842C14.8128 1.99907 14.7338 2.18984 14.7338 2.38875V11.46C14.7343 11.6587 14.8136 11.8492 14.9541 11.9897C15.0946 12.1302 15.285 12.2094 15.4838 12.21H16.1194V13.4715C16.1194 13.571 16.1589 13.6663 16.2292 13.7367C16.2995 13.807 16.3949 13.8465 16.4944 13.8465C16.5938 13.8465 16.6892 13.807 16.7595 13.7367C16.8299 13.6663 16.8694 13.571 16.8694 13.4715V12.21H17.505C17.7037 12.2094 17.8942 12.1302 18.0347 11.9897C18.1752 11.8492 18.2544 11.6587 18.255 11.46V2.38875C18.255 2.18984 18.176 1.99907 18.0353 1.85842C17.8947 1.71777 17.7039 1.63875 17.505 1.63875Z" fill="#747474"/>
</svg>
