<svg width="63" height="63" viewBox="0 0 63 63" fill="none" xmlns="http://www.w3.org/2000/svg">
<path d="M54.074 35.7336L53.9965 35.807L53.0734 36.6787C51.4696 38.1932 51.0586 38.6216 50.8283 39.0778C50.5902 39.549 50.4637 40.0698 50.458 40.5993C50.4529 41.1114 50.6237 41.6958 51.3581 43.8246L51.3927 43.925V43.9252C52.4766 47.0668 53.3349 49.5547 53.8223 51.4902C54.2955 53.3704 54.5609 55.2167 53.9437 56.8154C53.0753 59.0653 51.1937 60.7513 48.8899 61.3444C47.2573 61.7648 45.5052 61.2751 43.7467 60.5697C41.9415 59.8454 39.6556 58.683 36.7734 57.2173L36.6788 57.1694L34.4376 56.0296C32.9266 55.2611 32.5139 55.0722 32.118 54.9964C31.7096 54.9186 31.2903 54.9186 30.882 54.9964C30.486 55.0722 30.0733 55.2611 28.5623 56.0296L26.3211 57.1694L26.2268 57.2173C23.3445 58.683 21.0585 59.8454 19.2531 60.5697C17.4945 61.2751 15.7425 61.7648 14.11 61.3444C11.8062 60.7513 9.92467 59.0653 9.05621 56.8154C8.43905 55.2167 8.70429 53.3704 9.17769 51.4902C9.66501 49.5547 10.5233 47.0668 11.6071 43.9255L11.6072 43.9252L11.6419 43.8246C12.3763 41.6958 12.5471 41.1114 12.5417 40.5993C12.5363 40.0698 12.4096 39.549 12.1718 39.0778C11.9414 38.6216 11.5302 38.1932 9.92657 36.6787L9.00336 35.807L8.92601 35.7339C6.80896 33.7346 5.11778 32.1372 3.93284 30.7973C2.7642 29.4756 1.78882 28.0877 1.56981 26.4797C1.25644 24.1791 2.00901 21.8605 3.60757 20.2018C4.72483 19.0424 6.32095 18.518 8.03358 18.1637C9.77011 17.8045 12.0638 17.5453 14.9351 17.2209H14.9351L15.0401 17.209L15.9145 17.1102C17.736 16.9043 18.2214 16.8279 18.6187 16.6525C19.0285 16.4715 19.3986 16.209 19.7073 15.8805C20.0065 15.562 20.2448 15.1251 21.0644 13.4581L22.0277 11.4986L22.0745 11.4034L22.0745 11.4033C23.2697 8.97215 24.2295 7.01986 25.1043 5.58357C25.9743 4.15505 26.9563 2.89112 28.3405 2.2234C30.3401 1.25886 32.6598 1.25887 34.6594 2.22341C36.0439 2.89114 37.0257 4.15505 37.8957 5.58357C38.7706 7.01986 39.7301 8.97215 40.9254 11.4034L40.9723 11.4986L41.9356 13.458C42.7552 15.1251 42.9936 15.562 43.2928 15.8805C43.6014 16.209 43.9714 16.4715 44.3813 16.6525C44.7784 16.8279 45.2639 16.9043 47.0855 17.1102L47.9598 17.209L48.0649 17.2209C50.9361 17.5453 53.2298 17.8045 54.9663 18.1637C56.679 18.518 58.2751 19.0424 59.3923 20.2018C60.991 21.8605 61.7436 24.1791 61.4302 26.4797C61.2111 28.0877 60.2357 29.4756 59.067 30.7973C57.8823 32.1372 56.191 33.7343 54.074 35.7336ZM54.074 35.7336V35.7336Z" stroke="#FFC250" stroke-width="3"/>
</svg>
