<svg width="24" height="24" viewBox="0 0 24 24" fill="none" xmlns="http://www.w3.org/2000/svg">
<path d="M15.7518 14.2498C15.7518 14.3982 15.7078 14.5432 15.6254 14.6665C15.543 14.7899 15.4259 14.886 15.2888 14.9428C15.1518 14.9995 15.001 15.0144 14.8555 14.9854C14.71 14.9565 14.5764 14.8851 14.4715 14.7802C14.3666 14.6753 14.2951 14.5416 14.2662 14.3962C14.2373 14.2507 14.2521 14.0999 14.3089 13.9628C14.3657 13.8258 14.4618 13.7087 14.5851 13.6262C14.7085 13.5438 14.8535 13.4998 15.0018 13.4998C15.2007 13.4998 15.3915 13.5789 15.5321 13.7195C15.6728 13.8602 15.7518 14.0509 15.7518 14.2498ZM9.7518 9.74984C9.7518 9.60151 9.70781 9.4565 9.6254 9.33317C9.54299 9.20983 9.42585 9.1137 9.28881 9.05693C9.15176 9.00017 9.00096 8.98532 8.85548 9.01425C8.70999 9.04319 8.57636 9.11462 8.47147 9.21951C8.36658 9.3244 8.29515 9.45804 8.26621 9.60353C8.23727 9.74901 8.25212 9.89981 8.30889 10.0369C8.36565 10.1739 8.46178 10.291 8.58512 10.3734C8.70846 10.4559 8.85346 10.4998 9.0018 10.4998C9.20071 10.4998 9.39147 10.4208 9.53213 10.2802C9.67278 10.1395 9.7518 9.94876 9.7518 9.74984ZM21.2868 13.8598C21.2815 13.869 21.2788 13.8793 21.2788 13.8898C21.2788 13.9004 21.2815 13.9107 21.2868 13.9198L21.6843 14.9098C21.8422 15.2917 21.8422 15.7205 21.6843 16.1023C21.6063 16.2922 21.4902 16.4641 21.3431 16.6073C21.1961 16.7505 21.0212 16.862 20.8293 16.9348L19.9293 17.3023V18.3223C19.9293 18.7361 19.7649 19.1329 19.4724 19.4254C19.1798 19.718 18.783 19.8823 18.3693 19.8823H17.2518L16.7868 20.9023C16.6275 21.2843 16.3236 21.5877 15.9415 21.7465C15.5593 21.9053 15.1298 21.9065 14.7468 21.7498L13.8543 21.3673L13.1043 22.0648C12.8118 22.357 12.4152 22.5212 12.0018 22.5212C11.5883 22.5212 11.1918 22.357 10.8993 22.0648L10.1493 21.3148L9.0993 21.7048C8.71748 21.8628 8.28861 21.8628 7.9068 21.7048C7.71692 21.6269 7.54506 21.5108 7.40186 21.3637C7.25866 21.2166 7.14718 21.0417 7.0743 20.8498L6.7068 19.9498H5.6868C5.48193 19.9498 5.27908 19.9095 5.08981 19.8311C4.90054 19.7527 4.72857 19.6378 4.58371 19.4929C4.43885 19.3481 4.32394 19.1761 4.24554 18.9868C4.16715 18.7976 4.1268 18.5947 4.1268 18.3898V17.2498L3.1068 16.7848C2.7235 16.627 2.41834 16.3237 2.2581 15.9414C2.09787 15.5591 2.0956 15.1288 2.2518 14.7448L2.6343 13.8523L1.9368 13.1023C1.6446 12.8098 1.48047 12.4133 1.48047 11.9998C1.48047 11.5864 1.6446 11.1899 1.9368 10.8973L2.6868 10.1473L2.2968 9.09734C2.13887 8.71553 2.13887 8.28666 2.2968 7.90484C2.37804 7.70989 2.49954 7.53428 2.65334 7.38953C2.80714 7.24477 2.98978 7.13413 3.1893 7.06484L4.0893 6.69734V5.67734C4.08926 5.46993 4.13058 5.2646 4.21085 5.07335C4.29111 4.8821 4.40871 4.70877 4.55676 4.56351C4.70482 4.41825 4.88035 4.30398 5.07309 4.22737C5.26584 4.15076 5.47192 4.11335 5.6793 4.11734H6.7518L7.2168 3.09734C7.3761 2.7154 7.67997 2.41194 8.06214 2.25318C8.4443 2.09441 8.87375 2.09321 9.2568 2.24984L10.1493 2.63234L10.8993 1.93484C11.1918 1.64264 11.5883 1.47852 12.0018 1.47852C12.4152 1.47852 12.8118 1.64264 13.1043 1.93484L13.8543 2.68484L14.9043 2.29484C15.2861 2.13692 15.715 2.13692 16.0968 2.29484C16.2867 2.37281 16.4585 2.48892 16.6017 2.63599C16.7449 2.78306 16.8564 2.95795 16.9293 3.14984L17.3118 4.07984H18.3168C18.7305 4.07984 19.1273 4.2442 19.4199 4.53676C19.7124 4.82931 19.8768 5.22611 19.8768 5.63984V6.74984L20.8968 7.21484C21.2801 7.37272 21.5853 7.676 21.7455 8.05831C21.9057 8.44063 21.908 8.87086 21.7518 9.25484L21.3693 10.1473L22.0668 10.8973C22.359 11.1899 22.5231 11.5864 22.5231 11.9998C22.5231 12.4133 22.359 12.8098 22.0668 13.1023L21.2868 13.8598ZM9.0018 11.9998C9.44681 11.9998 9.88182 11.8679 10.2518 11.6206C10.6218 11.3734 10.9102 11.022 11.0805 10.6109C11.2508 10.1997 11.2954 9.74735 11.2086 9.31089C11.1217 8.87443 10.9075 8.47352 10.5928 8.15885C10.2781 7.84418 9.87721 7.62989 9.44075 7.54308C9.00429 7.45626 8.55189 7.50082 8.14076 7.67111C7.72963 7.84141 7.37822 8.1298 7.13099 8.49981C6.88376 8.86982 6.7518 9.30484 6.7518 9.74984C6.7518 10.3466 6.98885 10.9189 7.41081 11.3408C7.83276 11.7628 8.40506 11.9998 9.0018 11.9998ZM15.6243 7.91234C15.6898 7.83107 15.7375 7.73704 15.7646 7.63625C15.7916 7.53546 15.7974 7.43013 15.7814 7.32701C15.7654 7.22388 15.7281 7.12523 15.6718 7.03735C15.6155 6.94948 15.5415 6.87431 15.4545 6.81667C15.3675 6.75903 15.2695 6.72017 15.1666 6.70259C15.0637 6.685 14.9583 6.68908 14.8571 6.71456C14.7559 6.74003 14.6612 6.78635 14.5789 6.85054C14.4966 6.91473 14.4286 6.99538 14.3793 7.08734L8.3793 16.0873C8.27075 16.2527 8.23191 16.4542 8.27124 16.6481C8.31057 16.8419 8.42489 17.0124 8.5893 17.1223C8.71008 17.2069 8.85435 17.2515 9.0018 17.2498C9.12533 17.2492 9.24679 17.2181 9.35538 17.1592C9.46398 17.1003 9.55636 17.0155 9.6243 16.9123L15.6243 7.91234ZM17.2518 14.2498C17.2518 13.8048 17.1198 13.3698 16.8726 12.9998C16.6254 12.6298 16.274 12.3414 15.8628 12.1711C15.4517 12.0008 14.9993 11.9563 14.5628 12.0431C14.1264 12.1299 13.7255 12.3442 13.4108 12.6589C13.0961 12.9735 12.8818 13.3744 12.795 13.8109C12.7082 14.2473 12.7528 14.6997 12.9231 15.1109C13.0934 15.522 13.3818 15.8734 13.7518 16.1207C14.1218 16.3679 14.5568 16.4998 15.0018 16.4998C15.5985 16.4998 16.1708 16.2628 16.5928 15.8408C17.0147 15.4189 17.2518 14.8466 17.2518 14.2498Z" fill="white"/>
</svg>
