<svg width="21" height="21" viewBox="0 0 21 21" fill="none" xmlns="http://www.w3.org/2000/svg">
<path d="M10.5 5C10.5 3.67392 11.0268 2.40215 11.9645 1.46447C12.9021 0.526784 14.1739 0 15.5 0C16.8261 0 18.0979 0.526784 19.0355 1.46447C19.9732 2.40215 20.5 3.67392 20.5 5C20.5 6.32608 19.9732 7.59785 19.0355 8.53553C18.0979 9.47322 16.8261 10 15.5 10C14.1739 10 12.9021 9.47322 11.9645 8.53553C11.0268 7.59785 10.5 6.32608 10.5 5ZM0 0.5H9V9.5H0V0.5ZM0 11.5H9V20.5H0V11.5ZM11 11.5H20V20.5H11V11.5Z" fill="#747474"/>
</svg>
