<svg width="24" height="24" viewBox="0 0 24 24" fill="none" xmlns="http://www.w3.org/2000/svg">
<path d="M1.39352 10.901C1.87352 6.34102 5.23351 2.64502 9.60151 1.66102L8.85751 1.03702C8.61751 0.821024 8.59351 0.437024 8.80951 0.197024C9.00151 -0.0189764 9.33751 -0.0669764 9.60151 0.101024L11.3535 1.49302C11.4735 1.58902 11.5455 1.73302 11.5695 1.90102C11.5935 2.06902 11.5455 2.23702 11.4495 2.35702L10.0575 4.10902C9.93751 4.25302 9.76952 4.34902 9.57751 4.32502C9.24152 4.32502 8.97752 4.06102 8.97752 3.72502C8.97752 3.58102 9.02551 3.43702 9.09752 3.34102L9.43352 2.93302C5.76152 3.96502 3.02552 7.13302 2.59352 11.021C2.56952 11.333 2.30552 11.549 1.99352 11.549H1.94552C1.60952 11.525 1.36952 11.237 1.39352 10.901ZM10.9695 21.341C7.05752 20.933 3.88952 18.149 2.88152 14.453L3.36152 14.837C3.62552 15.053 4.00952 15.005 4.20152 14.741C4.41752 14.477 4.36952 14.093 4.10552 13.901L2.35352 12.485C2.23352 12.389 2.06552 12.341 1.92152 12.365C1.75352 12.389 1.60952 12.461 1.51352 12.581L0.121516 14.333C0.025516 14.429 0.001516 14.573 0.001516 14.717C-0.022484 15.053 0.241516 15.317 0.577516 15.317C0.769516 15.317 0.937516 15.245 1.05752 15.101L1.63352 14.381C2.64152 18.749 6.31352 22.061 10.8735 22.541H10.9215C11.2575 22.565 11.5455 22.301 11.5455 21.965C11.5695 21.653 11.3055 21.365 10.9695 21.341ZM21.9615 12.437C21.6255 12.413 21.3375 12.653 21.2895 12.965C20.8815 16.853 18.1215 20.021 14.4495 21.053L14.8575 20.549C15.0735 20.285 15.0255 19.901 14.7615 19.709C14.4975 19.493 14.1135 19.541 13.9215 19.805L12.6015 21.461C12.4335 21.581 12.3375 21.773 12.3615 21.965C12.3615 22.205 12.5295 22.397 12.7215 22.493L14.3535 23.813C14.4495 23.885 14.5935 23.933 14.7375 23.933C14.9295 23.933 15.0975 23.861 15.1935 23.717C15.4095 23.453 15.3615 23.069 15.0975 22.877L14.4015 22.325C18.7215 21.293 22.0095 17.621 22.4895 13.109C22.5375 12.749 22.2975 12.461 21.9615 12.437ZM23.7615 8.95702C23.4975 8.74102 23.1135 8.78902 22.9215 9.05302L22.3215 9.79702C21.3615 5.35702 17.6655 1.94902 13.0575 1.44502C12.7215 1.39702 12.4095 1.63702 12.3855 1.97302C12.3615 2.30902 12.6015 2.59702 12.9135 2.64502C16.8735 3.07702 20.0895 5.90902 21.0495 9.67702L20.5935 9.29302C20.3295 9.07702 19.9455 9.12502 19.7535 9.38902C19.5615 9.65302 19.5855 10.037 19.8495 10.229L21.6015 11.621C21.6975 11.693 21.8415 11.741 21.9855 11.741C22.1775 11.741 22.3455 11.669 22.4655 11.525L23.8575 9.77302C24.0495 9.53302 24.0255 9.14902 23.7615 8.95702ZM11.9775 18.221C8.49751 18.221 5.66552 15.389 5.66552 11.909C5.66552 8.42902 8.49751 5.59702 11.9775 5.59702C15.4575 5.59702 18.2895 8.42902 18.2895 11.909C18.2895 15.413 15.4575 18.221 11.9775 18.221ZM13.9695 13.301C13.9695 12.197 13.0815 11.309 11.9775 11.309C11.5455 11.309 11.1855 10.949 11.1855 10.517C11.1855 10.085 11.5455 9.72502 11.9775 9.72502C12.4095 9.72502 12.7695 10.085 12.7695 10.517C12.7695 10.853 13.0335 11.117 13.3695 11.117C13.7055 11.117 13.9695 10.853 13.9695 10.517C13.9695 9.62902 13.4175 8.86102 12.5775 8.59702V8.50102C12.5775 8.16502 12.3135 7.90102 11.9775 7.90102C11.6415 7.90102 11.3775 8.16502 11.3775 8.50102V8.59702C10.5375 8.86102 9.96151 9.65302 9.96151 10.541C9.98551 11.645 10.8735 12.533 11.9775 12.509C12.3855 12.533 12.6975 12.845 12.7215 13.253C12.7455 13.685 12.4095 14.069 11.9775 14.093C11.5455 14.093 11.1855 13.733 11.1855 13.301C11.1855 12.965 10.9215 12.701 10.5855 12.701C10.2495 12.701 9.98551 12.965 9.98551 13.301C9.98551 14.165 10.5615 14.933 11.3775 15.197V15.317C11.3775 15.653 11.6415 15.917 11.9775 15.917C12.3135 15.917 12.5775 15.653 12.5775 15.317V15.197C13.4175 14.933 13.9695 14.165 13.9695 13.301Z" fill="white"/>
</svg>
