<svg width="40" height="37" viewBox="0 0 40 37" fill="none" xmlns="http://www.w3.org/2000/svg">
<path d="M38.7501 23.3334C38.4186 23.3334 38.1006 23.2017 37.8662 22.9673C37.6318 22.7328 37.5001 22.4149 37.5001 22.0834C37.4974 19.7635 36.5747 17.5395 34.9343 15.8991C33.294 14.2587 31.0699 13.336 28.7501 13.3334H16.6668V18.75C16.6668 19.85 15.3434 20.4067 14.5534 19.6534L5.38675 10.9034C5.26453 10.7868 5.16723 10.6466 5.10075 10.4914C5.03428 10.3361 5 10.169 5 10C5 9.83114 5.03428 9.664 5.10075 9.50873C5.16723 9.35345 5.26453 9.21329 5.38675 9.09671L14.5534 0.346714C15.3468 -0.409953 16.6668 0.153381 16.6668 1.25005V6.66671H27.0834C34.2051 6.66671 40.0001 12.4617 40.0001 19.5834V22.0834C40.0001 22.4149 39.8684 22.7328 39.634 22.9673C39.3995 23.2017 39.0816 23.3334 38.7501 23.3334Z" fill="url(#paint0_linear_609_3191)"/>
<path d="M23.3333 35.4173V30.0007H12.9167C5.795 30.0007 0 24.2057 0 17.084V14.584C0 14.2525 0.131696 13.9345 0.366117 13.7001C0.600537 13.4657 0.918479 13.334 1.25 13.334C1.58152 13.334 1.89946 13.4657 2.13388 13.7001C2.3683 13.9345 2.5 14.2525 2.5 14.584C2.50265 16.9038 3.42537 19.1279 5.06574 20.7682C6.70611 22.4086 8.93017 23.3313 11.25 23.334H23.3333V17.9173C23.3335 17.6726 23.4054 17.4333 23.5403 17.2291C23.6752 17.0249 23.867 16.8647 24.092 16.7686C24.3171 16.6724 24.5654 16.6443 24.8062 16.688C25.047 16.7316 25.2697 16.845 25.4467 17.014L34.6133 25.764C34.7356 25.8806 34.8329 26.0207 34.8993 26.176C34.9658 26.3313 35.0001 26.4984 35.0001 26.6673C35.0001 26.8362 34.9658 27.0034 34.8993 27.1586C34.8329 27.3139 34.7356 27.4541 34.6133 27.5707L25.4467 36.3207C24.6517 37.0773 23.3333 36.514 23.3333 35.4173Z" fill="url(#paint1_linear_609_3191)"/>
<defs>
<linearGradient id="paint0_linear_609_3191" x1="37.8544" y1="-0.844306" x2="42.3615" y2="29.7431" gradientUnits="userSpaceOnUse">
<stop stop-color="#4160FF"/>
<stop offset="1" stop-color="#213269"/>
</linearGradient>
<linearGradient id="paint1_linear_609_3191" x1="32.8544" y1="12.4897" x2="37.3615" y2="43.0771" gradientUnits="userSpaceOnUse">
<stop stop-color="#4160FF"/>
<stop offset="1" stop-color="#213269"/>
</linearGradient>
</defs>
</svg>
