<svg width="22" height="22" viewBox="0 0 22 22" fill="none" xmlns="http://www.w3.org/2000/svg">
<path d="M17.8597 7.71314L16.38 8.31089C16.1911 8.38776 15.9892 8.42724 15.7852 8.42715C15.5679 8.42631 15.3531 8.38093 15.154 8.29381C14.9549 8.20669 14.7758 8.07968 14.6277 7.92063C14.4796 7.76158 14.3657 7.57385 14.293 7.36905C14.2203 7.16425 14.1903 6.94672 14.205 6.72989L14.3167 5.13839L13.29 3.91739C13.0698 3.65078 12.944 3.31876 12.9323 2.97314H3.2025C1.44 2.97314 0 4.41314 0 6.18314V15.1081C0 16.8781 1.44 18.3106 3.2025 18.3106H5.64L5.5875 19.8031C5.58138 20.0147 5.61779 20.2254 5.69458 20.4227C5.77137 20.62 5.88698 20.7998 6.03455 20.9516C6.18213 21.1033 6.35866 21.2239 6.5537 21.3062C6.74874 21.3885 6.95831 21.4308 7.17 21.4306C7.5 21.4306 7.83 21.3181 8.1075 21.1081L11.8275 18.3106H16.1175C17.88 18.3106 19.32 16.8781 19.32 15.1081V8.30339L17.8597 7.71314ZM10.0328 13.0231H6.096C5.91698 13.0231 5.74529 12.952 5.6187 12.8254C5.49212 12.6989 5.421 12.5272 5.421 12.3481C5.421 12.1691 5.49212 11.9974 5.6187 11.8708C5.74529 11.7443 5.91698 11.6731 6.096 11.6731H10.0328C10.2118 11.6731 10.3835 11.7443 10.51 11.8708C10.6366 11.9974 10.7077 12.1691 10.7077 12.3481C10.7077 12.5272 10.6366 12.6989 10.51 12.8254C10.3835 12.952 10.2118 13.0231 10.0328 13.0231ZM13.5225 9.61364H6.0975C5.91848 9.61364 5.74679 9.54253 5.6202 9.41594C5.49362 9.28935 5.4225 9.11767 5.4225 8.93864C5.4225 8.75962 5.49362 8.58793 5.6202 8.46135C5.74679 8.33476 5.91848 8.26364 6.0975 8.26364H13.5225C13.7015 8.26364 13.8732 8.33476 13.9998 8.46135C14.1264 8.58793 14.1975 8.75962 14.1975 8.93864C14.1975 9.11767 14.1264 9.28935 13.9998 9.41594C13.8732 9.54253 13.7015 9.61364 13.5225 9.61364Z" fill="#747474"/>
<path d="M18.2497 0.216295L19.3364 1.95555L21.3262 2.4513C21.6562 2.5338 21.7859 2.9328 21.5677 3.1938L20.2492 4.7643L20.3924 6.80955C20.3978 6.88741 20.3833 6.96537 20.3503 7.03611C20.3174 7.10684 20.2669 7.16802 20.2038 7.21391C20.1406 7.25981 20.0669 7.28889 19.9894 7.29845C19.9119 7.30801 19.8333 7.29772 19.7609 7.26855L17.8597 6.49979L15.9584 7.26855C15.886 7.29772 15.8074 7.30801 15.7299 7.29845C15.6525 7.28889 15.5787 7.25981 15.5156 7.21391C15.4524 7.16802 15.402 7.10684 15.369 7.03611C15.336 6.96537 15.3215 6.88741 15.3269 6.80955L15.4702 4.7643L14.1517 3.1938C14.1015 3.13395 14.0675 3.06234 14.0526 2.9857C14.0377 2.90906 14.0426 2.8299 14.0668 2.75566C14.0909 2.68142 14.1335 2.61453 14.1906 2.56129C14.2477 2.50805 14.3174 2.4702 14.3932 2.4513L16.3829 1.95555L17.4697 0.216295C17.511 0.150113 17.5685 0.0955333 17.6367 0.0576938C17.7049 0.0198542 17.7817 0 17.8597 0C17.9377 0 18.0144 0.0198542 18.0827 0.0576938C18.1509 0.0955333 18.2084 0.150113 18.2497 0.216295Z" fill="#747474"/>
</svg>
