<svg width="37" height="36" viewBox="0 0 37 36" fill="none" xmlns="http://www.w3.org/2000/svg">
<path d="M29.7663 12.8556L27.3 13.8518C26.9852 13.9799 26.6486 14.0457 26.3087 14.0456C25.9465 14.0442 25.5885 13.9685 25.2567 13.8233C24.9248 13.6781 24.6263 13.4665 24.3795 13.2014C24.1327 12.9363 23.9428 12.6234 23.8216 12.2821C23.7005 11.9407 23.6506 11.5782 23.675 11.2168L23.8612 8.56432L22.15 6.52932C21.7829 6.08496 21.5733 5.53159 21.5537 4.95557H5.3375C2.4 4.95557 0 7.35557 0 10.3056V25.1806C0 28.1306 2.4 30.5181 5.3375 30.5181H9.4L9.3125 33.0056C9.3023 33.3582 9.36298 33.7094 9.49097 34.0381C9.61896 34.3669 9.81164 34.6667 10.0576 34.9196C10.3035 35.1726 10.5978 35.3736 10.9228 35.5107C11.2479 35.6479 11.5972 35.7184 11.95 35.7181C12.5 35.7181 13.05 35.5306 13.5125 35.1806L19.7125 30.5181H26.8625C29.8 30.5181 32.2 28.1306 32.2 25.1806V13.8393L29.7663 12.8556ZM16.7213 21.7056H10.16C9.86163 21.7056 9.57548 21.587 9.36451 21.3761C9.15353 21.1651 9.035 20.8789 9.035 20.5806C9.035 20.2822 9.15353 19.9961 9.36451 19.7851C9.57548 19.5741 9.86163 19.4556 10.16 19.4556H16.7213C17.0196 19.4556 17.3058 19.5741 17.5167 19.7851C17.7277 19.9961 17.8462 20.2822 17.8462 20.5806C17.8462 20.8789 17.7277 21.1651 17.5167 21.3761C17.3058 21.587 17.0196 21.7056 16.7213 21.7056ZM22.5375 16.0231H10.1625C9.86413 16.0231 9.57798 15.9045 9.36701 15.6936C9.15603 15.4826 9.0375 15.1964 9.0375 14.8981C9.0375 14.5997 9.15603 14.3135 9.36701 14.1026C9.57798 13.8916 9.86413 13.7731 10.1625 13.7731H22.5375C22.8359 13.7731 23.122 13.8916 23.333 14.1026C23.544 14.3135 23.6625 14.5997 23.6625 14.8981C23.6625 15.1964 23.544 15.4826 23.333 15.6936C23.122 15.9045 22.8359 16.0231 22.5375 16.0231Z" fill="url(#paint0_linear_481_3252)"/>
<path d="M30.4164 0.360492L32.2276 3.25924L35.5439 4.08549C36.0939 4.22299 36.3101 4.88799 35.9464 5.32299L33.7489 7.94049L33.9876 11.3492C33.9966 11.479 33.9725 11.609 33.9175 11.7268C33.8625 11.8447 33.7784 11.9467 33.6732 12.0232C33.568 12.0997 33.445 12.1482 33.3159 12.1641C33.1868 12.18 33.0558 12.1629 32.9351 12.1142L29.7664 10.833L26.5976 12.1142C26.477 12.1629 26.3459 12.18 26.2168 12.1641C26.0877 12.1482 25.9648 12.0997 25.8595 12.0232C25.7543 11.9467 25.6702 11.8447 25.6152 11.7268C25.5602 11.609 25.5361 11.479 25.5451 11.3492L25.7839 7.94049L23.5864 5.32299C23.5028 5.22325 23.446 5.1039 23.4212 4.97616C23.3965 4.84843 23.4046 4.71649 23.4449 4.59276C23.4851 4.46903 23.5561 4.35756 23.6513 4.26882C23.7465 4.18009 23.8626 4.117 23.9889 4.08549L27.3051 3.25924L29.1164 0.360492C29.1852 0.250189 29.281 0.159222 29.3947 0.0961563C29.5084 0.0330904 29.6363 0 29.7664 0C29.8964 0 30.0243 0.0330904 30.138 0.0961563C30.2517 0.159222 30.3475 0.250189 30.4164 0.360492Z" fill="url(#paint1_linear_481_3252)"/>
<defs>
<linearGradient id="paint0_linear_481_3252" x1="30.226" y1="3.84244" x2="38.5547" y2="43.2855" gradientUnits="userSpaceOnUse">
<stop stop-color="#4160FF"/>
<stop offset="1" stop-color="#213269"/>
</linearGradient>
<linearGradient id="paint1_linear_481_3252" x1="35.3462" y1="-0.44036" x2="38.6458" y2="15.1615" gradientUnits="userSpaceOnUse">
<stop stop-color="#4160FF"/>
<stop offset="1" stop-color="#213269"/>
</linearGradient>
</defs>
</svg>
