<svg width="24" height="24" viewBox="0 0 24 24" fill="none" xmlns="http://www.w3.org/2000/svg">
<path d="M18.6872 13.3554C17.7791 13.3549 16.8861 13.5874 16.0935 14.0306C15.3009 14.4737 14.6352 15.1128 14.16 15.8866L10.2792 13.8832C10.7452 12.6604 10.7452 11.309 10.2792 10.0863L14.16 8.08286C14.8565 9.21438 15.9525 10.0432 17.2309 10.4053C18.5093 10.7673 19.8771 10.6363 21.0635 10.0381C22.2499 9.43983 23.1685 8.41801 23.6376 7.17483C24.1066 5.93165 24.0918 4.55769 23.5962 3.32488C23.1005 2.09207 22.1602 1.09024 20.9612 0.517654C19.7621 -0.0549292 18.3919 -0.156538 17.1215 0.232936C15.8512 0.622411 14.7733 1.47459 14.1013 2.62081C13.4292 3.76704 13.212 5.12379 13.4925 6.42255L9.36985 8.55114C8.66642 7.72039 7.72484 7.1257 6.67244 6.84749C5.62003 6.56927 4.50758 6.62095 3.4855 6.99555C2.46343 7.37014 1.58104 8.04957 0.957665 8.94196C0.33429 9.83435 0 10.8966 0 11.9852C0 13.0738 0.33429 14.1361 0.957665 15.0285C1.58104 15.9208 2.46343 16.6003 3.4855 16.9749C4.50758 17.3495 5.62003 17.4011 6.67244 17.1229C7.72484 16.8447 8.66642 16.25 9.36985 15.4193L13.4925 17.5479C13.2601 18.6223 13.3666 19.7424 13.7973 20.7538C14.2281 21.7651 14.9618 22.618 15.8976 23.195C16.8333 23.7719 17.9249 24.0445 19.022 23.9751C20.1191 23.9057 21.1677 23.4978 22.0233 22.8076C22.8788 22.1174 23.4993 21.1788 23.7992 20.1212C24.0991 19.0636 24.0637 17.9391 23.6977 16.9025C23.3318 15.8659 22.6534 14.9683 21.756 14.3333C20.8587 13.6984 19.7865 13.3574 18.6872 13.3572V13.3554ZM18.6544 1.79646C18.9636 1.79636 19.266 1.888 19.5232 2.05979C19.7803 2.23157 19.9808 2.47577 20.0991 2.7615C20.2175 3.04722 20.2484 3.36163 20.188 3.66495C20.1277 3.96826 19.9787 4.24686 19.7599 4.46548C19.5412 4.6841 19.2625 4.83292 18.9591 4.89312C18.6558 4.95332 18.3414 4.92218 18.0557 4.80366C17.7701 4.68514 17.526 4.48455 17.3544 4.22727C17.1828 3.97 17.0913 3.6676 17.0916 3.35833C17.0918 2.94401 17.2566 2.54674 17.5496 2.25386C17.8427 1.96098 18.2401 1.79646 18.6544 1.79646ZM16.1058 6.36911V6.36208C16.1292 6.1429 16.2273 5.93847 16.3838 5.78317C16.5406 5.62577 16.7465 5.52657 16.9674 5.50192C17.2903 5.46771 18.2742 5.44896 18.7739 5.44942C19.2736 5.44989 20.0766 5.46771 20.4 5.50192C20.6207 5.52667 20.8264 5.62587 20.9831 5.78317C21.1395 5.9387 21.2376 6.14326 21.2611 6.36255V6.36911C21.2773 6.50649 21.2854 6.64469 21.2855 6.78302C21.2863 6.9502 21.2783 7.1173 21.2616 7.28364V7.29021C21.2351 7.52038 21.1386 7.73686 20.985 7.91036C20.8338 8.08702 20.6299 8.21043 20.4033 8.26239C20.0808 8.33552 19.2783 8.40724 18.7748 8.40302C18.2728 8.41567 17.287 8.33739 16.9645 8.26239C16.738 8.21024 16.5341 8.08687 16.3828 7.91036C16.2293 7.73681 16.1328 7.52035 16.1063 7.29021V7.28317C16.0893 7.11719 16.0841 6.95021 16.0908 6.78349C16.0839 6.64519 16.0889 6.50655 16.1058 6.36911ZM5.28235 8.48271C5.59144 8.48271 5.8936 8.57436 6.1506 8.74609C6.4076 8.91781 6.60791 9.16189 6.7262 9.44746C6.84448 9.73302 6.87543 10.0473 6.81513 10.3504C6.75483 10.6536 6.60599 10.932 6.38742 11.1506C6.16886 11.3692 5.89039 11.518 5.58724 11.5783C5.28408 11.6386 4.96985 11.6077 4.68429 11.4894C4.39872 11.3711 4.15464 11.1708 3.98292 10.9138C3.81119 10.6568 3.71954 10.3546 3.71954 10.0455C3.71954 9.63103 3.88419 9.23353 4.17727 8.94044C4.47036 8.64736 4.86787 8.48271 5.28235 8.48271ZM7.89047 13.9694V13.976C7.8641 14.2063 7.76755 14.423 7.61391 14.5966C7.46262 14.7731 7.25874 14.8965 7.03219 14.9486C6.70969 15.0213 5.90719 15.0935 5.40376 15.0893C4.90172 15.1019 3.91594 15.0241 3.59344 14.9486C3.36674 14.8969 3.16276 14.7734 3.01172 14.5966C2.85817 14.4231 2.76163 14.2066 2.73516 13.9765V13.9699C2.71815 13.8034 2.71298 13.636 2.71969 13.4688C2.713 13.3306 2.71817 13.1922 2.73516 13.0549V13.0483C2.75862 12.829 2.85676 12.6245 3.01313 12.469C3.16999 12.3115 3.37585 12.2123 3.59672 12.1877C3.91969 12.1535 4.9036 12.1347 5.40329 12.1347C5.90297 12.1347 6.70594 12.1535 7.02938 12.1877C7.25014 12.2122 7.45588 12.3115 7.61251 12.469C7.76893 12.6242 7.8671 12.8287 7.89047 13.0479V13.0549C7.90667 13.1921 7.91481 13.3302 7.91485 13.4683C7.91554 13.6357 7.9074 13.8029 7.89047 13.9694ZM18.6544 15.1708C18.9637 15.1707 19.2661 15.2624 19.5233 15.4342C19.7805 15.6061 19.9809 15.8503 20.0992 16.1361C20.2175 16.4219 20.2484 16.7363 20.188 17.0397C20.1275 17.343 19.9784 17.6216 19.7596 17.8402C19.5407 18.0588 19.262 18.2075 18.9586 18.2676C18.6551 18.3277 18.3407 18.2964 18.0551 18.1778C17.7695 18.0591 17.5254 17.8584 17.3539 17.601C17.1824 17.3436 17.0911 17.0411 17.0916 16.7318C17.0921 16.3176 17.2569 15.9206 17.55 15.6279C17.843 15.3352 18.2402 15.1708 18.6544 15.1708ZM21.2625 20.6552V20.6618C21.236 20.8919 21.1395 21.1084 20.9859 21.2819C20.8348 21.4586 20.6308 21.582 20.4042 21.634C20.0817 21.7071 19.2792 21.7788 18.7758 21.7746C18.2738 21.7872 17.288 21.709 16.9655 21.634C16.7389 21.5818 16.5351 21.4584 16.3838 21.2819C16.2303 21.1084 16.1337 20.8919 16.1072 20.6618V20.6552C16.0902 20.4892 16.0851 20.3222 16.0917 20.1555C16.085 20.0174 16.0902 19.8789 16.1072 19.7416V19.7346C16.1302 19.5154 16.228 19.3108 16.3842 19.1552C16.5416 18.9974 16.7482 18.8982 16.9697 18.874C17.2927 18.8397 18.2766 18.821 18.7763 18.8215C19.2759 18.8219 20.0789 18.8397 20.4023 18.874C20.623 18.8987 20.8287 18.9979 20.9855 19.1552C21.1418 19.3107 21.24 19.5153 21.2634 19.7346V19.7411C21.2796 19.8785 21.2878 20.0167 21.2878 20.1551C21.2882 20.3221 21.2797 20.489 21.2625 20.6552Z" fill="white"/>
</svg>
