<svg width="18" height="20" viewBox="0 0 18 20" fill="none" xmlns="http://www.w3.org/2000/svg">
<path d="M17.6142 2.79909C17.5966 2.6729 17.5425 2.55459 17.4586 2.45871C17.3748 2.36283 17.2647 2.29355 17.1419 2.25939L9.10358 0.0239225C8.98898 -0.00797415 8.86785 -0.00797415 8.75325 0.0239225L0.714907 2.25939C0.592155 2.29353 0.482058 2.3628 0.398156 2.45869C0.314255 2.55457 0.260208 2.67289 0.242663 2.79909C0.19604 3.13434 -0.867577 11.0556 1.86053 14.9961C4.58541 18.932 8.60519 19.9406 8.77495 19.9817C8.8758 20.0061 8.98103 20.0061 9.08188 19.9817C9.25173 19.9406 13.2715 18.932 15.9963 14.9961C18.7244 11.0556 17.6608 3.13442 17.6142 2.79909ZM14.1121 7.42357L8.62916 12.9065C8.50157 13.0341 8.33425 13.098 8.16702 13.098C7.99979 13.098 7.83247 13.0342 7.70489 12.9065L4.31482 9.51647C4.25411 9.4558 4.20594 9.38375 4.17308 9.30446C4.14022 9.22516 4.1233 9.14017 4.1233 9.05434C4.1233 8.9685 4.14022 8.88351 4.17308 8.80421C4.20594 8.72492 4.25411 8.65287 4.31482 8.5922L4.98794 7.91909C5.11051 7.79653 5.27674 7.72768 5.45007 7.72768C5.6234 7.72768 5.78964 7.79653 5.91221 7.91909L8.16702 10.1739L12.5147 5.8261C12.5754 5.76539 12.6474 5.71722 12.7267 5.68436C12.806 5.6515 12.891 5.63459 12.9769 5.63459C13.0627 5.63459 13.1477 5.6515 13.227 5.68436C13.3063 5.71722 13.3783 5.76539 13.439 5.8261L14.1121 6.49922C14.1728 6.55991 14.221 6.63196 14.2538 6.71126C14.2867 6.79057 14.3036 6.87556 14.3036 6.9614C14.3036 7.04723 14.2867 7.13223 14.2538 7.21153C14.221 7.29083 14.1728 7.36288 14.1121 7.42357Z" fill="white"/>
</svg>
