<svg width="44" height="52" viewBox="0 0 44 52" fill="none" xmlns="http://www.w3.org/2000/svg">
<path d="M43.7089 13.3848C43.6467 12.0167 43.6467 10.7109 43.6467 9.40508C43.6467 8.34798 42.8384 7.53961 41.7813 7.53961C34.0085 7.53961 28.1011 5.30105 23.1887 0.513004C22.4425 -0.171001 21.3233 -0.171001 20.5771 0.513004C15.6647 5.30105 9.75734 7.53961 1.98455 7.53961C0.927447 7.53961 0.119077 8.34798 0.119077 9.40508C0.119077 10.7109 0.119076 12.0167 0.0568941 13.3848C-0.191835 26.443 -0.56493 44.3516 21.2611 51.8756L21.8829 52L22.5047 51.8756C44.2686 44.3516 43.9576 26.5052 43.7089 13.3848ZM20.3905 31.4798C20.0174 31.7907 19.5822 31.9773 19.0847 31.9773H19.0225C18.5251 31.9773 18.0276 31.7285 17.7167 31.3555L11.9337 24.9507L14.7319 22.4634L19.2712 27.5002L29.3448 17.9241L31.8943 20.6601L20.3905 31.4798Z" fill="#4160FF"/>
</svg>
