<svg width="24" height="24" viewBox="0 0 24 24" fill="none" xmlns="http://www.w3.org/2000/svg">
<g clip-path="url(#clip0_875_16742)">
<path d="M10.1925 20.265C10.1475 20.2875 10.1025 20.31 10.05 20.3325C9.9525 20.3775 9.855 20.3925 9.75 20.3925C9.645 20.3925 9.5475 20.37 9.45 20.3325C7.64413 19.5433 6.10761 18.2446 5.02859 16.5955C3.94958 14.9463 3.37493 13.0183 3.375 11.0475V6.9375C3.375 6.645 3.5475 6.375 3.8175 6.255L9.4425 3.6975C9.6375 3.6075 9.8625 3.6075 10.065 3.6975L15.69 6.255C15.96 6.375 16.1325 6.645 16.1325 6.9375V8.2875C16.38 8.265 16.6275 8.25 16.8825 8.25C17.5275 8.25 18.1575 8.34 18.7575 8.4825V5.25C18.7575 4.9575 18.585 4.6875 18.315 4.5675L10.0575 0.8175C9.8625 0.7275 9.6375 0.7275 9.435 0.8175L1.1925 4.5675C0.9225 4.6875 0.75 4.9575 0.75 5.25V11.0475C0.75 16.17 3.795 20.7825 8.5125 22.785L9.4575 23.19C9.555 23.2275 9.6525 23.25 9.75 23.25C9.8475 23.25 9.9525 23.2275 10.0425 23.19L10.9875 22.785C11.3325 22.635 11.67 22.47 12 22.2975C11.2875 21.7275 10.6725 21.045 10.1925 20.265Z" fill="#4160FF"/>
<path d="M14.625 8.58039V7.42539L9.75 5.21289L4.875 7.42539V11.0479C4.875 14.2429 6.6375 17.1529 9.42 18.6454C9.15 17.8504 9 17.0029 9 16.1254C9 12.5629 11.3775 9.55539 14.625 8.58039Z" fill="#4160FF"/>
<path d="M16.875 9.75C13.3575 9.75 10.5 12.6075 10.5 16.125C10.5 19.6425 13.3575 22.5 16.875 22.5C20.3925 22.5 23.25 19.6425 23.25 16.125C23.25 12.6075 20.3925 9.75 16.875 9.75ZM19.8975 15.0975L16.815 18.21C16.7455 18.2809 16.6627 18.3372 16.5713 18.3759C16.4799 18.4145 16.3817 18.4346 16.2825 18.435C16.0875 18.435 15.8925 18.3525 15.75 18.2175L13.8525 16.32C13.56 16.0275 13.56 15.555 13.8525 15.255C14.145 14.9625 14.6175 14.9625 14.9175 15.255L16.2825 16.62L18.8325 14.0475C18.9014 13.9772 18.9837 13.9213 19.0745 13.8831C19.1653 13.845 19.2628 13.8253 19.3612 13.8253C19.4597 13.8253 19.5572 13.845 19.648 13.8831C19.7388 13.9213 19.8211 13.9772 19.89 14.0475C20.1825 14.34 20.19 14.8125 19.89 15.105L19.8975 15.0975Z" fill="#4160FF"/>
</g>
<defs>
<clipPath id="clip0_875_16742">
<rect width="24" height="24" fill="white"/>
</clipPath>
</defs>
</svg>
