<svg width="32" height="32" viewBox="0 0 32 32" fill="none" xmlns="http://www.w3.org/2000/svg">
<g clip-path="url(#clip0_944_10865)">
<path d="M29.8975 4.47854C29.8694 4.27663 29.7829 4.08734 29.6487 3.93393C29.5144 3.78052 29.3383 3.66968 29.1419 3.61502L16.2806 0.0382759C16.0972 -0.0127586 15.9034 -0.0127586 15.72 0.0382759L2.8587 3.61502C2.66229 3.66965 2.48614 3.78048 2.35189 3.9339C2.21765 4.08731 2.13118 4.27662 2.1031 4.47854C2.02851 5.01494 0.326721 17.6889 4.69169 23.9938C9.0515 30.2912 15.4831 31.905 15.7548 31.9706C15.9161 32.0097 16.0845 32.0097 16.2459 31.9706C16.5176 31.905 22.9493 30.2912 27.3089 23.9938C31.6739 17.689 29.9721 5.01508 29.8975 4.47854ZM24.2942 11.8777L15.5215 20.6505C15.3174 20.8546 15.0497 20.9568 14.7821 20.9568C14.5145 20.9568 14.2468 20.8547 14.0427 20.6505L8.61856 15.2264C8.52141 15.1293 8.44435 15.014 8.39177 14.8871C8.33919 14.7603 8.31213 14.6243 8.31213 14.4869C8.31213 14.3496 8.33919 14.2136 8.39177 14.0867C8.44435 13.9599 8.52141 13.8446 8.61856 13.7475L9.69554 12.6705C9.89165 12.4744 10.1576 12.3643 10.435 12.3643C10.7123 12.3643 10.9783 12.4744 11.1744 12.6705L14.7821 16.2782L21.7384 9.32176C21.8355 9.22462 21.9508 9.14755 22.0776 9.09497C22.2045 9.0424 22.3405 9.01533 22.4778 9.01533C22.6152 9.01533 22.7512 9.0424 22.878 9.09497C23.0049 9.14755 23.1202 9.22462 23.2172 9.32176L24.2942 10.3987C24.3913 10.4959 24.4684 10.6111 24.5209 10.738C24.5735 10.8649 24.6006 11.0009 24.6006 11.1382C24.6006 11.2756 24.5735 11.4116 24.5209 11.5384C24.4684 11.6653 24.3913 11.7806 24.2942 11.8777Z" fill="url(#paint0_linear_944_10865)"/>
</g>
<defs>
<linearGradient id="paint0_linear_944_10865" x1="28.5343" y1="-1.1579" x2="38.5314" y2="39.2263" gradientUnits="userSpaceOnUse">
<stop stop-color="#4160FF"/>
<stop offset="1" stop-color="#213269"/>
</linearGradient>
<clipPath id="clip0_944_10865">
<rect width="32" height="32" fill="white"/>
</clipPath>
</defs>
</svg>
