<svg width="24" height="24" viewBox="0 0 24 24" fill="none" xmlns="http://www.w3.org/2000/svg">
<path d="M23.28 8.97942C23.2078 8.99678 23.1454 9.04202 23.1064 9.10525C23.0674 9.16849 23.055 9.24458 23.0719 9.31692C23.2769 10.1871 23.3807 11.078 23.3813 11.9719C23.3776 14.9968 22.1744 17.8967 20.0355 20.0356C17.8966 22.1745 14.9967 23.3777 11.9719 23.3813C9.4875 23.39 7.06979 22.5779 5.09439 21.0713C5.35962 20.6758 5.46559 20.1947 5.39107 19.7244C5.31655 19.2541 5.06704 18.8293 4.69254 18.5352C4.31804 18.2411 3.84623 18.0994 3.37165 18.1384C2.89707 18.1775 2.4548 18.3945 2.13346 18.7459C1.81212 19.0973 1.63546 19.5572 1.63888 20.0334C1.6423 20.5096 1.82556 20.9668 2.15191 21.3136C2.47827 21.6604 2.92362 21.871 3.39871 21.9032C3.8738 21.9355 4.34353 21.787 4.71376 21.4875C6.79368 23.0888 9.34703 23.9529 11.9719 23.9438C13.7802 23.9418 15.5646 23.5307 17.1914 22.7412C18.8183 21.9518 20.2454 20.8044 21.3659 19.385C22.4863 17.9657 23.2711 16.3112 23.6613 14.5455C24.0516 12.7799 24.0373 10.9488 23.6194 9.18942C23.611 9.15328 23.5956 9.11916 23.5739 9.08902C23.5523 9.05888 23.5249 9.03331 23.4934 9.01379C23.4619 8.99428 23.4268 8.98119 23.3901 8.97529C23.3535 8.96939 23.3161 8.97079 23.28 8.97942ZM0.562511 11.9719C0.562634 9.94245 1.10405 7.94974 2.13093 6.19923C3.15782 4.44873 4.63301 3.0038 6.40442 2.0134C8.17582 1.023 10.1793 0.522993 12.2084 0.564919C14.2374 0.606846 16.2185 1.18919 17.9475 2.25192C17.7691 2.63372 17.7405 3.06862 17.8675 3.47048C17.9945 3.87234 18.2678 4.21185 18.6332 4.42176C18.9987 4.63168 19.4296 4.6967 19.8407 4.60393C20.2518 4.51117 20.6131 4.26738 20.853 3.92087C21.0929 3.57436 21.1939 3.15039 21.136 2.73294C21.0781 2.31549 20.8656 1.93499 20.5405 1.66682C20.2154 1.39866 19.8014 1.26237 19.3805 1.28496C18.9597 1.30755 18.5627 1.48736 18.2681 1.78879C16.4546 0.667673 14.3745 0.0511891 12.2429 0.00305243C10.1114 -0.0450842 8.0056 0.476873 6.14328 1.51498C4.28095 2.55309 2.72962 4.06969 1.64963 5.90804C0.569627 7.74639 0.000137147 9.8398 1.12894e-05 11.9719C-0.000996995 12.7027 0.0655359 13.4321 0.198761 14.1507C0.210197 14.2154 0.244112 14.274 0.294532 14.3162C0.344953 14.3584 0.408644 14.3815 0.474386 14.3813C0.491416 14.3813 0.508393 14.3794 0.525011 14.3757C0.598327 14.3624 0.663394 14.3206 0.705929 14.2595C0.748465 14.1983 0.764993 14.1228 0.751886 14.0494C0.625496 13.3641 0.562106 12.6687 0.562511 11.9719Z" fill="#4160FF"/>
<path d="M10.2852 10.1143V10.283H13.6602V10.1143C13.6339 7.8343 10.3114 7.8343 10.2852 10.1143Z" fill="#4160FF"/>
<path d="M19.8361 6.12756C16.6711 6.15943 13.6261 4.20381 12.4617 3.36006C12.3187 3.25677 12.1469 3.20117 11.9705 3.20117C11.7941 3.20117 11.6222 3.25677 11.4792 3.36006C10.3148 4.20381 7.26234 6.15193 4.10484 6.12756C3.99271 6.12645 3.88146 6.14752 3.7775 6.18958C3.67355 6.23164 3.57893 6.29384 3.49912 6.37262C3.4193 6.45139 3.35585 6.54517 3.31243 6.64856C3.269 6.75196 3.24646 6.86292 3.24609 6.97506C3.24797 11.3044 4.11422 17.4976 11.5898 21.2813C11.7077 21.3414 11.8382 21.3727 11.9705 21.3727C12.1028 21.3727 12.2332 21.3414 12.3511 21.2813C19.8267 17.4976 20.693 11.3044 20.6948 6.97506C20.6932 6.74886 20.6018 6.53257 20.4408 6.37367C20.2798 6.21478 20.0623 6.12626 19.8361 6.12756ZM15.0642 14.6888C15.0642 15.0618 14.9161 15.4195 14.6523 15.6832C14.3886 15.9469 14.0309 16.0951 13.658 16.0951H10.283C9.91001 16.0951 9.55232 15.9469 9.2886 15.6832C9.02488 15.4195 8.87672 15.0618 8.87672 14.6888V11.6888C8.87686 11.4153 8.95675 11.1478 9.10661 10.919C9.25648 10.6902 9.4698 10.5101 9.72047 10.4007V10.1101C9.75422 7.10068 14.1867 7.10068 14.2205 10.1101V10.4007C14.4711 10.5101 14.6845 10.6902 14.8343 10.919C14.9842 11.1478 15.0641 11.4153 15.0642 11.6888V14.6888Z" fill="#4160FF"/>
<path d="M12.4305 12.8662C12.4263 12.841 12.4275 12.8153 12.4339 12.7906C12.4404 12.7659 12.452 12.7428 12.468 12.7229C12.5308 12.6321 12.5675 12.5258 12.5743 12.4156C12.581 12.3054 12.5575 12.1954 12.5062 12.0976C12.4549 11.9998 12.3779 11.9179 12.2834 11.8608C12.1889 11.8036 12.0806 11.7734 11.9701 11.7734C11.8597 11.7734 11.7514 11.8036 11.6569 11.8608C11.5624 11.9179 11.4854 11.9998 11.4341 12.0976C11.3828 12.1954 11.3593 12.3054 11.366 12.4156C11.3728 12.5258 11.4095 12.6321 11.4723 12.7229C11.4882 12.7426 11.4998 12.7654 11.5062 12.7899C11.5127 12.8144 11.5139 12.8399 11.5098 12.8649C11.4658 13.0844 11.3411 13.7122 11.2531 14.1479C11.2425 14.2023 11.2439 14.2583 11.2575 14.312C11.271 14.3658 11.2963 14.4158 11.3315 14.4586C11.3667 14.5013 11.4109 14.5358 11.461 14.5594C11.5111 14.5831 11.5658 14.5953 11.6212 14.5953H12.3187C12.3742 14.5953 12.429 14.583 12.4792 14.5593C12.5293 14.5356 12.5736 14.501 12.6088 14.4581C12.644 14.4152 12.6692 14.3651 12.6827 14.3112C12.6961 14.2574 12.6975 14.2012 12.6866 14.1468L12.4305 12.8662Z" fill="#4160FF"/>
</svg>
