<svg width="24" height="24" viewBox="0 0 24 24" fill="none" xmlns="http://www.w3.org/2000/svg">
<g clip-path="url(#clip0_944_10332)">
<path fill-rule="evenodd" clip-rule="evenodd" d="M2.66741 15.5312C1.82032 14.6868 1.14801 13.6838 0.68897 12.5793C0.229926 11.4749 -0.00684889 10.2908 -0.00780956 9.09472C-0.00877024 7.89868 0.226103 6.71419 0.683371 5.60902C1.14064 4.50384 1.81133 3.49967 2.65707 2.65395C3.50281 1.80824 4.507 1.13758 5.61219 0.68034C6.71738 0.223104 7.90188 -0.0117346 9.09792 -0.010739C10.294 -0.0097435 11.4781 0.227066 12.5825 0.686142C13.6869 1.14522 14.69 1.81755 15.5343 2.66467C16.3814 3.50903 17.0537 4.51212 17.5128 5.61656C17.9718 6.721 18.2086 7.90511 18.2095 9.10115C18.2105 10.2972 17.9756 11.4817 17.5184 12.5869C17.0611 13.692 16.3904 14.6962 15.5447 15.5419C14.6989 16.3876 13.6947 17.0583 12.5895 17.5155C11.4844 17.9728 10.2999 18.2076 9.10382 18.2066C7.90778 18.2056 6.72367 17.9688 5.61924 17.5097C4.51482 17.0507 3.51174 16.3783 2.66741 15.5312ZM23.4876 23.4845C23.8161 23.1532 24.0004 22.7055 24.0004 22.239C24.0004 21.7724 23.8161 21.3248 23.4876 20.9935L17.5524 15.0583C17.2108 15.5397 16.8293 15.9914 16.4118 16.4087C15.9948 16.8265 15.5429 17.2081 15.061 17.5493L20.9962 23.4845C21.3269 23.8144 21.7749 23.9996 22.2419 23.9996C22.709 23.9996 23.157 23.8144 23.4876 23.4845ZM14.0798 4.47667C11.7886 4.64875 10.3417 4.05719 9.65784 2.66762C9.60662 2.56361 9.52729 2.47601 9.42885 2.41476C9.33041 2.3535 9.21678 2.32104 9.10084 2.32104C8.9849 2.32104 8.87127 2.3535 8.77283 2.41476C8.67439 2.47601 8.59507 2.56361 8.54385 2.66762C7.85999 4.05719 6.41348 4.64875 4.1219 4.47658C3.96742 4.46511 3.81422 4.51176 3.69235 4.60738C3.57048 4.703 3.48873 4.84069 3.46312 4.99347C3.05891 7.41906 3.43687 9.77594 4.55708 11.8095C5.56021 13.6314 7.08651 15.0576 8.85444 15.8238C8.93225 15.8577 9.01621 15.8752 9.10108 15.8752C9.18594 15.8752 9.2699 15.8577 9.34771 15.8238C11.1156 15.0576 12.6419 13.6314 13.6451 11.8095C14.7654 9.77594 15.1433 7.41906 14.7391 4.99347C14.7137 4.84051 14.632 4.70261 14.51 4.60693C14.3879 4.51125 14.2345 4.46475 14.0799 4.47658L14.0798 4.47667ZM9.10068 14.5717C11.7032 13.3151 14.0919 10.1088 13.5913 5.74314C13.5104 5.74533 13.4302 5.74642 13.3507 5.74642C11.4354 5.74642 10.0126 5.18889 9.10073 4.08381C8.15118 5.23511 6.6463 5.79114 4.61052 5.74319C4.1098 10.1088 6.49846 13.3151 9.10068 14.5717ZM11.7431 7.92264C11.7938 7.85856 11.8313 7.7851 11.8535 7.70649C11.8757 7.62787 11.8822 7.54564 11.8726 7.46452C11.8629 7.3834 11.8374 7.30498 11.7973 7.23376C11.7573 7.16254 11.7036 7.09992 11.6393 7.04951C11.5751 6.99909 11.5015 6.96186 11.4228 6.93995C11.3441 6.91805 11.2618 6.9119 11.1807 6.92186C11.0996 6.93182 11.0213 6.95769 10.9502 6.99799C10.8792 7.03829 10.8168 7.09223 10.7666 7.1567L8.73008 9.75302L7.36007 8.53005C7.29937 8.47534 7.22846 8.43317 7.15141 8.40595C7.07437 8.37873 6.9927 8.367 6.91111 8.37142C6.82951 8.37585 6.7496 8.39635 6.67595 8.43175C6.6023 8.46715 6.53637 8.51675 6.48195 8.5777C6.42752 8.63865 6.38567 8.70975 6.3588 8.78691C6.33193 8.86408 6.32056 8.9458 6.32536 9.02737C6.33015 9.10894 6.35102 9.18876 6.38675 9.26225C6.42248 9.33574 6.47237 9.40144 6.53357 9.45559L8.3969 11.1193C8.51077 11.2207 8.65789 11.2767 8.81033 11.2767C8.8286 11.2769 8.84685 11.2762 8.86504 11.2745C8.94954 11.267 9.0316 11.2423 9.10615 11.2018C9.1807 11.1613 9.24615 11.106 9.29844 11.0392L11.7431 7.92264Z" fill="#4160FF"/>
</g>
<defs>
<clipPath id="clip0_944_10332">
<rect width="24" height="24" fill="white"/>
</clipPath>
</defs>
</svg>
