<svg width="20" height="20" viewBox="0 0 20 20" fill="none" xmlns="http://www.w3.org/2000/svg">
<path d="M16.1734 5.37684L12.8715 4.89704L11.3948 1.90505C10.8247 0.749663 9.17548 0.749233 8.60509 1.90501L7.12841 4.89704L3.8265 5.37684C2.55151 5.56208 2.04155 7.13039 2.96443 8.03008L5.35373 10.3591L4.7897 13.6476C4.57189 14.9173 5.90572 15.8871 7.04669 15.2874L9.99997 13.7347L12.9533 15.2874C14.0956 15.8878 15.4276 14.9145 15.2102 13.6476L14.6462 10.3591L17.0355 8.03008C17.958 7.13071 17.4489 5.56219 16.1734 5.37684ZM5.26291 1.37216L4.4656 0.27482C4.24916 -0.0229917 3.83225 -0.0890462 3.53443 0.127399C3.23658 0.343805 3.17057 0.760718 3.38697 1.05857L4.18428 2.15591C4.40084 2.45388 4.81779 2.5197 5.11545 2.30333C5.4133 2.08697 5.47931 1.67001 5.26291 1.37216ZM2.61705 11.2064C2.50326 10.8562 2.12725 10.6644 1.77701 10.7784L0.460806 11.206C0.110651 11.3198 -0.0809504 11.6959 0.0327993 12.0461C0.146784 12.3969 0.52358 12.5877 0.872837 12.4741L2.18908 12.0464C2.53924 11.9327 2.73084 11.5566 2.61705 11.2064ZM16.4655 0.127399C16.1677 -0.0890462 15.7508 -0.0230308 15.5344 0.27482L14.7371 1.37216C14.5206 1.67001 14.5867 2.08697 14.8845 2.30333C15.1825 2.51982 15.5993 2.45364 15.8157 2.15591L16.613 1.05857C16.8294 0.760718 16.7634 0.343805 16.4655 0.127399ZM19.5392 11.206L18.2229 10.7784C17.8728 10.6644 17.4967 10.8562 17.3829 11.2064C17.2691 11.5565 17.4607 11.9326 17.8109 12.0464L19.1271 12.4741C19.4766 12.5878 19.8532 12.3967 19.9672 12.0461C20.0809 11.6959 19.8893 11.3198 19.5392 11.206ZM9.99997 16.3742C9.6318 16.3742 9.33333 16.6727 9.33333 17.0409V18.3939C9.33333 18.7621 9.6318 19.0606 9.99997 19.0606C10.3681 19.0606 10.6666 18.7621 10.6666 18.3939V17.0409C10.6666 16.6727 10.3682 16.3742 9.99997 16.3742Z" fill="white"/>
</svg>
