<svg width="35" height="35" viewBox="0 0 35 35" fill="none" xmlns="http://www.w3.org/2000/svg">
<path d="M17.5 3.75C14.7805 3.75 12.1221 4.55642 9.86092 6.06729C7.59974 7.57816 5.83737 9.72562 4.79666 12.2381C3.75596 14.7506 3.48366 17.5153 4.01421 20.1825C4.54476 22.8497 5.85432 25.2997 7.77729 27.2227C9.70026 29.1457 12.1503 30.4552 14.8175 30.9858C17.4848 31.5163 20.2494 31.244 22.7619 30.2033C25.2744 29.1626 27.4218 27.4003 28.9327 25.1391C30.4436 22.8779 31.25 20.2195 31.25 17.5C31.25 13.8533 29.8014 10.3559 27.2227 7.77728C24.6441 5.19866 21.1467 3.75 17.5 3.75ZM28.125 20H6.87501V15H28.125V20Z" fill="#4160FF"/>
<path d="M17.5 0C14.0388 0 10.6554 1.02636 7.77753 2.94928C4.89967 4.87221 2.65665 7.60533 1.33212 10.803C0.00758246 14.0007 -0.338976 17.5194 0.336265 20.9141C1.01151 24.3087 2.67822 27.4269 5.12564 29.8744C7.57306 32.3218 10.6913 33.9885 14.0859 34.6637C17.4806 35.339 20.9993 34.9924 24.197 33.6679C27.3947 32.3434 30.1278 30.1003 32.0507 27.2225C33.9737 24.3446 35 20.9612 35 17.5C35 12.8587 33.1563 8.40752 29.8744 5.12563C26.5925 1.84374 22.1413 0 17.5 0ZM17.5 32.5C14.5333 32.5 11.6332 31.6203 9.16645 29.972C6.69972 28.3238 4.77713 25.9811 3.64181 23.2403C2.5065 20.4994 2.20945 17.4834 2.78823 14.5736C3.36701 11.6639 4.79562 8.99119 6.89341 6.8934C8.99119 4.79561 11.6639 3.367 14.5737 2.78822C17.4834 2.20944 20.4994 2.50649 23.2403 3.64181C25.9811 4.77712 28.3238 6.69971 29.972 9.16645C31.6203 11.6332 32.5 14.5333 32.5 17.5C32.4955 21.4769 30.9138 25.2896 28.1017 28.1017C25.2896 30.9137 21.4769 32.4955 17.5 32.5Z" fill="#4160FF"/>
</svg>
