<svg width="16" height="16" viewBox="0 0 16 16" fill="none" xmlns="http://www.w3.org/2000/svg">
<path d="M12.499 5.705L12.644 5.855C12.6905 5.90186 12.7458 5.93906 12.8067 5.96445C12.8676 5.98983 12.933 6.0029 12.999 6.0029C13.065 6.0029 13.1304 5.98983 13.1913 5.96445C13.2522 5.93906 13.3075 5.90186 13.354 5.855C13.4009 5.80852 13.4381 5.75322 13.4634 5.69229C13.4888 5.63136 13.5019 5.56601 13.5019 5.5C13.5019 5.43399 13.4888 5.36864 13.4634 5.30771C13.4381 5.24678 13.4009 5.19148 13.354 5.145L12.354 4.145C12.3074 4.09838 12.252 4.0614 12.1911 4.03617C12.1302 4.01094 12.0649 3.99795 11.999 3.99795C11.8658 3.99795 11.7381 4.05085 11.644 4.145C11.5974 4.19162 11.5604 4.24696 11.5352 4.30788C11.5099 4.36879 11.4969 4.43407 11.4969 4.5C11.4969 4.63315 11.5498 4.76085 11.644 4.855L11.794 5L11.519 5.275C10.945 4.79759 10.2798 4.44204 9.56399 4.23C9.84449 3.88131 9.99791 3.44751 9.99899 3C9.99899 2.46957 9.78828 1.96086 9.41321 1.58579C9.03813 1.21071 8.52943 1 7.99899 1C7.46856 1 6.95985 1.21071 6.58478 1.58579C6.20971 1.96086 5.99899 2.46957 5.99899 3C6.00008 3.44751 6.1535 3.88131 6.43399 4.23C5.72447 4.44271 5.06597 4.79833 4.49899 5.275L4.20399 5L4.35399 4.855C4.44814 4.76085 4.50104 4.63315 4.50104 4.5C4.50104 4.36685 4.44814 4.23915 4.35399 4.145C4.25984 4.05085 4.13214 3.99795 3.99899 3.99795C3.86584 3.99795 3.73814 4.05085 3.64399 4.145L2.64399 5.145C2.59713 5.19148 2.55993 5.24678 2.53455 5.30771C2.50916 5.36864 2.49609 5.43399 2.49609 5.5C2.49609 5.56601 2.50916 5.63136 2.53455 5.69229C2.55993 5.75322 2.59713 5.80852 2.64399 5.855C2.69047 5.90186 2.74577 5.93906 2.8067 5.96445C2.86763 5.98983 2.93299 6.0029 2.99899 6.0029C3.065 6.0029 3.13035 5.98983 3.19128 5.96445C3.25221 5.93906 3.30751 5.90186 3.35399 5.855L3.49899 5.705L3.77399 5.98C3.1047 6.78305 2.67813 7.76022 2.54427 8.79701C2.41041 9.8338 2.5748 10.8873 3.01818 11.834C3.46156 12.7807 4.16557 13.5814 5.04771 14.1424C5.92985 14.7033 6.9536 15.0013 7.99899 15.0013C9.04439 15.0013 10.0681 14.7033 10.9503 14.1424C11.8324 13.5814 12.5364 12.7807 12.9798 11.834C13.4232 10.8873 13.5876 9.8338 13.4537 8.79701C13.3199 7.76022 12.8933 6.78305 12.224 5.98L12.499 5.705ZM8.49899 5.03V5.5C8.49899 5.63261 8.44631 5.75979 8.35255 5.85355C8.25878 5.94732 8.1316 6 7.99899 6C7.86638 6 7.73921 5.94732 7.64544 5.85355C7.55167 5.75979 7.49899 5.63261 7.49899 5.5V5.03C7.83113 4.98998 8.16686 4.98998 8.49899 5.03ZM7.99899 2C8.21723 2.00223 8.42875 2.07579 8.60127 2.20946C8.77379 2.34314 8.89785 2.52958 8.9545 2.74035C9.01116 2.95111 8.99731 3.17463 8.91507 3.37679C8.83282 3.57895 8.6867 3.74865 8.49899 3.86V3.5C8.49899 3.36739 8.44631 3.24021 8.35255 3.14645C8.25878 3.05268 8.1316 3 7.99899 3C7.86638 3 7.73921 3.05268 7.64544 3.14645C7.55167 3.24021 7.49899 3.36739 7.49899 3.5V3.86C7.31129 3.74865 7.16516 3.57895 7.08292 3.37679C7.00068 3.17463 6.98683 2.95111 7.04348 2.74035C7.10014 2.52958 7.2242 2.34314 7.39672 2.20946C7.56924 2.07579 7.78076 2.00223 7.99899 2ZM3.99899 10H3.52899C3.48898 9.66787 3.48898 9.33213 3.52899 9H3.99899C4.1316 9 4.25878 9.05268 4.35255 9.14645C4.44631 9.24021 4.49899 9.36739 4.49899 9.5C4.49899 9.63261 4.44631 9.75979 4.35255 9.85355C4.25878 9.94732 4.1316 10 3.99899 10ZM8.49899 13.97C8.16686 14.01 7.83113 14.01 7.49899 13.97V13.5C7.49899 13.3674 7.55167 13.2402 7.64544 13.1464C7.73921 13.0527 7.86638 13 7.99899 13C8.1316 13 8.25878 13.0527 8.35255 13.1464C8.44631 13.2402 8.49899 13.3674 8.49899 13.5V13.97ZM10.354 7.855L9.35399 8.855C9.44969 9.05654 9.49923 9.27689 9.49899 9.5C9.49899 9.79667 9.41102 10.0867 9.2462 10.3334C9.08138 10.58 8.84711 10.7723 8.57302 10.8858C8.29893 10.9994 7.99733 11.0291 7.70636 10.9712C7.41539 10.9133 7.14811 10.7704 6.93833 10.5607C6.72855 10.3509 6.58569 10.0836 6.52781 9.79264C6.46994 9.50166 6.49964 9.20006 6.61317 8.92597C6.72671 8.65189 6.91896 8.41762 7.16564 8.2528C7.41231 8.08797 7.70232 8 7.99899 8C8.22248 8.00132 8.44285 8.05257 8.64399 8.15L9.64399 7.15C9.73815 7.05585 9.86584 7.00295 9.99899 7.00295C10.1321 7.00295 10.2598 7.05585 10.354 7.15C10.4481 7.24415 10.501 7.37185 10.501 7.505C10.501 7.63815 10.4481 7.76585 10.354 7.86V7.855ZM12.499 9.5C12.4991 9.66712 12.4891 9.83409 12.469 10H11.999C11.8664 10 11.7392 9.94732 11.6454 9.85355C11.5517 9.75979 11.499 9.63261 11.499 9.5C11.499 9.36739 11.5517 9.24021 11.6454 9.14645C11.7392 9.05268 11.8664 9 11.999 9H12.469C12.4891 9.16591 12.4991 9.33288 12.499 9.5Z" fill="#4160FF"/>
<path d="M8 10C8.27614 10 8.5 9.77614 8.5 9.5C8.5 9.22386 8.27614 9 8 9C7.72386 9 7.5 9.22386 7.5 9.5C7.5 9.77614 7.72386 10 8 10Z" fill="#4160FF"/>
</svg>
