<svg width="80" height="69" viewBox="0 0 80 69" fill="none" xmlns="http://www.w3.org/2000/svg">
<path fill-rule="evenodd" clip-rule="evenodd" d="M18.7008 18.0071L18.8039 23.5386C18.8055 23.5701 18.8061 23.601 18.8055 23.632L18.8641 26.7953C19.0237 30.0548 20.4056 33.1742 22.7543 35.5798C23.4512 36.2762 24.184 36.8792 24.9309 37.3694C25.0883 37.4199 25.2272 37.5089 25.338 37.6256C27.1889 38.7481 29.2715 39.3397 31.3759 39.3397C33.4494 39.3397 35.5212 38.7589 37.3683 37.6598C37.4253 37.6164 37.4866 37.5784 37.5523 37.548C41.2465 35.2552 43.6668 31.1577 43.8866 26.8154L43.6863 17.9799C40.5702 17.9327 38.0848 15.2172 37.0415 13.8667C30.5248 18.3409 21.9667 18.2416 18.7008 18.0071ZM18.2014 48.0851L5.91215 53.7165C1.89335 55.7422 -0.701172 60.0552 -0.701172 64.7107V68.6198H7.80973V64.1342C7.81571 63.8817 7.92022 63.6416 8.10091 63.4651C8.2816 63.2887 8.52414 63.1899 8.7767 63.1899C9.02927 63.1899 9.27181 63.2887 9.4525 63.4651C9.63319 63.6416 9.7377 63.8817 9.74368 64.1342V68.6198H26.4572L28.3461 57.9008L27.3354 54.6723L25.6381 55.8654C25.4044 56.0504 25.1324 56.1809 24.8419 56.2476C24.5514 56.3142 24.2497 56.3153 23.9587 56.2508C23.678 56.1893 23.4142 56.0668 23.186 55.8919C22.9579 55.7171 22.771 55.4942 22.6387 55.239L18.2014 48.0851ZM38.6753 56.2502C38.3844 56.3141 38.0829 56.3128 37.7925 56.2464C37.5022 56.1799 37.2301 56.05 36.9959 55.8659L35.3426 54.706L34.4003 57.9008L36.0971 68.6198H52.8535V64.1342C52.8535 63.8777 52.9554 63.6317 53.1368 63.4503C53.3181 63.2689 53.5642 63.167 53.8207 63.167C54.0772 63.167 54.3233 63.2689 54.5047 63.4503C54.686 63.6317 54.788 63.8777 54.788 64.1342V68.6198H63.2989V64.7101C63.2989 60.0584 60.7022 55.7525 56.6855 53.736L44.4017 48.1073L39.9959 55.2374C39.8637 55.4929 39.6769 55.7161 39.4486 55.8912C39.2204 56.0662 38.9563 56.1888 38.6753 56.2502Z" fill="url(#paint0_linear_305_1124)"/>
<path fill-rule="evenodd" clip-rule="evenodd" d="M39.7213 45.9628L32.9919 50.6942L38.131 54.2989C38.1516 54.3125 38.1695 54.3266 38.1863 54.3412C38.2167 54.3646 38.2417 54.3651 38.2569 54.3619C38.2721 54.3581 38.2753 54.3521 38.2802 54.3434C38.2938 54.3135 38.3106 54.2842 38.3275 54.2565L42.629 47.2953L39.7213 45.9628ZM31.3754 41.2736C29.3872 41.2736 27.4202 40.8242 25.6024 39.9628V41.7084C25.6024 42.8352 25.2061 43.9034 24.5054 44.7426L31.3076 49.5137L38.0816 44.7507C37.3762 43.9013 36.9907 42.8315 36.9922 41.7274V40.0372C35.2108 40.8497 33.2958 41.2742 31.3754 41.2736ZM19.9731 47.2725L24.3056 54.2544C24.323 54.2831 24.3393 54.313 24.3545 54.3434C24.3583 54.3515 24.361 54.3581 24.3778 54.3619C24.393 54.3651 24.4185 54.3646 24.4468 54.3412C24.4636 54.3266 24.482 54.313 24.501 54.2994L27.2231 52.3856C27.2736 52.3411 27.3295 52.302 27.3892 52.2689L29.6244 50.697L22.8575 45.9508L19.9731 47.2725ZM30.1515 58.8035L28.4216 68.6198H34.1371L32.5837 58.8035H30.1515ZM27.6606 0.269871C22.1801 1.11499 15.5554 3.68671 15.1369 11.1381C15.1267 11.3145 15.0685 11.4847 14.9686 11.6304C14.8563 11.8622 12.7269 16.5578 16.826 21.273C16.8027 20.0078 16.7555 18.7214 16.7555 17.4583C16.756 17.0398 16.9373 16.6425 17.2532 16.3684C17.3993 16.2412 17.5704 16.1459 17.7555 16.0886C17.9405 16.0313 18.1355 16.0133 18.3279 16.0357C20.9474 16.2739 29.8974 16.6762 36.3159 12.0104C36.9325 11.562 37.7923 11.6825 38.2737 12.2845C39.7479 13.9953 41.4924 16.236 44.0435 16.0351C44.8746 15.9374 45.6013 16.592 45.6084 17.4257L45.6882 20.9419C47.0392 18.3311 47.8593 14.4002 47.2476 10.7837C46.7645 7.91448 45.1872 4.05201 40.4302 1.946C36.4418 0.180853 32.0252 -0.398843 27.6606 0.269871ZM77.9542 19.1936H56.354C55.8317 19.1943 55.331 19.4021 54.9617 19.7715C54.5925 20.1409 54.3848 20.6416 54.3842 21.1639V38.0793C54.3846 38.6018 54.5923 39.1027 54.9618 39.4721C55.3312 39.8415 55.8321 40.0492 56.3545 40.0496H57.0075C57.4675 40.0504 57.9084 40.2335 58.2335 40.559C58.5586 40.8844 58.7414 41.3255 58.7417 41.7855V44.8262L63.0036 40.5637C63.1635 40.4015 63.3538 40.2727 63.5637 40.1846C63.7736 40.0964 63.9989 40.0508 64.2265 40.0502H77.9357C78.458 40.0496 78.9588 39.8418 79.3281 39.4724C79.6974 39.103 79.9051 38.6022 79.9055 38.0799V21.1634C79.9104 20.9061 79.8636 20.6504 79.7679 20.4115C79.6721 20.1726 79.5294 19.9554 79.348 19.7727C79.1661 19.588 78.9491 19.4416 78.7097 19.3421C78.4703 19.2425 78.2134 19.1924 77.9542 19.1936ZM69.3011 25.4807L73.7411 21.9254C73.9417 21.7698 74.1955 21.6994 74.4477 21.7293C74.6999 21.7592 74.9302 21.8871 75.0889 22.0854C75.2476 22.2836 75.3219 22.5363 75.2959 22.7889C75.2699 23.0415 75.1456 23.2737 74.9498 23.4355L70.131 27.2952C70.0129 27.3897 69.8743 27.4553 69.7263 27.4866C69.5783 27.5179 69.425 27.514 69.2788 27.4754L64.8312 26.3041L60.7522 31.0133C60.6692 31.1096 60.5681 31.1886 60.4545 31.2457C60.341 31.3028 60.2172 31.3368 60.0905 31.3459C59.9637 31.355 59.8364 31.3389 59.7159 31.2986C59.5953 31.2583 59.4839 31.1945 59.3881 31.111C59.292 31.028 59.2132 30.9268 59.1562 30.8132C59.0993 30.6996 59.0653 30.5759 59.0563 30.4492C59.0473 30.3225 59.0633 30.1952 59.1036 30.0747C59.1439 29.9542 59.2076 29.8428 59.291 29.747L63.7646 24.5818C63.8828 24.445 64.0371 24.3442 64.2099 24.2908C64.3826 24.2375 64.5669 24.2337 64.7416 24.2801L69.3011 25.4807ZM73.3014 35.9022V27.2122C73.2983 27.0833 73.3211 26.9551 73.3683 26.8351C73.4155 26.7151 73.4863 26.6057 73.5764 26.5135C73.6665 26.4212 73.7741 26.3479 73.8929 26.2979C74.0118 26.2478 74.1394 26.222 74.2684 26.222C74.3973 26.222 74.525 26.2478 74.6438 26.2979C74.7626 26.3479 74.8703 26.4212 74.9604 26.5135C75.0505 26.6057 75.1212 26.7151 75.1684 26.8351C75.2156 26.9551 75.2384 27.0833 75.2353 27.2122V35.9022H76.3605C76.6171 35.9022 76.8632 36.0041 77.0447 36.1856C77.2261 36.367 77.3281 36.6131 77.3281 36.8697C77.3281 37.1263 77.2261 37.3724 77.0447 37.5539C76.8632 37.7353 76.6171 37.8372 76.3605 37.8372H57.9476C57.6967 37.8288 57.4588 37.7232 57.2843 37.5428C57.1098 37.3623 57.0122 37.1211 57.0122 36.87C57.0122 36.6189 57.1098 36.3777 57.2843 36.1972C57.4588 36.0168 57.6967 35.9112 57.9476 35.9028H59.0543V34.0665C59.0543 33.81 59.1562 33.5639 59.3376 33.3826C59.519 33.2012 59.765 33.0993 60.0216 33.0993C60.2781 33.0993 60.5241 33.2012 60.7055 33.3826C60.8869 33.5639 60.9888 33.81 60.9888 34.0665V35.9028H63.8151V32.1467C63.8151 31.8901 63.917 31.6441 64.0984 31.4627C64.2798 31.2813 64.5258 31.1794 64.7824 31.1794C65.0389 31.1794 65.2849 31.2813 65.4663 31.4627C65.6477 31.6441 65.7496 31.8901 65.7496 32.1467V35.9028H68.5585V30.0732C68.5585 29.9462 68.5835 29.8204 68.6321 29.7031C68.6808 29.5857 68.752 29.4791 68.8418 29.3893C68.9316 29.2995 69.0383 29.2282 69.1556 29.1796C69.273 29.131 69.3988 29.106 69.5258 29.106C69.6528 29.106 69.7786 29.131 69.8959 29.1796C70.0133 29.2282 70.1199 29.2995 70.2097 29.3893C70.2995 29.4791 70.3708 29.5857 70.4194 29.7031C70.468 29.8204 70.493 29.9462 70.493 30.0732V35.9028L73.3014 35.9022ZM31.3092 51.8775L28.997 53.5037L30.05 56.8695H32.6868L33.6709 53.5341L31.3092 51.8775Z" fill="url(#paint1_linear_305_1124)"/>
<defs>
<linearGradient id="paint0_linear_305_1124" x1="59.3754" y1="11.8855" x2="72.7633" y2="82.6874" gradientUnits="userSpaceOnUse">
<stop stop-color="#4160FF"/>
<stop offset="1" stop-color="#213269"/>
</linearGradient>
<linearGradient id="paint1_linear_305_1124" x1="75.885" y1="-2.48297" x2="96.0582" y2="84.758" gradientUnits="userSpaceOnUse">
<stop stop-color="#4160FF"/>
<stop offset="1" stop-color="#213269"/>
</linearGradient>
</defs>
</svg>
