<svg width="37" height="42" viewBox="0 0 37 42" fill="none" xmlns="http://www.w3.org/2000/svg">
<path d="M5.5425 17.58H4.27125V15.057C4.27125 14.8581 4.19223 14.6673 4.05158 14.5267C3.91093 14.386 3.72016 14.307 3.52125 14.307C3.32234 14.307 3.13157 14.386 2.99092 14.5267C2.85027 14.6673 2.77125 14.8581 2.77125 15.057V17.58H1.5C1.10254 17.5812 0.721699 17.7396 0.440651 18.0207C0.159604 18.3017 0.00118705 18.6825 0 19.08V37.2225C0 37.6203 0.158036 38.0019 0.43934 38.2832C0.720645 38.5645 1.10218 38.7225 1.5 38.7225H2.77125V41.25C2.77125 41.4489 2.85027 41.6397 2.99092 41.7803C3.13157 41.921 3.32234 42 3.52125 42C3.72016 42 3.91093 41.921 4.05158 41.7803C4.19223 41.6397 4.27125 41.4489 4.27125 41.25V38.7225H5.5425C5.94032 38.7225 6.32186 38.5645 6.60316 38.2832C6.88446 38.0019 7.0425 37.6203 7.0425 37.2225V19.08C7.04131 18.6825 6.8829 18.3017 6.60185 18.0207C6.3208 17.7396 5.93996 17.5812 5.5425 17.58ZM15.36 8.28H14.094V5.757C14.094 5.55809 14.015 5.36732 13.8743 5.22667C13.7337 5.08602 13.5429 5.007 13.344 5.007C13.1451 5.007 12.9543 5.08602 12.8137 5.22667C12.673 5.36732 12.594 5.55809 12.594 5.757V8.28H11.325C10.9275 8.28119 10.5467 8.4396 10.2656 8.72065C9.9846 9.0017 9.82619 9.38254 9.825 9.78V27.9225C9.825 28.3203 9.98304 28.7019 10.2643 28.9832C10.5456 29.2645 10.9272 29.4225 11.325 29.4225H12.594V31.95C12.594 32.1489 12.673 32.3397 12.8137 32.4803C12.9543 32.621 13.1451 32.7 13.344 32.7C13.5429 32.7 13.7337 32.621 13.8743 32.4803C14.015 32.3397 14.094 32.1489 14.094 31.95V29.4225H15.36C15.5572 29.4232 15.7525 29.3849 15.9348 29.3097C16.1171 29.2346 16.2828 29.1241 16.4222 28.9847C16.5616 28.8453 16.6721 28.6796 16.7472 28.4973C16.8224 28.315 16.8607 28.1197 16.86 27.9225V9.78C16.86 9.38218 16.702 9.00064 16.4207 8.71934C16.1394 8.43804 15.7578 8.28 15.36 8.28ZM25.185 13.5075H23.916V10.9823C23.916 10.7833 23.837 10.5926 23.6963 10.4519C23.5557 10.3113 23.3649 10.2323 23.166 10.2323C22.9671 10.2323 22.7763 10.3113 22.6357 10.4519C22.495 10.5926 22.416 10.7833 22.416 10.9823V13.5075H21.15C20.7522 13.5075 20.3706 13.6655 20.0893 13.9468C19.808 14.2281 19.65 14.6097 19.65 15.0075V33.15C19.65 33.5478 19.808 33.9294 20.0893 34.2107C20.3706 34.492 20.7522 34.65 21.15 34.65H22.416V37.1745C22.416 37.3734 22.495 37.5642 22.6357 37.7048C22.7763 37.8455 22.9671 37.9245 23.166 37.9245C23.3649 37.9245 23.5557 37.8455 23.6963 37.7048C23.837 37.5642 23.916 37.3734 23.916 37.1745V34.65H25.185C25.5825 34.6488 25.9633 34.4904 26.2443 34.2094C26.5254 33.9283 26.6838 33.5475 26.685 33.15V15.0075C26.6838 14.61 26.5254 14.2292 26.2443 13.9482C25.9633 13.6671 25.5825 13.5087 25.185 13.5075ZM35.01 3.2775H33.7387V0.75C33.7387 0.551088 33.6597 0.360322 33.5191 0.21967C33.3784 0.0790178 33.1877 0 32.9887 0C32.7898 0 32.5991 0.0790178 32.4584 0.21967C32.3178 0.360322 32.2387 0.551088 32.2387 0.75V3.2775H30.9675C30.5697 3.2775 30.1881 3.43554 29.9068 3.71684C29.6255 3.99814 29.4675 4.37968 29.4675 4.7775V22.92C29.4687 23.3175 29.6271 23.6983 29.9081 23.9793C30.1892 24.2604 30.57 24.4188 30.9675 24.42H32.2387V26.943C32.2387 27.1419 32.3178 27.3327 32.4584 27.4733C32.5991 27.614 32.7898 27.693 32.9887 27.693C33.1877 27.693 33.3784 27.614 33.5191 27.4733C33.6597 27.3327 33.7387 27.1419 33.7387 26.943V24.42H35.01C35.4075 24.4188 35.7883 24.2604 36.0693 23.9793C36.3504 23.6983 36.5088 23.3175 36.51 22.92V4.7775C36.51 4.37968 36.352 3.99814 36.0707 3.71684C35.7894 3.43554 35.4078 3.2775 35.01 3.2775Z" fill="white"/>
</svg>
