<svg width="96" height="96" viewBox="0 0 96 96" fill="none" xmlns="http://www.w3.org/2000/svg">
<g clip-path="url(#clip0_33580_2568)">
<path d="M80.8266 34.6665V33.8131C80.6448 26.5891 77.6124 19.7304 72.3914 14.7342C67.1705 9.7381 60.185 7.01035 52.9599 7.14646C47.5791 7.10255 42.3002 8.61452 37.7584 11.5004C33.2167 14.3863 29.6057 18.5231 27.3599 23.4131C21.0367 24.1185 15.1924 27.1202 10.9356 31.8489C6.67884 36.5775 4.30577 42.7042 4.2666 49.0665C4.27359 52.4376 4.94495 55.7742 6.24229 58.8857C7.53962 61.9972 9.4375 64.8224 11.8274 67.2C14.2173 69.5775 17.0524 71.4607 20.1706 72.7418C23.2887 74.023 26.6288 74.677 29.9999 74.6665H39.9999V69.3331H29.9999C24.8456 69.0542 19.9887 66.8317 16.4082 63.1136C12.8276 59.3955 10.7897 54.4582 10.7051 49.2971C10.6206 44.136 12.4957 39.1346 15.9525 35.3013C19.4094 31.4679 24.1909 29.0874 29.3333 28.6398H31.1199L31.7333 26.9598C33.3872 22.6641 36.3199 18.9798 40.1351 16.4045C43.9503 13.8292 48.4641 12.4872 53.0666 12.5598C58.8774 12.4233 64.5066 14.589 68.7275 18.5851C72.9483 22.5812 75.4186 28.0836 75.5999 33.8931C75.6355 34.6038 75.6355 35.3158 75.5999 36.0265L75.3866 37.9465L77.1199 38.7465C80.4724 40.2568 83.2023 42.8757 84.8505 46.1626C86.4986 49.4495 86.9644 53.2038 86.1694 56.7937C85.3744 60.3837 83.3672 63.5904 80.4854 65.8741C77.6037 68.1579 74.0233 69.3794 70.3466 69.3331H55.9999V74.6665H70.3466C75.0892 74.7005 79.7079 73.1532 83.4729 70.269C87.2379 67.3849 89.9344 63.3284 91.1364 58.7405C92.3385 54.1527 91.9774 49.2951 90.1103 44.9353C88.2432 40.5756 84.9766 36.9623 80.8266 34.6665Z" fill="black" fill-opacity="0.2"/>
<path d="M59.4133 58.2664C59.9452 58.2749 60.4675 58.124 60.9131 57.8333C61.3586 57.5425 61.707 57.1252 61.9134 56.6349C62.1199 56.1446 62.175 55.6037 62.0716 55.0818C61.9682 54.56 61.7111 54.0809 61.3333 53.7064L47.9999 40.373L34.6666 53.7064C34.2297 54.2165 34.0015 54.8727 34.0274 55.5439C34.0533 56.215 34.3315 56.8516 34.8064 57.3265C35.2814 57.8015 35.918 58.0797 36.5891 58.1056C37.2603 58.1315 37.9165 57.9032 38.4266 57.4664L45.3333 50.6664V83.333C45.3333 84.0403 45.6142 84.7186 46.1143 85.2187C46.6144 85.7188 47.2927 85.9997 47.9999 85.9997C48.7072 85.9997 49.3855 85.7188 49.8856 85.2187C50.3857 84.7186 50.6666 84.0403 50.6666 83.333V50.6664L57.5199 57.5197C58.0275 58.0091 58.7083 58.2776 59.4133 58.2664Z" fill="black" fill-opacity="0.6"/>
</g>
<defs>
<clipPath id="clip0_33580_2568">
<rect width="96" height="96" fill="white"/>
</clipPath>
</defs>
</svg>
