<svg width="32" height="32" viewBox="0 0 32 32" fill="none" xmlns="http://www.w3.org/2000/svg">
<path d="M16 11.3125C14.9653 11.3125 14.125 12.1537 14.125 13.1875C14.125 14.2213 14.9653 15.0625 16 15.0625C17.0347 15.0625 17.875 14.2213 17.875 13.1875C17.875 12.1537 17.0347 11.3125 16 11.3125ZM16 18.8125C13.9329 18.8125 12.25 20.4944 12.25 22.5625V25.5963C13.4141 26.0528 14.676 26.3125 16 26.3125C17.324 26.3125 18.5859 26.0528 19.75 25.5963V22.5625C19.75 20.4944 18.0671 18.8125 16 18.8125Z" fill="white"/>
<path d="M28.25 24.5C27.5566 24.5 26.9148 24.7021 26.3572 25.0315L23.9043 22.5794C25.3974 20.7917 26.3125 18.5064 26.3125 16C26.3125 13.4934 25.4119 11.1946 23.9194 9.4055L26.3572 6.9685C26.9148 7.29787 27.5566 7.5 28.25 7.5C30.3171 7.5 32 5.81812 32 3.75C32 1.68187 30.3171 0 28.25 0C26.1829 0 24.5 1.68187 24.5 3.75C24.5 4.44338 24.7019 5.08519 25.0315 5.64281L22.5935 8.08006C20.8044 6.58819 18.5059 5.6875 16 5.6875C13.4941 5.6875 11.1956 6.58813 9.4065 8.08006L6.9685 5.64281C7.29813 5.08519 7.5 4.44338 7.5 3.75C7.5 1.68187 5.81713 0 3.75 0C1.68287 0 0 1.68187 0 3.75C0 5.81812 1.68287 7.5 3.75 7.5C4.44338 7.5 5.08519 7.29787 5.64281 6.9685L8.08056 9.4055C6.58813 11.1946 5.6875 13.4934 5.6875 16C5.6875 18.5064 6.6025 20.7917 8.09569 22.5794L5.64313 25.0315C5.08519 24.7021 4.44338 24.5 3.75 24.5C1.68287 24.5 0 26.1819 0 28.25C0 30.3181 1.68287 32 3.75 32C5.81713 32 7.5 30.3181 7.5 28.25C7.5 27.5566 7.29813 26.9148 6.9685 26.3572L9.41162 23.9151C9.719 24.1709 10.0391 24.4121 10.375 24.6318V22.5625C10.375 19.4607 12.8982 16.9375 16 16.9375C13.9329 16.9375 12.25 15.2556 12.25 13.1875C12.25 11.1194 13.9329 9.4375 16 9.4375C18.0671 9.4375 19.75 11.1194 19.75 13.1875C19.75 15.2556 18.0671 16.9375 16 16.9375C19.1018 16.9375 21.625 19.4607 21.625 22.5625V24.6319C21.9609 24.4121 22.281 24.1709 22.5884 23.915L25.0315 26.3572C24.7019 26.9148 24.5 27.5566 24.5 28.25C24.5 30.3181 26.1829 32 28.25 32C30.3171 32 32 30.3181 32 28.25C32 26.1819 30.3171 24.5 28.25 24.5Z" fill="white"/>
</svg>
