<svg width="32" height="32" viewBox="0 0 32 32" fill="none" xmlns="http://www.w3.org/2000/svg">
<g clip-path="url(#clip0_944_10854)">
<path d="M17.118 18.4689V16.0939C17.118 15.3439 17.2492 14.5939 17.5117 13.8939C16.4367 13.1377 15.2367 12.5877 13.9617 12.2627C12.3805 12.8814 10.6242 12.8814 9.03671 12.2627C4.69296 13.3439 1.22421 17.2377 0.0304555 22.2689C-0.0570445 22.6377 0.0242055 23.0252 0.255456 23.3252C3.53671 27.5939 8.95546 29.6377 14.2367 28.6002V22.0127C14.243 20.3002 15.443 18.8252 17.118 18.4689Z" fill="url(#paint0_linear_944_10854)"/>
<path d="M11.4984 11.95C14.7983 11.95 17.4734 9.2749 17.4734 5.975C17.4734 2.6751 14.7983 0 11.4984 0C8.19854 0 5.52344 2.6751 5.52344 5.975C5.52344 9.2749 8.19854 11.95 11.4984 11.95Z" fill="url(#paint1_linear_944_10854)"/>
<path d="M29.157 19.1684H29.1258V16.0934C29.1258 12.9934 26.6133 10.4746 23.507 10.4746C20.407 10.4746 17.8945 12.9871 17.8945 16.0934V19.1684H17.8633C16.2945 19.1684 15.0195 20.4434 15.0195 22.0121V29.1621C15.0195 30.7309 16.2945 32.0059 17.8633 32.0059H29.1633C30.732 32.0059 32.007 30.7309 32.007 29.1621V22.0121C32.0008 20.4434 30.7258 19.1684 29.157 19.1684ZM20.7695 16.0934C20.7695 14.5809 21.9945 13.3496 23.5133 13.3496C25.0258 13.3496 26.257 14.5746 26.257 16.0934V19.1684H20.7758V16.0934H20.7695ZM24.0133 26.3746V28.5309C24.0133 28.8059 23.7883 29.0309 23.5133 29.0309C23.2383 29.0309 23.0133 28.8059 23.0133 28.5309V26.3746C21.857 26.0996 21.1445 24.9371 21.4258 23.7871C21.707 22.6371 22.8633 21.9184 24.0133 22.1996C25.1633 22.4809 25.882 23.6371 25.6008 24.7871C25.4133 25.5746 24.8008 26.1871 24.0133 26.3746Z" fill="url(#paint2_linear_944_10854)"/>
<path d="M23.5133 23.1377C22.8758 23.1377 22.3633 23.6502 22.3633 24.2877C22.3633 24.9252 22.8758 25.4377 23.5133 25.4377C24.1508 25.4377 24.6633 24.9252 24.6633 24.2877C24.657 23.6502 24.1445 23.1377 23.5133 23.1377Z" fill="url(#paint3_linear_944_10854)"/>
</g>
<defs>
<linearGradient id="paint0_linear_944_10854" x1="16.4379" y1="11.6619" x2="20.9013" y2="32.9649" gradientUnits="userSpaceOnUse">
<stop stop-color="#4160FF"/>
<stop offset="1" stop-color="#213269"/>
</linearGradient>
<linearGradient id="paint1_linear_944_10854" x1="16.7409" y1="-0.432404" x2="20.1136" y2="14.8273" gradientUnits="userSpaceOnUse">
<stop stop-color="#4160FF"/>
<stop offset="1" stop-color="#213269"/>
</linearGradient>
<linearGradient id="paint2_linear_944_10854" x1="30.9656" y1="9.69551" x2="38.4565" y2="36.4348" gradientUnits="userSpaceOnUse">
<stop stop-color="#4160FF"/>
<stop offset="1" stop-color="#213269"/>
</linearGradient>
<linearGradient id="paint3_linear_944_10854" x1="24.5223" y1="23.0545" x2="25.1714" y2="25.9915" gradientUnits="userSpaceOnUse">
<stop stop-color="#4160FF"/>
<stop offset="1" stop-color="#213269"/>
</linearGradient>
<clipPath id="clip0_944_10854">
<rect width="32" height="32" fill="white"/>
</clipPath>
</defs>
</svg>
