<svg width="21" height="21" viewBox="0 0 21 21" fill="none" xmlns="http://www.w3.org/2000/svg">
<path d="M10.3643 10.5C13.2638 10.5 15.6143 8.1495 15.6143 5.25C15.6143 2.35051 13.2638 0 10.3643 0C7.46476 0 5.11426 2.35051 5.11426 5.25C5.11426 8.1495 7.46476 10.5 10.3643 10.5Z" fill="#747474"/>
<path d="M8.99512 14.8193L10.3646 16.1895L11.7349 14.8193L10.6069 12H10.1224L8.99512 14.8193Z" fill="#747474"/>
<path d="M20.693 18.3548C20.3808 16.6466 19.649 15.0427 18.5633 13.6875C17.4776 12.3323 16.0721 11.2681 14.4732 10.5908C13.7748 11.1297 12.9776 11.5264 12.1265 11.7585L13.1277 14.262C13.2368 14.5345 13.2636 14.833 13.2046 15.1206C13.1457 15.4082 13.0037 15.6721 12.7962 15.8798L11.4252 17.25C11.1439 17.5312 10.7625 17.6892 10.3647 17.6892C9.96698 17.6892 9.58552 17.5312 9.30423 17.25L7.93398 15.8798C7.72651 15.6723 7.58446 15.4085 7.5254 15.1211C7.46635 14.8337 7.49289 14.5352 7.60173 14.2628L8.60298 11.7585C7.7519 11.5264 6.9546 11.1297 6.25623 10.5908C4.65731 11.2681 3.25182 12.3323 2.16614 13.6875C1.08046 15.0427 0.348633 16.6466 0.0364757 18.3548C-0.022557 18.6768 -0.00981049 19.008 0.0738067 19.3245C0.157424 19.6411 0.309852 19.9353 0.520226 20.1863C0.731979 20.441 0.997265 20.646 1.29722 20.7867C1.59718 20.9273 1.92443 21.0002 2.25573 21H18.4737C18.805 21.0002 19.1323 20.9273 19.4322 20.7867C19.7322 20.646 19.9975 20.441 20.2092 20.1863C20.4196 19.9353 20.572 19.6411 20.6556 19.3245C20.7393 19.008 20.752 18.6768 20.693 18.3548Z" fill="#747474"/>
</svg>
