<svg width="23" height="23" viewBox="0 0 23 23" fill="none" xmlns="http://www.w3.org/2000/svg">
<path d="M22.8 15.1999V19.95C22.8 21.5239 21.5239 22.8 19.95 22.8H15.1999C13.626 22.8 12.3499 21.5239 12.3499 19.95V15.1999C12.3499 13.626 13.626 12.3499 15.1999 12.3499H19.95C21.5239 12.3499 22.8 13.626 22.8 15.1999ZM7.60008 0H2.85C1.27608 0 0 1.27608 0 2.85V7.60008C0 9.174 1.27608 10.4501 2.85 10.4501H7.60008C9.174 10.4501 10.4501 9.174 10.4501 7.60008V2.85C10.4501 1.27608 9.174 0 7.60008 0ZM17.575 10.4501C20.4607 10.4501 22.8 8.1108 22.8 5.22504C22.8 2.33928 20.4607 0 17.5752 0C14.6897 0 12.3499 2.33928 12.3499 5.2248C12.3552 8.1084 14.6916 10.4448 17.575 10.4501ZM7.60008 12.3499H2.85C1.27608 12.3499 0 13.626 0 15.1999V19.95C0 21.5239 1.27608 22.8 2.85 22.8H7.60008C9.174 22.8 10.4501 21.5239 10.4501 19.95V15.1999C10.4501 13.626 9.174 12.3499 7.60008 12.3499Z" fill="#747474"/>
</svg>
