<svg width="35" height="35" viewBox="0 0 35 35" fill="none" xmlns="http://www.w3.org/2000/svg">
<rect width="34.83" height="34.83" rx="17.415" fill="#4160FF"/>
<path d="M9.05708 22.915H6.80708L10.9037 11.2787H13.5059L17.6082 22.915H15.3582L12.2503 13.665H12.1594L9.05708 22.915ZM9.13095 18.3525H15.2673V20.0457H9.13095V18.3525ZM22.5898 24.3696V9.82413H23.5216V24.3696H22.5898ZM25.2773 14.4775C25.2242 13.9813 25.0007 13.595 24.6068 13.3184C24.2166 13.0419 23.7091 12.9037 23.0841 12.9037C22.6447 12.9037 22.2678 12.97 21.9534 13.1025C21.639 13.2351 21.3985 13.415 21.2318 13.6423C21.0651 13.8696 20.9799 14.1291 20.9761 14.4207C20.9761 14.6631 21.031 14.8734 21.1409 15.0514C21.2545 15.2294 21.4079 15.3809 21.6011 15.5059C21.7943 15.6272 22.0083 15.7294 22.2432 15.8128C22.478 15.8961 22.7148 15.9662 22.9534 16.023L24.0443 16.2957C24.4837 16.398 24.906 16.5363 25.3113 16.7105C25.7204 16.8847 26.086 17.1044 26.4079 17.3696C26.7337 17.6347 26.9913 17.9548 27.1807 18.3298C27.3701 18.7048 27.4648 19.1442 27.4648 19.648C27.4648 20.3298 27.2905 20.9302 26.942 21.4491C26.5935 21.9643 26.0898 22.3677 25.4307 22.6594C24.7754 22.9472 23.9818 23.0912 23.05 23.0912C22.1447 23.0912 21.3587 22.951 20.692 22.6707C20.0291 22.3904 19.5102 21.9813 19.1352 21.4434C18.764 20.9056 18.5632 20.2503 18.5329 19.4775H20.6068C20.6371 19.8828 20.7621 20.22 20.9818 20.4889C21.2015 20.7578 21.4875 20.9586 21.8398 21.0912C22.1958 21.2238 22.5935 21.29 23.0329 21.29C23.4913 21.29 23.8928 21.2219 24.2375 21.0855C24.586 20.9453 24.8587 20.7522 25.0557 20.5059C25.2526 20.2559 25.353 19.9643 25.3568 19.6309C25.353 19.3279 25.264 19.0779 25.0898 18.8809C24.9155 18.6802 24.6712 18.5135 24.3568 18.3809C24.0462 18.2446 23.6826 18.1234 23.2659 18.0173L21.942 17.6764C20.9837 17.4302 20.2261 17.0571 19.6693 16.5571C19.1163 16.0533 18.8398 15.3847 18.8398 14.5514C18.8398 13.8658 19.0254 13.2654 19.3966 12.7503C19.7716 12.2351 20.281 11.8355 20.925 11.5514C21.5689 11.2635 22.2981 11.1196 23.1125 11.1196C23.9382 11.1196 24.6617 11.2635 25.2829 11.5514C25.9079 11.8355 26.3985 12.2313 26.7545 12.7389C27.1106 13.2427 27.2943 13.8222 27.3057 14.4775H25.2773Z" fill="#E3EBFF"/>
</svg>
