<svg width="48" height="48" viewBox="0 0 48 48" fill="none" xmlns="http://www.w3.org/2000/svg">
<path d="M4.22438 29.7019H0V48H4.22438C5.00063 48 5.63063 47.37 5.63063 46.5938V31.1081C5.63063 30.3319 5.00063 29.7019 4.22438 29.7019ZM31.3594 21.5625C36.1406 21.5625 40.0312 17.6719 40.0312 12.8906C40.0312 8.10938 36.1406 4.21875 31.3594 4.21875C26.5781 4.21875 22.6875 8.10938 22.6875 12.8906C22.6875 17.6719 26.5781 21.5625 31.3594 21.5625ZM36.9844 12.1875H37.9219C38.31 12.1875 38.625 12.5025 38.625 12.8906C38.625 13.2788 38.31 13.5938 37.9219 13.5938H36.9844C36.5962 13.5938 36.2812 13.2788 36.2812 12.8906C36.2812 12.5025 36.5962 12.1875 36.9844 12.1875ZM29.3869 8.28281V6.79688C29.3869 6.40875 29.7019 6.09375 30.09 6.09375C30.4781 6.09375 30.7931 6.40875 30.7931 6.79688V8.12531H31.9256V6.79688C31.9256 6.40875 32.2406 6.09375 32.6287 6.09375C33.0169 6.09375 33.3319 6.40875 33.3319 6.79688V8.12531H33.7969C34.185 8.12531 34.5 8.44031 34.5 8.82844C34.5 9.21656 34.185 9.53156 33.7969 9.53156H30.2812C29.5837 9.53156 29.0156 10.1269 29.0156 10.86C29.0156 11.5931 29.5837 12.1884 30.2812 12.1884H32.4375C33.9103 12.1884 35.1094 13.4147 35.1094 14.9231C35.1094 16.11 34.3669 17.1216 33.3319 17.4994V18.9853C33.3319 19.3734 33.0169 19.6884 32.6287 19.6884C32.2406 19.6884 31.9256 19.3734 31.9256 18.9853V17.6569H30.7931V18.9853C30.7931 19.3734 30.4781 19.6884 30.09 19.6884C29.7019 19.6884 29.3869 19.3734 29.3869 18.9853V17.6569H28.9219C28.5338 17.6569 28.2188 17.3419 28.2188 16.9537C28.2188 16.5656 28.5338 16.2506 28.9219 16.2506H32.4375C33.135 16.2506 33.7031 15.6553 33.7031 14.9222C33.7031 14.1891 33.135 13.5938 32.4375 13.5938H30.2812C28.8084 13.5938 27.6094 12.3675 27.6094 10.8591C27.6094 9.67219 28.3519 8.66062 29.3869 8.28281ZM24.0938 12.8906C24.0938 12.5025 24.4088 12.1875 24.7969 12.1875H25.7344C26.1225 12.1875 26.4375 12.5025 26.4375 12.8906C26.4375 13.2788 26.1225 13.5938 25.7344 13.5938H24.7969C24.4088 13.5938 24.0938 13.2788 24.0938 12.8906Z" fill="#4160FF"/>
<path d="M31.3594 25.7813C38.4675 25.7813 44.25 19.9988 44.25 12.8906C44.25 5.7825 38.4675 0 31.3594 0C24.2513 0 18.4688 5.7825 18.4688 12.8906C18.4688 19.9988 24.2513 25.7813 31.3594 25.7813ZM31.3594 2.8125C36.9169 2.8125 41.4375 7.33313 41.4375 12.8906C41.4375 18.4481 36.9169 22.9688 31.3594 22.9688C25.8019 22.9688 21.2812 18.4481 21.2812 12.8906C21.2812 7.33313 25.8019 2.8125 31.3594 2.8125ZM30.6019 33.9797L24.3647 36.6403L23.2181 38.0447L26.9578 40.2328C27.6037 40.6106 28.41 40.6172 29.0616 40.2497L43.3219 32.1863L43.2309 32.0119C42.8822 31.3425 42.2306 30.9394 41.5303 30.8831L41.4975 30.7903C41.1225 29.7225 39.9609 29.1422 38.8866 29.4731L38.7891 29.1563C38.6213 28.6106 38.25 28.1653 37.7428 27.9028C37.2356 27.6403 36.6581 27.5934 36.1153 27.7716L31.3378 29.3391L31.8947 30.4556C32.2106 31.0884 32.2519 31.8328 32.0081 32.4966C31.7644 33.1603 31.2506 33.7013 30.6 33.9788L30.6019 33.9797Z" fill="#4160FF"/>
<path d="M47.27 32.686L46.5003 32.0053L29.7537 41.4741C29.2184 41.776 28.6212 41.926 28.025 41.926C27.4287 41.926 26.794 41.7657 26.2484 41.446L21.815 38.8519C21.7062 38.7882 21.6096 38.701 21.5468 38.5913C21.395 38.3278 21.4287 38.0119 21.6096 37.7916L23.3853 35.6166C23.4575 35.5285 23.5493 35.4591 23.6543 35.415L30.0181 32.7C30.319 32.5716 30.5665 32.3344 30.6846 32.0297C30.8046 31.7185 30.7878 31.3828 30.6396 31.0847L29.9318 29.6672C29.6009 29.0053 28.8143 28.7128 28.1318 28.9978L23.5015 30.9328L19.7571 28.8722C19.2371 28.5867 18.6535 28.4368 18.0603 28.4363H13.8537C12.7484 28.4363 11.6946 28.965 11.0337 29.851L9.26184 32.2257H7.03809V45.4772H10.8893V39.81C10.8893 39.4247 11.1865 39.0891 11.5709 39.0778C11.9693 39.0657 12.2956 39.3853 12.2956 39.781V46.2319L13.625 47.2885C14.0876 47.6558 14.6608 47.856 15.2515 47.8566H28.8471C29.375 47.8566 29.884 47.6991 30.32 47.4019L47.1059 35.9532C47.6496 35.5819 47.9787 34.9847 48.0003 34.3228C48.0209 33.6975 47.7396 33.1013 47.2709 32.6869L47.27 32.686ZM12.2946 36.9666C12.2946 37.3547 11.9796 37.6697 11.5915 37.6697C11.2034 37.6697 10.8884 37.3547 10.8884 36.9666V36.0291C10.8884 35.641 11.2034 35.326 11.5915 35.326C11.9796 35.326 12.2946 35.641 12.2946 36.0291V36.9666Z" fill="#4160FF"/>
</svg>
