<svg width="35" height="35" viewBox="0 0 35 35" fill="none" xmlns="http://www.w3.org/2000/svg">
<path fill-rule="evenodd" clip-rule="evenodd" d="M17.4167 0C7.79792 0 0 7.79792 0 17.4167C0 27.0354 7.79792 34.8333 17.4167 34.8333C27.0354 34.8333 34.8333 27.0354 34.8333 17.4167C34.8333 7.79792 27.0354 0 17.4167 0ZM11.1261 19C11.2755 20.3398 11.802 21.6097 12.6444 22.6622C13.4868 23.7148 14.6105 24.5067 15.885 24.9461C17.1595 25.3854 18.5325 25.4542 19.8446 25.1444C21.1566 24.8346 22.3538 24.1589 23.2972 23.1958C23.4462 23.0481 23.5644 22.8722 23.6448 22.6785C23.7253 22.4847 23.7664 22.2768 23.7658 22.067C23.7652 21.8572 23.723 21.6495 23.6414 21.4562C23.5599 21.2628 23.4408 21.0876 23.2909 20.9407C23.1411 20.7938 22.9636 20.6782 22.7687 20.6005C22.5737 20.5228 22.3653 20.4847 22.1555 20.4883C21.9457 20.4918 21.7387 20.5371 21.5466 20.6213C21.3544 20.7056 21.1809 20.8273 21.0362 20.9792C20.5333 21.4928 19.9 21.8597 19.2044 22.0407C18.5087 22.2217 17.7769 22.2098 17.0875 22.0064C16.3981 21.8029 15.7771 21.4156 15.2912 20.886C14.8052 20.3563 14.4726 19.7043 14.3292 19H17.4167C17.8366 19 18.2393 18.8332 18.5363 18.5363C18.8332 18.2393 19 17.8366 19 17.4167C19 16.9967 18.8332 16.594 18.5363 16.2971C18.2393 16.0002 17.8366 15.8333 17.4167 15.8333H14.3292C14.4726 15.129 14.8052 14.477 15.2912 13.9474C15.7771 13.4177 16.3981 13.0304 17.0875 12.827C17.7769 12.6235 18.5087 12.6117 19.2044 12.7926C19.9 12.9736 20.5333 13.3406 21.0362 13.8542C21.1809 14.0061 21.3544 14.1277 21.5466 14.212C21.7387 14.2963 21.9457 14.3415 22.1555 14.3451C22.3653 14.3487 22.5737 14.3105 22.7687 14.2328C22.9636 14.1551 23.1411 14.0395 23.2909 13.8926C23.4408 13.7457 23.5599 13.5705 23.6414 13.3771C23.723 13.1838 23.7652 12.9762 23.7658 12.7664C23.7664 12.5565 23.7253 12.3487 23.6448 12.1549C23.5644 11.9611 23.4462 11.7852 23.2972 11.6375C22.3538 10.6744 21.1566 9.99874 19.8446 9.68893C18.5325 9.37912 17.1595 9.44789 15.885 9.88726C14.6105 10.3266 13.4868 11.1186 12.6444 12.1711C11.802 13.2236 11.2755 14.4935 11.1261 15.8333H9.5C9.08008 15.8333 8.67735 16.0002 8.38041 16.2971C8.08348 16.594 7.91667 16.9967 7.91667 17.4167C7.91667 17.8366 8.08348 18.2393 8.38041 18.5363C8.67735 18.8332 9.08008 19 9.5 19H11.1261Z" fill="#4160FF"/>
</svg>
