<svg width="35" height="35" viewBox="0 0 35 35" fill="none" xmlns="http://www.w3.org/2000/svg">
<rect width="34.83" height="34.83" rx="17.415" fill="#4160FF"/>
<path d="M23.6373 23.8143H14.3039C14.8129 23.1238 15.0863 22.2798 15.0817 21.4131V19.012H19.7484C19.9547 19.012 20.1525 18.9276 20.2983 18.7775C20.4442 18.6274 20.5262 18.4239 20.5262 18.2116C20.5262 17.9993 20.4442 17.7957 20.2983 17.6456C20.1525 17.4955 19.9547 17.4112 19.7484 17.4112H15.0817V14.922C15.081 14.0595 15.3573 13.2208 15.8675 12.5365C16.3777 11.8521 17.0933 11.3604 17.9031 11.1377C18.7128 10.915 19.5714 10.9738 20.3454 11.305C21.1193 11.6362 21.7653 12.2212 22.1828 12.9691C22.2343 13.0601 22.3027 13.1398 22.3841 13.2036C22.4656 13.2674 22.5585 13.314 22.6575 13.3408C22.7565 13.3675 22.8596 13.3739 22.961 13.3596C23.0624 13.3453 23.1601 13.3105 23.2484 13.2572C23.4263 13.1516 23.5564 12.9779 23.6103 12.774C23.6642 12.5701 23.6376 12.3525 23.5362 12.1687C22.9448 11.1186 22.0339 10.2983 20.9441 9.83438C19.8543 9.3705 18.6463 9.28895 17.507 9.60234C16.3676 9.91573 15.3603 10.6066 14.6408 11.5681C13.9212 12.5297 13.5295 13.7084 13.5262 14.922V17.4112H11.1928C10.9865 17.4112 10.7887 17.4955 10.6428 17.6456C10.497 17.7957 10.415 17.9993 10.415 18.2116C10.415 18.4239 10.497 18.6274 10.6428 18.7775C10.7887 18.9276 10.9865 19.012 11.1928 19.012H13.5262V21.4131C13.5262 22.0499 13.2803 22.6607 12.8427 23.111C12.4051 23.5613 11.8117 23.8143 11.1928 23.8143C10.9865 23.8143 10.7887 23.8986 10.6428 24.0487C10.497 24.1988 10.415 24.4024 10.415 24.6147C10.415 24.8269 10.497 25.0305 10.6428 25.1806C10.7887 25.3307 10.9865 25.415 11.1928 25.415H23.6373C23.8435 25.415 24.0414 25.3307 24.1872 25.1806C24.3331 25.0305 24.415 24.8269 24.415 24.6147C24.415 24.4024 24.3331 24.1988 24.1872 24.0487C24.0414 23.8986 23.8435 23.8143 23.6373 23.8143Z" fill="#E3EBFF" stroke="#E3EBFF"/>
</svg>
