<svg width="35" height="35" viewBox="0 0 35 35" fill="none" xmlns="http://www.w3.org/2000/svg">
<path d="M17.1007 2.66359e-05C14.1425 -0.00432078 11.2338 0.759953 8.65985 2.21796C6.08586 3.67596 3.93481 5.77767 2.41749 8.31715C0.900165 10.8566 0.0686209 13.7467 0.00434009 16.7043C-0.0599407 19.6618 0.645247 22.5853 2.0508 25.1883L0.0805024 31.7528C-0.00485045 32.0366 -0.0226292 32.3365 0.0285873 32.6284C0.0798039 32.9203 0.198595 33.1962 0.375467 33.434C0.552339 33.6718 0.782386 33.8649 1.04722 33.9979C1.31206 34.1309 1.60434 34.2001 1.9007 34.2C2.08598 34.1997 2.27026 34.1729 2.4479 34.1202L9.0124 32.1499C11.3036 33.3859 13.8468 34.0824 16.4481 34.1864C19.0494 34.2903 21.64 33.799 24.0226 32.7498C26.4051 31.7006 28.5167 30.1212 30.1962 28.1321C31.8758 26.143 33.079 23.7967 33.7141 21.272C34.3493 18.7474 34.3996 16.111 33.8613 13.5639C33.3229 11.0169 32.2102 8.62633 30.6077 6.57458C29.0053 4.52284 26.9556 2.86405 24.6148 1.72468C22.2741 0.585306 19.704 -0.00456794 17.1007 2.66359e-05ZM17.1007 7.60003C17.4765 7.60003 17.8438 7.71146 18.1563 7.92023C18.4687 8.12901 18.7123 8.42575 18.8561 8.77293C18.9999 9.12011 19.0375 9.50213 18.9642 9.8707C18.8909 10.2393 18.7099 10.5778 18.4442 10.8435C18.1785 11.1092 17.8399 11.2902 17.4714 11.3635C17.1028 11.4368 16.7208 11.3992 16.3736 11.2554C16.0264 11.1116 15.7297 10.8681 15.5209 10.5556C15.3121 10.2432 15.2007 9.87581 15.2007 9.50003C15.2007 8.99612 15.4009 8.51284 15.7572 8.15652C16.1135 7.80021 16.5968 7.60003 17.1007 7.60003ZM19.0007 26.6H17.1007C16.5968 26.6 16.1135 26.3999 15.7572 26.0435C15.4009 25.6872 15.2007 25.2039 15.2007 24.7V17.1C14.6968 17.1 14.2135 16.8998 13.8572 16.5435C13.5009 16.1872 13.3007 15.7039 13.3007 15.2C13.3007 14.6961 13.5009 14.2128 13.8572 13.8565C14.2135 13.5002 14.6968 13.3 15.2007 13.3H17.1007C17.6046 13.3 18.0879 13.5002 18.4442 13.8565C18.8005 14.2128 19.0007 14.6961 19.0007 15.2V22.8C19.5046 22.8 19.9879 23.0002 20.3442 23.3565C20.7005 23.7128 20.9007 24.1961 20.9007 24.7C20.9007 25.2039 20.7005 25.6872 20.3442 26.0435C19.9879 26.3999 19.5046 26.6 19.0007 26.6Z" fill="#4160FF"/>
</svg>
