<svg width="43" height="43" viewBox="0 0 43 43" fill="none" xmlns="http://www.w3.org/2000/svg">
<path d="M39.7969 4.79719H39.7294V1.17188C39.7294 0.525 39.2044 0 38.5575 0C37.9106 0 37.3856 0.525 37.3856 1.17188V4.79719H37.3181C35.6381 4.79719 34.2712 6.16406 34.2712 7.84406V31.4156C34.2712 33.0956 35.6381 34.4625 37.3181 34.4625H37.3856V38.0878C37.3856 38.7347 37.9106 39.2597 38.5575 39.2597C39.2044 39.2597 39.7294 38.7347 39.7294 38.0878V34.4625H39.7969C41.4769 34.4625 42.8438 33.0956 42.8438 31.4156V7.84406C42.8438 6.16406 41.4769 4.79719 39.7969 4.79719ZM28.3734 16.1625H28.3059V14.3653C28.3059 13.7184 27.7809 13.1934 27.1341 13.1934C26.4872 13.1934 25.9622 13.7184 25.9622 14.3653V16.1625H25.8947C24.2147 16.1625 22.8478 17.5294 22.8478 19.2094V36.8269C22.8478 38.5069 24.2147 39.8737 25.8947 39.8737H25.9622V41.6709C25.9622 42.3178 26.4872 42.8428 27.1341 42.8428C27.7809 42.8428 28.3059 42.3178 28.3059 41.6709V39.8737H28.3734C30.0534 39.8737 31.4203 38.5069 31.4203 36.8269V19.2094C31.4203 17.5294 30.0534 16.1625 28.3734 16.1625ZM16.95 12.3009H16.8825V9.87C16.8825 9.22312 16.3575 8.69812 15.7106 8.69812C15.0638 8.69812 14.5387 9.22312 14.5387 9.87V12.3009H14.4713C12.7913 12.3009 11.4244 13.6678 11.4244 15.3478V26.1431C11.4244 27.8231 12.7913 29.19 14.4713 29.19H14.5387V31.6209C14.5387 32.2678 15.0638 32.7928 15.7106 32.7928C16.3575 32.7928 16.8825 32.2678 16.8825 31.6209V29.19H16.95C18.63 29.19 19.9969 27.8231 19.9969 26.1431V15.3478C19.9969 13.6678 18.63 12.3009 16.95 12.3009ZM5.52563 5.3475H5.45813V1.17188C5.45813 0.525 4.93313 0 4.28625 0C3.63938 0 3.11438 0.525 3.11438 1.17188V5.3475H3.04688C1.36687 5.3475 0 6.71438 0 8.39437V30.1556C0 31.8356 1.36687 33.2025 3.04688 33.2025H3.11438V37.3781C3.11438 38.025 3.63938 38.55 4.28625 38.55C4.93313 38.55 5.45813 38.025 5.45813 37.3781V33.2025H5.52563C7.20563 33.2025 8.5725 31.8356 8.5725 30.1556V8.39437C8.5725 6.71438 7.20563 5.3475 5.52563 5.3475Z" fill="#4160FF"/>
</svg>
