<svg width="43" height="31" viewBox="0 0 43 31" fill="none" xmlns="http://www.w3.org/2000/svg">
<path d="M27.5 0C24.4344 0 21.4376 0.909059 18.8887 2.61222C16.3397 4.31538 14.353 6.73615 13.1799 9.56841C12.0067 12.4007 11.6998 15.5172 12.2978 18.5239C12.8959 21.5306 14.3721 24.2924 16.5399 26.4602C18.7076 28.6279 21.4694 30.1041 24.4761 30.7022C27.4828 31.3002 30.5993 30.9933 33.4316 29.8201C36.2639 28.647 38.6846 26.6603 40.3878 24.1113C42.0909 21.5624 43 18.5656 43 15.5C42.9947 11.3908 41.36 7.45136 38.4543 4.54569C35.5487 1.64002 31.6092 0.005292 27.5 0ZM32.56 20.56C32.2788 20.8409 31.8975 20.9987 31.5 20.9987C31.1025 20.9987 30.7213 20.8409 30.44 20.56L26.44 16.56C26.1586 16.279 26.0004 15.8977 26 15.5V7.5C26 7.10218 26.158 6.72064 26.4393 6.43934C26.7207 6.15804 27.1022 6 27.5 6C27.8978 6 28.2794 6.15804 28.5607 6.43934C28.842 6.72064 29 7.10218 29 7.5V14.88L32.56 18.44C32.8409 18.7213 32.9987 19.1025 32.9987 19.5C32.9987 19.8975 32.8409 20.2787 32.56 20.56Z" fill="#4160FF"/>
<path d="M13.5 5H7.5C7.10218 5 6.72064 4.84196 6.43934 4.56066C6.15804 4.27936 6 3.89782 6 3.5C6 3.10218 6.15804 2.72064 6.43934 2.43934C6.72064 2.15804 7.10218 2 7.5 2H13.5C13.8978 2 14.2794 2.15804 14.5607 2.43934C14.842 2.72064 15 3.10218 15 3.5C15 3.89782 14.842 4.27936 14.5607 4.56066C14.2794 4.84196 13.8978 5 13.5 5ZM9.5 11H3.5C3.10218 11 2.72064 10.842 2.43934 10.5607C2.15804 10.2794 2 9.89782 2 9.5C2 9.10218 2.15804 8.72064 2.43934 8.43934C2.72064 8.15804 3.10218 8 3.5 8H9.5C9.89782 8 10.2794 8.15804 10.5607 8.43934C10.842 8.72064 11 9.10218 11 9.5C11 9.89782 10.842 10.2794 10.5607 10.5607C10.2794 10.842 9.89782 11 9.5 11ZM9.5 23H3.5C3.10218 23 2.72064 22.842 2.43934 22.5607C2.15804 22.2794 2 21.8978 2 21.5C2 21.1022 2.15804 20.7206 2.43934 20.4393C2.72064 20.158 3.10218 20 3.5 20H9.5C9.89782 20 10.2794 20.158 10.5607 20.4393C10.842 20.7206 11 21.1022 11 21.5C11 21.8978 10.842 22.2794 10.5607 22.5607C10.2794 22.842 9.89782 23 9.5 23ZM9.5 17H1.5C1.10218 17 0.720644 16.842 0.43934 16.5607C0.158035 16.2794 0 15.8978 0 15.5C0 15.1022 0.158035 14.7206 0.43934 14.4393C0.720644 14.158 1.10218 14 1.5 14H9.5C9.89782 14 10.2794 14.158 10.5607 14.4393C10.842 14.7206 11 15.1022 11 15.5C11 15.8978 10.842 16.2794 10.5607 16.5607C10.2794 16.842 9.89782 17 9.5 17ZM13.5 29H7.5C7.10218 29 6.72064 28.842 6.43934 28.5607C6.15804 28.2794 6 27.8978 6 27.5C6 27.1022 6.15804 26.7206 6.43934 26.4393C6.72064 26.158 7.10218 26 7.5 26H13.5C13.8978 26 14.2794 26.158 14.5607 26.4393C14.842 26.7206 15 27.1022 15 27.5C15 27.8978 14.842 28.2794 14.5607 28.5607C14.2794 28.842 13.8978 29 13.5 29Z" fill="#4160FF"/>
</svg>
