<svg width="29" height="36" viewBox="0 0 29 36" fill="none" xmlns="http://www.w3.org/2000/svg">
<path d="M5.93707 1.88812L1.8877 5.9375H5.93707V1.88812Z" fill="#4160FF"/>
<path d="M4.75 26.125V23.75H9.5V20.1875H4.75V17.8125H9.86813C10.0774 17.3922 10.3677 17.0174 10.7223 16.7097C11.0769 16.402 11.4888 16.1674 11.9344 16.0194L19.0594 13.6444C19.7901 13.391 20.5849 13.391 21.3156 13.6444H21.375V1.1875C21.375 0.872555 21.2499 0.57051 21.0272 0.347811C20.8045 0.125111 20.5024 0 20.1875 0H8.3125V7.125C8.3125 7.43994 8.18739 7.74199 7.96469 7.96469C7.74199 8.18739 7.43994 8.3125 7.125 8.3125H0V29.6875C0 30.0024 0.125111 30.3045 0.347811 30.5272C0.57051 30.7499 0.872555 30.875 1.1875 30.875H11.0081C10.2607 29.3874 9.78232 27.7793 9.595 26.125H4.75ZM4.75 11.875H14.25V14.25H4.75V11.875Z" fill="#4160FF"/>
<path d="M27.6927 18.2638L20.5677 15.8888C20.3193 15.8175 20.056 15.8175 19.8077 15.8888L12.6827 18.2638C12.4468 18.3434 12.2419 18.4952 12.097 18.6977C11.9521 18.9001 11.8745 19.143 11.8752 19.3919V24.5575C11.8623 27.0029 12.6224 29.3898 14.047 31.3774C15.4716 33.365 17.4878 34.8516 19.8077 35.625C20.0542 35.7083 20.3212 35.7083 20.5677 35.625C22.8875 34.8516 24.9037 33.365 26.3283 31.3774C27.7529 29.3898 28.513 27.0029 28.5002 24.5575V19.3919C28.5008 19.143 28.4232 18.9001 28.2783 18.6977C28.1334 18.4952 27.9285 18.3434 27.6927 18.2638ZM20.2708 26.8613C20.0483 27.0825 19.7473 27.2066 19.4336 27.2066C19.1199 27.2066 18.8189 27.0825 18.5964 26.8613L16.2927 24.5694L17.967 22.8832L19.4395 24.3438L22.4083 21.375L24.0827 23.0613L20.2708 26.8613Z" fill="#4160FF"/>
</svg>
