<svg width="38" height="33" viewBox="0 0 38 33" fill="none" xmlns="http://www.w3.org/2000/svg">
<path d="M18.9986 6.16043C19.6135 6.16043 20.112 5.66196 20.112 5.0471V1.11333C20.112 0.498476 19.6135 0 18.9986 0C18.3838 0 17.8853 0.498476 17.8853 1.11333V5.0471C17.8853 5.66196 18.3838 6.16043 18.9986 6.16043ZM12.8581 8.05176C13.2928 8.48655 13.9978 8.48663 14.4326 8.05176C14.8674 7.61697 14.8674 6.91208 14.4326 6.47729L11.651 3.69567C11.2163 3.26087 10.5113 3.26087 10.0766 3.69567C9.64176 4.13046 9.64176 4.83535 10.0766 5.27014L12.8581 8.05176ZM24.3519 8.37782C24.6369 8.37782 24.9218 8.26916 25.1391 8.05169L27.9207 5.27006C28.3555 4.83527 28.3555 4.13038 27.9207 3.69559C27.486 3.2608 26.7811 3.2608 26.3463 3.69559L23.5646 6.47721C22.8612 7.18062 23.369 8.37782 24.3519 8.37782ZM28.7238 20.7822L25.999 12.063C25.9283 11.8366 25.787 11.6386 25.5959 11.4981C25.4047 11.3576 25.1737 11.2818 24.9364 11.2818H13.0609C12.8236 11.2818 12.5926 11.3576 12.4014 11.4981C12.2103 11.6386 12.069 11.8366 11.9982 12.063L9.27347 20.7822H28.7238ZM35.4316 23.0088H22.786C19.8997 32.245 20.112 31.5102 20.112 31.6908C20.112 32.1428 20.4783 32.5093 20.9304 32.5093H36.8601C37.6646 32.5093 38.1672 31.7629 37.9488 31.0639L35.4316 23.0088ZM17.8481 31.4467L15.2112 23.0088H2.56565L0.0560535 31.0395C-0.183535 31.8061 0.378029 32.5093 1.11112 32.5093H17.0669C17.6186 32.5093 18.0126 31.9734 17.8481 31.4467Z" fill="#4160FF"/>
</svg>
