<svg width="40" height="40" viewBox="0 0 40 40" fill="none" xmlns="http://www.w3.org/2000/svg">
<path d="M31.1434 22.2589C29.6299 22.2582 28.1415 22.6457 26.8205 23.3843C25.4995 24.1229 24.39 25.1879 23.5981 26.4777L17.1301 23.1386C17.9068 21.1007 17.9068 18.8484 17.1301 16.8105L23.5981 13.4714C24.7589 15.3573 26.5855 16.7386 28.7162 17.3421C30.8469 17.9455 33.1265 17.7271 35.1039 16.7301C37.0813 15.733 38.6123 14.03 39.394 11.958C40.1757 9.88608 40.151 7.59615 39.325 5.54147C38.4989 3.48678 36.9317 1.81706 34.9333 0.862756C32.935 -0.0915487 30.6512 -0.260897 28.5339 0.388227C26.4167 1.03735 24.6203 2.45764 23.5002 4.36802C22.3801 6.2784 22.018 8.53964 22.4856 10.7042L15.6145 14.2519C14.4421 12.8673 12.8728 11.8762 11.1188 11.4125C9.36477 10.9488 7.51067 11.0349 5.80722 11.6592C4.10376 12.2836 2.63311 13.4159 1.59415 14.9033C0.555197 16.3906 -0.00195313 18.1611 -0.00195312 19.9753C-0.00195313 21.7896 0.555197 23.5601 1.59415 25.0474C2.63311 26.5347 4.10376 27.6671 5.80722 28.2914C7.51067 28.9158 9.36477 29.0019 11.1188 28.5382C12.8728 28.0745 14.4421 27.0834 15.6145 25.6988L22.4856 29.2464C22.0982 31.0372 22.2757 32.9039 22.9936 34.5896C23.7115 36.2752 24.9344 37.6967 26.494 38.6583C28.0535 39.6198 29.8729 40.0741 31.7014 39.9585C33.5299 39.8428 35.2775 39.163 36.7035 38.0126C38.1295 36.8623 39.1636 35.298 39.6634 33.5354C40.1632 31.7727 40.1041 29.8984 39.4943 28.1708C38.8844 26.4431 37.7537 24.9471 36.2581 23.8889C34.7625 22.8307 32.9755 22.2623 31.1434 22.2621V22.2589ZM31.0887 2.99409C31.6041 2.99394 32.108 3.14667 32.5367 3.43298C32.9653 3.71928 33.2993 4.12628 33.4966 4.60249C33.6939 5.0787 33.7454 5.60272 33.6448 6.10825C33.5442 6.61377 33.2958 7.07809 32.9313 7.44246C32.5667 7.80682 32.1022 8.05486 31.5966 8.1552C31.091 8.25553 30.567 8.20364 30.0909 8.0061C29.6149 7.80856 29.2081 7.47425 28.922 7.04546C28.636 6.61667 28.4835 6.11266 28.484 5.59722C28.4844 4.90668 28.759 4.24457 29.2474 3.75644C29.7359 3.2683 30.3981 2.99409 31.0887 2.99409ZM26.841 10.6152V10.6035C26.88 10.2382 27.0436 9.89744 27.3043 9.63862C27.5658 9.37629 27.9089 9.21094 28.277 9.16987C28.8152 9.11284 30.4551 9.08159 31.2879 9.08237C32.1207 9.08315 33.459 9.11284 33.9981 9.16987C34.3659 9.21111 34.7087 9.37645 34.9699 9.63862C35.2305 9.89783 35.3941 10.2388 35.4332 10.6042V10.6152C35.4602 10.8441 35.4738 11.0745 35.4738 11.305C35.4752 11.5837 35.4619 11.8622 35.434 12.1394V12.1503C35.3899 12.534 35.229 12.8948 34.9731 13.1839C34.7211 13.4784 34.3812 13.684 34.0035 13.7707C33.466 13.8925 32.1285 14.0121 31.2895 14.005C30.4527 14.0261 28.8098 13.8957 28.2723 13.7707C27.8947 13.6837 27.5549 13.4781 27.3027 13.1839C27.047 12.8947 26.8861 12.5339 26.8418 12.1503V12.1386C26.8135 11.862 26.8049 11.5837 26.816 11.3058C26.8046 11.0753 26.8129 10.8443 26.841 10.6152ZM8.80196 14.1378C9.31712 14.1378 9.82071 14.2906 10.249 14.5768C10.6774 14.863 11.0112 15.2698 11.2084 15.7458C11.4055 16.2217 11.4571 16.7454 11.3566 17.2507C11.2561 17.7559 11.008 18.22 10.6438 18.5843C10.2795 18.9486 9.81537 19.1967 9.31011 19.2972C8.80485 19.3977 8.28114 19.3461 7.80519 19.1489C7.32925 18.9518 6.92245 18.618 6.63624 18.1896C6.35004 17.7613 6.19727 17.2577 6.19727 16.7425C6.19727 16.0517 6.4717 15.3892 6.96017 14.9007C7.44864 14.4123 8.11116 14.1378 8.80196 14.1378ZM13.1488 23.2824V23.2933C13.1049 23.6772 12.944 24.0383 12.6879 24.3277C12.4357 24.6219 12.0959 24.8275 11.7184 24.9144C11.1809 25.0355 9.84337 25.1558 9.00431 25.1488C8.16759 25.1699 6.52462 25.0402 5.98712 24.9144C5.60928 24.8281 5.26931 24.6224 5.01759 24.3277C4.76167 24.0385 4.60076 23.6777 4.55665 23.2941V23.2832C4.52829 23.0057 4.51967 22.7266 4.53087 22.448C4.51971 22.2177 4.52833 21.9869 4.55665 21.7582V21.7472C4.59575 21.3817 4.75932 21.0408 5.01993 20.7816C5.28136 20.5192 5.62447 20.3538 5.99259 20.3128C6.53087 20.2558 8.17071 20.2246 9.00352 20.2246C9.83634 20.2246 11.1746 20.2558 11.7137 20.3128C12.0816 20.3537 12.4245 20.5191 12.6856 20.7816C12.9463 21.0404 13.1099 21.3811 13.1488 21.7464V21.7582C13.1758 21.9869 13.1894 22.2169 13.1895 22.4472C13.1906 22.7261 13.177 23.0049 13.1488 23.2824ZM31.0887 25.2847C31.6042 25.2846 32.1082 25.4373 32.5368 25.7237C32.9655 26.0101 33.2995 26.4172 33.4967 26.8935C33.694 27.3698 33.7454 27.8939 33.6447 28.3994C33.5439 28.905 33.2954 29.3693 32.9307 29.7336C32.566 30.0979 32.1013 30.3459 31.5957 30.446C31.09 30.5462 30.5659 30.4941 30.0899 30.2963C29.6138 30.0985 29.2071 29.7639 28.9212 29.3349C28.6354 28.9059 28.4832 28.4018 28.484 27.8863C28.4848 27.196 28.7596 26.5343 29.248 26.0465C29.7364 25.5587 30.3984 25.2847 31.0887 25.2847ZM35.4356 34.4253V34.4363C35.3914 34.8199 35.2305 35.1807 34.9746 35.4699C34.7227 35.7643 34.3828 35.97 34.0051 36.0566C33.4676 36.1785 32.1301 36.298 31.291 36.291C30.4543 36.3121 28.8113 36.1816 28.2738 36.0566C27.8963 35.9697 27.5565 35.764 27.3043 35.4699C27.0485 35.1806 26.8876 34.8199 26.8434 34.4363V34.4253C26.8151 34.1487 26.8065 33.8704 26.8176 33.5925C26.8064 33.3623 26.8151 33.1315 26.8434 32.9027V32.891C26.8817 32.5256 27.0448 32.1846 27.3051 31.9253C27.5674 31.6624 27.9117 31.497 28.2809 31.4566C28.8191 31.3996 30.459 31.3683 31.2918 31.3691C32.1246 31.3699 33.4629 31.3996 34.002 31.4566C34.3698 31.4978 34.7126 31.6632 34.9738 31.9253C35.2344 32.1846 35.398 32.5255 35.4371 32.891V32.9019C35.4641 33.1309 35.4777 33.3612 35.4777 33.5917C35.4783 33.8702 35.4642 34.1484 35.4356 34.4253Z" fill="url(#paint0_linear_723_3768)"/>
<defs>
<linearGradient id="paint0_linear_723_3768" x1="37.5471" y1="-1.44652" x2="48.8236" y2="49.6046" gradientUnits="userSpaceOnUse">
<stop stop-color="#4160FF"/>
<stop offset="1" stop-color="#213269"/>
</linearGradient>
</defs>
</svg>
