<svg width="23" height="24" viewBox="0 0 23 24" fill="none" xmlns="http://www.w3.org/2000/svg">
<path fill-rule="evenodd" clip-rule="evenodd" d="M1.75368 16.4361C1.79118 16.6901 1.61554 16.926 1.36265 16.9632C1.10741 17.0004 0.873224 16.8246 0.835771 16.5705C0.798318 16.3169 0.973911 16.0806 1.2268 16.0433C1.48204 16.0066 1.71857 16.1822 1.75368 16.4361ZM14.4063 6.52017C15.6996 7.95539 16.6648 9.2017 17.3016 10.3199C18.5093 12.4403 18.2104 14.5777 17.0264 16.1423L15.9707 16.7572C15.6866 16.9226 15.3972 17.0275 15.0981 17.0788C15.2229 16.9129 15.3194 16.7145 15.3816 16.4843C15.6164 15.6139 15.0954 14.7532 14.2591 14.4633L14.2049 14.4446L14.1486 14.4343C13.9556 14.3988 13.7633 14.3591 13.5721 14.315C13.7428 14.0867 13.843 13.8055 13.8349 13.4668C13.8339 13.4156 13.8306 13.3644 13.8248 13.3135C13.7571 12.7558 13.4554 12.3927 13.0553 12.1512C12.7039 11.939 12.2825 11.8333 11.8961 11.7699C11.6174 11.7241 11.3239 11.6467 11.1089 11.5064C10.9423 11.3976 10.8229 11.2402 10.8117 11.01C10.7996 10.7609 10.9084 10.56 11.0797 10.4207C11.2139 10.3116 11.3851 10.2358 11.5708 10.1984C11.6462 10.1832 11.7229 10.1746 11.7999 10.1727C11.8181 10.1737 11.8364 10.1736 11.8546 10.1723C11.9581 10.1738 12.0611 10.1873 12.1615 10.2126C12.4719 10.2913 12.7544 10.4958 12.9033 10.8503C12.9461 10.9523 13.0277 11.0332 13.1302 11.0751C13.2326 11.117 13.3475 11.1165 13.4496 11.0737C13.5517 11.0308 13.6326 10.9492 13.6745 10.8467C13.7164 10.7443 13.7159 10.6294 13.6731 10.5273C13.411 9.90323 12.9121 9.54267 12.3637 9.40364C12.3235 9.39347 12.283 9.38452 12.2422 9.37678V9.05325C12.2422 8.94252 12.1983 8.83632 12.12 8.75802C12.0417 8.67972 11.9355 8.63573 11.8247 8.63573C11.714 8.63573 11.6078 8.67972 11.5295 8.75802C11.4512 8.83632 11.4072 8.94252 11.4072 9.05325V9.38302C11.0909 9.44681 10.7938 9.58031 10.5546 9.77484C10.1868 10.0738 9.95366 10.5079 9.97996 11.0491C10.0063 11.5929 10.2777 11.9577 10.6555 12.2044C10.9849 12.4194 11.3893 12.5306 11.7623 12.5918C12.0619 12.641 12.3817 12.7188 12.6248 12.8655C12.8191 12.9828 12.9651 13.1543 12.9964 13.4113C13.0005 13.4456 13.0027 13.4705 13.0031 13.4864C13.0079 13.6907 12.9102 13.8464 12.7634 13.9578C12.7119 13.9964 12.6569 14.0302 12.5991 14.0587C11.5207 13.7415 10.5188 13.3303 9.45383 12.9848C8.34205 12.624 7.30597 13.0323 6.34546 13.5887L5.69127 13.9678C5.4831 12.8265 5.67065 11.5703 6.38277 10.3199C7.01961 9.2018 7.98482 7.95544 9.27814 6.52027C9.4444 6.57441 9.61817 6.60194 9.79302 6.60183H13.8914C14.0663 6.60188 14.24 6.57432 14.4063 6.52017ZM9.79297 5.85178H13.8914C14.3967 5.85178 14.8101 5.43834 14.8101 4.93317C14.8101 4.42786 14.3968 4.01452 13.8914 4.01452H9.79297C9.28766 4.01452 8.87432 4.42786 8.87432 4.93313C8.87427 5.43839 9.28766 5.85178 9.79297 5.85178ZM9.75955 3.26489L9.005 2.51034C8.63788 2.14322 8.63788 1.54242 9.005 1.1753C9.31729 0.863016 9.81158 0.810234 10.1832 1.04873C10.3212 1.13733 10.4797 1.15144 10.6312 1.08877C10.7827 1.026 10.8847 0.903984 10.9198 0.743719C11.0123 0.319922 11.3917 9.375e-05 11.8423 0C12.2847 0 12.6705 0.311859 12.7648 0.743719C12.7998 0.903984 12.9019 1.026 13.0533 1.08877C13.2048 1.15153 13.3633 1.13733 13.5013 1.04873C13.8663 0.814453 14.3608 0.856687 14.6795 1.1752V1.1753C15.0466 1.54242 15.0466 2.14322 14.6795 2.51034L13.9249 3.26489C13.9138 3.26463 13.9026 3.26449 13.8914 3.26447H9.79302C9.78182 3.26447 9.77066 3.2647 9.75955 3.26489ZM3.25091 16.2482L5.75272 20.663L6.69407 20.1197C6.73933 20.0935 6.78932 20.0766 6.84117 20.0698C6.89302 20.063 6.9457 20.0665 6.99618 20.0802L12.9081 21.3822C13.6903 21.5914 14.4256 21.4881 15.0976 21.075L22.2768 16.6132C22.6678 16.3734 22.7872 15.6695 22.518 15.2187C22.1269 14.5658 21.0919 14.6429 19.7478 15.4253L16.3482 17.4053C15.641 17.8184 14.8776 17.952 14.0181 17.8144C13.8632 17.7895 13.7086 17.7623 13.5545 17.7329C13.5217 17.7305 10.6625 16.9873 10.3347 16.899C10.1216 16.8423 9.9951 16.6245 10.0536 16.4131C10.1098 16.2009 10.3276 16.0754 10.5384 16.1321C10.8733 16.2218 12.9012 16.7966 13.6622 16.9447C14.051 16.9695 14.5029 16.8613 14.6575 16.289C14.7839 15.8197 14.5076 15.3432 14.0135 15.172C12.6249 14.9177 11.283 14.4332 10.2058 14.0431C9.82883 13.907 9.50333 13.7895 9.22232 13.6981C8.33713 13.4111 7.49647 13.7879 6.72135 14.2377L3.25091 16.2482ZM5.66202 22.122L1.83561 15.3607C1.79816 15.2947 1.73727 15.2473 1.66232 15.2265C1.63711 15.2197 1.61112 15.2163 1.58502 15.2162C1.53659 15.2161 1.48897 15.2286 1.44688 15.2525L0.14488 15.989C0.00673968 16.067 -0.0401354 16.2419 0.0371146 16.3789L3.86352 23.1401C3.94082 23.2776 4.11646 23.3258 4.25225 23.2483L5.55425 22.5116C5.61983 22.4744 5.66666 22.4128 5.68771 22.339C5.69818 22.303 5.7013 22.2652 5.69688 22.2279C5.69247 22.1906 5.68062 22.1546 5.66202 22.122Z" fill="#747474"/>
</svg>
