<svg width="75" height="75" viewBox="0 0 75 75" fill="none" xmlns="http://www.w3.org/2000/svg">
<path d="M73.375 28.7901L55 34.5276V29.9776H56.25C56.5815 29.9776 56.8995 29.846 57.1339 29.6115C57.3683 29.3771 57.5 29.0592 57.5 28.7276V23.7276C57.5 23.3961 57.3683 23.0782 57.1339 22.8438C56.8995 22.6093 56.5815 22.4776 56.25 22.4776H48.1C49.7536 20.4646 50.8013 18.0232 51.121 15.4377C51.4408 12.8523 51.0195 10.2292 49.9062 7.87389C48.7928 5.51861 47.0333 3.52808 44.8325 2.13408C42.6317 0.740089 40.0802 0 37.475 0C34.8699 0 32.3183 0.740089 30.1175 2.13408C27.9167 3.52808 26.1572 5.51861 25.0438 7.87389C23.9305 10.2292 23.5092 12.8523 23.829 15.4377C24.1487 18.0232 25.1964 20.4646 26.85 22.4776H18.75C18.4185 22.4776 18.1005 22.6093 17.8661 22.8438C17.6317 23.0782 17.5 23.3961 17.5 23.7276V28.7276C17.5 29.0592 17.6317 29.3771 17.8661 29.6115C18.1005 29.846 18.4185 29.9776 18.75 29.9776H20V34.5276L1.625 28.7901C1.43881 28.7302 1.24115 28.7149 1.04793 28.7453C0.854709 28.7757 0.671318 28.851 0.512504 28.9652C0.353257 29.0815 0.223807 29.2339 0.134733 29.4099C0.0456601 29.5859 -0.000507474 29.7804 4.20726e-06 29.9776V73.7277C4.20726e-06 74.0592 0.1317 74.3771 0.366121 74.6115C0.600541 74.846 0.918484 74.9777 1.25 74.9777H73.75C74.0815 74.9777 74.3995 74.846 74.6339 74.6115C74.8683 74.3771 75 74.0592 75 73.7277V29.9776C75.0005 29.7804 74.9543 29.5859 74.8653 29.4099C74.7762 29.2339 74.6468 29.0815 74.4875 28.9652C74.3287 28.851 74.1453 28.7757 73.9521 28.7453C73.7589 28.7149 73.5612 28.7302 73.375 28.7901ZM7.5 69.9777H5V67.4777H7.5V69.9777ZM7.5 64.9777H5V62.4776H7.5V64.9777ZM7.5 59.9776H5V57.4776H7.5V59.9776ZM7.5 54.9776H5V52.4776H7.5V54.9776ZM7.5 49.9776H5V47.4776H7.5V49.9776ZM7.5 44.9776H5V42.4776H7.5V44.9776ZM7.5 39.9776H5V37.4776H7.5V39.9776ZM12.5 69.9777H10V67.4777H12.5V69.9777ZM12.5 64.9777H10V62.4776H12.5V64.9777ZM12.5 59.9776H10V57.4776H12.5V59.9776ZM12.5 54.9776H10V52.4776H12.5V54.9776ZM12.5 49.9776H10V47.4776H12.5V49.9776ZM12.5 44.9776H10V42.4776H12.5V44.9776ZM12.5 39.9776H10V37.4776H12.5V39.9776ZM17.5 69.9777H15V67.4777H17.5V69.9777ZM17.5 64.9777H15V62.4776H17.5V64.9777ZM17.5 59.9776H15V57.4776H17.5V59.9776ZM17.5 54.9776H15V52.4776H17.5V54.9776ZM17.5 49.9776H15V47.4776H17.5V49.9776ZM17.5 44.9776H15V42.4776H17.5V44.9776ZM17.5 39.9776H15V37.4776H17.5V39.9776ZM33.75 17.4776H38.75V14.9777H35C34.6685 14.9777 34.3505 14.846 34.1161 14.6115C33.8817 14.3771 33.75 14.0592 33.75 13.7277V8.72765C33.75 8.39613 33.8817 8.07819 34.1161 7.84377C34.3505 7.60935 34.6685 7.47765 35 7.47765H36.25V4.97765H38.75V7.47765H41.25V9.97765H36.25V12.4777H40C40.3315 12.4777 40.6495 12.6093 40.8839 12.8438C41.1183 13.0782 41.25 13.3961 41.25 13.7277V18.7276C41.25 19.0592 41.1183 19.3771 40.8839 19.6115C40.6495 19.846 40.3315 19.9776 40 19.9776H38.75V22.4776H36.25V19.9776H33.75V17.4776ZM20 24.9776H29.625C31.9286 26.6048 34.6797 27.4784 37.5 27.4784C40.3203 27.4784 43.0714 26.6048 45.375 24.9776H55V27.4776H20V24.9776ZM52.5 72.4777H45V53.7276C45 53.3961 44.8683 53.0782 44.6339 52.8438C44.3995 52.6093 44.0815 52.4776 43.75 52.4776H31.25C30.9185 52.4776 30.6005 52.6093 30.3661 52.8438C30.1317 53.0782 30 53.3961 30 53.7276V72.4777H22.5V29.9776H52.5V72.4777ZM60 69.9777H57.5V67.4777H60V69.9777ZM60 64.9777H57.5V62.4776H60V64.9777ZM60 59.9776H57.5V57.4776H60V59.9776ZM60 54.9776H57.5V52.4776H60V54.9776ZM60 49.9776H57.5V47.4776H60V49.9776ZM60 44.9776H57.5V42.4776H60V44.9776ZM60 39.9776H57.5V37.4776H60V39.9776ZM65 69.9777H62.5V67.4777H65V69.9777ZM65 64.9777H62.5V62.4776H65V64.9777ZM65 59.9776H62.5V57.4776H65V59.9776ZM65 54.9776H62.5V52.4776H65V54.9776ZM65 49.9776H62.5V47.4776H65V49.9776ZM65 44.9776H62.5V42.4776H65V44.9776ZM65 39.9776H62.5V37.4776H65V39.9776ZM70 69.9777H67.5V67.4777H70V69.9777ZM70 64.9777H67.5V62.4776H70V64.9777ZM70 59.9776H67.5V57.4776H70V59.9776ZM70 54.9776H67.5V52.4776H70V54.9776ZM70 49.9776H67.5V47.4776H70V49.9776ZM70 44.9776H67.5V42.4776H70V44.9776ZM70 39.9776H67.5V37.4776H70V39.9776Z" fill="url(#paint0_linear_305_1135)"/>
<path d="M25 32.4777H30V34.9777H25V32.4777ZM35 32.4777H40V34.9777H35V32.4777ZM45 32.4777H50V34.9777H45V32.4777ZM25 37.4777H30V39.9777H25V37.4777ZM35 37.4777H40V39.9777H35V37.4777ZM45 37.4777H50V39.9777H45V37.4777ZM25 42.4777H30V44.9777H25V42.4777ZM35 42.4777H40V44.9777H35V42.4777ZM45 42.4777H50V44.9777H45V42.4777ZM25 47.4777H30V49.9777H25V47.4777ZM35 47.4777H40V49.9777H35V47.4777ZM45 47.4777H50V49.9777H45V47.4777ZM25 52.4777H27.5V54.9777H25V52.4777ZM25 57.4777H27.5V59.9777H25V57.4777ZM25 62.4777H27.5V64.9777H25V62.4777ZM25 67.4777H27.5V69.9777H25V67.4777ZM47.5 52.4777H50V54.9777H47.5V52.4777ZM47.5 57.4777H50V59.9777H47.5V57.4777ZM47.5 62.4777H50V64.9777H47.5V62.4777ZM47.5 67.4777H50V69.9777H47.5V67.4777Z" fill="url(#paint1_linear_305_1135)"/>
<defs>
<linearGradient id="paint0_linear_305_1135" x1="70.4022" y1="-2.71303" x2="91.5582" y2="93.0335" gradientUnits="userSpaceOnUse">
<stop stop-color="#4160FF"/>
<stop offset="1" stop-color="#213269"/>
</linearGradient>
<linearGradient id="paint1_linear_305_1135" x1="48.4674" y1="31.1207" x2="63.47" y2="76.3724" gradientUnits="userSpaceOnUse">
<stop stop-color="#4160FF"/>
<stop offset="1" stop-color="#213269"/>
</linearGradient>
</defs>
</svg>
