<svg width="23" height="23" viewBox="0 0 23 23" fill="none" xmlns="http://www.w3.org/2000/svg">
<path d="M22.5 11.25C22.5 12.21 21.3206 13.0012 21.0844 13.8862C20.8406 14.8012 21.4575 16.0763 20.9944 16.8769C20.5238 17.6906 19.1081 17.7881 18.4481 18.4481C17.7881 19.1081 17.6906 20.5238 16.8769 20.9944C16.0763 21.4575 14.8012 20.8406 13.8862 21.0844C13.0012 21.3206 12.21 22.5 11.25 22.5C10.29 22.5 9.49875 21.3206 8.61375 21.0844C7.69875 20.8406 6.42375 21.4575 5.62313 20.9944C4.80938 20.5238 4.71187 19.1081 4.05188 18.4481C3.39188 17.7881 1.97625 17.6906 1.50563 16.8769C1.0425 16.0763 1.65938 14.8012 1.41563 13.8862C1.17938 13.0012 0 12.21 0 11.25C0 10.29 1.17938 9.49875 1.41563 8.61375C1.65938 7.69875 1.0425 6.42375 1.50563 5.62313C1.97625 4.80938 3.39188 4.71187 4.05188 4.05188C4.71187 3.39188 4.80938 1.97625 5.62313 1.50563C6.42375 1.0425 7.69875 1.65938 8.61375 1.41563C9.49875 1.17938 10.29 0 11.25 0C12.21 0 13.0012 1.17938 13.8862 1.41563C14.8012 1.65938 16.0763 1.0425 16.8769 1.50563C17.6906 1.97625 17.7881 3.39188 18.4481 4.05188C19.1081 4.71187 20.5238 4.80938 20.9944 5.62313C21.4575 6.42375 20.8406 7.69875 21.0844 8.61375C21.3206 9.49875 22.5 10.29 22.5 11.25Z" fill="#2568EF"/>
<path d="M14.5021 7.89752L10.2196 12.18L7.99959 9.96189C7.76806 9.73049 7.45412 9.6005 7.12678 9.6005C6.79944 9.6005 6.4855 9.73049 6.25397 9.96189C6.02257 10.1934 5.89258 10.5074 5.89258 10.8347C5.89258 11.162 6.02257 11.476 6.25397 11.7075L9.36834 14.8219C9.5937 15.047 9.89919 15.1734 10.2177 15.1734C10.5362 15.1734 10.8417 15.047 11.0671 14.8219L16.2458 9.64314C16.4772 9.41161 16.6072 9.09767 16.6072 8.77033C16.6072 8.44299 16.4772 8.12904 16.2458 7.89752C16.1314 7.78295 15.9955 7.69207 15.8459 7.63006C15.6963 7.56805 15.5359 7.53613 15.374 7.53613C15.212 7.53613 15.0517 7.56805 14.9021 7.63006C14.7525 7.69207 14.6165 7.78295 14.5021 7.89752Z" fill="#FFFCEE"/>
</svg>
