<svg width="32" height="32" viewBox="0 0 32 32" fill="none" xmlns="http://www.w3.org/2000/svg">
<path d="M31.2225 14.1143L29.04 11.9322C28.522 11.4142 28.0976 10.3906 28.0976 9.65654V6.57054C28.0976 5.10254 26.8983 3.9033 25.4307 3.90252H22.3435C21.6102 3.90252 20.5855 3.47727 20.0674 2.95969L17.8853 0.777613C16.8485 -0.259204 15.1509 -0.259204 14.1141 0.777613L11.932 2.96125C11.4136 3.47923 10.3876 3.9033 9.65595 3.9033H6.56995C5.10391 3.9033 3.9031 5.10254 3.9031 6.57054V9.65661C3.9031 10.3878 3.47872 11.4146 2.96066 11.9323L0.778199 14.1144C-0.2594 15.1512 -0.2594 16.8488 0.778199 17.8872L2.96066 20.0693C3.47903 20.5873 3.9031 21.6137 3.9031 22.345V25.4311C3.9031 26.8975 5.10391 28.0983 6.56995 28.0983H9.65603C10.3892 28.0983 11.414 28.5227 11.9321 29.0404L14.1142 31.2232C15.151 32.2592 16.8486 32.2592 17.8854 31.2232L20.0675 29.0404C20.5859 28.5224 21.6103 28.0983 22.3435 28.0983H25.4308C26.8984 28.0983 28.0976 26.8975 28.0976 25.4311V22.345C28.0976 21.6106 28.5224 20.587 29.0401 20.0693L31.2225 17.8872C32.2585 16.8488 32.2585 15.1511 31.2225 14.1143ZM13.8829 22.0005L7.9992 16.116L9.88486 14.2307L13.8834 18.2292L22.1143 10.0002L23.9995 11.8855L13.8829 22.0005Z" fill="url(#paint0_linear_624_3092)"/>
<defs>
<linearGradient id="paint0_linear_624_3092" x1="30.0378" y1="-1.15791" x2="39.0698" y2="39.7052" gradientUnits="userSpaceOnUse">
<stop stop-color="#4160FF"/>
<stop offset="1" stop-color="#213269"/>
</linearGradient>
</defs>
</svg>
