<svg width="24" height="24" viewBox="0 0 24 24" fill="none" xmlns="http://www.w3.org/2000/svg">
<g clip-path="url(#clip0_944_10406)">
<path d="M2.11219 14.8509H0V24H2.11219C2.50031 24 2.81531 23.685 2.81531 23.2969V15.5541C2.81531 15.1659 2.50031 14.8509 2.11219 14.8509ZM15.6797 10.7812C18.0703 10.7812 20.0156 8.83594 20.0156 6.44531C20.0156 4.05469 18.0703 2.10938 15.6797 2.10938C13.2891 2.10938 11.3438 4.05469 11.3438 6.44531C11.3438 8.83594 13.2891 10.7812 15.6797 10.7812ZM18.4922 6.09375H18.9609C19.155 6.09375 19.3125 6.25125 19.3125 6.44531C19.3125 6.63938 19.155 6.79688 18.9609 6.79688H18.4922C18.2981 6.79688 18.1406 6.63938 18.1406 6.44531C18.1406 6.25125 18.2981 6.09375 18.4922 6.09375ZM14.6934 4.14141V3.39844C14.6934 3.20438 14.8509 3.04688 15.045 3.04688C15.2391 3.04688 15.3966 3.20438 15.3966 3.39844V4.06266H15.9628V3.39844C15.9628 3.20438 16.1203 3.04688 16.3144 3.04688C16.5084 3.04688 16.6659 3.20438 16.6659 3.39844V4.06266H16.8984C17.0925 4.06266 17.25 4.22016 17.25 4.41422C17.25 4.60828 17.0925 4.76578 16.8984 4.76578H15.1406C14.7919 4.76578 14.5078 5.06344 14.5078 5.43C14.5078 5.79656 14.7919 6.09422 15.1406 6.09422H16.2188C16.9552 6.09422 17.5547 6.70734 17.5547 7.46156C17.5547 8.055 17.1834 8.56078 16.6659 8.74969V9.49266C16.6659 9.68672 16.5084 9.84422 16.3144 9.84422C16.1203 9.84422 15.9628 9.68672 15.9628 9.49266V8.82844H15.3966V9.49266C15.3966 9.68672 15.2391 9.84422 15.045 9.84422C14.8509 9.84422 14.6934 9.68672 14.6934 9.49266V8.82844H14.4609C14.2669 8.82844 14.1094 8.67094 14.1094 8.47687C14.1094 8.28281 14.2669 8.12531 14.4609 8.12531H16.2188C16.5675 8.12531 16.8516 7.82766 16.8516 7.46109C16.8516 7.09453 16.5675 6.79688 16.2188 6.79688H15.1406C14.4042 6.79688 13.8047 6.18375 13.8047 5.42953C13.8047 4.83609 14.1759 4.33031 14.6934 4.14141ZM12.0469 6.44531C12.0469 6.25125 12.2044 6.09375 12.3984 6.09375H12.8672C13.0612 6.09375 13.2188 6.25125 13.2188 6.44531C13.2188 6.63938 13.0612 6.79688 12.8672 6.79688H12.3984C12.2044 6.79688 12.0469 6.63938 12.0469 6.44531Z" fill="white"/>
<path d="M15.6797 12.8906C19.2338 12.8906 22.125 9.99938 22.125 6.44531C22.125 2.89125 19.2338 0 15.6797 0C12.1256 0 9.23438 2.89125 9.23438 6.44531C9.23438 9.99938 12.1256 12.8906 15.6797 12.8906ZM15.6797 1.40625C18.4584 1.40625 20.7188 3.66656 20.7188 6.44531C20.7188 9.22406 18.4584 11.4844 15.6797 11.4844C12.9009 11.4844 10.6406 9.22406 10.6406 6.44531C10.6406 3.66656 12.9009 1.40625 15.6797 1.40625ZM15.3009 16.9898L12.1823 18.3202L11.6091 19.0223L13.4789 20.1164C13.8019 20.3053 14.205 20.3086 14.5308 20.1248L21.6609 16.0931L21.6155 16.0059C21.4411 15.6713 21.1153 15.4697 20.7652 15.4416L20.7488 15.3952C20.5613 14.8613 19.9805 14.5711 19.4433 14.7366L19.3945 14.5781C19.3106 14.3053 19.125 14.0827 18.8714 13.9514C18.6178 13.8202 18.3291 13.7967 18.0577 13.8858L15.6689 14.6695L15.9473 15.2278C16.1053 15.5442 16.1259 15.9164 16.0041 16.2483C15.8822 16.5802 15.6253 16.8506 15.3 16.9894L15.3009 16.9898Z" fill="white"/>
<path d="M23.6355 16.3426L23.2506 16.0023L14.8773 20.7367C14.6097 20.8876 14.3111 20.9626 14.013 20.9626C13.7148 20.9626 13.3975 20.8825 13.1247 20.7226L10.908 19.4256C10.8536 19.3937 10.8053 19.3501 10.7739 19.2953C10.698 19.1636 10.7148 19.0056 10.8053 18.8954L11.6931 17.8079C11.7292 17.7639 11.7752 17.7292 11.8277 17.7071L15.0095 16.3496C15.16 16.2854 15.2837 16.1668 15.3428 16.0145C15.4028 15.8589 15.3944 15.6911 15.3203 15.542L14.9664 14.8332C14.8009 14.5023 14.4077 14.3561 14.0664 14.4986L11.7512 15.4661L9.87906 14.4357C9.61904 14.293 9.32725 14.218 9.03062 14.2178H6.92734C6.37469 14.2178 5.84781 14.4821 5.51734 14.9251L4.63141 16.1125H3.51953V22.7382H5.44516V19.9046C5.44516 19.712 5.59375 19.5442 5.78594 19.5386C5.98516 19.5325 6.14828 19.6923 6.14828 19.8901V23.1156L6.81297 23.6439C7.04429 23.8275 7.33089 23.9276 7.62625 23.9279H14.4241C14.688 23.9279 14.9425 23.8492 15.1605 23.7006L23.5534 17.9762C23.8253 17.7906 23.9898 17.492 24.0006 17.1611C24.0109 16.8484 23.8703 16.5503 23.6359 16.3431L23.6355 16.3426ZM6.14781 18.4829C6.14781 18.677 5.99031 18.8345 5.79625 18.8345C5.60219 18.8345 5.44469 18.677 5.44469 18.4829V18.0142C5.44469 17.8201 5.60219 17.6626 5.79625 17.6626C5.99031 17.6626 6.14781 17.8201 6.14781 18.0142V18.4829Z" fill="white"/>
</g>
<defs>
<clipPath id="clip0_944_10406">
<rect width="24" height="24" fill="white"/>
</clipPath>
</defs>
</svg>
