<svg width="40" height="40" viewBox="0 0 40 40" fill="none" xmlns="http://www.w3.org/2000/svg">
<path d="M16.176 27.592H17.744V30.224H14.36L16.176 27.592ZM9.976 27.592H6.504L4.688 30.224H8.16L9.976 27.592ZM10.848 23.864L14.208 22.96L11.776 20.888L8.416 21.792L10.848 23.864ZM14.816 27.592H11.344L9.52 30.216H12.992L14.816 27.592ZM15.704 19.872C15.624 19.872 15.544 19.88 15.464 19.904L13.08 20.544L15.512 22.616L17.024 22.208L16.584 20.552C16.48 20.144 16.104 19.872 15.704 19.872ZM25.872 34.88C25.4 34.88 25.016 35.264 25.016 35.736C25.016 36.208 25.4 36.592 25.872 36.592C26.344 36.592 26.728 36.208 26.728 35.736C26.728 35.264 26.344 34.88 25.872 34.88ZM2.424 23.4L1.8 23.568C1.56 23.632 1.368 23.784 1.24 24C1.112 24.216 1.08 24.464 1.144 24.696L1.584 26.352L4.848 25.48L2.424 23.4ZM7.096 22.144L3.736 23.048L6.168 25.12L9.528 24.216L7.096 22.144ZM5.832 14.88C6.912 14.88 7.784 14.008 7.784 12.928C7.784 11.848 6.912 10.976 5.832 10.976C4.752 10.976 3.88 11.848 3.88 12.928C3.88 14.008 4.752 14.88 5.832 14.88ZM29.768 22.592C29.768 22.472 29.728 22.256 29.44 22.256H22.912C22.632 22.256 22.584 22.464 22.584 22.592C22.584 22.712 22.624 22.928 22.912 22.928H29.44C29.728 22.928 29.768 22.72 29.768 22.592ZM29.448 20.472H22.92C22.64 20.472 22.592 20.68 22.592 20.808C22.592 20.928 22.632 21.144 22.92 21.144H29.448C29.728 21.144 29.776 20.936 29.776 20.808C29.768 20.68 29.728 20.472 29.448 20.472ZM24.88 12.136V16.224L28.416 14.184L24.88 12.136ZM25.176 24.448H27.192C27.464 24.448 27.688 24.328 27.84 24.104L27.88 24.04H24.48L24.52 24.104C24.68 24.328 24.904 24.448 25.176 24.448ZM13.288 31.336H17.736V37.96C17.736 38.464 17.328 38.88 16.816 38.88H2.672C2.168 38.88 1.752 38.472 1.752 37.96V31.336H8.44H13.288ZM12.672 35.208C12.672 35.008 12.568 34.824 12.392 34.72L8.392 32.408C8.216 32.304 8.008 32.304 7.832 32.408C7.656 32.512 7.552 32.696 7.552 32.896V37.52C7.552 37.72 7.656 37.904 7.832 38.008C7.92 38.056 8.016 38.08 8.112 38.08C8.208 38.08 8.304 38.056 8.392 38.008L12.392 35.696C12.56 35.6 12.672 35.408 12.672 35.208ZM1.76 30.216H3.328L5.144 27.584H1.76V30.216ZM22.592 18.912C21.328 17.12 20.016 15.272 20.016 13.168C20.016 9.768 22.784 7 26.184 7C29.584 7 32.352 9.768 32.352 13.168C32.352 15.288 31.024 17.168 29.744 18.992C29.656 19.112 29.576 19.24 29.488 19.36H22.904C22.8 19.208 22.696 19.056 22.592 18.912ZM23.76 17.192C23.76 17.392 23.864 17.576 24.04 17.68C24.128 17.728 24.224 17.752 24.32 17.752C24.416 17.752 24.512 17.728 24.6 17.68L29.816 14.664C29.992 14.56 30.096 14.376 30.096 14.176C30.096 13.976 29.992 13.792 29.816 13.688L24.6 10.672C24.424 10.568 24.216 10.568 24.04 10.672C23.864 10.776 23.76 10.96 23.76 11.16V17.192ZM8.664 36.552L10.984 35.216L8.664 33.88C8.672 33.872 8.672 36.552 8.664 36.552ZM38.8 12.616H36.096C35.784 12.616 35.536 12.864 35.536 13.176C35.536 13.488 35.784 13.736 36.096 13.736H38.8C39.112 13.736 39.36 13.488 39.36 13.176C39.36 12.864 39.112 12.616 38.8 12.616ZM33.728 29.016V37.704C33.728 38.968 32.696 40 31.432 40H22.744C21.48 40 20.448 38.968 20.448 37.704V29.016C20.448 27.752 21.48 26.72 22.744 26.72H31.432C32.696 26.72 33.728 27.752 33.728 29.016ZM30 30.488L27.568 29.08C27.392 28.976 27.184 28.976 27.008 29.08C26.832 29.184 26.728 29.368 26.728 29.568V33.96C26.472 33.832 26.176 33.76 25.872 33.76C24.784 33.76 23.896 34.648 23.896 35.736C23.896 36.824 24.784 37.712 25.872 37.712C26.96 37.712 27.848 36.824 27.848 35.736C27.848 35.68 27.848 35.616 27.84 35.56C27.848 35.528 27.848 35.496 27.848 35.472V30.536L29.44 31.456C29.712 31.608 30.048 31.52 30.208 31.248C30.368 30.976 30.272 30.64 30 30.488ZM2.064 18.752C0.928 18.752 0 17.832 0 16.688V9.16C0 8.024 0.928 7.096 2.064 7.096H9.592C10.728 7.096 11.656 8.024 11.656 9.16V16.688C11.656 17.824 10.728 18.752 9.592 18.752H2.064ZM2.76 12.928C2.76 14.624 4.136 16 5.832 16C7.528 16 8.904 14.624 8.904 12.928C8.904 11.232 7.528 9.856 5.832 9.856C4.136 9.856 2.76 11.232 2.76 12.928ZM35.504 3.864C35.288 3.648 34.928 3.648 34.712 3.864L32.8 5.776C32.584 5.992 32.584 6.352 32.8 6.568C32.912 6.68 33.056 6.736 33.2 6.736C33.344 6.736 33.488 6.68 33.6 6.568L35.512 4.656C35.72 4.432 35.72 4.08 35.504 3.864ZM26.184 3.824C26.496 3.824 26.744 3.576 26.744 3.264V0.56C26.744 0.248 26.496 0 26.184 0C25.872 0 25.624 0.248 25.624 0.56V3.264C25.624 3.576 25.872 3.824 26.184 3.824ZM13.568 13.736H16.272C16.584 13.736 16.832 13.488 16.832 13.176C16.832 12.864 16.584 12.616 16.272 12.616H13.568C13.256 12.616 13.008 12.864 13.008 13.176C13.008 13.488 13.256 13.736 13.568 13.736ZM17.656 3.864C17.44 3.648 17.08 3.648 16.864 3.864C16.648 4.08 16.648 4.44 16.864 4.656L18.776 6.568C18.888 6.68 19.032 6.736 19.168 6.736C19.304 6.736 19.456 6.68 19.56 6.568C19.776 6.352 19.776 5.992 19.56 5.776L17.656 3.864Z" fill="url(#paint0_linear_723_3741)"/>
<defs>
<linearGradient id="paint0_linear_723_3741" x1="36.9471" y1="-1.44738" x2="48.4028" y2="49.5534" gradientUnits="userSpaceOnUse">
<stop stop-color="#4160FF"/>
<stop offset="1" stop-color="#213269"/>
</linearGradient>
</defs>
</svg>
