<svg width="38" height="29" viewBox="0 0 38 29" fill="none" xmlns="http://www.w3.org/2000/svg">
<path d="M2.29545 20.6726L0.0141956 5.84512C-0.0229107 5.60225 0.0131188 5.35382 0.117694 5.1315C0.22227 4.90917 0.390658 4.72301 0.601408 4.59672C0.812159 4.47043 1.05573 4.40973 1.3011 4.42236C1.54647 4.43499 1.78252 4.52037 1.9792 4.66762L9.0867 9.99762C9.27138 10.1362 9.48238 10.2356 9.70681 10.2899C9.93124 10.3441 10.1644 10.352 10.3919 10.313C10.6195 10.274 10.8368 10.1891 11.0304 10.0633C11.224 9.93746 11.3899 9.77349 11.5179 9.58137L17.4354 0.70137C17.5797 0.485575 17.7749 0.308677 18.0039 0.18634C18.2328 0.0640023 18.4884 0 18.7479 0C19.0075 0 19.2631 0.0640023 19.492 0.18634C19.721 0.308677 19.9162 0.485575 20.0604 0.70137L25.9779 9.57637C26.106 9.76849 26.2719 9.93246 26.4655 10.0583C26.6591 10.1841 26.8764 10.269 27.1039 10.308C27.3315 10.347 27.5647 10.3391 27.7891 10.2849C28.0135 10.2306 28.2245 10.1312 28.4092 9.99262L35.5167 4.66262C35.7134 4.51536 35.9494 4.42999 36.1948 4.41736C36.4402 4.40473 36.6837 4.46543 36.8945 4.59172C37.1052 4.71801 37.2736 4.90417 37.3782 5.1265C37.4828 5.34882 37.5188 5.59725 37.4817 5.84012L35.2004 20.6676L2.29545 20.6726ZM2.29545 23.4151H35.2029V27.1839C35.2029 27.4093 35.1586 27.6324 35.0723 27.8407C34.9861 28.0489 34.8596 28.2381 34.7003 28.3974C34.5409 28.5568 34.3517 28.6832 34.1435 28.7695C33.9353 28.8557 33.7121 28.9001 33.4867 28.9001H4.0117C3.78631 28.9001 3.56314 28.8557 3.35492 28.7695C3.14669 28.6832 2.95749 28.5568 2.79812 28.3974C2.47626 28.0756 2.29545 27.639 2.29545 27.1839V23.4151Z" fill="url(#paint0_linear_325_4058)"/>
<defs>
<linearGradient id="paint0_linear_325_4058" x1="35.1972" y1="-1.04574" x2="41.6053" y2="36.5699" gradientUnits="userSpaceOnUse">
<stop stop-color="#4160FF"/>
<stop offset="1" stop-color="#213269"/>
</linearGradient>
</defs>
</svg>
