<svg width="47" height="50" viewBox="0 0 47 50" fill="none" xmlns="http://www.w3.org/2000/svg">
<path d="M5.34375 32.0625C6.04543 32.0623 6.74027 32.2003 7.38862 32.4686C8.36519 32.8731 9.19985 33.5581 9.78706 34.437C10.3743 35.3159 10.6876 36.3492 10.6875 37.4062C10.6871 37.8477 10.5227 38.2732 10.2264 38.6004C9.93001 38.9275 9.52273 39.133 9.08349 39.1769C8.64426 39.2208 8.20436 39.1001 7.84908 38.8381C7.49381 38.5761 7.24847 38.1915 7.16062 37.7589L7.11075 37.2744L7.08938 37.0607C7.02214 36.7142 6.85351 36.3956 6.60488 36.1451C6.35643 35.8936 6.03863 35.7219 5.69209 35.6519C5.34555 35.5819 4.98602 35.6168 4.65943 35.7522C4.33284 35.8876 4.05403 36.1172 3.85864 36.4119C3.66324 36.7065 3.56014 37.0527 3.5625 37.4062V44.5312C3.5653 45.0028 3.75387 45.4542 4.08731 45.7877C4.42076 46.1211 4.8722 46.3097 5.34375 46.3125C5.75538 46.3123 6.15423 46.1694 6.47246 45.9084C6.7907 45.6473 7.00869 45.284 7.08938 44.8804L7.16062 44.1821V44.175C7.22984 43.8324 7.39834 43.5177 7.64512 43.2701C7.89425 43.0204 8.21192 42.8502 8.55787 42.7812C8.90382 42.7122 9.26246 42.7475 9.58834 42.8826C9.91421 43.0177 10.1926 43.2465 10.3883 43.54C10.584 43.8335 10.6881 44.1785 10.6875 44.5312C10.6876 45.6767 10.3195 46.7919 9.63771 47.7123C8.95588 48.6327 7.99634 49.3097 6.90056 49.6434C5.9735 49.9256 4.98717 49.9503 4.04713 49.715C3.1071 49.4796 2.24874 48.9931 1.56394 48.3075C0.56281 47.3057 0.000302591 45.9475 2.0077e-07 44.5312V37.4062C-0.000192134 36.7046 0.137809 36.0097 0.406125 35.3614C0.810609 34.3848 1.49562 33.5501 2.37453 32.9629C3.25343 32.3757 4.28674 32.0624 5.34375 32.0625ZM19.8075 32.0625C21.2824 32.0625 22.6967 32.6503 23.7405 33.6906L24.4174 34.3674C24.7514 34.7019 24.9388 35.1554 24.9385 35.628C24.9382 36.1007 24.7501 36.5539 24.4156 36.8879C24.0811 37.2219 23.6277 37.4094 23.155 37.409C22.6823 37.4087 22.2291 37.2206 21.8951 36.8861L21.2218 36.2092C21.0365 36.024 20.8166 35.8771 20.5745 35.7768C20.3325 35.6766 20.0731 35.625 19.8111 35.625H19.3337C18.9929 35.6289 18.6633 35.7469 18.3975 35.9601C18.1316 36.1732 17.9448 36.4693 17.8669 36.801C17.789 37.1328 17.8245 37.481 17.9676 37.7903C18.1108 38.0995 18.3534 38.3519 18.6568 38.5071L22.1267 40.2456C23.1472 40.7603 23.9646 41.6036 24.4472 42.6396C24.9298 43.6757 25.0495 44.8441 24.787 45.9564C24.5244 47.0688 23.8949 48.0604 23 48.7712C22.105 49.4821 20.9967 49.8709 19.8538 49.875H19.38C17.9087 49.875 16.4944 49.2872 15.4506 48.2469L14.7737 47.5701C14.4397 47.2356 14.2522 46.7821 14.2526 46.3095C14.2529 45.8368 14.441 45.3836 14.7755 45.0496C15.1099 44.7156 15.5634 44.5281 16.0361 44.5285C16.5088 44.5288 16.9619 44.7169 17.2959 45.0514L17.9693 45.7283C18.1545 45.9135 18.3745 46.0604 18.6165 46.1607C18.8586 46.2609 19.118 46.3125 19.38 46.3125H19.8574C20.1999 46.3119 20.5321 46.1957 20.8003 45.9827C21.0686 45.7698 21.2571 45.4725 21.3354 45.1391C21.4137 44.8057 21.3772 44.4556 21.2318 44.1455C21.0864 43.8354 20.8406 43.5835 20.5342 43.4304L17.0644 41.6919C16.0442 41.1774 15.2269 40.3343 14.7442 39.2987C14.2615 38.263 14.1416 37.095 14.4037 35.9828C14.6658 34.8706 15.2947 33.8791 16.189 33.1679C17.0833 32.4567 18.1911 32.0673 19.3337 32.0625H19.8075ZM29.4512 32.0732C29.5639 32.0768 29.676 32.0911 29.7861 32.1159L29.9393 32.1516L30.1744 32.2478L30.2243 32.2727C30.6411 32.4906 30.9549 32.8645 31.0971 33.3129L33.8473 42.1123L36.5976 33.3129C36.6569 33.1327 36.7447 32.9631 36.8576 32.8106C36.8909 32.7608 36.9265 32.7133 36.9645 32.6681L37.0251 32.6111C37.2698 32.3597 37.5834 32.1862 37.9264 32.1124L38.0439 32.0874L38.1259 32.0696H38.4821C38.6009 32.0815 38.7196 32.1053 38.8384 32.1409C39.0619 32.2107 39.2694 32.3238 39.4491 32.4739C39.6288 32.624 39.7772 32.808 39.8857 33.0155C39.9942 33.2229 40.0608 33.4497 40.0816 33.683C40.1024 33.9162 40.077 34.1512 40.0069 34.3746L35.5537 48.6246L35.4469 48.8953C35.3071 49.1684 35.0993 49.4007 34.8434 49.5699C34.5875 49.739 34.2922 49.8392 33.9862 49.8608L33.8509 49.875L33.8473 49.8714L33.8438 49.875C33.4647 49.875 33.0955 49.7541 32.7899 49.5299C32.4843 49.3056 32.2582 48.9897 32.1444 48.6281L27.6913 34.3781C27.6256 34.1626 27.6015 33.9365 27.6201 33.7119V33.6407C27.6581 33.3202 27.7824 33.016 27.9799 32.7608L28.0298 32.7038L28.2114 32.5149L28.2684 32.4686L28.3041 32.433L28.4109 32.3617L28.5285 32.2869L28.5819 32.2584C28.6342 32.2323 28.6864 32.2098 28.7387 32.1908L28.8598 32.1444L29.0023 32.1088L29.0771 32.1017L29.2909 32.0732H29.4512ZM28.5 12.4688C28.5 13.886 29.063 15.2452 30.0651 16.2474C31.0673 17.2495 32.4265 17.8125 33.8438 17.8125H46.3089V44.5312C46.3089 47.4525 43.9612 49.818 41.0507 49.8643L41.04 49.875H38.8847L38.9524 49.6862L43.4055 35.4362C43.8002 34.1738 43.7127 32.8099 43.1599 31.6083C42.6072 30.4067 41.6284 29.4528 40.413 28.9311L39.8964 28.7422L39.3692 28.6069C38.3258 28.3956 37.2432 28.5008 36.26 28.9089C35.2768 29.317 34.4379 30.0095 33.8509 30.8976C33.2638 30.0095 32.425 29.317 31.4418 28.9089C30.4586 28.5008 29.3759 28.3956 28.3326 28.6069L27.8053 28.7422C26.7366 29.0771 25.9421 29.7148 25.4149 30.5306C23.8568 29.2247 21.8903 28.5062 19.8574 28.5H19.3159C17.375 28.5117 15.4938 29.1726 13.9721 30.3774C13.3793 30.8631 12.8545 31.4263 12.4118 32.0518L12.3583 31.9806C12.1431 31.6711 11.9036 31.3793 11.6423 31.1078C11.3865 30.8608 11.1126 30.6334 10.8229 30.4273L10.6875 30.3204V5.34375C10.6875 3.9265 11.2505 2.5673 12.2526 1.56515C13.2548 0.563001 14.614 0 16.0312 0H28.5V12.4688ZM45.4219 14.25H33.8438C33.3713 14.25 32.9183 14.0623 32.5842 13.7283C32.2502 13.3942 32.0625 12.9412 32.0625 12.4688V0.890625L45.4219 14.25Z" fill="black" fill-opacity="0.6"/>
</svg>
