<svg width="40" height="36" viewBox="0 0 40 36" fill="none" xmlns="http://www.w3.org/2000/svg">
<path d="M36.4844 9.38435H34.0296C31.9418 4.427 27.3445 0.824424 22.052 0.136377C16.8071 -0.562842 11.6538 1.45591 8.28242 5.51966C7.29133 6.71442 6.50516 8.01333 5.92953 9.38435H3.51562C1.57703 9.38435 0 10.9614 0 12.9V17.5875C0 19.5261 1.57703 21.1031 3.51562 21.1031H8.3282L7.82469 19.5661C6.35867 15.0892 7.18383 10.515 10.0872 7.01653C12.9402 3.57755 17.297 1.87583 21.7476 2.4595C26.4544 3.07263 30.5399 6.4013 32.1587 10.9418L32.1685 10.9682C32.4289 11.6594 32.6131 12.377 32.7178 13.1083C33.0691 15.2998 32.8689 17.5211 32.1399 19.5318L32.1348 19.5458C30.3253 24.6833 25.4586 28.1343 20.0229 28.1343C18.0716 28.1343 16.4844 29.7114 16.4844 31.65C16.4844 33.5886 18.0614 35.1656 20 35.1656C21.9386 35.1656 23.5156 33.5886 23.5156 31.65V30.0695C28.1948 28.9573 32.1252 25.6404 34.0143 21.103H36.4844C38.423 21.103 40 19.526 40 17.5874V12.8999C40 10.9613 38.423 9.38435 36.4844 9.38435Z" fill="url(#paint0_linear_609_3221)"/>
<path d="M9.45313 23.4473V25.791H20C25.8159 25.791 30.5469 21.06 30.5469 15.2441C30.5469 9.42828 25.8159 4.69727 20 4.69727C14.1841 4.69727 9.45313 9.42828 9.45313 15.2441C9.45243 17.6069 10.2456 19.9014 11.7053 21.7593C11.4227 22.7469 10.5209 23.4473 9.45313 23.4473ZM23.5156 14.0723H25.8594V16.416H23.5156V14.0723ZM18.8281 14.0723H21.1719V16.416H18.8281V14.0723ZM14.1406 14.0723H16.4844V16.416H14.1406V14.0723Z" fill="url(#paint1_linear_609_3221)"/>
<defs>
<linearGradient id="paint0_linear_609_3221" x1="37.5478" y1="-1.27245" x2="46.3667" y2="44.1129" gradientUnits="userSpaceOnUse">
<stop stop-color="#4160FF"/>
<stop offset="1" stop-color="#213269"/>
</linearGradient>
<linearGradient id="paint1_linear_609_3221" x1="29.2537" y1="3.934" x2="35.2073" y2="30.87" gradientUnits="userSpaceOnUse">
<stop stop-color="#4160FF"/>
<stop offset="1" stop-color="#213269"/>
</linearGradient>
</defs>
</svg>
