<svg width="39" height="40" viewBox="0 0 39 40" fill="none" xmlns="http://www.w3.org/2000/svg">
<path d="M36.5497 26.1496C33.9923 33.0285 27.3416 37.6502 20 37.6502C10.2677 37.6502 2.34984 29.7323 2.34984 20C2.34984 10.2677 10.2677 2.34984 20 2.34984C24.66 2.34984 29.0213 4.14 32.2949 7.33187L30.0073 7.13109L29.8023 9.47203L35.9598 10.0119L36.4996 3.85437L34.1586 3.64898L33.9792 5.69883C32.5024 4.25688 30.8041 3.03984 28.9682 2.11758C26.1709 0.712578 23.1537 0 20 0C14.6579 0 9.63531 2.08039 5.85781 5.85781C2.08047 9.63531 0 14.6579 0 20C0 25.3421 2.08039 30.3647 5.85781 34.1422C9.63531 37.9195 14.6579 40 20 40C24.1626 40 28.1527 38.7336 31.5393 36.3373C34.8505 33.9945 37.3447 30.7547 38.7521 26.9684L36.5497 26.1496Z" fill="#4160FF"/>
<path d="M19.9698 7.72656C13.2016 7.72656 7.69531 13.2328 7.69531 20.001C7.69531 26.7692 13.2016 32.2755 19.9698 32.2755C26.738 32.2755 32.2442 26.7692 32.2442 20.001C32.2442 13.2328 26.738 7.72656 19.9698 7.72656ZM24.696 21.1759H18.8229V12.7482H21.1728V18.8261H24.696V21.1759Z" fill="#4160FF"/>
</svg>
