<svg width="40" height="40" viewBox="0 0 40 40" fill="none" xmlns="http://www.w3.org/2000/svg">
<path d="M34.44 18.7136H34.2694V16.6486C34.2664 15.6885 33.8836 14.7686 33.2047 14.0898C32.5257 13.4109 31.6057 13.0283 30.6456 13.0255H4.41312C4.67849 12.7476 5.00631 12.537 5.36937 12.4111L26.7375 5.21426C26.8896 5.16496 27.0511 5.15203 27.2091 5.17651C27.3671 5.20098 27.5171 5.26219 27.6471 5.35519C27.7772 5.4482 27.8835 5.57042 27.9577 5.71202C28.032 5.85362 28.0719 6.01066 28.0744 6.17051V11.3143C28.0795 11.4788 28.1485 11.6349 28.2668 11.7495C28.385 11.864 28.5432 11.9281 28.7078 11.9281C28.8724 11.9281 29.0306 11.864 29.1488 11.7495C29.2671 11.6349 29.3361 11.4788 29.3412 11.3143V6.17051C29.3375 5.81007 29.2488 5.45559 29.0824 5.13587C28.9159 4.81615 28.6764 4.54019 28.3833 4.33042C28.0901 4.12065 27.7517 3.98298 27.3953 3.92859C27.039 3.8742 26.6749 3.90462 26.3325 4.01739L4.96438 11.2136C4.24814 11.4575 3.6258 11.9186 3.18406 12.5329C2.74233 13.1472 2.5032 13.8839 2.5 14.6405V32.4799C2.50099 33.4406 2.88312 34.3617 3.56251 35.0409C4.24189 35.7202 5.16303 36.1022 6.12375 36.103H30.6456C31.6067 36.103 32.5284 35.7212 33.208 35.0416C33.8876 34.3621 34.2694 33.4403 34.2694 32.4793V29.3249C33.8756 29.3286 24.78 29.3224 24.0575 29.3249C17.9213 29.0818 17.9169 20.2999 24.0575 20.0568H34.2825C34.3643 20.0568 34.4453 20.0729 34.5209 20.1044C34.5964 20.1358 34.665 20.1818 34.7227 20.2399C34.7804 20.2979 34.826 20.3668 34.857 20.4425C34.8879 20.5182 34.9036 20.5993 34.9031 20.6811V20.6968C34.9039 20.7787 34.8884 20.86 34.8576 20.9359C34.8268 21.0119 34.7812 21.081 34.7236 21.1392C34.666 21.1975 34.5974 21.2438 34.5218 21.2755C34.4462 21.3071 34.3651 21.3235 34.2831 21.3236H24.0581C23.5879 21.3238 23.123 21.4225 22.6933 21.6134C22.2635 21.8042 21.8786 22.083 21.5631 22.4317C21.2477 22.7804 21.0088 23.1913 20.8619 23.6379C20.7149 24.0846 20.6632 24.557 20.71 25.0249C20.8178 25.8731 21.2348 26.6516 21.8811 27.2113C22.5275 27.771 23.3576 28.0725 24.2125 28.058H34.2688C34.6842 28.0789 35.0996 28.0153 35.4897 27.8711C35.8799 27.7269 36.2368 27.5051 36.5388 27.2191C36.8409 26.9331 37.0817 26.5888 37.247 26.207C37.4122 25.8253 37.4982 25.414 37.5 24.998V21.7736C37.4985 20.9625 37.1756 20.1851 36.6021 19.6115C36.0286 19.038 35.2511 18.7151 34.44 18.7136ZM24.9319 26.4749C24.4854 26.5401 24.0303 26.4422 23.6502 26.199C23.2701 25.9558 22.9905 25.5836 22.8626 25.1509C22.7348 24.7181 22.7673 24.2538 22.9541 23.8431C23.141 23.4323 23.4697 23.1028 23.88 22.9149C26.4994 21.8886 27.6919 25.9205 24.9319 26.4749Z" fill="#4160FF"/>
<path d="M24.6472 24.0156C24.4859 24.0156 24.3312 24.0797 24.2172 24.1937C24.1031 24.3078 24.0391 24.4625 24.0391 24.6237C24.0391 24.785 24.1031 24.9397 24.2172 25.0538C24.3312 25.1678 24.4859 25.2319 24.6472 25.2319C24.8085 25.2319 24.9632 25.1678 25.0772 25.0538C25.1912 24.9397 25.2553 24.785 25.2553 24.6237C25.2553 24.4625 25.1912 24.3078 25.0772 24.1937C24.9632 24.0797 24.8085 24.0156 24.6472 24.0156Z" fill="#4160FF"/>
</svg>
