<svg width="20" height="17" viewBox="0 0 20 17" fill="none" xmlns="http://www.w3.org/2000/svg">
<path d="M19.9238 7.61712C19.8481 7.43443 19.72 7.27827 19.5556 7.1684C19.3911 7.05853 19.1978 6.99987 19.0001 6.99984H15.3262L16.962 1.27464C17.0227 1.06161 17.011 0.834464 16.9287 0.62882C16.8463 0.423176 16.6981 0.250668 16.5072 0.138352C16.3163 0.0260358 16.0935 -0.0197356 15.8737 0.00821617C15.654 0.036168 15.4498 0.136262 15.293 0.2928L7.29312 8.29296C7.15319 8.43278 7.05788 8.61096 7.01924 8.80497C6.98061 8.99897 7.00039 9.20007 7.07608 9.38283C7.15177 9.56559 7.27998 9.72178 7.44447 9.83166C7.60896 9.94153 7.80235 10.0001 8.00016 10.0001H12.4836L10.0812 15.6065C9.98923 15.8201 9.97464 16.0591 10.04 16.2823C10.1053 16.5055 10.2464 16.699 10.439 16.8293C10.6316 16.9597 10.8636 17.0188 11.0951 16.9964C11.3266 16.9741 11.5431 16.8717 11.7072 16.7069L19.7071 8.70696C19.8471 8.56718 19.9424 8.38898 19.981 8.19496C20.0196 8.00093 19.9997 7.79982 19.9238 7.61712ZM7.00008 15H1.00008C0.734842 15 0.480468 15.1054 0.292917 15.2929C0.105365 15.4805 0 15.7348 0 16.0001C0 16.2653 0.105365 16.5197 0.292917 16.7072C0.480468 16.8948 0.734842 17.0002 1.00008 17.0002H7.00008C7.26532 17.0002 7.51969 16.8948 7.70724 16.7072C7.89479 16.5197 8.00016 16.2653 8.00016 16.0001C8.00016 15.7348 7.89479 15.4805 7.70724 15.2929C7.51969 15.1054 7.26532 15 7.00008 15ZM2.00016 12H5.00016C5.2654 12 5.51977 11.8946 5.70732 11.7071C5.89487 11.5195 6.00024 11.2652 6.00024 10.9999C6.00024 10.7347 5.89487 10.4803 5.70732 10.2928C5.51977 10.1052 5.2654 9.99984 5.00016 9.99984H2.00016C1.73492 9.99984 1.48055 10.1052 1.293 10.2928C1.10545 10.4803 1.00008 10.7347 1.00008 10.9999C1.00008 11.2652 1.10545 11.5195 1.293 11.7071C1.48055 11.8946 1.73492 12 2.00016 12ZM4.00008 1.99992H11.0002C11.2654 1.99992 11.5197 1.89457 11.7072 1.70704C11.8948 1.51951 12.0001 1.26517 12.0001 0.99996C12.0001 0.734754 11.8948 0.48041 11.7072 0.292882C11.5197 0.105353 11.2654 0 11.0002 0H4.00008C3.73756 0.00406719 3.48716 0.111209 3.30295 0.298295C3.11874 0.485382 3.01549 0.737406 3.01549 0.99996C3.01549 1.26251 3.11874 1.51454 3.30295 1.70162C3.48716 1.88871 3.73756 1.99585 4.00008 1.99992ZM3 7.00008H6C6.26524 7.00008 6.51961 6.89472 6.70716 6.70716C6.89471 6.51961 7.00008 6.26524 7.00008 6C7.00008 5.73476 6.89471 5.48039 6.70716 5.29284C6.51961 5.10529 6.26524 4.99992 6 4.99992H3C2.73476 4.99992 2.48039 5.10529 2.29284 5.29284C2.10529 5.48039 1.99992 5.73476 1.99992 6C1.99992 6.26524 2.10529 6.51961 2.29284 6.70716C2.48039 6.89472 2.73476 7.00008 3 7.00008Z" fill="#4160FF"/>
</svg>
