<svg width="21" height="21" viewBox="0 0 21 21" fill="none" xmlns="http://www.w3.org/2000/svg">
<path d="M12.311 3.91125H5.86098C5.56659 3.91125 5.28425 3.7943 5.07609 3.58614C4.86792 3.37797 4.75098 3.09564 4.75098 2.80125V1.11C4.75098 0.49725 5.24823 0 5.86098 0H12.311C12.9237 0 13.421 0.49725 13.421 1.11V2.80125C13.421 2.94702 13.3923 3.09136 13.3365 3.22603C13.2807 3.3607 13.1989 3.48307 13.0959 3.58614C12.9928 3.68921 12.8704 3.77097 12.7358 3.82676C12.6011 3.88254 12.4567 3.91125 12.311 3.91125ZM19.7697 11.9925C19.0797 11.3025 17.9547 11.3025 17.2647 11.9925L16.4457 12.816L18.9522 15.3218L19.7697 14.5043C20.4672 13.8075 20.4672 12.69 19.7697 11.9925ZM15.6522 13.6125L11.2797 17.9775C11.1897 18.075 11.1297 18.195 11.1072 18.3225L10.7772 20.265C10.7022 20.6925 11.0772 21.06 11.5047 20.9925L13.4472 20.6625C13.5747 20.64 13.6947 20.58 13.7847 20.49L18.1572 16.1175L15.6522 13.6125Z" fill="#4160FF"/>
<path d="M15.48 1.9575H14.5463V2.80125C14.5455 3.39376 14.3097 3.96178 13.8908 4.38075C13.4718 4.79973 12.9038 5.03545 12.3113 5.03625H5.86125C5.26867 5.03565 4.70054 4.79999 4.28152 4.38097C3.86251 3.96196 3.62685 3.39382 3.62625 2.80125V1.9575H2.6775C1.2 1.9575 0 3.1575 0 4.635V18.3225C0 19.8 1.2 21 2.6775 21H9.77025C9.6521 20.7056 9.61707 20.3844 9.669 20.0715L9.99825 18.1342C10.0567 17.7907 10.2143 17.4735 10.4513 17.2147L15.225 12.4477L16.4662 11.1997C16.922 10.7461 17.5172 10.4592 18.156 10.3852V4.6425C18.1581 4.29007 18.0904 3.94073 17.9567 3.61462C17.8231 3.28851 17.6262 2.99209 17.3774 2.74247C17.1286 2.49284 16.8329 2.29496 16.5072 2.16023C16.1815 2.0255 15.8324 1.9566 15.48 1.9575ZM7.9185 13.0822H4.66425C4.48523 13.0822 4.31354 13.0111 4.18695 12.8845C4.06037 12.758 3.98925 12.5863 3.98925 12.4072C3.98925 12.2282 4.06037 12.0565 4.18695 11.93C4.31354 11.8034 4.48523 11.7322 4.66425 11.7322H7.9185C8.09752 11.7322 8.26921 11.8034 8.3958 11.93C8.52238 12.0565 8.5935 12.2282 8.5935 12.4072C8.5935 12.5863 8.52238 12.758 8.3958 12.8845C8.26921 13.0111 8.09752 13.0822 7.9185 13.0822ZM11.9025 9.25125H4.665C4.48598 9.25125 4.31429 9.18013 4.1877 9.05354C4.06112 8.92696 3.99 8.75527 3.99 8.57625C3.99 8.39723 4.06112 8.22554 4.1877 8.09895C4.31429 7.97236 4.48598 7.90125 4.665 7.90125H11.9025C12.0815 7.90125 12.2532 7.97236 12.3798 8.09895C12.5064 8.22554 12.5775 8.39723 12.5775 8.57625C12.5775 8.75527 12.5064 8.92696 12.3798 9.05354C12.2532 9.18013 12.0815 9.25125 11.9025 9.25125Z" fill="#4160FF"/>
</svg>
