<svg width="16" height="16" viewBox="0 0 16 16" fill="none" xmlns="http://www.w3.org/2000/svg">
<g clip-path="url(#clip0_875_16682)">
<path d="M14.6453 3.5486L14.4059 3.62449L13.1311 3.73806L12.7711 4.31305L12.5098 4.23004L11.4953 3.31534L11.3481 2.83966L11.151 2.33241L10.5134 1.76047L9.76114 1.61328L9.74382 1.95756L10.4808 2.67669L10.8414 3.10144L10.436 3.31331L10.1059 3.21603L9.61141 3.00977L9.62821 2.61099L8.97937 2.34412L8.76394 3.28173L8.11001 3.42994L8.17469 3.95298L9.02674 4.11697L9.17392 3.28122L9.87726 3.38512L10.2042 3.57661H10.7288L11.0879 4.29574L12.0397 5.26136L11.97 5.63671L11.2024 5.53892L9.87624 6.20865L8.92131 7.35405L8.79704 7.86131H8.45429L7.81563 7.56694L7.19531 7.86131L7.34963 8.51575L7.61956 8.20457L8.09422 8.1898L8.06111 8.77753L8.45429 8.89263L8.84696 9.33368L9.48816 9.15339L10.2205 9.269L11.071 9.49767L11.4958 9.54758L12.2159 10.365L13.6058 11.1824L12.7069 12.8998L11.7581 13.3408L11.398 14.3222L10.025 15.239L9.87879 15.7676C13.3888 14.9222 16 11.7691 16 7.99933C16.0014 6.41399 15.5297 4.86429 14.6453 3.5486Z" fill="#4160FF"/>
<path d="M8.92216 12.1808L8.33953 11.1006L8.87429 9.98625L8.33953 9.82634L7.73907 9.22333L6.4088 8.92488L5.96724 8.00102V8.54953H5.77269L4.62626 6.99517V5.71836L3.78593 4.35193L2.45158 4.58977H1.55267L1.10042 4.29336L1.67745 3.83601L1.10195 3.96894C0.383008 5.19085 0.0039001 6.58279 0.00390625 8.00051C0.00390625 12.4176 3.58476 16 8.00238 16C8.34259 16 8.67618 15.97 9.0062 15.9302L8.92267 14.961C8.92267 14.961 9.28988 13.5218 9.28988 13.4729C9.28937 13.4235 8.92216 12.1808 8.92216 12.1808ZM2.97615 2.57958L4.39708 2.38147L5.05203 2.02241L5.78898 2.23479L6.96647 2.1696L7.36983 1.53553L7.95807 1.63229L9.38664 1.49835L9.78033 1.06443L10.3355 0.693664L11.1208 0.811821L11.407 0.768531C10.3427 0.263893 9.17976 0.00142333 8.00187 5.00103e-06C6.8226 -0.00131544 5.6577 0.258861 4.59106 0.761801C3.52441 1.26474 2.58255 1.99793 1.83329 2.90859H1.83737L2.97615 2.57958ZM8.34004 0.795523L9.15695 0.345816L9.68152 0.648846L8.92216 1.2269L8.19693 1.29972L7.87047 1.08786L8.34004 0.795523ZM5.92038 0.861222L6.28096 1.01146L6.75308 0.861222L7.01027 1.30685L5.92038 1.59308L5.39632 1.28648C5.39581 1.28648 5.90867 0.95646 5.92038 0.861222Z" fill="#4160FF"/>
</g>
<defs>
<clipPath id="clip0_875_16682">
<rect width="16" height="16" fill="white"/>
</clipPath>
</defs>
</svg>
