<svg width="23" height="24" viewBox="0 0 23 24" fill="none" xmlns="http://www.w3.org/2000/svg">
<path opacity="0.987" fill-rule="evenodd" clip-rule="evenodd" d="M10.1437 0.103407C11.3778 -0.0344689 12.108 -0.0344689 13.434 0.103407C15.7812 0.450811 17.9571 1.53576 19.647 3.20136C18.505 4.28076 17.3781 5.37593 16.2665 6.48654C14.1376 4.68224 11.7613 4.26578 9.1377 5.23715C7.21309 6.12228 5.8729 7.55664 5.11713 9.54023C3.88209 8.62077 2.66314 7.6799 1.46083 6.71804C1.37727 6.67406 1.28184 6.65795 1.18848 6.67208C3.09833 2.98972 6.08284 0.799594 10.142 0.101705" fill="#F44336"/>
<path opacity="0.997" fill-rule="evenodd" clip-rule="evenodd" d="M1.18515 6.67211C1.28161 6.65736 1.37296 6.67268 1.4592 6.71807C2.66151 7.67993 3.88047 8.62081 5.11551 9.54027C4.92116 10.3132 4.79865 11.1023 4.74953 11.8978C4.79152 12.6672 4.91351 13.4224 5.11551 14.1634L1.27707 17.2188C-0.394479 13.7259 -0.425118 10.2104 1.18515 6.67211Z" fill="#FFC107"/>
<path opacity="0.999" fill-rule="evenodd" clip-rule="evenodd" d="M19.4644 20.9193C18.2692 19.8652 17.0179 18.8765 15.7161 17.9575C17.0211 17.036 17.8132 15.7719 18.0924 14.1651H11.6973V9.72409C15.3853 9.69345 19.0717 9.72466 22.7564 9.81771C23.4554 13.6135 22.648 17.036 20.3342 20.0852C20.059 20.3777 19.7676 20.656 19.4644 20.9193Z" fill="#448AFF"/>
<path opacity="0.993" fill-rule="evenodd" clip-rule="evenodd" d="M5.1148 14.165C6.5106 17.6341 9.06955 19.2534 12.7917 19.023C13.8365 18.9021 14.8383 18.5371 15.716 17.9575C17.0188 18.8789 18.2682 19.8662 19.4643 20.9192C17.5691 22.6222 15.1528 23.6326 12.6095 23.7857C12.0317 23.8319 11.4511 23.8319 10.8733 23.7857C6.54067 23.2751 3.34169 21.0861 1.27637 17.2187L5.1148 14.165Z" fill="#43A047"/>
</svg>
