<svg width="38" height="38" viewBox="0 0 38 38" fill="none" xmlns="http://www.w3.org/2000/svg">
<path d="M26.247 0.000438473C25.4178 0.000438473 25.4107 1.22172 26.2541 1.25007C28.6056 1.24972 30.882 2.07854 32.6828 3.59076C34.4837 5.10298 35.6936 7.20175 36.0999 9.51795C36.51 11.8334 36.0905 14.2193 34.9153 16.256C33.7401 18.2927 31.8844 19.8499 29.6746 20.6536C27.5073 21.4411 25.1345 21.456 22.9574 20.6959C20.7804 19.9357 18.9325 18.4472 17.7263 16.4819L18.8248 16.7771C19.6398 17.0086 19.9681 15.7756 19.1484 15.5677L16.5854 14.8826C16.4253 14.84 16.2549 14.8626 16.1114 14.9454C15.968 15.0282 15.8632 15.1645 15.82 15.3244L15.1349 17.8827C14.9034 18.6977 16.1365 19.0284 16.3421 18.2063L16.6397 17.0961C18.0028 19.3352 20.105 21.0281 22.5834 21.8822C25.0618 22.7363 27.7607 22.698 30.2138 21.7739C32.667 20.8499 34.7204 19.098 36.0194 16.8211C37.3184 14.5441 37.7813 11.885 37.3283 9.30298C36.3645 3.72807 31.4321 -0.0468066 26.247 0.000438473ZM26.3769 4.8525C24.5538 4.8525 22.8053 5.57674 21.5161 6.8659C20.227 8.15505 19.5028 9.90352 19.5028 11.7267C19.5028 13.5498 20.227 15.2983 21.5161 16.5874C22.8053 17.8766 24.5538 18.6008 26.3769 18.6008C28.2 18.6008 29.9485 17.8766 31.2377 16.5874C32.5268 15.2983 33.2511 13.5498 33.2511 11.7267C33.2511 9.90352 32.5268 8.15505 31.2377 6.8659C29.9485 5.57674 28.2 4.8525 26.3769 4.8525ZM27.0053 7.06593V7.60925C28.0588 7.85729 28.7533 8.66518 29.0604 9.64079C29.3108 10.4369 28.1155 10.8125 27.8675 10.014C27.6171 9.22503 27.1021 8.814 26.3556 8.78565C26.1599 8.78126 25.9652 8.8158 25.7829 8.88726C25.6005 8.95872 25.4342 9.06569 25.2936 9.20194C25.1529 9.33819 25.0408 9.50102 24.9635 9.68098C24.8863 9.86093 24.8456 10.0544 24.8438 10.2502C24.8438 10.5692 24.9218 10.7227 25.1698 10.8455C25.4202 10.9684 25.9021 11.0345 26.4407 11.0912C26.9793 11.1479 27.5793 11.1928 28.1415 11.4668C28.699 11.7385 29.1573 12.2865 29.1573 13.1842C29.1573 14.4787 28.2265 15.5771 27.0053 15.8441V16.3708C27.0242 17.2213 25.7344 17.2213 25.7533 16.3708V15.8322C24.5343 15.5252 23.9934 14.6511 23.7005 13.822C23.4005 13.0023 24.6643 12.6007 24.891 13.444C25.1344 14.1928 25.6422 14.618 26.4005 14.6488C27.2509 14.6393 27.9124 13.9921 27.9124 13.1889C27.9124 12.8582 27.8297 12.7141 27.5816 12.5912C27.3313 12.4708 26.8494 12.4023 26.3131 12.3432C25.7722 12.2889 25.1792 12.2463 24.6217 11.9747C24.0595 11.7007 23.5942 11.1597 23.5942 10.2502C23.5942 8.95573 24.5273 7.86674 25.7533 7.59271V7.06593C25.7793 6.65018 26.0769 6.4423 26.3745 6.4423C26.6722 6.4423 26.9746 6.65018 27.0053 7.06593ZM13.7058 22.5009C12.7373 22.5009 11.0105 23.1529 9.64035 23.8096C9.37105 23.9371 9.21514 24.0269 8.98128 24.1403C9.22459 24.5867 9.37578 25.0875 9.37578 25.6285V34.0523C10.2018 33.8949 11.0376 33.7946 11.8774 33.7523C12.6499 33.7523 14.0932 34.8484 15.0334 35.5098C16.3704 36.4547 17.8114 37.4988 19.3728 37.4988C19.8453 37.4988 20.3177 37.3429 20.939 37.1114C24.3572 35.8334 31.5691 31.7538 35.7716 29.2947C36.0221 29.1528 36.242 28.9626 36.4185 28.7352C36.5951 28.5077 36.7248 28.2475 36.8002 27.9696C36.8755 27.6917 36.895 27.4017 36.8575 27.1162C36.8201 26.8307 36.7263 26.5555 36.5818 26.3065C36.0054 25.3072 34.8361 25.0639 33.6999 25.4537L25.8525 28.0923C25.9068 28.6026 25.817 29.1317 25.5407 29.6089C24.8556 30.7995 23.3178 31.2861 22.1272 30.601L18.3358 28.4136C17.5515 28.012 18.2271 26.8498 18.9618 27.334L22.7508 29.5191C22.8923 29.6036 23.0493 29.6589 23.2125 29.6817C23.3757 29.7045 23.5419 29.6943 23.7011 29.6518C23.8603 29.6093 24.0094 29.5353 24.1395 29.4342C24.2696 29.3331 24.3782 29.207 24.4588 29.0632C24.5428 28.9217 24.5976 28.7648 24.62 28.6017C24.6424 28.4387 24.632 28.2728 24.5893 28.1138C24.5465 27.9549 24.4725 27.8061 24.3713 27.6762C24.2702 27.5463 24.1441 27.438 24.0005 27.3577C21.213 25.7466 16.2594 22.5009 13.7058 22.5009ZM1.87799 23.7505C1.63128 23.7502 1.38694 23.7986 1.15895 23.8928C0.93096 23.9871 0.723808 24.1254 0.549359 24.2999C0.374909 24.4743 0.236589 24.6815 0.142322 24.9095C0.0480541 25.1374 -0.000309423 25.3818 1.48958e-06 25.6285V34.3759C1.48958e-06 35.3988 0.82679 36.2515 1.86618 36.2515H6.25288C7.39385 36.2515 8.12615 35.283 8.12615 34.3736V25.6309C8.12677 25.3845 8.07877 25.1404 7.98491 24.9125C7.89105 24.6847 7.75316 24.4777 7.57915 24.3032C7.40514 24.1288 7.19843 23.9904 6.97084 23.8959C6.74326 23.8015 6.49928 23.7529 6.25288 23.7529L1.87799 23.7505ZM3.12762 32.5003C3.20983 32.5003 3.29123 32.5165 3.36718 32.5479C3.44313 32.5794 3.51214 32.6255 3.57027 32.6836C3.6284 32.7418 3.67451 32.8108 3.70597 32.8867C3.73743 32.9627 3.75362 33.0441 3.75362 33.1263C3.75362 33.2085 3.73743 33.2899 3.70597 33.3658C3.67451 33.4418 3.6284 33.5108 3.57027 33.5689C3.51214 33.6271 3.44313 33.6732 3.36718 33.7046C3.29123 33.7361 3.20983 33.7523 3.12762 33.7523C2.9616 33.7523 2.80237 33.6863 2.68498 33.5689C2.56758 33.4515 2.50163 33.2923 2.50163 33.1263C2.50163 32.9603 2.56758 32.801 2.68498 32.6836C2.80237 32.5662 2.9616 32.5003 3.12762 32.5003Z" fill="url(#paint0_linear_609_3182)"/>
<defs>
<linearGradient id="paint0_linear_609_3182" x1="35.1988" y1="-1.35687" x2="45.7828" y2="46.5277" gradientUnits="userSpaceOnUse">
<stop stop-color="#4160FF"/>
<stop offset="1" stop-color="#213269"/>
</linearGradient>
</defs>
</svg>
