<svg width="18" height="23" viewBox="0 0 18 23" fill="none" xmlns="http://www.w3.org/2000/svg">
<path d="M0.937124 14.7015H7.04287L5.81512 21.4399C5.77754 21.6467 5.81052 21.86 5.90875 22.0458C6.00698 22.2316 6.16478 22.379 6.35681 22.4643C6.54884 22.5496 6.76398 22.568 6.96769 22.5164C7.17139 22.4648 7.35186 22.3462 7.48012 22.1798L17.3576 9.35291C17.4644 9.21418 17.5302 9.04832 17.5476 8.87411C17.565 8.6999 17.5333 8.52431 17.456 8.36721C17.3787 8.21012 17.259 8.0778 17.1104 7.98525C16.9618 7.8927 16.7902 7.8436 16.6151 7.84353H10.5094L11.7371 1.10516C11.7747 0.898407 11.7417 0.685023 11.6435 0.499257C11.5453 0.31349 11.3875 0.166112 11.1954 0.0807784C11.0034 -0.00455559 10.7883 -0.0228976 10.5846 0.0286963C10.3809 0.0802902 10.2004 0.198828 10.0721 0.365284L0.194624 13.1922C0.0878296 13.3309 0.0220142 13.4967 0.00463244 13.671C-0.0127494 13.8452 0.0189969 14.0208 0.0962757 14.1779C0.173554 14.3349 0.293278 14.4673 0.441887 14.5598C0.590495 14.6524 0.762051 14.7015 0.937124 14.7015ZM9.19987 4.57091L8.463 8.61303C8.43839 8.74817 8.44377 8.88706 8.47876 9.01989C8.51376 9.15271 8.57751 9.27622 8.66552 9.38169C8.75352 9.48715 8.86363 9.57199 8.98804 9.63019C9.11246 9.6884 9.24814 9.71856 9.3855 9.71853H14.7098L8.35238 17.9742L9.08925 13.932C9.11386 13.7969 9.10848 13.658 9.07349 13.5252C9.03849 13.3924 8.97474 13.2688 8.88673 13.1634C8.79873 13.0579 8.68862 12.9731 8.56421 12.9149C8.43979 12.8567 8.30411 12.8265 8.16675 12.8265H2.8425L9.19987 4.57091Z" fill="white"/>
</svg>
