<svg width="42" height="42" viewBox="0 0 42 42" fill="none" xmlns="http://www.w3.org/2000/svg">
<path d="M7.0815 19.066L3.141 22.021L2.5605 21.4405C2.35072 21.2307 2.08348 21.0879 1.79255 21.0301C1.50162 20.9722 1.20007 21.0019 0.926018 21.1154C0.651968 21.2289 0.417724 21.4212 0.252898 21.6678C0.0880712 21.9144 6.33365e-05 22.2043 0 22.501V30.001C0 30.3988 0.158035 30.7803 0.43934 31.0616C0.720644 31.3429 1.10218 31.501 1.5 31.501H9C9.32088 31.5074 9.63538 31.4109 9.89729 31.2254C10.1592 31.0399 10.3547 30.7753 10.4551 30.4704C10.5555 30.1656 10.5554 29.8366 10.455 29.5318C10.3545 29.2269 10.159 28.9624 9.897 28.777L9.48 28.36L11.7735 25.303C9.68823 23.6721 8.06983 21.5203 7.0815 19.0645V19.066ZM28.5 33.001H26.7705L25.8825 27.6685C24.3128 28.2163 22.6625 28.4977 21 28.501C19.3375 28.4977 17.6872 28.2163 16.1175 27.6685L15.2295 33.001H13.5C13.1895 33.0012 12.8866 33.0978 12.6333 33.2775C12.38 33.4571 12.1888 33.711 12.0859 34.004C11.983 34.297 11.9736 34.6147 12.059 34.9133C12.1443 35.2119 12.3203 35.4766 12.5625 35.671L20.0625 41.671C20.3283 41.8845 20.659 42.0009 21 42.0009C21.341 42.0009 21.6717 41.8845 21.9375 41.671L29.4375 35.671C29.6797 35.4766 29.8557 35.2119 29.941 34.9133C30.0264 34.6147 30.017 34.297 29.9141 34.004C29.8112 33.711 29.62 33.4571 29.3667 33.2775C29.1134 33.0978 28.8105 33.0012 28.5 33.001ZM41.0745 21.115C40.8003 21.0014 40.4987 20.9717 40.2076 21.0296C39.9166 21.0876 39.6493 21.2306 39.4395 21.4405L38.859 22.021L34.9185 19.066C33.9299 21.5212 32.3116 23.6725 30.2265 25.303L32.52 28.36L31.9395 28.9405C31.729 29.1499 31.5856 29.4172 31.5273 29.7084C31.4691 29.9996 31.4986 30.3015 31.6122 30.5759C31.7259 30.8502 31.9184 31.0846 32.1655 31.2493C32.4126 31.414 32.7031 31.5016 33 31.501H40.5C40.8978 31.501 41.2794 31.3429 41.5607 31.0616C41.842 30.7803 42 30.3988 42 30.001V22.501C42.0001 22.2043 41.9122 21.9143 41.7475 21.6676C41.5827 21.4209 41.3485 21.2286 41.0745 21.115Z" fill="#FF4141"/>
<path d="M21 27C28.4445 27 34.5 20.943 34.5 13.5C34.5 6.057 28.4445 0 21 0C13.557 0 7.5 6.057 7.5 13.5C7.5 20.943 13.557 27 21 27ZM21 14.25C18.519 14.25 16.5 12.4005 16.5 10.125C16.5 8.085 18.126 6.399 20.25 6.069V5.25C20.25 5.05109 20.329 4.86032 20.4697 4.71967C20.6103 4.57902 20.8011 4.5 21 4.5C21.1989 4.5 21.3897 4.57902 21.5303 4.71967C21.671 4.86032 21.75 5.05109 21.75 5.25V6.069C23.874 6.399 25.5 8.085 25.5 10.125C25.5 10.3239 25.421 10.5147 25.2803 10.6553C25.1397 10.796 24.9489 10.875 24.75 10.875C24.5511 10.875 24.3603 10.796 24.2197 10.6553C24.079 10.5147 24 10.3239 24 10.125C24 8.6775 22.6545 7.5 21 7.5C19.3455 7.5 18 8.6775 18 10.125C18 11.5725 19.3455 12.75 21 12.75C23.481 12.75 25.5 14.5995 25.5 16.875C25.5 18.915 23.874 20.601 21.75 20.931V21.75C21.75 21.9489 21.671 22.1397 21.5303 22.2803C21.3897 22.421 21.1989 22.5 21 22.5C20.8011 22.5 20.6103 22.421 20.4697 22.2803C20.329 22.1397 20.25 21.9489 20.25 21.75V20.931C18.126 20.601 16.5 18.915 16.5 16.875C16.5 16.6761 16.579 16.4853 16.7197 16.3447C16.8603 16.204 17.0511 16.125 17.25 16.125C17.4489 16.125 17.6397 16.204 17.7803 16.3447C17.921 16.4853 18 16.6761 18 16.875C18 18.3225 19.3455 19.5 21 19.5C22.6545 19.5 24 18.3225 24 16.875C24 15.4275 22.6545 14.25 21 14.25Z" fill="#FF4141"/>
</svg>
