<svg width="31" height="64" viewBox="0 0 31 64" fill="none" xmlns="http://www.w3.org/2000/svg">
<g clip-path="url(#clip0_1179_6206)">
<path d="M15.4046 48.3435C15.4046 50.2035 15.4046 51.9285 15.4046 53.6547C15.4046 56.206 15.4233 58.7572 15.4184 61.3085C15.4184 62.9697 14.4493 63.991 12.9058 63.9997C11.3623 64.0085 10.3682 62.9997 10.367 61.3447C10.3612 56.2422 10.3612 51.1389 10.367 46.0347C10.367 44.2035 11.3011 43.271 13.1468 43.2585C15.6107 43.2422 18.0758 43.2585 20.5396 43.241C23.6754 43.2247 25.8945 41.0547 25.9094 37.9972C25.9282 34.9972 23.6616 32.7085 20.5821 32.6735C18.0333 32.6435 15.4833 32.6735 12.9333 32.656C10.9851 32.6397 9.79504 30.9397 10.4656 29.156C10.8603 28.1097 11.6682 27.5772 12.7559 27.5672C15.6169 27.5435 18.4829 27.461 21.3376 27.591C26.9872 27.8497 31.1456 32.6372 30.992 38.5535C30.8609 43.8997 26.3203 48.2872 20.8706 48.341C19.0848 48.3585 17.304 48.3435 15.4046 48.3435Z" fill="white"/>
<path d="M0.0152564 40.4092C0.0152564 37.1767 -0.0147149 33.9429 0.0227489 30.7104C0.0864372 25.0054 4.23492 20.2742 9.86947 19.6229C11.8288 19.3967 13.8306 19.5417 15.8125 19.5217C16.4643 19.5217 17.1162 19.5129 17.7681 19.5217C19.3478 19.5454 20.4755 20.6979 20.4854 22.2879C20.4942 23.8167 19.3915 24.9917 17.8305 25.0229C15.82 25.0642 13.8082 25.0479 11.7964 25.0467C9.78455 25.0454 8.00752 25.6254 6.72876 27.3154C5.83088 28.5017 5.53616 29.8517 5.53866 31.3154C5.54865 37.8088 5.55115 44.3025 5.54615 50.7967C5.54615 52.5892 4.45096 53.7792 2.78632 53.7767C1.12169 53.7742 0.0277452 52.5904 0.0239989 50.7929C0.0190037 47.3329 0.0190037 43.8746 0.0239989 40.4179L0.0152564 40.4092Z" fill="white"/>
<path d="M10.1128 12.3217C9.57083 10.1967 9.0476 8.16672 8.54933 6.13547C8.50437 5.95172 8.61925 5.73047 8.65921 5.52547C8.87276 5.61172 9.15874 5.63797 9.29111 5.79172C10.0616 6.65922 10.7897 7.57171 11.5527 8.44297C12.1908 9.16546 12.5205 9.13922 13.0774 8.36172C13.577 7.67047 14.0765 6.98672 14.5123 6.25547C14.695 5.94309 14.7963 5.58978 14.807 5.22797C14.8445 3.81172 14.8233 2.39297 14.8395 0.977968C14.8395 0.565468 14.7708 0.0254678 15.3827 0.00546781C15.9946 -0.0145322 16.0521 0.481716 16.0508 0.967966C16.0508 2.21797 15.9734 3.46797 16.077 4.70922C16.1345 5.40297 16.4217 6.10421 16.7314 6.73921C17.0411 7.37421 17.5082 7.91922 17.8978 8.51047C18.2724 9.07047 18.6783 9.13547 19.1278 8.61297C19.9096 7.71547 20.6701 6.79922 21.4706 5.92047C21.6504 5.72422 21.9626 5.64797 22.2198 5.51672C22.2511 5.79172 22.366 6.08922 22.301 6.33922C21.8427 8.12172 21.3444 9.89422 20.8674 11.673C20.7687 12.0405 20.7001 12.3405 20.1793 12.3367C16.86 12.3105 13.5457 12.3217 10.1128 12.3217Z" fill="white"/>
<path d="M14.1559 40.8254C13.4191 40.8254 12.6823 40.8441 11.9468 40.8254C10.4982 40.7816 9.38302 39.7191 9.31309 38.3441C9.23442 36.7666 10.1947 35.4429 11.6858 35.3441C13.3815 35.2295 15.0825 35.2174 16.7796 35.3079C18.207 35.3854 19.1823 36.7316 19.1061 38.2541C19.0744 38.9257 18.794 39.5615 18.3196 40.0375C17.8452 40.5135 17.2107 40.7957 16.5399 40.8291C15.7469 40.8579 14.9526 40.8291 14.1597 40.8291L14.1559 40.8254Z" fill="white"/>
<path d="M10.1016 14.7497V13.5947H19.8271C20.7837 13.5947 20.8437 13.6847 20.5677 14.7485L10.1016 14.7497Z" fill="white"/>
</g>
<defs>
<clipPath id="clip0_1179_6206">
<rect width="31" height="64" fill="white"/>
</clipPath>
</defs>
</svg>
