<svg width="40" height="36" viewBox="0 0 40 36" fill="none" xmlns="http://www.w3.org/2000/svg">
<path d="M20 11.7188H16.8438L14.1406 4.50898V11.7188H11.7969V0H14.9531L17.6562 7.20977V0H20V11.7188ZM24.6875 11.7188C22.7489 11.7188 21.1719 10.1417 21.1719 8.20312V3.51562C21.1719 1.57703 22.7489 0 24.6875 0C26.6261 0 28.2031 1.57703 28.2031 3.51562V8.20312C28.2031 10.1417 26.6261 11.7188 24.6875 11.7188ZM24.6875 2.34375C24.0409 2.34375 23.5156 2.86906 23.5156 3.51562V8.20312C23.5156 8.84969 24.0409 9.375 24.6875 9.375C25.3341 9.375 25.8594 8.84969 25.8594 8.20312V3.51562C25.8594 2.86906 25.3341 2.34375 24.6875 2.34375ZM36.4844 14.0625H3.51562C1.57703 14.0625 0 15.6395 0 17.5781V31.6406C0 33.5792 1.57703 35.1562 3.51562 35.1562H36.4844C38.423 35.1562 40 33.5792 40 31.6406V17.5781C40 15.6395 38.423 14.0625 36.4844 14.0625ZM12.9688 21.0938H8.28125V23.4375H10.625V25.7812H8.28125V30.4688H5.9375V18.75H12.9688V21.0938ZM20 21.0938H16.4844V23.4375H18.8281V25.7812H16.4844V28.125H20V30.4688H14.1406V18.75H20V21.0938ZM27.0312 21.0938H23.5156V23.4375H25.8594V25.7812H23.5156V28.125H27.0312V30.4688H21.1719V18.75H27.0312V21.0938ZM31.7188 30.4688C30.778 30.4688 29.8945 30.1025 29.232 29.4377L28.4045 28.608L30.0639 26.9531L30.8913 27.7828C31.5642 28.4615 32.8906 27.9133 32.8906 26.9531C32.8906 26.3066 32.3653 25.7812 31.7188 25.7812C29.7802 25.7812 28.2031 24.2042 28.2031 22.2656C28.2031 20.327 29.7802 18.75 31.7188 18.75C32.6595 18.75 33.543 19.1162 34.2055 19.7811L35.033 20.6108L33.3736 22.2656L32.5462 21.4359C31.8755 20.7619 30.5491 21.3066 30.5469 22.2656C30.5469 22.9122 31.0722 23.4375 31.7188 23.4375C33.6573 23.4375 35.2344 25.0145 35.2344 26.9531C35.2344 28.8917 33.6573 30.4688 31.7188 30.4688Z" fill="url(#paint0_linear_609_3200)"/>
<defs>
<linearGradient id="paint0_linear_609_3200" x1="37.5478" y1="-1.27211" x2="46.3622" y2="44.102" gradientUnits="userSpaceOnUse">
<stop stop-color="#4160FF"/>
<stop offset="1" stop-color="#213269"/>
</linearGradient>
</defs>
</svg>
