<svg width="40" height="40" viewBox="0 0 40 40" fill="none" xmlns="http://www.w3.org/2000/svg">
<path d="M13.8542 21.7621L8.40421 16.3121L8.99588 15.7246C9.13685 15.5812 9.21585 15.3882 9.21585 15.1871C9.21585 14.986 9.13685 14.793 8.99588 14.6496L8.40421 14.0621L14.0667 8.39958L14.6542 8.99124C14.7972 9.13292 14.9904 9.2123 15.1917 9.21208C15.5834 9.21208 15.7084 9.01208 16.325 8.40374L21.7667 13.8454L22.8375 12.7746L16.1417 6.07874C15.9475 5.88689 15.6855 5.7793 15.4125 5.7793C15.1396 5.7793 14.8776 5.88689 14.6834 6.07874L6.08754 14.6787C5.99154 14.7744 5.91537 14.888 5.8634 15.0131C5.81142 15.1383 5.78467 15.2724 5.78467 15.4079C5.78467 15.5434 5.81142 15.6776 5.8634 15.8027C5.91537 15.9278 5.99154 16.0415 6.08754 16.1371L12.7792 22.8329L13.8542 21.7621ZM33.0917 23.0287L26.4 16.3371L25.3292 17.4079L30.7709 22.8537L30.1792 23.4412C30.0372 23.5841 29.9575 23.7773 29.9575 23.9787C29.9575 24.1802 30.0372 24.3734 30.1792 24.5162L30.7709 25.1037L25.1167 30.7621L24.525 30.1787C24.4542 30.1072 24.3698 30.0504 24.2768 30.0118C24.1838 29.9731 24.0841 29.9534 23.9834 29.9537C23.5667 29.9537 23.45 30.1704 22.8584 30.7871L17.4125 25.3204L16.3417 26.3912L23.0334 33.0871C23.2276 33.2789 23.4896 33.3865 23.7625 33.3865C24.0355 33.3865 24.2975 33.2789 24.4917 33.0871L33.0917 24.4871C33.2836 24.2929 33.3912 24.0309 33.3912 23.7579C33.3912 23.4849 33.2836 23.2229 33.0917 23.0287Z" fill="#4160FF"/>
<path d="M14.4416 21.1712L21.1749 14.4379L16.3207 9.58372C16.0216 9.88218 15.6162 10.0498 15.1937 10.0498C14.7711 10.0498 14.3657 9.88218 14.0666 9.58372L9.58324 14.0629C9.88144 14.3613 10.0489 14.766 10.0489 15.1879C10.0489 15.6098 9.88144 16.0144 9.58324 16.3129L14.4416 21.1712ZM14.5374 14.5337C14.6155 14.4561 14.7211 14.4126 14.8312 14.4126C14.9412 14.4126 15.0468 14.4561 15.1249 14.5337L17.0332 16.4379C17.092 16.4962 17.1321 16.5706 17.1484 16.6518C17.1646 16.7329 17.1564 16.8171 17.1246 16.8935C17.0929 16.9699 17.0391 17.0352 16.9702 17.0809C16.9012 17.1267 16.8202 17.1509 16.7374 17.1504C16.6826 17.1507 16.6282 17.1402 16.5774 17.1195C16.5267 17.0987 16.4805 17.0682 16.4416 17.0296L14.5374 15.1212C14.4598 15.0432 14.4162 14.9376 14.4162 14.8275C14.4162 14.7174 14.4598 14.6118 14.5374 14.5337ZM24.7374 17.9962L18.0041 24.7337L22.8582 29.5837C23.1574 29.2853 23.5627 29.1177 23.9853 29.1177C24.4079 29.1177 24.8132 29.2853 25.1124 29.5837L29.5832 25.1046C29.285 24.8061 29.1175 24.4015 29.1175 23.9796C29.1175 23.5577 29.285 23.153 29.5832 22.8546L24.7374 17.9962ZM24.6374 24.6337C24.5593 24.7113 24.4537 24.7549 24.3437 24.7549C24.2336 24.7549 24.128 24.7113 24.0499 24.6337L22.1416 22.7296C22.0631 22.6511 22.019 22.5447 22.019 22.4337C22.019 22.3228 22.0631 22.2164 22.1416 22.1379C22.22 22.0594 22.3264 22.0154 22.4374 22.0154C22.5484 22.0154 22.6548 22.0594 22.7332 22.1379L24.6374 24.0462C24.715 24.1243 24.7586 24.2299 24.7586 24.34C24.7586 24.4501 24.715 24.5557 24.6374 24.6337ZM29.1999 7.58789L7.5874 29.2004C8.29305 30.0789 9.0922 30.8781 9.97074 31.5837L31.5791 9.97539C30.8761 9.09461 30.0782 8.29395 29.1999 7.58789Z" fill="#4160FF"/>
<path d="M19.5833 0C15.7101 0 11.9239 1.14854 8.70342 3.30039C5.48296 5.45223 2.97292 8.51073 1.4907 12.0891C0.00848522 15.6675 -0.37933 19.6051 0.376297 23.4039C1.13192 27.2026 2.99706 30.6921 5.73583 33.4308C8.47461 36.1696 11.964 38.0348 15.7628 38.7904C19.5616 39.546 23.4992 39.1582 27.0776 37.676C30.6559 36.1938 33.7144 33.6837 35.8663 30.4632C38.0181 27.2428 39.1667 23.4566 39.1667 19.5833C39.1667 17.0116 38.6601 14.4651 37.676 12.0891C36.6918 9.71316 35.2493 7.55431 33.4308 5.73583C31.6124 3.91734 29.4535 2.47485 27.0776 1.49069C24.7016 0.506538 22.1551 0 19.5833 0ZM19.5833 35.7958C16.3756 35.7967 13.2397 34.8462 10.5723 33.0646C7.90482 31.283 5.82564 28.7503 4.59773 25.7869C3.36981 22.8236 3.04831 19.5626 3.6739 16.4165C4.2995 13.2704 5.84407 10.3804 8.11226 8.11225C10.3805 5.84406 13.2704 4.29949 16.4165 3.6739C19.5626 3.04831 22.8236 3.3698 25.787 4.59772C28.7503 5.82564 31.283 7.90481 33.0646 10.5723C34.8462 13.2397 35.7967 16.3756 35.7958 19.5833C35.7859 23.8801 34.0747 27.9981 31.0364 31.0364C27.9981 34.0746 23.8801 35.7859 19.5833 35.7958Z" fill="#4160FF"/>
</svg>
