<svg width="20" height="20" viewBox="0 0 20 20" fill="none" xmlns="http://www.w3.org/2000/svg">
<path fill-rule="evenodd" clip-rule="evenodd" d="M14.355 12.585L10.705 14.695C10.705 14.695 12.5 16 11.62 17.625L14 16.255V19.5C14 19.6326 14.0527 19.7598 14.1465 19.8536C14.2402 19.9473 14.3674 20 14.5 20H19.5C19.6326 20 19.7598 19.9473 19.8536 19.8536C19.9473 19.7598 20 19.6326 20 19.5V14C19.9999 13.3314 19.7764 12.682 19.365 12.1549C18.9537 11.6278 18.378 11.2532 17.7295 11.0906C17.0809 10.9281 16.3966 10.9868 15.7853 11.2576C15.1739 11.5283 14.6705 11.9955 14.355 12.585ZM6.00002 16.175L8.88503 17.84C9.05572 17.9386 9.24417 18.0026 9.4396 18.0283C9.63504 18.054 9.83363 18.041 10.024 17.9899C10.2144 17.9388 10.3929 17.8507 10.5492 17.7306C10.7055 17.6105 10.8366 17.4608 10.935 17.29C11.1326 16.9457 11.1856 16.5372 11.0825 16.1539C10.9794 15.7706 10.7286 15.4437 10.385 15.245C10.385 15.245 5.65502 12.5 5.60502 12.5C5.27638 11.9246 4.76648 11.4742 4.15492 11.2191C3.54336 10.964 2.86455 10.9186 2.22444 11.0899C1.58433 11.2612 1.01895 11.6396 0.616543 12.1661C0.214138 12.6925 -0.00264809 13.3374 2.44166e-05 14V19.5C2.44166e-05 19.6326 0.0527029 19.7598 0.146471 19.8536C0.240239 19.9473 0.367416 20 0.500024 20H5.50002C5.63263 20 5.75981 19.9473 5.85358 19.8536C5.94735 19.7598 6.00002 19.6326 6.00002 19.5V16.175ZM8.85502 12.645L7.85502 11.645C7.76087 11.5508 7.63318 11.498 7.50002 11.498C7.36687 11.498 7.23918 11.5508 7.14502 11.645C7.05087 11.7392 6.99798 11.8668 6.99798 12C6.99798 12.1332 7.05087 12.2608 7.14502 12.355L8.14503 13.355C8.23918 13.4492 8.36687 13.502 8.50002 13.502C8.63318 13.502 8.76087 13.4492 8.85502 13.355C8.94918 13.2608 9.00207 13.1332 9.00207 13C9.00207 12.8668 8.94918 12.7392 8.85502 12.645ZM11.855 13.355L12.855 12.355C12.9492 12.2608 13.0021 12.1332 13.0021 12C13.0021 11.8668 12.9492 11.7392 12.855 11.645C12.7609 11.5508 12.6332 11.498 12.5 11.498C12.3669 11.498 12.2392 11.5508 12.145 11.645L11.145 12.645C11.0509 12.7392 10.998 12.8668 10.998 13C10.998 13.1332 11.0509 13.2608 11.145 13.355C11.2392 13.4492 11.3669 13.502 11.5 13.502C11.6332 13.502 11.7609 13.4492 11.855 13.355ZM9.50002 11V12.5C9.50002 12.6326 9.5527 12.7598 9.64647 12.8536C9.74024 12.9473 9.86742 13 10 13C10.1326 13 10.2598 12.9473 10.3536 12.8536C10.4473 12.7598 10.5 12.6326 10.5 12.5V11C10.5 10.8674 10.4473 10.7402 10.3536 10.6464C10.2598 10.5527 10.1326 10.5 10 10.5C9.86742 10.5 9.74024 10.5527 9.64647 10.6464C9.5527 10.7402 9.50002 10.8674 9.50002 11ZM3.00002 5.5C2.50557 5.5 2.02222 5.64662 1.6111 5.92133C1.19998 6.19603 0.879545 6.58648 0.690326 7.04329C0.501107 7.50011 0.451598 8.00277 0.548061 8.48773C0.644524 8.97268 0.882626 9.41814 1.23226 9.76777C1.58189 10.1174 2.02735 10.3555 2.5123 10.452C2.99725 10.5484 3.49992 10.4989 3.95673 10.3097C4.41355 10.1205 4.80399 9.80005 5.0787 9.38893C5.3534 8.9778 5.50002 8.49445 5.50002 8C5.50002 7.33696 5.23663 6.70107 4.76779 6.23223C4.29895 5.76339 3.66307 5.5 3.00002 5.5ZM17 5.5C16.5056 5.5 16.0222 5.64662 15.6111 5.92133C15.2 6.19603 14.8795 6.58648 14.6903 7.04329C14.5011 7.50011 14.4516 8.00277 14.5481 8.48773C14.6445 8.97268 14.8826 9.41814 15.2323 9.76777C15.5819 10.1174 16.0273 10.3555 16.5123 10.452C16.9973 10.5484 17.4999 10.4989 17.9567 10.3097C18.4135 10.1205 18.804 9.80005 19.0787 9.38893C19.3534 8.9778 19.5 8.49445 19.5 8C19.5 7.33696 19.2366 6.70107 18.7678 6.23223C18.299 5.76339 17.6631 5.5 17 5.5ZM10 0C9.11001 0 8.23998 0.26392 7.49996 0.758387C6.75994 1.25285 6.18316 1.95566 5.84257 2.77792C5.50197 3.60019 5.41286 4.50499 5.58649 5.37791C5.76012 6.25082 6.18871 7.05264 6.81804 7.68198C7.44738 8.31132 8.2492 8.7399 9.12212 8.91353C9.99503 9.08717 10.8998 8.99805 11.7221 8.65746C12.5444 8.31686 13.2472 7.74009 13.7416 7.00007C14.2361 6.26004 14.5 5.39002 14.5 4.5C14.5 3.30653 14.0259 2.16193 13.182 1.31802C12.3381 0.474106 11.1935 0 10 0ZM9.50002 2.525C9.21768 2.58263 8.96393 2.73605 8.7817 2.95927C8.59947 3.1825 8.49997 3.46184 8.50002 3.75C8.50002 4.08152 8.63172 4.39946 8.86614 4.63388C9.10056 4.8683 9.4185 5 9.75002 5H10.25C10.3163 5 10.3799 5.02634 10.4268 5.07322C10.4737 5.12011 10.5 5.1837 10.5 5.25C10.5 5.3163 10.4737 5.37989 10.4268 5.42678C10.3799 5.47366 10.3163 5.5 10.25 5.5H9.00002C8.86742 5.5 8.74024 5.55268 8.64647 5.64645C8.5527 5.74021 8.50002 5.86739 8.50002 6C8.50002 6.13261 8.5527 6.25979 8.64647 6.35355C8.74024 6.44732 8.86742 6.5 9.00002 6.5H9.50002V7C9.50002 7.13261 9.5527 7.25979 9.64647 7.35355C9.74024 7.44732 9.86742 7.5 10 7.5C10.1326 7.5 10.2598 7.44732 10.3536 7.35355C10.4473 7.25979 10.5 7.13261 10.5 7V6.5C10.8315 6.46685 11.1363 6.30336 11.3473 6.0455C11.5583 5.78763 11.6582 5.45652 11.625 5.125C11.5919 4.79348 11.4284 4.48871 11.1705 4.27773C10.9127 4.06675 10.5815 3.96685 10.25 4H9.75002C9.68372 4 9.62013 3.97366 9.57325 3.92678C9.52636 3.87989 9.50002 3.8163 9.50002 3.75C9.50002 3.6837 9.52636 3.62011 9.57325 3.57322C9.62013 3.52634 9.68372 3.5 9.75002 3.5H11C11.1326 3.5 11.2598 3.44732 11.3536 3.35355C11.4473 3.25979 11.5 3.13261 11.5 3C11.5 2.86739 11.4473 2.74021 11.3536 2.64645C11.2598 2.55268 11.1326 2.5 11 2.5H10.5V2C10.5 1.86739 10.4473 1.74021 10.3536 1.64645C10.2598 1.55268 10.1326 1.5 10 1.5C9.86742 1.5 9.74024 1.55268 9.64647 1.64645C9.5527 1.74021 9.50002 1.86739 9.50002 2V2.525Z" fill="white"/>
</svg>
