<svg width="20" height="20" viewBox="0 0 20 20" fill="none" xmlns="http://www.w3.org/2000/svg">
<path fill-rule="evenodd" clip-rule="evenodd" d="M11.0936 9.37033L14.0101 10.1298C14.0167 10.1316 14.0236 10.1318 14.0302 10.1302C14.0369 10.1286 14.043 10.1254 14.048 10.1208L16.5782 7.89649C16.5855 7.89024 16.5903 7.88159 16.5918 7.8721L16.7328 7.03158C16.7776 6.76474 17.0325 6.58311 17.2993 6.62789C17.5661 6.67268 17.7477 6.92761 17.703 7.19439L17.6717 7.38097C17.6704 7.38827 17.6711 7.39577 17.6738 7.4027C17.6764 7.40963 17.6808 7.41573 17.6866 7.42037C17.6924 7.42501 17.6993 7.42803 17.7066 7.4291C17.714 7.43017 17.7214 7.42926 17.7283 7.42647L18.8845 6.95933C19.4044 6.74981 19.7768 6.87274 19.9652 7.39767C19.9685 7.40671 19.9685 7.41661 19.9653 7.42568C19.9621 7.43475 19.9558 7.44242 19.9475 7.44735L17.4064 8.99017L15.8144 11.2791C15.5569 11.6493 15.2762 12.091 14.8256 12.0739L12.7535 11.9954C12.7479 11.9952 12.7424 11.9961 12.7371 11.9981C12.7319 12 12.7271 12.0031 12.7231 12.007C12.719 12.0108 12.7158 12.0155 12.7136 12.0207C12.7114 12.0258 12.7103 12.0314 12.7103 12.037V15.2862C12.7104 15.2941 12.7083 15.3018 12.7041 15.3085C12.6999 15.3151 12.6939 15.3205 12.6867 15.3238L10.7987 16.2284C10.7902 16.2326 10.7806 16.2337 10.7714 16.2316C10.7622 16.2295 10.754 16.2243 10.7482 16.2169L9.16616 14.2421C9.16012 14.2344 9.15157 14.2292 9.14202 14.2272C9.13247 14.2253 9.12254 14.2268 9.11398 14.2314L7.31854 15.1952C7.31221 15.1986 7.30509 15.2004 7.29789 15.2002C7.29069 15.2 7.28365 15.198 7.27747 15.1943C7.27129 15.1906 7.26618 15.1854 7.26264 15.1791C7.25909 15.1728 7.25723 15.1658 7.25725 15.1586V12.037C7.25727 12.0314 7.25616 12.0259 7.25398 12.0207C7.25179 12.0155 7.24858 12.0109 7.24455 12.007C7.24051 12.0031 7.23572 12.0001 7.23048 11.9981C7.22524 11.9961 7.21965 11.9952 7.21405 11.9954L5.14198 12.074C4.69136 12.0911 4.4107 11.6494 4.15323 11.2791L2.54864 8.97836L0.0201432 7.4474C0.0118757 7.44247 0.00559026 7.43481 0.00237357 7.42574C-0.000843107 7.41667 -0.00078883 7.40675 0.0025272 7.39772C0.190927 6.87274 0.563311 6.74986 1.0832 6.95938L2.31008 7.45493L2.48187 7.50711C2.74074 7.58573 2.48643 7.15575 2.75696 7.15575C3.02749 7.15575 3.27872 7.29265 3.32346 7.55943L3.37592 7.87215C3.37737 7.88165 3.38219 7.8903 3.3895 7.89653L5.91963 10.1209C5.92469 10.1254 5.93082 10.1287 5.93746 10.1302C5.94409 10.1318 5.95102 10.1317 5.9576 10.1299L8.87408 9.37037C9.63541 9.17209 10.3323 9.17209 11.0936 9.37033ZM1.16566 19.2071C1.12179 19.2307 1.14963 19.298 1.1973 19.2837L8.4764 17.1027C8.49301 17.0978 8.51 17.1031 8.52085 17.1166L10.0326 19.0036C10.0384 19.011 10.0466 19.0162 10.0558 19.0183C10.065 19.0204 10.0746 19.0193 10.0831 19.0152L17.393 15.5126C17.4025 15.5081 17.4133 15.5073 17.4233 15.5104C17.4334 15.5135 17.4418 15.5203 17.4471 15.5294L17.8133 16.1637C17.817 16.17 17.8222 16.1753 17.8285 16.1789C17.8349 16.1826 17.842 16.1845 17.8494 16.1845C17.8567 16.1845 17.8639 16.1826 17.8702 16.1789C17.8765 16.1753 17.8818 16.17 17.8854 16.1637L19.4589 13.4382C19.4626 13.4319 19.4646 13.4247 19.4646 13.4174C19.4646 13.4101 19.4627 13.4029 19.459 13.3966C19.4553 13.3902 19.4501 13.385 19.4437 13.3813C19.4374 13.3777 19.4302 13.3758 19.4229 13.3758H16.2758C16.2685 13.3758 16.2613 13.3777 16.255 13.3813C16.2486 13.385 16.2434 13.3902 16.2397 13.3966C16.2361 13.4029 16.2341 13.4101 16.2342 13.4174C16.2342 13.4247 16.2361 13.4319 16.2398 13.4382L16.6134 14.0853C16.6163 14.0903 16.6181 14.0958 16.6187 14.1015C16.6194 14.1072 16.6189 14.113 16.6172 14.1185C16.6155 14.124 16.6126 14.129 16.6089 14.1334C16.6051 14.1377 16.6005 14.1412 16.5953 14.1437L10.6214 17.006C10.6129 17.0101 10.6033 17.0112 10.5941 17.0091C10.5849 17.007 10.5767 17.0019 10.5709 16.9945L9.00373 15.0382C8.99769 15.0306 8.98914 15.0253 8.97959 15.0233C8.97004 15.0214 8.96011 15.0229 8.95155 15.0276L1.16566 19.2071ZM16.7718 0.913686C16.7312 0.906687 16.6924 0.891739 16.6577 0.869699C16.6229 0.84766 16.5928 0.818966 16.5692 0.785266C16.5456 0.751567 16.5288 0.713529 16.52 0.673338C16.5111 0.633148 16.5102 0.591599 16.5175 0.551081C16.5247 0.510563 16.5399 0.471877 16.5621 0.437246C16.5844 0.402616 16.6133 0.372725 16.6471 0.349293C16.6809 0.325861 16.7191 0.30935 16.7593 0.30071C16.7996 0.292071 16.8411 0.291473 16.8816 0.298951L18.6801 0.620406C18.8946 0.65871 19.0027 0.901687 18.8948 1.08543C18.8943 1.08624 18.8939 1.08707 18.8935 1.08793L18.0923 2.70217C18.0746 2.73943 18.0496 2.77279 18.0189 2.80031C17.9881 2.82783 17.9522 2.84897 17.9132 2.8625C17.8742 2.87603 17.8329 2.88167 17.7917 2.8791C17.7505 2.87654 17.7103 2.86581 17.6733 2.84755C17.6362 2.82929 17.6032 2.80385 17.5761 2.77272C17.549 2.7416 17.5284 2.70539 17.5154 2.66622C17.5024 2.62704 17.4973 2.58568 17.5005 2.54453C17.5036 2.50338 17.5149 2.46326 17.5337 2.4265L17.8907 1.70703C17.9083 1.67165 17.8711 1.63393 17.8354 1.65101L13.4976 3.72946C13.4431 3.75562 13.5083 3.84255 13.4449 4.07929C13.3123 4.57412 12.8037 4.86778 12.3089 4.73521C11.8013 4.59922 11.5078 4.06863 11.6622 3.56708C11.6648 3.55907 11.6648 3.55047 11.6623 3.54245C11.6598 3.53442 11.6549 3.52735 11.6483 3.5222L9.3944 1.73295C9.38788 1.72767 9.3799 1.72451 9.37154 1.7239C9.36317 1.72329 9.35481 1.72526 9.3476 1.72954C8.99494 1.9345 8.54739 1.88597 8.24787 1.60551C8.24181 1.59969 8.2341 1.59589 8.22579 1.59461C8.21749 1.59333 8.20899 1.59464 8.20146 1.59836L3.75382 3.72946C3.6993 3.75562 3.76453 3.84255 3.70107 4.07924C3.5685 4.57407 3.05984 4.86773 2.56501 4.73516C2.07018 4.60258 1.77651 4.09393 1.90914 3.59914C2.09192 2.91701 2.93422 2.68916 3.43861 3.16143C3.44468 3.16725 3.4524 3.17106 3.46071 3.17234C3.46902 3.17362 3.47753 3.17231 3.48507 3.16858L7.9327 1.03753C7.98723 1.01137 7.922 0.924438 7.98546 0.68775C8.11803 0.192918 8.62669 -0.100746 9.12152 0.0318304C9.62907 0.167814 9.92259 0.698407 9.76818 1.19996C9.76562 1.20796 9.76558 1.21656 9.76807 1.22459C9.77056 1.23262 9.77545 1.23969 9.7821 1.24484L12.036 3.03409C12.0497 3.04493 12.0677 3.04623 12.0828 3.03745C12.4353 2.83249 12.883 2.88101 13.1825 3.16148C13.1886 3.16729 13.1963 3.1711 13.2046 3.17238C13.2129 3.17366 13.2214 3.17235 13.229 3.16863L17.5025 1.12095C17.5389 1.10353 17.5316 1.04953 17.4919 1.04242L16.7718 0.913686ZM9.98384 5.25351C9.00992 5.25351 8.22037 6.04306 8.22037 7.01698C8.22037 7.9909 9.00992 8.78045 9.98384 8.78045C10.9578 8.78045 11.7473 7.9909 11.7473 7.01698C11.7473 6.04306 10.9578 5.25351 9.98384 5.25351Z" fill="white"/>
</svg>
