<svg width="24" height="24" viewBox="0 0 24 24" fill="none" xmlns="http://www.w3.org/2000/svg">
<path d="M18.3857 11.1388C17.7917 11.0795 16.4848 11.0795 16.4848 10.2478C16.4848 9.11941 18.1479 7.63441 20.8209 6.03053C21.6523 5.49578 23.3754 4.66441 23.3754 3.53566C23.3754 2.64466 22.7218 1.99141 21.3557 2.16953C20.0488 2.34766 18.029 3.23866 15.3564 5.49578C12.5645 7.81253 9.95117 11.6735 9.95117 15.4749C9.95117 19.3359 12.5645 23.1969 16.7822 23.1969C20.1677 23.1969 23.0784 20.6428 23.0784 17.138C23.078 14.465 21.2368 11.3765 18.3857 11.1388Z" fill="#3D4753"/>
<path d="M10.0354 9.46852C9.53882 9.20607 8.9945 9.04627 8.43488 8.99865C7.84088 8.9394 6.534 8.9394 6.534 8.10765C6.534 6.97927 8.19712 5.49427 10.8701 3.8904C11.7019 3.35565 13.4242 2.52427 13.4242 1.39552C13.4242 0.504523 12.7706 -0.148727 11.4045 0.0293981C10.0976 0.207523 8.07788 1.09852 5.40525 3.35565C2.61375 5.6724 0 9.5334 0 13.3351C0 17.1961 2.61337 21.0571 6.831 21.0571C7.79523 21.0583 8.7479 20.8472 9.62138 20.4388C8.78925 18.9343 8.34562 17.1935 8.34562 15.4753C8.346 13.3535 9.02925 11.2959 10.0354 9.46852Z" fill="#3D4753"/>
</svg>
