<svg width="36" height="40" viewBox="0 0 36 40" fill="none" xmlns="http://www.w3.org/2000/svg">
<path d="M35.2283 5.59817C35.1932 5.34579 35.0851 5.10918 34.9173 4.91742C34.7495 4.72566 34.5293 4.5871 34.2838 4.51878L18.2072 0.0478449C17.978 -0.0159483 17.7357 -0.0159483 17.5065 0.0478449L1.42981 4.51878C1.18431 4.58706 0.964115 4.7256 0.796312 4.91737C0.628509 5.10914 0.520416 5.34578 0.485326 5.59817C0.39208 6.26867 -1.73515 22.1111 3.72106 29.9922C9.17082 37.864 17.2104 39.8812 17.5499 39.9633C17.7516 40.0121 17.9621 40.0121 18.1638 39.9633C18.5035 39.8812 26.543 37.864 31.9926 29.9922C37.4488 22.1113 35.3216 6.26885 35.2283 5.59817ZM28.2242 14.8471L17.2583 25.8131C17.0031 26.0682 16.6685 26.196 16.334 26.196C15.9996 26.196 15.6649 26.0684 15.4098 25.8131L8.62964 19.0329C8.50821 18.9116 8.41188 18.7675 8.34616 18.6089C8.28044 18.4503 8.24661 18.2803 8.24661 18.1087C8.24661 17.937 8.28044 17.767 8.34616 17.6084C8.41188 17.4498 8.50821 17.3057 8.62964 17.1844L9.97587 15.8382C10.221 15.5931 10.5535 15.4554 10.9001 15.4554C11.2468 15.4554 11.5793 15.5931 11.8244 15.8382L16.334 20.3478L25.0295 11.6522C25.1508 11.5308 25.2949 11.4344 25.4535 11.3687C25.6121 11.303 25.7821 11.2692 25.9537 11.2692C26.1254 11.2692 26.2954 11.303 26.454 11.3687C26.6126 11.4344 26.7567 11.5308 26.878 11.6522L28.2242 12.9984C28.3456 13.1198 28.4419 13.2639 28.5076 13.4225C28.5733 13.5811 28.6071 13.7511 28.6071 13.9228C28.6071 14.0945 28.5733 14.2645 28.5076 14.4231C28.4419 14.5817 28.3456 14.7258 28.2242 14.8471Z" fill="url(#paint0_linear_609_3212)"/>
<defs>
<linearGradient id="paint0_linear_609_3212" x1="33.5243" y1="-1.44738" x2="46.0207" y2="49.0329" gradientUnits="userSpaceOnUse">
<stop stop-color="#4160FF"/>
<stop offset="1" stop-color="#213269"/>
</linearGradient>
</defs>
</svg>
