<svg width="24" height="24" viewBox="0 0 24 24" fill="none" xmlns="http://www.w3.org/2000/svg">
<g clip-path="url(#clip0_488_2407)">
<path d="M12 0C5.38316 0 0 5.38316 0 12C0 18.6168 5.38316 23.9999 12 23.9999C18.6168 23.9999 24 18.6167 24 12C24 5.38328 18.6167 0 12 0ZM18.0549 10.6568L15.6839 12.968L16.2437 16.2315C16.2721 16.3979 16.2535 16.5689 16.1898 16.7252C16.1262 16.8816 16.0201 17.017 15.8835 17.1162C15.747 17.2154 15.5854 17.2744 15.4171 17.2867C15.2487 17.2989 15.0803 17.2638 14.9309 17.1853L12.0001 15.6445L9.06925 17.1854C8.91982 17.2641 8.75136 17.2993 8.58293 17.2872C8.41451 17.2751 8.25284 17.2161 8.11622 17.1168C7.97961 17.0175 7.8735 16.882 7.80991 16.7256C7.74633 16.5692 7.7278 16.3981 7.75642 16.2316L8.3162 12.9682L5.94499 10.6568C5.82411 10.5389 5.73862 10.3896 5.69818 10.2257C5.65774 10.0618 5.66397 9.8898 5.71616 9.72924C5.76835 9.56869 5.86442 9.42593 5.9935 9.31712C6.12259 9.20831 6.27954 9.13779 6.44662 9.11353L9.72325 8.63735L11.1886 5.66812C11.2633 5.51672 11.3789 5.38926 11.5223 5.30013C11.6657 5.21101 11.8312 5.16378 12 5.16378C12.1688 5.16378 12.3343 5.21101 12.4777 5.30013C12.6211 5.38926 12.7367 5.51672 12.8114 5.66812L14.2768 8.63735L17.5534 9.11353C17.7204 9.13781 17.8774 9.20834 18.0065 9.31716C18.1355 9.42598 18.2316 9.56873 18.2838 9.72929C18.3359 9.88984 18.3421 10.0618 18.3017 10.2257C18.2613 10.3896 18.1758 10.5389 18.0549 10.6568Z" fill="white"/>
</g>
<defs>
<clipPath id="clip0_488_2407">
<rect width="24" height="24" fill="white"/>
</clipPath>
</defs>
</svg>
