<svg width="21" height="24" viewBox="0 0 21 24" fill="none" xmlns="http://www.w3.org/2000/svg">
<path d="M5.55348 9.15404C8.28654 8.24708 10.7322 8.7093 10.7322 8.7093L10.7406 9.42165C10.7528 10.5727 11.0675 10.6776 11.0675 10.6776C11.8118 11.2591 12.4869 10.6373 12.4869 10.6373L17.3722 7.04058C17.4968 6.94783 18.2335 6.49093 18.2358 5.29279C18.2366 4.09313 17.2247 3.52143 17.2247 3.52143L12.5021 0.306377C11.7084 -0.233393 11.2636 0.103393 11.2636 0.103393C10.6798 0.485034 10.733 0.985271 10.733 0.985271V2.38411C6.316 3.29108 3.22563 5.97396 3.22563 5.97396C-1.02183 9.58586 0.147415 14.605 0.147415 14.605C0.147415 14.605 0.158059 14.83 0.588354 14.83C1.07719 14.83 1.08251 14.5289 1.08251 14.5289C1.28473 12.8199 2.82042 10.061 5.55348 9.15404ZM20.3105 9.39276C20.3105 9.39276 20.2991 9.16925 19.8711 9.16925C19.38 9.16925 19.3769 9.4703 19.3769 9.4703C19.1732 11.1786 17.639 13.9367 14.9052 14.8452C12.1706 15.7514 9.72643 15.2892 9.72643 15.2892L9.71807 14.5768C9.70667 13.4228 9.39269 13.3209 9.39269 13.3209C8.64841 12.7386 7.9718 13.3612 7.9718 13.3612L3.08726 16.9587C2.96182 17.0507 2.22819 17.5076 2.22515 18.7072C2.22211 19.9046 3.23399 20.4778 3.23399 20.4778L7.95584 23.6929C8.74877 24.2334 9.19503 23.8974 9.19503 23.8974C9.77813 23.5142 9.72567 23.0178 9.72567 23.0178V21.6166C14.1434 20.7112 17.233 18.0253 17.233 18.0253C21.4805 14.4126 20.3105 9.39276 20.3105 9.39276Z" fill="#747474"/>
</svg>
