<svg width="35" height="35" viewBox="0 0 35 35" fill="none" xmlns="http://www.w3.org/2000/svg">
<path d="M21.25 17.1875V15C21.25 14.0054 20.8549 13.0516 20.1517 12.3483C19.4484 11.6451 18.4946 11.25 17.5 11.25C16.5054 11.25 15.5516 11.6451 14.8483 12.3483C14.1451 13.0516 13.75 14.0054 13.75 15V17.1875C13.7514 17.7694 13.8875 18.3431 14.1478 18.8636C14.408 19.3841 14.7853 19.8373 15.25 20.1875L15.5 20.375C15.7324 20.5501 15.921 20.7767 16.0511 21.0369C16.1813 21.2972 16.2493 21.584 16.25 21.875V22.5H18.75V21.875C18.7507 21.584 18.8187 21.2972 18.9489 21.0369C19.079 20.7767 19.2676 20.5501 19.5 20.375L19.7499 20.1875C20.2147 19.8373 20.5919 19.3841 20.8522 18.8636C21.1125 18.3431 21.2486 17.7694 21.25 17.1875ZM19.6491 23.75H15.3509C15.2115 23.7498 15.076 23.7964 14.9661 23.8822C14.8562 23.968 14.7782 24.0881 14.7445 24.2234L14.5505 25H20.4495L20.2555 24.2234C20.2218 24.0881 20.1438 23.968 20.0339 23.8822C19.924 23.7964 19.7885 23.7498 19.6491 23.75ZM26.25 31.875H8.75C7.92149 31.876 7.12719 32.2055 6.54134 32.7913C5.9555 33.3772 5.62595 34.1715 5.625 35H29.375C29.374 34.1715 29.0445 33.3772 28.4587 32.7913C27.8728 32.2055 27.0785 31.876 26.25 31.875ZM34.375 16.25H22.5V17.1875C22.4982 17.9634 22.3166 18.7283 21.9696 19.4223C21.6226 20.1163 21.1196 20.7205 20.5 21.1875L20.2501 21.375C20.1726 21.4334 20.1097 21.5089 20.0663 21.5956C20.0229 21.6824 20.0002 21.778 20 21.875V22.534C20.3516 22.6005 20.6768 22.7664 20.937 23.0121C21.1972 23.2578 21.3815 23.5729 21.468 23.9202L21.7654 25.1096L25.128 25.9503C25.5496 26.0558 25.9446 26.2482 26.2876 26.515C26.6306 26.7819 26.9142 27.1173 27.1202 27.5H34.375C34.5407 27.4998 34.6995 27.4339 34.8167 27.3167C34.9339 27.1995 34.9998 27.0407 35 26.875V16.875C34.9998 16.7093 34.9339 16.5505 34.8167 16.4333C34.6995 16.3161 34.5407 16.2502 34.375 16.25ZM27.5 23.75H23.75V22.5H27.5V23.75ZM27.5 21.25H23.75V20H27.5V21.25ZM27.5 18.75H23.75V17.5H27.5V18.75ZM30.625 26.25H29.375V25H30.625V26.25ZM30.625 23.75H29.375V22.5H30.625V23.75ZM30.625 21.25H29.375V20H30.625V21.25ZM30.625 18.75H29.375V17.5H30.625V18.75ZM33.75 26.25H32.5V25H33.75V26.25ZM33.75 23.75H32.5V22.5H33.75V23.75ZM33.75 21.25H32.5V20H33.75V21.25ZM33.75 18.75H32.5V17.5H33.75V18.75ZM9.87195 25.9503L13.2346 25.1097L13.532 23.9202C13.6185 23.573 13.8028 23.2578 14.063 23.0121C14.3232 22.7664 14.6484 22.6005 15 22.534V21.875C14.9998 21.778 14.9771 21.6824 14.9337 21.5956C14.8903 21.5089 14.8275 21.4334 14.75 21.375L14.5 21.1875C13.8804 20.7205 13.3773 20.1163 13.0303 19.4223C12.6833 18.7283 12.5018 17.9634 12.5 17.1875V16.25H0.625C0.459303 16.2502 0.300452 16.3161 0.183287 16.4333C0.0661212 16.5505 0.000206734 16.7093 0 16.875V26.875C0.000206734 27.0407 0.0661212 27.1995 0.183287 27.3167C0.300452 27.4339 0.459303 27.4998 0.625 27.5H7.87969C8.0857 27.1173 8.3693 26.7818 8.71235 26.515C9.0554 26.2482 9.45035 26.0558 9.87195 25.9503ZM6.25 17.5H11.25V18.75H6.25V17.5ZM6.25 20H11.25V21.25H6.25V20ZM6.25 22.5H11.25V23.75H6.25V22.5ZM4.375 26.25H1.25V25H4.375V26.25ZM4.375 23.75H1.25V22.5H4.375V23.75ZM4.375 21.25H1.25V20H4.375V21.25ZM4.375 18.75H1.25V17.5H4.375V18.75ZM6.25 25H8.125V26.25H6.25V25ZM34.375 0H20C19.8343 0.000206734 19.6755 0.0661212 19.5583 0.183287C19.4411 0.300452 19.3752 0.459303 19.375 0.625V10.3662C20.4061 10.7863 21.2687 11.5368 21.8273 12.5H34.375C34.5407 12.4998 34.6995 12.4339 34.8167 12.3167C34.9339 12.1995 34.9998 12.0407 35 11.875V0.625C34.9998 0.459303 34.9339 0.300452 34.8167 0.183287C34.6995 0.0661212 34.5407 0.000206734 34.375 0ZM20.625 1.25H24.375V2.5H20.625V1.25ZM26.25 11.25H23.75V10H26.25V11.25ZM30 11.25H27.5V10H30V11.25ZM33.75 11.25H31.25V10H33.75V11.25ZM30.625 7.13383L28.75 5.25883L25.625 8.38383L23.75 6.50883L21.067 9.19195L20.183 8.30805L23.75 4.74117L25.625 6.61617L28.75 3.49117L30.625 5.36617L33.308 2.68305L34.192 3.56695L30.625 7.13383ZM10.1752 27.163C9.88053 27.2366 9.60821 27.3807 9.38159 27.5829C9.15498 27.7851 8.98087 28.0392 8.87422 28.3236L7.98563 30.6933C8.23793 30.6482 8.4937 30.6253 8.75 30.625H26.25C26.5063 30.6253 26.7621 30.6482 27.0144 30.6933L26.1258 28.3236C26.0191 28.0392 25.845 27.7851 25.6184 27.5829C25.3918 27.3807 25.1195 27.2366 24.8248 27.163L21.1731 26.25H13.8268L10.1752 27.163ZM0.625 12.5H13.1727C13.7313 11.5368 14.5939 10.7863 15.625 10.3662V0.625C15.6248 0.459303 15.5589 0.300452 15.4417 0.183287C15.3245 0.0661212 15.1657 0.000206734 15 0H0.625C0.459303 0.000206734 0.300452 0.0661212 0.183287 0.183287C0.0661212 0.300452 0.000206734 0.459303 0 0.625V11.875C0.000206734 12.0407 0.0661212 12.1995 0.183287 12.3167C0.300452 12.4339 0.459303 12.4998 0.625 12.5ZM11.25 1.875H14.375V3.125H11.25V1.875ZM11.25 4.375H14.375V5.625H11.25V4.375ZM11.25 6.875H14.375V8.125H11.25V6.875ZM11.25 9.375H13.75V10.625H11.25V9.375ZM6.25 1.875H9.375V3.125H6.25V1.875ZM6.25 4.375H9.375V5.625H6.25V4.375ZM6.25 6.875H9.375V8.125H6.25V6.875ZM6.25 9.375H9.375V10.625H6.25V9.375ZM1.25 1.875H4.375V3.125H1.25V1.875ZM1.25 4.375H4.375V5.625H1.25V4.375ZM1.25 6.875H4.375V8.125H1.25V6.875ZM1.25 9.375H4.375V10.625H1.25V9.375Z" fill="url(#paint0_linear_723_3731)"/>
<defs>
<linearGradient id="paint0_linear_723_3731" x1="32.8544" y1="-1.26646" x2="42.7328" y2="43.4273" gradientUnits="userSpaceOnUse">
<stop stop-color="#4160FF"/>
<stop offset="1" stop-color="#213269"/>
</linearGradient>
</defs>
</svg>
