<svg width="24" height="22" viewBox="0 0 24 22" fill="none" xmlns="http://www.w3.org/2000/svg">
<path d="M23.25 14C23.0511 14 22.8604 13.921 22.7197 13.7804C22.5791 13.6397 22.5 13.4489 22.5 13.25C22.4985 11.8581 21.9448 10.5237 20.9606 9.53947C19.9764 8.55525 18.6419 8.00162 17.2501 8.00003H10.0001V11.25C10.0001 11.91 9.20605 12.244 8.73205 11.792L3.23205 6.54203C3.15872 6.47208 3.10034 6.38798 3.06045 6.29482C3.02057 6.20166 3 6.10137 3 6.00003C3 5.89869 3.02057 5.7984 3.06045 5.70524C3.10034 5.61207 3.15872 5.52797 3.23205 5.45803L8.73205 0.208028C9.20805 -0.245972 10.0001 0.0920283 10.0001 0.750028V4.00003H16.2501C20.5231 4.00003 24 7.47703 24 11.75V13.25C24 13.4489 23.921 13.6397 23.7804 13.7804C23.6397 13.921 23.449 14 23.25 14Z" fill="white"/>
<path d="M14 21.25V18H7.75C3.477 18 0 14.523 0 10.25V8.75003C0 8.55112 0.0790176 8.36035 0.21967 8.2197C0.360322 8.07905 0.551088 8.00003 0.75 8.00003C0.948912 8.00003 1.13968 8.07905 1.28033 8.2197C1.42098 8.36035 1.5 8.55112 1.5 8.75003C1.50159 10.1419 2.05522 11.4764 3.03944 12.4606C4.02367 13.4448 5.3581 13.9984 6.75 14H14V10.75C14.0001 10.6032 14.0432 10.4596 14.1242 10.3371C14.2051 10.2146 14.3202 10.1185 14.4552 10.0608C14.5902 10.0031 14.7392 9.98625 14.8837 10.0124C15.0282 10.0386 15.1618 10.1066 15.268 10.208L20.768 15.458C20.8413 15.528 20.8997 15.6121 20.9396 15.7052C20.9795 15.7984 21 15.8987 21 16C21 16.1014 20.9795 16.2017 20.9396 16.2948C20.8997 16.388 20.8413 16.4721 20.768 16.542L15.268 21.792C14.791 22.246 14 21.908 14 21.25Z" fill="white"/>
</svg>
