<svg width="24" height="24" viewBox="0 0 24 24" fill="none" xmlns="http://www.w3.org/2000/svg">
<path fill-rule="evenodd" clip-rule="evenodd" d="M8.75 11V13C8.75 13.5967 8.98705 14.169 9.40901 14.591C9.83097 15.0129 10.4033 15.25 11 15.25H13C13.5967 15.25 14.169 15.0129 14.591 14.591C15.0129 14.169 15.25 13.5967 15.25 13V11C15.25 10.4033 15.0129 9.83097 14.591 9.40901C14.169 8.98705 13.5967 8.75 13 8.75H11C10.4033 8.75 9.83097 8.98705 9.40901 9.40901C8.98705 9.83097 8.75 10.4033 8.75 11ZM1.25 3.5V5.5C1.25 6.09674 1.48705 6.66903 1.90901 7.09099C2.33097 7.51295 2.90326 7.75 3.5 7.75H5.5C6.09674 7.75 6.66903 7.51295 7.09099 7.09099C7.51295 6.66903 7.75 6.09674 7.75 5.5V3.5C7.75 2.90326 7.51295 2.33097 7.09099 1.90901C6.66903 1.48705 6.09674 1.25 5.5 1.25H3.5C2.90326 1.25 2.33097 1.48705 1.90901 1.90901C1.48705 2.33097 1.25 2.90326 1.25 3.5ZM16.25 18.5V20.5C16.25 21.0967 16.4871 21.669 16.909 22.091C17.331 22.5129 17.9033 22.75 18.5 22.75H20.5C21.0967 22.75 21.669 22.5129 22.091 22.091C22.5129 21.669 22.75 21.0967 22.75 20.5V18.5C22.75 17.9033 22.5129 17.331 22.091 16.909C21.669 16.4871 21.0967 16.25 20.5 16.25H18.5C17.9033 16.25 17.331 16.4871 16.909 16.909C16.4871 17.331 16.25 17.9033 16.25 18.5Z" fill="white"/>
<path fill-rule="evenodd" clip-rule="evenodd" d="M7 5.25H20C20.3314 5.25053 20.649 5.38239 20.8833 5.6167C21.1176 5.85101 21.2495 6.16864 21.25 6.5V10C21.2495 10.3314 21.1176 10.649 20.8833 10.8833C20.649 11.1176 20.3314 11.2495 20 11.25H17C16.8011 11.25 16.6103 11.329 16.4697 11.4697C16.329 11.6103 16.25 11.8011 16.25 12C16.25 12.1989 16.329 12.3897 16.4697 12.5303C16.6103 12.671 16.8011 12.75 17 12.75H20C20.729 12.75 21.429 12.46 21.945 11.945C22.4602 11.4288 22.7497 10.7293 22.75 10V6.5C22.75 5.771 22.46 5.071 21.945 4.555C21.4288 4.0398 20.7293 3.75031 20 3.75H7C6.80109 3.75 6.61032 3.82902 6.46967 3.96967C6.32902 4.11032 6.25 4.30109 6.25 4.5C6.25 4.69891 6.32902 4.88968 6.46967 5.03033C6.61032 5.17098 6.80109 5.25 7 5.25ZM13 18.75H4C3.66864 18.7495 3.35101 18.6176 3.1167 18.3833C2.88239 18.149 2.75053 17.8314 2.75 17.5V14C2.75053 13.6686 2.88239 13.351 3.1167 13.1167C3.35101 12.8824 3.66864 12.7505 4 12.75H9.5C9.69891 12.75 9.88968 12.671 10.0303 12.5303C10.171 12.3897 10.25 12.1989 10.25 12C10.25 11.8011 10.171 11.6103 10.0303 11.4697C9.88968 11.329 9.69891 11.25 9.5 11.25H4C3.271 11.25 2.571 11.54 2.055 12.055C1.5398 12.5712 1.25031 13.2707 1.25 14V17.5C1.25 18.229 1.54 18.929 2.055 19.445C2.57122 19.9602 3.27067 20.2497 4 20.25H13C13.1989 20.25 13.3897 20.171 13.5303 20.0303C13.671 19.8897 13.75 19.6989 13.75 19.5C13.75 19.3011 13.671 19.1103 13.5303 18.9697C13.3897 18.829 13.1989 18.75 13 18.75Z" fill="white"/>
<path fill-rule="evenodd" clip-rule="evenodd" d="M19.53 13.47L18.061 12L19.53 10.53C19.5996 10.4604 19.6548 10.3778 19.6925 10.2869C19.7302 10.1959 19.7496 10.0985 19.7496 10C19.7496 9.90159 19.7302 9.80413 19.6925 9.71319C19.6548 9.62225 19.5996 9.53962 19.53 9.47002C19.4604 9.40042 19.3778 9.34521 19.2869 9.30754C19.1959 9.26988 19.0985 9.25049 19 9.25049C18.9016 9.25049 18.8041 9.26988 18.7132 9.30754C18.6222 9.34521 18.5396 9.40042 18.47 9.47002L16.47 11.47C16.4004 11.5396 16.3451 11.6222 16.3074 11.7131C16.2697 11.8041 16.2503 11.9016 16.2503 12C16.2503 12.0985 16.2697 12.196 16.3074 12.2869C16.3451 12.3778 16.4004 12.4605 16.47 12.53L18.47 14.53C18.5396 14.5996 18.6222 14.6548 18.7132 14.6925C18.8041 14.7302 18.9016 14.7496 19 14.7496C19.0985 14.7496 19.1959 14.7302 19.2869 14.6925C19.3778 14.6548 19.4604 14.5996 19.53 14.53C19.5996 14.4604 19.6548 14.3778 19.6925 14.2869C19.7302 14.1959 19.7496 14.0985 19.7496 14C19.7496 13.9016 19.7302 13.8041 19.6925 13.7132C19.6548 13.6223 19.5996 13.5396 19.53 13.47ZM12.53 22.03L14.53 20.03C14.5997 19.9605 14.655 19.8778 14.6927 19.7869C14.7304 19.696 14.7498 19.5985 14.7498 19.5C14.7498 19.4016 14.7304 19.3041 14.6927 19.2131C14.655 19.1222 14.5997 19.0396 14.53 18.97L12.53 16.97C12.3895 16.8295 12.1988 16.7505 12 16.7505C11.8012 16.7505 11.6106 16.8295 11.47 16.97C11.3295 17.1106 11.2505 17.3012 11.2505 17.5C11.2505 17.6988 11.3295 17.8895 11.47 18.03L12.939 19.5L11.47 20.97C11.4004 21.0396 11.3452 21.1222 11.3075 21.2132C11.2699 21.3041 11.2505 21.4016 11.2505 21.5C11.2505 21.5985 11.2699 21.6959 11.3075 21.7869C11.3452 21.8778 11.4004 21.9604 11.47 22.03C11.5396 22.0996 11.6223 22.1548 11.7132 22.1925C11.8041 22.2302 11.9016 22.2496 12 22.2496C12.0985 22.2496 12.1959 22.2302 12.2869 22.1925C12.3778 22.1548 12.4604 22.0996 12.53 22.03Z" fill="white"/>
</svg>
